<svg width="153" height="123" viewBox="0 0 153 123" fill="none" xmlns="http://www.w3.org/2000/svg">
<path d="M114.504 50.3705C115.166 50.6965 115.89 50.8743 116.628 50.8917C116.669 50.887 116.709 50.8741 116.745 50.8537C116.782 50.8334 116.814 50.806 116.839 50.7732C116.865 50.7404 116.884 50.7028 116.895 50.6626C116.906 50.6224 116.909 50.5805 116.904 50.5391C116.842 50.0562 116.298 50.4701 114.788 49.7726L114.865 49.2054C114.903 49.0444 114.711 48.7838 114.504 48.8604C114.297 48.9371 114.244 49.1824 114.182 49.627C114.121 50.0715 114.09 50.1635 114.504 50.3705ZM34.4939 52.5474C35.4163 52.2966 36.2825 51.8726 37.0464 51.298C37.3454 51.068 37.2457 50.5315 37.1614 50.2249C37.1374 50.1453 37.0849 50.0774 37.0139 50.0342C36.9429 49.991 36.8585 49.9755 36.7768 49.9907C36.6952 50.0059 36.622 50.0507 36.5713 50.1166C36.5206 50.1824 36.496 50.2646 36.5022 50.3475C36.5168 50.5136 36.5476 50.678 36.5942 50.8381C34.7775 52.1642 34.0723 51.8346 34.1796 52.3711C34.2035 52.4324 34.2478 52.4835 34.3052 52.5156C34.3625 52.5478 34.4292 52.559 34.4939 52.5474ZM32.4089 51.1294C33.942 51.1294 33.4207 50.2249 33.0068 50.3628L32.4166 50.4548C31.9107 48.0556 32.3169 47.5497 31.88 47.5343C31.8141 47.5301 31.7492 47.5517 31.6991 47.5947C31.6489 47.6377 31.6176 47.6985 31.6117 47.7643C31.5576 48.7121 31.6272 49.6629 31.8187 50.5928C31.903 51.0067 32.0563 51.1294 32.4089 51.1294ZM76.9214 49.8109C77.3583 49.8109 79.6579 49.3127 80.0488 49.2514C80.6237 49.1517 81.3059 48.9754 81.3519 48.3545C81.3519 47.9713 81.076 47.5267 80.7617 47.7566C80.6963 47.8025 80.648 47.8688 80.6244 47.9451C80.6008 48.0215 80.6033 48.1034 80.6314 48.1782C80.7463 48.4772 80.5011 48.4542 76.7987 49.259C76.7307 49.2801 76.673 49.326 76.6372 49.3876C76.6014 49.4492 76.5902 49.522 76.6056 49.5915C76.6211 49.6611 76.6621 49.7222 76.7206 49.7629C76.7791 49.8035 76.8508 49.8207 76.9214 49.8109ZM26.5066 31.0463C26.6753 31.2379 27.0892 31.0463 26.9666 30.755C26.2 28.8846 24.7896 26.7997 23.9004 24.7454C23.7625 24.4158 23.4865 23.8562 23.2182 23.8255C23.1846 23.8208 23.1504 23.8255 23.1193 23.839C23.0882 23.8525 23.0614 23.8744 23.0419 23.9022C22.8733 24.1322 23.1186 24.7684 23.2336 25.0367C23.5862 25.7955 25.2955 29.6588 26.5066 31.0463ZM51.3576 27.8115C51.3719 27.8713 51.4017 27.9264 51.4439 27.9712C51.4862 28.0159 51.5394 28.0489 51.5983 28.0667C51.6572 28.0845 51.7197 28.0866 51.7797 28.0728C51.8397 28.0589 51.895 28.0296 51.9401 27.9878C52.573 27.4115 53.1481 26.7749 53.6572 26.0868C55.9567 33.4455 55.9567 33.7061 56.317 33.7061C56.3687 33.7047 56.4194 33.6921 56.4658 33.6694C56.5121 33.6466 56.5531 33.6141 56.5858 33.5741C56.6185 33.5341 56.6423 33.4876 56.6554 33.4376C56.6685 33.3876 56.6708 33.3354 56.662 33.2845C55.8034 30.571 54.8989 27.9188 54.1171 25.213C54.0995 25.1457 54.0625 25.0851 54.0107 25.0389C53.9589 24.9926 53.8945 24.9626 53.8257 24.9528C53.7569 24.943 53.6868 24.9537 53.624 24.9836C53.5613 25.0135 53.5088 25.0613 53.4732 25.121C53.033 25.8133 52.519 26.4559 51.9401 27.0373C51.4802 24.937 50.4071 20.1385 50.4071 20.1385C50.3878 20.0613 50.3385 19.9949 50.2703 19.9539C50.202 19.9129 50.1202 19.9008 50.043 19.9201C49.9657 19.9394 49.8993 19.9886 49.8583 20.0569C49.8174 20.1252 49.8052 20.2069 49.8245 20.2842C50.0851 21.4723 51.1966 27.2826 51.3576 27.8115ZM11.429 67.6864C8.96076 66.506 6.76081 65.2949 4.23126 63.9611C3.74068 63.7005 3.40341 64.5973 4.16994 64.8043C6.37844 66.1828 8.73338 67.3114 11.1914 68.1693C11.498 68.2537 11.7126 67.8551 11.429 67.6864ZM13.3913 49.9872C13.444 50.0339 13.5097 50.0632 13.5796 50.0715C13.6494 50.0797 13.7202 50.0663 13.7822 50.0332C14.2881 49.7879 13.6366 49.1824 13.8819 45.5414C20.0984 53.0457 19.7535 52.8541 20.0141 52.8541C20.0681 52.8574 20.1219 52.8453 20.1692 52.8191C20.2165 52.7929 20.2553 52.7537 20.2811 52.7062C20.3069 52.6587 20.3185 52.6048 20.3147 52.5508C20.3109 52.4969 20.2917 52.4452 20.2594 52.4018C19.2859 51.1754 15.024 45.8786 13.8895 44.4375C13.8469 44.3835 13.7896 44.3428 13.7245 44.3203C13.6595 44.2978 13.5893 44.2944 13.5224 44.3105C13.4554 44.3266 13.3945 44.3616 13.3468 44.4113C13.2991 44.461 13.2667 44.5233 13.2533 44.5909C13.0975 45.9908 13.0718 47.4021 13.1767 48.8068C10.8771 46.7448 8.67714 44.5602 6.35455 42.5519C6.28424 42.4955 6.19628 42.4656 6.10615 42.4676C6.01602 42.4696 5.92948 42.5033 5.86174 42.5628C5.79401 42.6223 5.74941 42.7038 5.7358 42.7929C5.72219 42.8821 5.74043 42.9731 5.78732 43.0501C6.69183 44.4529 11.7969 48.5385 13.3913 49.9872ZM73.8552 21.5566C73.8552 21.6318 73.8851 21.704 73.9383 21.7572C73.9915 21.8103 74.0636 21.8402 74.1389 21.8402C74.2141 21.8402 74.2862 21.8103 74.3394 21.7572C74.3926 21.704 74.4225 21.6318 74.4225 21.5566C74.5539 18.7411 74.4359 15.9195 74.0699 13.1248C74.062 13.051 74.0329 12.9812 73.9861 12.9236C73.9393 12.8661 73.8768 12.8234 73.8062 12.8007C73.7356 12.778 73.6599 12.7762 73.5884 12.7956C73.5168 12.8151 73.4524 12.8548 73.403 12.9101C73.058 13.3547 73.8859 14.7575 73.8552 21.5566ZM94.5976 34.8712C100.431 25.029 100.117 25.5196 100.071 25.3433C99.9403 24.8987 99.5723 25.1133 96.6212 26.0025C97.3877 23.2813 98.3459 20.3762 98.9821 17.6243C98.9953 17.5353 98.9748 17.4446 98.9245 17.37C98.8742 17.2954 98.7978 17.2423 98.7104 17.2212C98.623 17.2001 98.5308 17.2124 98.452 17.2558C98.3732 17.2992 98.3135 17.3705 98.2846 17.4557C97.4184 20.5218 96.5599 23.5189 95.732 26.4624C95.7186 26.5233 95.7209 26.5865 95.7387 26.6462C95.7564 26.7059 95.789 26.7602 95.8335 26.8038C95.8779 26.8475 95.9327 26.8792 95.9927 26.8959C96.0527 26.9126 96.116 26.9138 96.1766 26.8993C96.1766 26.8993 98.2079 26.2708 99.0281 26.0025L94.13 34.6106C94.101 34.6721 94.0965 34.7423 94.1173 34.807C94.1381 34.8717 94.1827 34.9261 94.2421 34.9592C94.3015 34.9923 94.3712 35.0016 94.4372 34.9853C94.5031 34.969 94.5605 34.9282 94.5976 34.8712ZM149.404 57.3536C149.006 57.162 141.632 61.7458 141.555 61.7995C141.287 61.9911 141.555 62.4664 141.831 62.3207C142.276 62.1214 149.32 58.2044 149.558 57.7828C149.576 57.7446 149.586 57.7032 149.589 57.6609C149.591 57.6186 149.584 57.5763 149.57 57.5364C149.556 57.4965 149.534 57.4599 149.506 57.4285C149.477 57.3971 149.443 57.3717 149.404 57.3536ZM129.889 48.5921C129.889 48.5921 137.278 42.9581 138.658 41.885C138.957 41.6474 138.658 41.1185 138.305 41.1568C136.914 41.19 135.529 41.3464 134.166 41.6244C136.144 39.5136 137.897 37.2014 139.394 34.7256C139.647 34.3117 139.033 33.8824 138.788 34.304C137.099 37.0588 135.09 39.6036 132.801 41.885C132.556 42.1226 132.709 42.7052 133.108 42.6515C134.461 42.307 135.841 42.0763 137.232 41.9617C137.232 41.9617 131.376 46.6758 129.567 48.1706C129.536 48.2194 129.521 48.2764 129.524 48.3339C129.527 48.3914 129.547 48.4468 129.582 48.4925C129.617 48.5383 129.665 48.5723 129.72 48.5901C129.775 48.6079 129.833 48.6086 129.889 48.5921ZM119.318 26.4011C124.025 18.2912 124.845 17.1107 124.055 16.9114C123.718 16.8271 123.733 16.8578 118.789 26.1098C118.766 26.178 118.768 26.2522 118.794 26.3194C118.82 26.3865 118.869 26.4424 118.932 26.4771C118.995 26.5119 119.068 26.5233 119.139 26.5094C119.209 26.4955 119.273 26.4572 119.318 26.4011Z" fill="black"/>
<path d="M141.042 76.4326C137.914 66.5673 130.011 58.9787 119.341 55.6212C119.334 55.4259 119.313 55.2313 119.28 55.0387C122.193 53.7662 122.844 49.3894 122.2 45.5797C122.76 44.6675 124.247 39.9764 123.151 40.6202L121.15 41.8007C120.866 41.0342 120.537 40.3213 120.184 39.6161C120.261 38.3896 119.142 36.1974 117.172 34.7639C115.363 33.4455 112.251 32.2651 107.713 34.1507C104.171 35.6225 100.178 38.8726 99.5723 43.5944C98.8057 49.7266 100.837 52.7008 97.0427 58.3961C92.8501 56.4977 88.3811 55.2815 83.8047 54.7934C83.8049 54.4499 83.7819 54.1067 83.7357 53.7662C85.6904 52.7774 86.1043 49.558 86.1886 48.5078C88.4882 46.5149 88.7565 42.5442 86.9552 42.4523C87.4181 39.6077 87.5953 36.724 87.4841 33.8441C87.3844 32.0581 86.6179 31.6595 86.2653 31.5828C86.0165 31.5358 85.7594 31.5597 85.5235 31.6519C85.2877 31.7441 85.0825 31.9008 84.9315 32.1041C84.3566 30.9313 83.2528 31.0769 82.6319 31.9661C82.571 31.6505 82.4123 31.3621 82.1785 31.1416C81.9446 30.921 81.6474 30.7796 81.3288 30.7372C81.0102 30.6949 80.6863 30.7537 80.4029 30.9054C80.1196 31.0572 79.8911 31.2942 79.7498 31.5828C79.6012 31.2664 79.3618 31.0013 79.0622 30.8212C78.7626 30.6411 78.4161 30.5541 78.0669 30.5714C77.7178 30.5886 77.3816 30.7093 77.1012 30.9181C76.8207 31.1268 76.6087 31.4143 76.492 31.7438C75.7255 30.0804 73.7708 30.4637 73.3339 32.1501C72.759 30.8546 71.1876 30.8623 70.6434 32.3647C69.21 31.3069 68.0832 32.3647 67.8532 34.1047C67.714 37.0635 67.8371 40.0288 68.2212 42.9658C65.6226 42.3833 67.6463 48.4695 69.1946 48.6152C69.4629 50.9148 70.4134 53.4443 72.2608 54.0575C72.2608 54.3641 72.2148 54.6784 72.2148 54.985C67.2586 55.7765 62.489 57.4677 58.1413 59.9751C55.7497 58.2888 50.43 55.9968 45.3172 56.4184C44.3908 54.4612 43.6938 52.4035 43.2399 50.2862C42.9026 48.4389 43.7688 47.7107 43.7612 46.1163C44.7536 44.1162 45.0009 41.828 44.4587 39.6621C42.0441 31.9968 27.4571 34.9096 27.871 43.3261C27.9246 44.2843 28.009 45.2424 28.0933 45.986C26.2919 46.5302 26.5602 46.6605 27.0585 48.8528C27.3267 50.0486 27.6334 51.0374 28.8905 50.7768C29.4654 53.268 30.9141 57.2463 34.3328 57.2463C34.5398 57.2463 34.3328 57.116 34.5245 58.4038C25.947 62.1368 15.1772 69.1352 12.3871 81.3997C11.7125 84.3585 11.3063 88.5591 13.2379 91.7325C15.3612 95.2662 19.1172 95.4885 21.8154 95.3122C21.1838 98.7824 20.9804 102.317 21.2098 105.837C21.2112 105.886 21.2261 105.934 21.2529 105.975C21.2796 106.016 21.3172 106.049 21.3615 106.071C21.4058 106.092 21.4551 106.101 21.5041 106.096C21.553 106.091 21.5997 106.073 21.6391 106.044C22.053 105.798 21.2405 105.538 22.5359 95.2585C29.7566 94.5917 36.6401 91.4872 43.0023 88.2218C44.0524 88.9883 45.0949 89.7549 46.1757 90.4447C47.0643 92.2415 48.426 93.7619 50.1143 94.8424C51.8026 95.923 53.7536 96.5226 55.7574 96.577C55.5658 99.8038 55.5658 103.039 55.7574 106.266C55.7602 106.305 55.7709 106.343 55.7888 106.378C55.8067 106.413 55.8313 106.443 55.8614 106.468C55.8914 106.493 55.9262 106.512 55.9637 106.523C56.0011 106.535 56.0404 106.538 56.0793 106.534C56.7385 106.473 55.8877 106.143 56.4089 96.5693C62.7864 96.5693 68.0219 92.4071 73.2726 89.226C79.4508 92.0545 94.5975 97.3205 102.608 95.8028C102.976 99.0682 102.922 102.165 103.236 105.323C103.246 105.38 103.276 105.431 103.32 105.468C103.364 105.505 103.42 105.525 103.478 105.525C103.535 105.525 103.591 105.505 103.635 105.468C103.679 105.431 103.709 105.38 103.719 105.323C103.92 102.096 103.789 98.8572 103.328 95.6571C108.886 94.3387 112.297 90.4217 113.201 84.3355C113.569 84.0902 113.968 83.8142 114.382 83.5C119.126 85.3933 128.946 90.0001 133.744 90.1688C133.522 93.7332 133.208 97.4968 133.154 101.191C133.165 101.254 133.197 101.311 133.245 101.351C133.294 101.392 133.355 101.415 133.418 101.415C133.482 101.415 133.543 101.392 133.591 101.351C133.64 101.311 133.672 101.254 133.683 101.191C133.79 100.172 134.488 91.4719 134.449 90.1458C142.13 89.9695 143.341 83.6839 141.042 76.4326ZM86.3419 43.671C86.5489 43.3951 86.6639 43.0731 86.9628 43.1651C88.036 43.4794 87.1775 46.1469 86.2806 47.3351C86.3573 46.1163 86.3803 44.8822 86.3419 43.671ZM68.0448 43.671C68.2901 43.671 68.2595 43.7784 68.8114 43.8857L69.118 47.6723C67.9835 46.6222 67.1633 43.6864 68.0448 43.6864V43.671ZM121.303 42.9045C121.336 42.7968 121.41 42.7063 121.509 42.6532C121.608 42.6 121.725 42.5884 121.832 42.6209C121.94 42.6534 122.03 42.7274 122.084 42.8266C122.137 42.9258 122.148 43.0421 122.116 43.1498C121.848 44.1003 121.641 44.7902 121.464 45.4494C121.419 45.5314 121.355 45.6018 121.278 45.655C121.201 45.7082 121.113 45.7428 121.02 45.756C120.345 45.779 121.066 43.5944 121.303 42.8892V42.9045ZM108.403 45.9706C108.84 45.641 109.369 46.0626 109.453 46.0703C110.173 46.5302 110.986 45.8633 110.779 45.6717L110.626 45.549C110.058 45.1044 108.893 44.1846 109.139 43.5561C109.323 43.0808 110.074 43.1498 110.564 43.1268C110.582 43.1263 110.599 43.1218 110.614 43.1137C110.63 43.1056 110.643 43.0941 110.653 43.0801C110.664 43.0661 110.671 43.0499 110.674 43.0327C110.677 43.0156 110.676 42.998 110.672 42.9812C110.595 42.7359 110.503 42.4906 110.411 42.2146C113.308 40.7779 116.484 39.993 119.717 39.915C120.046 40.6816 120.33 41.4098 120.583 42.1303C119.625 42.6745 118.536 43.2724 118.283 44.3609C118.056 44.3326 117.824 44.3558 117.607 44.4288C117.389 44.5017 117.191 44.6226 117.026 44.7825C115.823 43.3338 110.84 43.4564 109.836 43.4947C108.541 43.5484 111.959 46.1623 112.902 46.8981C116.068 49.3587 118.138 47.6647 117.348 45.4187C117.459 45.283 117.604 45.1799 117.769 45.1205C117.934 45.0611 118.111 45.0476 118.283 45.0815C118.312 45.2271 118.358 45.3687 118.421 45.503C118.383 45.4841 118.341 45.4743 118.299 45.4743C118.256 45.4743 118.214 45.4841 118.176 45.503C117.862 45.7023 118.176 45.9706 118.896 47.2507C118.808 47.3411 118.713 47.4256 118.613 47.5037C118.322 47.7183 118.575 48.6535 119.548 47.5037C119.694 47.3274 119.418 46.8138 119.111 46.3616C119.481 46.6138 119.925 46.7356 120.372 46.7078C120.818 46.6801 121.243 46.5043 121.579 46.2083C121.914 48.2662 121.725 50.3754 121.027 52.3405C120.261 54.2185 118.337 54.3258 118.728 55.0387C118.829 57.5659 118.623 60.0961 118.115 62.5737C116.145 62.1444 112.266 57.3383 110.718 55.1077C110.878 53.2438 110.638 51.3672 110.012 49.604C109.499 48.7148 108.479 48.3085 108.211 47.3044C108.106 47.0805 108.069 46.831 108.103 46.5862C108.137 46.3413 108.241 46.1116 108.403 45.9246V45.9706ZM120.023 44.6905C119.939 44.9435 119.885 45.2961 119.609 45.2961C119.333 45.2961 119.195 44.9741 119.226 44.6982C119.257 44.4222 119.333 43.786 119.625 43.6174C119.681 43.5897 119.742 43.5753 119.805 43.5753C119.867 43.5753 119.929 43.5897 119.985 43.6174C120.345 43.717 120.154 44.2536 120.023 44.6445V44.6905ZM115.892 46.4535C115.807 46.6605 115.723 47.0361 115.478 47.1511C115.435 47.1721 115.388 47.183 115.34 47.183C115.292 47.183 115.245 47.1721 115.202 47.1511C114.742 46.9825 115.248 45.2731 115.662 44.9435C115.698 44.9067 115.743 44.8796 115.792 44.8647C115.841 44.8499 115.894 44.8477 115.944 44.8584C115.995 44.8691 116.041 44.8923 116.081 44.9259C116.12 44.9596 116.15 45.0025 116.168 45.0508C116.329 45.4034 115.938 46.2926 115.892 46.4076V46.4535ZM114.213 45.71C114.113 45.9093 114.067 46.0933 113.807 46.0933C113.745 46.0975 113.684 46.0867 113.628 46.0617C113.572 46.0366 113.523 45.9982 113.485 45.9498C113.447 45.9014 113.422 45.8444 113.411 45.7839C113.4 45.7234 113.405 45.6612 113.423 45.6027C113.508 45.3497 113.6 44.7748 113.906 44.6215C113.955 44.5991 114.008 44.5869 114.061 44.5856C114.115 44.5843 114.168 44.594 114.217 44.6142C114.267 44.6343 114.312 44.6644 114.349 44.7026C114.387 44.7407 114.416 44.7862 114.435 44.8362C114.543 45.0891 114.366 45.4341 114.213 45.71ZM110.38 55.5369C112.557 59.2929 118.291 64.7353 118.736 62.911C119.237 60.7453 119.469 58.526 119.425 56.3035C129.927 60.0135 137.056 66.8126 140.16 75.988C137.913 74.9155 135.444 74.3901 132.955 74.4549C132.847 71.933 129.39 67.0579 128.064 65.5938C127.796 65.2949 127.298 65.6781 127.589 65.9771C129.577 68.2285 131.099 70.8522 132.065 73.696C128.309 70.8675 120.744 66.9199 110.373 70.17C107.682 65.5774 103.753 61.8346 99.0357 59.3696C102.43 57.1495 106.335 55.8305 110.38 55.5369ZM70.4058 38.244C75.0153 36.9858 79.8587 36.8466 84.5329 37.8377C84.4543 39.1367 84.4953 40.4402 84.6556 41.7317H84.5176C83.8814 38.8036 79.8034 37.8991 78.4313 40.9652C77.7304 40.7275 76.9707 40.7275 76.2697 40.9652C74.9436 38.2057 71.1033 39.0948 70.3981 41.8237H70.2525C70.4136 40.6377 70.4649 39.4394 70.4058 38.244ZM80.8306 44.5525C80.9686 44.1616 82.2103 41.2641 83.0152 41.1798C83.0822 41.179 83.1484 41.1941 83.2084 41.2239C83.2683 41.2538 83.3203 41.2975 83.36 41.3514C83.3997 41.4054 83.426 41.468 83.4367 41.5342C83.4474 41.6003 83.4422 41.668 83.4215 41.7317C82.7372 42.7065 82.1273 43.7314 81.5971 44.7978C81.4055 45.2731 80.6543 45.0891 80.8306 44.5525ZM79.7191 43.4794C79.6271 43.7094 79.2132 43.8473 79.0676 43.5791C78.9219 43.3108 79.2745 42.2913 80.271 40.7965C80.524 40.4209 80.7616 40.237 80.9686 40.2676C81.0359 40.2869 81.0975 40.3223 81.148 40.3708C81.1986 40.4194 81.2364 40.4795 81.2584 40.546C81.2803 40.6126 81.2856 40.6834 81.2738 40.7525C81.2621 40.8216 81.2336 40.8867 81.1908 40.9422C80.6075 41.7306 80.1139 42.5816 79.7191 43.4794ZM73.0503 44.7518C73.3799 44.0313 73.7478 43.3031 74.1004 42.5902C74.1381 42.5215 74.1935 42.4641 74.261 42.4241C74.3284 42.3842 74.4053 42.3631 74.4837 42.3631C74.5621 42.3631 74.639 42.3842 74.7065 42.4241C74.7739 42.4641 74.8293 42.5215 74.867 42.5902C74.9151 42.663 74.9408 42.7483 74.9408 42.8355C74.9408 42.9227 74.9151 43.0081 74.867 43.0808C74.5297 43.7477 74.1848 44.4452 73.8168 45.1198C73.5255 45.503 72.8203 45.2118 73.0503 44.7518ZM72.1228 43.786L72.0768 43.8397C71.8392 44.1846 71.2413 43.9623 71.4023 43.5254C71.8448 42.3477 72.41 41.2198 73.0886 40.1603C73.4182 39.7617 74.0851 40.1067 73.8552 40.5743C73.3109 41.6627 72.644 42.6822 72.1228 43.786ZM69.3863 43.855C69.8769 43.648 70.0148 43.0885 70.1528 42.6056L70.3138 42.5596C70.2736 43.0914 70.3389 43.6258 70.506 44.1323C70.6731 44.6388 70.9386 45.1072 71.2873 45.5107C71.7007 45.9167 72.2188 46.1999 72.7838 46.3286C73.3487 46.4574 73.9384 46.4266 74.4869 46.2398C75.0354 46.053 75.5212 45.7175 75.8902 45.2706C76.2591 44.8238 76.4967 44.2833 76.5763 43.7094C76.4971 44.4476 76.4638 45.19 76.4767 45.9323C76.4767 46.3922 76.3694 46.9671 76.9366 47.0054H77.7031C78.1017 47.0054 78.209 46.3156 77.7491 46.3079H77.1819C77.1372 44.9422 77.2116 43.5751 77.4042 42.2223C77.4578 41.8467 76.9136 41.793 76.837 42.1456C76.4997 43.7937 76.837 42.8508 76.538 41.6321C77.0732 41.4402 77.6585 41.4402 78.1937 41.6321C78.0249 42.2466 77.9917 42.8905 78.0962 43.5191C78.2008 44.1478 78.4407 44.7463 78.7993 45.2731C79.0724 45.6269 79.4185 45.918 79.8139 46.1265C80.2094 46.3349 80.645 46.456 81.0913 46.4814C81.5376 46.5069 81.9842 46.4361 82.4007 46.2739C82.8173 46.1117 83.1942 45.8619 83.5058 45.5414C84.2588 44.701 84.6596 43.6031 84.6249 42.4752H84.7705C84.8625 43.1421 85.0005 44.062 85.7057 44.0083C85.6291 46.6298 85.859 51.1217 83.7817 52.7621C83.5134 52.9767 83.2068 53.222 83.1685 53.4673C83.0726 54.2796 83.0726 55.1003 83.1685 55.9125C83.3908 58.0358 79.6731 62.2364 77.7491 64.0301C74.0391 58.9863 72.9736 58.4881 72.9813 54.0652C72.9813 53.6206 72.9277 53.5516 72.621 53.3983C69.5166 51.8959 69.8002 47.565 69.3863 43.855ZM72.2531 55.6596C72.3374 58.0128 74.1848 61.1939 77.4425 64.6203C78.1017 65.4788 83.9274 58.3271 83.8124 56.7787V55.4833C99.5033 57.3306 110.748 66.3603 112.542 78.5328C106.026 77.2527 97.7939 78.7551 96.3988 79.0234C95.8005 75.2112 94.6731 71.5012 93.0491 68.0007C93.0216 67.9326 92.9683 67.8782 92.9007 67.8494C92.8331 67.8207 92.7569 67.82 92.6888 67.8474C92.6207 67.8749 92.5663 67.9282 92.5375 67.9958C92.5088 68.0634 92.5081 68.1396 92.5355 68.2077C93.9449 71.6626 94.9731 75.2611 95.6016 78.9391C91.5697 74.6925 85.4374 72.8069 76.8906 73.1901C71.7462 73.4286 66.6361 74.155 61.629 75.3594C62.0295 73.0219 62.9836 70.8141 64.4115 68.9206C64.4428 68.8635 64.4523 68.7969 64.4381 68.7334C64.424 68.6698 64.3873 68.6136 64.3347 68.5751C64.2822 68.5367 64.2175 68.5186 64.1526 68.5243C64.0878 68.5301 64.0272 68.5592 63.9822 68.6063C62.3716 70.5964 61.314 72.9759 60.9161 75.5051C55.3586 76.8382 49.9615 78.7683 44.819 81.2617C45.5242 66.2454 59.4061 58.1968 72.2531 55.6596ZM39.0087 41.4634C39.0008 42.1912 39.0444 42.9187 39.139 43.6404C36.3795 43.7094 31.9949 44.7825 28.7295 45.7943C28.6452 45.1198 28.4535 43.8933 28.4459 43.1651C31.7315 41.5992 35.3974 41.0086 39.0087 41.4634ZM36.5711 45.5797C35.038 48.1859 35.3677 48.6458 34.8541 48.6458C34.7964 48.6493 34.7388 48.6389 34.686 48.6155C34.6333 48.5921 34.5869 48.5564 34.5508 48.5113C34.5148 48.4662 34.4901 48.4131 34.4788 48.3565C34.4676 48.2999 34.4701 48.2414 34.4861 48.1859C35.1837 45.549 35.8506 45.0585 36.1878 44.9971C36.2614 44.9822 36.3377 44.9896 36.407 45.0184C36.4763 45.0472 36.5353 45.0961 36.5766 45.1587C36.6178 45.2214 36.6393 45.295 36.6384 45.3701C36.6374 45.4451 36.614 45.5181 36.5711 45.5797ZM34.2025 46.1546C33.9189 46.6222 33.8499 47.2737 33.436 47.1741C33.0221 47.0744 33.321 46.1393 33.5663 45.641C33.8116 45.1428 34.0262 45.1351 34.1719 45.1734C34.2539 45.1958 34.3269 45.2433 34.3806 45.3093C34.4342 45.3753 34.4658 45.4565 34.4708 45.5414C34.4408 45.7669 34.3478 45.9794 34.2025 46.1546ZM28.4995 47.6877C28.4152 47.887 28.4076 48.5002 27.9936 48.5002C27.9131 48.5033 27.8338 48.4793 27.7685 48.4321C27.7032 48.3848 27.6556 48.317 27.6334 48.2396C27.5928 47.7033 27.7633 47.1724 28.1086 46.7602C28.1798 46.6965 28.2693 46.657 28.3643 46.6474C28.4594 46.6378 28.555 46.6585 28.6375 46.7065C28.8215 46.8291 28.7832 47.1511 28.4995 47.6647V47.6877ZM28.7832 49.4737C29.4807 46.9671 29.8793 46.5992 30.1169 46.5455C30.1658 46.5343 30.2168 46.5369 30.2642 46.5532C30.3116 46.5694 30.3535 46.5986 30.3852 46.6375C30.4894 46.7583 30.5417 46.9153 30.5308 47.0744L29.519 49.6883C29.4875 49.7859 29.4185 49.867 29.3272 49.9137C29.236 49.9604 29.1299 49.9689 29.0323 49.9374C28.9347 49.9059 28.8536 49.8369 28.8069 49.7456C28.7602 49.6544 28.7516 49.5483 28.7832 49.4507V49.4737ZM29.5497 50.6311C31.0214 50.2019 31.4967 50.3245 31.3357 48.0863C31.282 47.45 31.1594 46.0013 31.8033 46.0243C32.3245 46.0243 32.3399 48.4465 33.1141 49.1977C33.8882 49.9489 34.8924 49.42 35.7356 49.1977C38.0352 48.5692 37.5293 47.588 37.3606 44.5449L39.2923 44.3916C40.1585 48.8834 41.3236 45.5184 42.1055 45.0125C42.6037 44.6982 43.033 45.3881 43.1249 45.917C43.3012 47.0514 42.3584 48.2932 42.5577 49.9566C43.0094 52.3641 43.7829 54.7 44.8573 56.9014C43.1786 60.0901 38.3571 63.0336 36.2108 64.1987C35.3063 60.918 35.2297 56.6101 34.6778 56.6254C32.1329 56.6407 30.4619 54.7167 29.519 50.6081L29.5497 50.6311ZM34.5935 59.1396C34.7314 60.2971 35.2987 65.2719 36.1265 64.8579C38.2115 63.8768 44.5584 59.7069 45.4629 57.024C46.8043 57.3306 50.9895 56.5181 57.4897 60.4351C52.693 63.3002 48.844 67.5117 46.421 72.5462C40.2198 71.7797 32.5468 70.8216 26.1003 74.2249C28.0703 69.5798 29.2507 69.1199 28.6912 68.7519C28.6622 68.7321 28.6295 68.7183 28.5951 68.7115C28.5607 68.7046 28.5252 68.7047 28.4909 68.7119C28.4565 68.719 28.424 68.7331 28.3951 68.7531C28.3663 68.7732 28.3419 68.7988 28.3232 68.8286C28.1239 69.1275 25.3261 73.7497 25.2571 74.6925C24.1763 75.3517 21.869 77.0381 21.1792 78.3642C18.3612 78.4192 15.6151 79.2637 13.2532 80.8018C15.5835 71.7797 22.9499 64.2907 34.5628 59.1166L34.5935 59.1396ZM14.7173 92.614C11.7892 89.5479 12.4177 84.4198 13.0233 81.6066C20.5046 76.6932 30.3929 78.7935 42.4274 87.8615C38.3801 89.5939 20.6963 98.8153 14.7173 92.614ZM21.9534 78.3489C28.0396 71.6111 36.8394 72.0403 46.1067 73.1825C43.7305 78.6632 43.5235 84.4505 45.5089 89.1723C38.6101 84.0059 30.4619 78.3259 21.9534 78.3259V78.3489ZM56.3553 95.9791C48.8049 95.9791 44.75 89.3486 44.8573 81.9899C55.5887 77.1684 64.9634 74.7002 75.2349 73.9873C84.6172 73.3358 90.9335 75.0451 95.0727 79.353C74.8516 83.8832 66.5041 95.9561 56.3553 95.9561V95.9791ZM102.715 95.1359C95.2107 96.8299 82.7852 92.3994 73.9548 88.8657C88.0283 80.5565 100.691 77.4214 112.642 79.284C113.584 87.8462 110.058 93.4725 102.715 95.1359ZM113.347 83.5306C113.745 79.0982 112.808 74.6482 110.656 70.7526C118.889 68.6216 125.841 69.8634 131.882 74.5392C123.948 75.1295 115.953 81.323 113.339 83.5306H113.347ZM134.196 89.4866C129.505 89.4866 119.632 84.8874 115.087 83.0324C119.947 79.353 125.703 75.4514 132.633 75.1754C135.34 75.0083 138.04 75.6003 140.428 76.8848C142.483 83.8142 141.455 89.4406 134.189 89.4866H134.196Z" fill="black"/>
</svg>
