<svg width="153" height="122" viewBox="0 0 153 122" fill="none" xmlns="http://www.w3.org/2000/svg">
<path d="M50.669 101.136C49.9715 100.002 47.8175 99.1048 46.9129 100.324C45.1269 102.731 49.8795 106.456 50.8837 106.456C51.7269 106.341 55.9659 102.232 53.8349 100.063C52.892 99.2044 51.1136 100.147 50.669 101.136ZM50.8453 106.057C49.1206 105.291 45.1882 101.036 47.7791 100.285C49.5345 99.7717 50.2781 101.933 50.761 101.703C50.761 101.703 52.2328 99.4037 53.4823 100.439C55.3143 101.979 51.4203 105.758 50.8453 106.057ZM62.7422 104.072C63.777 103.305 63.5087 101.374 62.2976 100.14C59.5457 97.3877 55.1074 100.048 56.6481 104.103C56.8272 104.558 57.1126 104.964 57.4807 105.287C57.8487 105.609 58.2886 105.839 58.7636 105.957C59.2386 106.075 59.7349 106.077 60.211 105.964C60.6871 105.851 61.1293 105.625 61.5004 105.306C61.899 105.49 63.1638 106.073 63.4091 106.249C64.007 106.625 63.5241 105.59 63.4628 105.482L62.7422 104.072ZM61.3854 104.984C59.7757 106.042 57.7366 105.751 57.0851 103.88C55.7819 100.186 59.6147 98.1849 61.991 100.423C62.443 100.842 62.7318 101.408 62.8062 102.02C62.8806 102.632 62.7357 103.25 62.3973 103.765C62.1903 104.057 62.8648 105.214 63.0335 105.559C62.7269 105.413 61.5464 104.877 61.3854 104.984ZM98.3868 98.8978C98.3255 99.3731 98.2795 105.49 98.7241 105.253C99.8931 104.418 100.947 103.434 101.859 102.324C102.879 103.305 104.159 104.041 105.255 105.069C105.861 105.651 105.585 103.405 105.255 98.8058C105.217 98.4532 98.4481 98.3766 98.3868 98.8978ZM101.683 101.88C100.725 102.869 99.8739 103.781 98.862 104.724L98.816 99.0358C100.86 99.0358 102.904 99.023 104.948 98.9975C104.948 100.799 105.079 102.585 105.155 104.363C104.81 104.057 101.905 101.65 101.683 101.88ZM72.5924 99.81C70.2007 99.6184 67.3875 99.4344 65.0189 99.4881C64.8809 99.4881 64.8655 99.672 64.9575 99.7487C65.0495 99.8253 67.3798 102.048 67.5101 102.133C67.5664 103.497 67.5664 104.862 67.5101 106.226C67.5101 106.479 67.7018 106.517 67.9317 106.226C69.7205 104.361 71.3226 102.325 72.715 100.147C72.7447 100.122 72.7659 100.088 72.7758 100.05C72.7857 100.013 72.7839 99.9728 72.7706 99.9361C72.7572 99.8995 72.733 99.8678 72.7012 99.8452C72.6693 99.8227 72.6314 99.8104 72.5924 99.81ZM67.6864 101.887C67.4412 101.274 66.046 100.316 65.4328 99.833C66.9659 100.002 70.0321 100.101 71.6802 100.17C70.3073 100.637 68.9722 101.209 67.6864 101.88V101.887ZM67.9317 105.72C67.9753 104.542 67.9497 103.362 67.8551 102.186C69.2425 101.68 70.6223 100.998 72.0328 100.469C69.8558 103.42 67.9317 105.636 67.9317 105.712V105.72ZM73.014 34.362C73.4202 34.362 73.4279 33.6491 73.014 33.6414C67.1729 33.5724 60.9868 33.3578 55.207 33.5878C55.1317 33.6041 55.0643 33.6457 55.0159 33.7057C54.9676 33.7656 54.9412 33.8403 54.9412 33.9174C54.9412 33.9944 54.9676 34.0691 55.0159 34.1291C55.0643 34.1891 55.1317 34.2307 55.207 34.247C61.1368 34.5881 67.0802 34.6264 73.014 34.362Z" fill="black"/>
<path d="M105.562 73.8393C105.523 70.7731 105.24 46.4812 105.117 42.1885C105.056 41.9355 101.66 42.1042 101.215 42.1042C101.108 41.7209 100.985 41.3376 100.855 40.939C100.855 40.7704 102.058 38.1718 99.5671 37.4359C98.8389 35.7188 96.2556 30.6979 93.933 31.1195C91.6103 31.5411 87.1413 38.9613 86.1601 41.6442C85.7309 41.8098 85.3112 41.9991 84.903 42.2115H74.3553C74.1713 41.8589 73.972 41.5446 73.7727 41.1996C71.473 36.4777 63.7232 36.2247 60.1051 39.5592C56.0731 43.277 56.5253 49.4861 60.3427 53.1425C61.1093 53.8707 60.634 54.8136 59.5762 53.7941C55.5211 49.9613 54.9769 43.5223 58.733 39.3216C57.2509 38.9133 55.6771 38.9908 54.2423 39.5427C52.8075 40.0945 51.5874 41.0916 50.7609 42.3878C48.7985 42.3878 46.8285 42.3878 44.8661 42.4721C44.7204 42.4721 44.6591 42.7481 44.6591 42.8554C44.4752 49.7543 44.5901 56.7376 44.5595 63.6212C41.9839 65.3306 42.7121 68.8108 44.5595 70.8268V76.6066C42.8692 80.4592 42.2419 84.6942 42.7427 88.8714C43.5093 94.7278 46.6751 97.3034 52.9992 97.7404C55.9581 97.9397 64.4054 97.6177 70.2082 95.9083C70.9029 96.138 71.6243 96.2771 72.3546 96.3223C72.1706 97.4031 73.4431 98.4533 74.6542 98.231C74.6542 98.8749 76.2333 99.5724 77.5211 98.5912C77.4558 99.6452 77.4943 100.703 77.6361 101.749C78.119 103.528 79.2535 102.516 79.7364 101.136C80.2513 99.5524 80.4492 97.8828 80.319 96.2226C88.5824 96.5139 97.1831 96.2763 105.485 96.2763C105.631 96.2763 105.83 95.962 105.83 95.8547C105.789 91.8993 105.745 87.9439 105.7 83.9885C107.271 80.9529 106.627 76.9285 105.562 73.8393ZM101.131 49.3097C102.771 48.4435 101.713 43.9439 101.345 42.5564H104.787C104.649 52.3146 104.964 62.8317 105.079 72.5592C102.081 65.3 95.4507 59.4665 88.8124 55.4268C89.51 54.6603 90.0849 54.047 89.2877 53.7174C90.1999 52.8512 89.8242 51.9083 89.1957 51.6631C89.487 51.1648 89.5176 50.2833 88.8124 50.13C88.9311 49.953 88.9852 49.7405 88.9657 49.5283C88.9461 49.3161 88.8541 49.1171 88.7051 48.9648C88.9044 48.9035 89.4716 48.7655 89.5483 48.5969C91.1734 49.0108 99.7511 50.0303 101.131 49.2867V49.3097ZM86.1525 49.8157L87.8542 49.2331C88.8891 48.9801 88.8354 50.1606 86.942 51.0805C86.5204 51.2798 85.9532 51.5404 85.5622 51.2031C86.4744 51.1341 86.9037 50.4749 86.1525 49.7927V49.8157ZM88.5978 50.4212C89.7093 50.7662 88.0995 52.6366 86.9574 52.5369C86.4284 52.4909 86.5204 52.1383 86.4591 51.7704C87.2867 51.5229 88.0279 51.0474 88.5978 50.3982V50.4212ZM83.8068 50.7355C83.8068 51.2491 84.1288 52.2226 84.1441 52.4449C84.1417 53.0321 84.1007 53.6185 84.0215 54.2003C84.0215 54.438 84.4584 54.6219 84.5657 53.5258C85.1636 54.369 86.5204 55.9787 87.6319 56.086C86.3901 57.1439 83.2702 57.1899 81.7678 56.615C81.5532 55.5955 80.9016 53.0045 81.1239 52.0617C81.576 50.8832 82.2239 49.7895 83.0403 48.8268C83.8068 47.9836 84.2284 48.8268 85.0563 49.4554C85.156 49.532 86.1601 50.2833 86.1601 50.2986C86.1601 51.1341 84.811 50.7202 84.2361 50.5056C83.9295 50.3829 83.7915 50.2909 83.8068 50.7509V50.7355ZM87.4786 52.9662C88.0884 52.7924 88.6259 52.4268 89.0117 51.9237C89.1905 52.0516 89.3117 52.2448 89.3491 52.4615C89.3864 52.6782 89.3368 52.9008 89.211 53.0812C88.6438 53.8171 87.057 54.0547 87.4786 52.9432V52.9662ZM99.9044 38.1104C102.334 39.4136 98.6779 44.0665 97.2138 45.2777C95.7091 42.9206 94.6056 40.3303 93.9483 37.6122C95.7037 37.6352 98.3713 37.2672 99.9044 38.0875V38.1104ZM92.7525 32.3997C92.0932 37.4129 96.5316 46.5425 99.6514 49.0185C95.8187 49.1104 93.0054 48.5892 89.3796 48.1752C87.6702 46.3585 86.5281 44.7641 86.4438 42.1118C88.2911 38.4017 89.7246 35.4735 92.7525 32.3997ZM85.9072 42.2728C86.1678 44.5725 87.1107 46.9871 88.9734 48.4052L88.2068 48.6888C87.3976 48.8276 86.6192 49.1079 85.9072 49.5167L85.0486 48.8268C84.3664 48.2826 83.9218 47.5237 83.0173 48.2136C82.1359 49.1225 81.4199 50.1783 80.9016 51.3334C80.3819 51.5482 79.8392 51.7026 79.2842 51.7934C77.7971 50.4136 77.2528 47.3244 77.3831 46.3432C77.5441 46.0979 85.087 42.6638 85.9148 42.2728H85.9072ZM83.9371 42.6714C81.8445 43.6603 79.5678 44.6338 77.5518 45.7376C77.3142 45.8603 76.9462 46.1286 76.8925 46.4122C76.6702 47.7306 77.6591 51.4408 79.0236 52.0923C79.4375 52.3836 80.296 52.0923 80.7636 51.9007C80.4723 53.2575 81.0549 55.3425 81.3462 56.7299C81.0243 56.8909 81.6758 59.2442 81.7678 59.6198C80.2347 59.1139 76.2793 58.4164 74.7769 59.0219C74.6849 58.4394 74.5622 57.8568 74.4243 57.2895C74.9107 57.0815 75.3477 56.7733 75.707 56.385C76.0663 55.9966 76.3396 55.537 76.5093 55.0359C77.7664 51.8087 76.0723 45.592 74.6006 42.6868L83.9371 42.6714ZM61.1246 50.2679C61.5309 49.5474 62.4048 50.2143 63.041 50.0303C64.4514 49.624 63.133 45.6763 62.5734 44.8791C68.1385 41.5369 70.9365 41.7669 73.6577 41.8129C75.2675 44.9557 77.1455 50.5745 76.241 54.162C76.1296 54.7259 75.8879 55.2559 75.5352 55.7098C75.1825 56.1636 74.7285 56.5287 74.2096 56.7759C74.133 56.7759 73.8877 57.1132 73.9183 57.2205C74.2837 58.49 74.4416 59.8101 74.3859 61.1299C74.2173 62.663 73.3511 64.2958 71.6264 64.4338C69.0048 64.6484 65.7009 62.6937 64.7274 60.1948C64.7131 58.6827 64.5514 57.1757 64.2445 55.6951C63.8842 54.4916 62.8417 53.5181 62.0291 52.6289C61.2166 51.7397 60.6723 51.0728 61.1246 50.2679ZM45.0731 42.8324C46.8745 42.8937 48.6912 42.8324 50.4926 42.8324C49.726 44.5571 50.3086 45.5996 51.1978 47.0944C52.294 48.9265 52.0487 50.2219 49.9253 50.8658C46.5908 51.9007 43.9846 53.8784 47.0201 57.3202C48.0549 58.5083 49.6034 60.0721 48.1239 61.6129C47.2807 62.4791 46.0466 62.7704 44.9887 63.3223C45.0194 58.1327 45.0731 48.5968 45.0731 42.8324ZM44.9274 71.2637L46.6445 72.5975C45.9785 73.6166 45.3868 74.6823 44.8738 75.7864C44.9274 74.2533 44.9351 72.7738 44.9351 71.2637H44.9274ZM79.3455 100.753C79.0466 101.696 78.142 103.244 77.9734 101.121C77.9734 100.722 77.9734 98.4379 77.7741 98.3153C78.1804 97.9014 78.8626 96.6595 78.5406 96.1843C78.5234 96.162 78.5014 96.144 78.4761 96.1316C78.4509 96.1192 78.4231 96.1127 78.395 96.1127C78.3669 96.1127 78.3391 96.1192 78.3138 96.1316C78.2886 96.144 78.2665 96.162 78.2493 96.1843C78.004 96.4372 78.1804 97.5334 77.0842 98.2846C76.5016 98.6756 75.3441 98.8135 74.9149 98.1236C75.3281 97.9576 75.6984 97.7004 75.9984 97.3712C76.2984 97.042 76.5202 96.6494 76.6473 96.2226C76.7086 95.8393 76.402 95.8547 76.3176 95.985C76.0263 96.3912 75.6967 97.6561 74.4013 97.7787C73.3664 97.8784 72.9142 97.1731 72.6305 96.3299C74.7309 96.4602 74.8689 95.5634 74.4856 95.5634C73.8823 95.8416 73.2117 95.94 72.5539 95.847C71.7873 95.801 71.0208 95.6554 70.2542 95.5634C70.4152 93.44 70.8751 88.7487 76.8849 89.431C79.9588 91.8916 80.4877 97.2191 79.3455 100.753ZM79.5678 92.3209C80.4952 92.781 81.5466 92.9289 82.565 92.7425C83.6075 93.5857 81.2542 94.4825 80.0661 94.1299C79.9535 93.5118 79.7815 92.9059 79.5525 92.3209H79.5678ZM80.2807 95.8623C80.2807 95.4484 80.2117 95.0345 80.1504 94.6205C83.2166 94.7738 83.7532 92.6735 82.6263 92.4205C81.9901 92.2749 81.3692 92.5892 79.9128 92.0219C79.1999 91.7306 79.3992 91.8073 79.0466 91.1864C76.333 86.4031 65.9002 82.5167 60.8333 81.7195C61.416 79.2821 61.7373 76.7895 61.7915 74.2839C61.7915 74.1 61.5232 74.0616 61.5002 74.2456C61.2851 76.7269 60.888 79.1891 60.3121 81.6122C58.9898 81.4361 57.6594 81.3286 56.326 81.2902C56.1727 81.2902 56.1574 81.6965 56.326 81.7041C63.5158 82.1312 70.4325 84.6105 76.2563 88.8484C72.2779 88.5418 69.779 91.6386 69.9476 95.4867C64.2138 97.0965 57.0542 97.909 51.0675 97.0658C46.3455 96.4066 43.6396 93.4707 43.1107 88.8101C41.8076 77.6414 48.9825 65.3153 64.2521 59.9495C64.6814 62.8547 68.9281 65.1237 71.634 64.909C74.3399 64.6944 75.0682 61.6205 74.7999 59.3362C77.1885 59.0985 79.6004 59.3595 81.8828 60.1028C82.4416 62.1598 83.2123 64.1532 84.1824 66.0512C83.6305 65.415 82.3657 64.0888 81.6682 63.3529C81.2925 62.962 80.825 63.2073 81.3002 63.7285C84.0883 66.6586 86.5956 69.8435 88.7894 73.2414C92.8518 80.1101 95.3415 87.7938 96.0793 95.7397C90.8668 95.7397 85.4779 95.6094 80.2654 95.8087L80.2807 95.8623ZM96.5852 95.7933C96.3553 93.2107 95.9351 90.6486 95.3281 88.1278C98.8082 88.0588 102.994 87.7906 105.201 84.709C105.247 88.3987 105.291 92.0883 105.332 95.778L96.5852 95.7933ZM104.772 84.4791C102.572 87.4303 98.5782 87.5453 95.2208 87.6296C93.2967 79.8798 90.1922 74.054 85.5546 67.6993C84.6347 66.3502 81.2312 57.9334 81.6452 56.9063C84.5504 57.8414 87.3483 57.2129 88.5441 55.6108C96.1636 60.9766 103.645 66.6798 105.761 76.392C106.32 79.0289 106.458 82.1947 104.749 84.4714L104.772 84.4791ZM125.714 58.8993C125.093 61.4596 128.934 61.8275 129.363 59.7502C129.892 57.2895 126.297 56.6303 125.714 58.8993ZM31.4285 71.3021C28.3623 72.5745 25.1351 73.8777 22.0459 74.9815L24.5678 79.1132C26.8675 77.6261 29.0982 76.047 31.3901 74.6519C31.3595 73.5174 31.4285 72.4136 31.4285 71.3021ZM119.911 49.762C118.731 47.792 115.826 49.3787 116.638 51.2951C117.734 53.8171 121.115 51.7857 119.911 49.762Z" fill="black"/>
<path d="M74.1484 44.9864C74.0441 44.9249 73.9281 44.886 73.8078 44.8721C73.6875 44.8582 73.5657 44.8697 73.4501 44.9058C73.3345 44.9419 73.2278 45.0019 73.1368 45.0818C73.0459 45.1617 72.9727 45.2598 72.9219 45.3697C72.807 45.6993 73.2976 45.891 73.4815 45.638C73.5636 45.5592 73.6642 45.5023 73.7741 45.4729C73.884 45.4434 73.9996 45.4422 74.1101 45.4694C74.3554 45.4694 74.4244 45.1551 74.1484 44.9864ZM67.4948 43.6296C67.0832 43.8339 66.7443 44.1596 66.5236 44.5625C66.3029 44.9655 66.2111 45.4265 66.2606 45.8833C66.2715 45.9476 66.3047 46.006 66.3546 46.0482C66.4044 46.0903 66.4675 46.1134 66.5327 46.1134C66.598 46.1134 66.6611 46.0903 66.7109 46.0482C66.7608 46.006 66.794 45.9476 66.8049 45.8833C66.8171 45.5586 66.9187 45.2436 67.0986 44.9731C67.2785 44.7025 67.5297 44.487 67.8244 44.3502C68.6293 44.0129 68.1693 43.3613 67.4948 43.6296ZM47.9171 30.2917C43.77 30.6903 42.9192 36.654 46.9359 38.0951C47.5087 38.3133 48.1236 38.3986 48.7342 38.3444C49.3448 38.2903 49.9351 38.0981 50.4606 37.7825C50.9861 37.4669 51.433 37.036 51.7677 36.5225C52.1023 36.0089 52.3159 35.426 52.3924 34.8178C52.4689 34.2096 52.4062 33.592 52.2091 33.0115C52.012 32.4311 51.6857 31.903 51.2547 31.4671C50.8237 31.0313 50.2993 30.699 49.7211 30.4953C49.143 30.2917 48.5261 30.2221 47.9171 30.2917ZM47.2195 37.5432C46.5252 37.3056 45.9269 36.8491 45.5144 36.2422C45.1018 35.6353 44.8975 34.9109 44.9321 34.1779C44.9667 33.4449 45.2383 32.743 45.7061 32.1776C46.1739 31.6123 46.8126 31.2141 47.5261 31.0429C50.5157 30.33 53.0223 33.8025 50.9909 36.3397C50.5605 36.9015 49.9683 37.318 49.294 37.5332C48.6198 37.7483 47.8958 37.7518 47.2195 37.5432ZM72.5387 43.0854C72.7712 43.0618 73.006 43.0916 73.2252 43.1727C73.4445 43.2537 73.6422 43.3838 73.8035 43.553C73.8466 43.5979 73.9049 43.6253 73.967 43.63C74.0291 43.6347 74.0908 43.6163 74.1402 43.5783C74.1895 43.5403 74.2232 43.4854 74.2346 43.4242C74.246 43.3629 74.2345 43.2996 74.2021 43.2464C73.5735 42.2498 72.0634 42.1655 71.8488 42.6791C71.8185 42.7245 71.8023 42.7778 71.8023 42.8324C71.8023 42.887 71.8185 42.9404 71.8488 42.9857C71.9868 43.1544 72.278 43.1314 72.5387 43.0854ZM69.5491 46.5502C70.0857 46.4199 69.7254 45.707 68.9282 45.9446C68.6107 46.022 68.3357 46.2199 68.1617 46.4965C68.0084 46.8185 68.4223 47.0408 68.5909 46.8185C68.9282 46.3969 69.2502 46.6192 69.5491 46.5502ZM73.2362 50.2603C71.1589 50.2603 70.3617 50.1376 69.4035 49.1411C69.2962 49.0261 68.9436 48.9955 68.7519 49.3788C68.553 49.9677 68.4901 50.5941 68.5679 51.2108C68.8209 54.3153 73.7805 53.7941 73.7115 50.5669C73.7422 50.268 73.3895 50.268 73.2362 50.2603ZM73.1059 50.8735C72.9927 51.4466 72.6578 51.9517 72.174 52.279C71.6902 52.6064 71.0967 52.7294 70.5226 52.6213C69.6411 52.4066 68.9895 51.5404 69.2885 49.923C69.8265 50.333 70.4427 50.6288 71.0991 50.7923C71.7555 50.9557 72.4384 50.9834 73.1059 50.8735ZM72.1937 45.1781C72.1468 45.1309 72.084 45.1028 72.0175 45.0994C71.951 45.0959 71.8857 45.1173 71.8341 45.1593C71.7825 45.2013 71.7483 45.2611 71.7383 45.3269C71.7283 45.3927 71.7431 45.4598 71.7798 45.5153C72.1999 46.0788 72.5889 46.6648 72.9449 47.2707C73.1519 47.5774 73.2362 47.769 73.2056 47.8303C73.1749 47.8917 72.8683 48.1216 72.7303 48.3362C72.694 48.4086 72.6844 48.4915 72.703 48.5703C72.7217 48.6491 72.7674 48.7188 72.8323 48.7672C72.8972 48.8157 72.9771 48.8398 73.0579 48.8352C73.1388 48.8307 73.2155 48.7979 73.2746 48.7425C73.8725 48.0756 74.1944 48.045 73.5735 47.0331C73.1807 46.3676 72.7182 45.7457 72.1937 45.1781ZM4.70666 65.1084C5.9178 65.576 7.05996 66.0666 8.21746 66.4192C8.63906 66.5418 8.84603 65.8136 8.43209 65.6526C7.22414 65.057 5.97686 64.5448 4.69899 64.1195C4.16241 64.1272 3.92477 64.8094 4.70666 65.1084ZM12.1499 90.9488C10.885 91.8763 9.72756 92.7425 8.81536 93.4554C8.31711 93.8387 8.92268 94.6052 9.4286 94.2219C10.4021 93.4554 11.5366 92.5662 12.6941 91.6233C12.7676 91.5466 12.8107 91.4458 12.8152 91.3396C12.8197 91.2335 12.7854 91.1293 12.7187 91.0466C12.652 90.964 12.5574 90.9084 12.4527 90.8904C12.348 90.8724 12.2404 90.8931 12.1499 90.9488ZM15.4154 51.6554C14.7715 50.4443 13.8363 50.9349 14.5645 52.1077C15.0244 52.8742 16.9485 56.2547 17.4391 56.8833C17.7303 57.2512 18.2669 56.8833 18.106 56.454C17.8147 55.7335 15.837 52.445 15.4154 51.6554ZM28.692 48.9802C28.6405 48.8895 28.5615 48.8176 28.4664 48.7748C28.3713 48.7321 28.2651 48.7208 28.1631 48.7425C27.9944 48.7885 27.8028 48.9802 27.8565 49.6241C27.9561 51.0498 28.0941 52.5293 28.2551 54.0394C28.2812 54.1202 28.3325 54.1906 28.4014 54.2402C28.4704 54.2899 28.5534 54.3162 28.6383 54.3153C28.7356 54.3128 28.8289 54.2761 28.9018 54.2116C28.9747 54.1471 29.0226 54.059 29.037 53.9627C29.0151 52.2967 28.8999 50.6333 28.692 48.9802ZM25.8788 96.7439C25.7715 97.1731 25.5798 99.7641 25.4418 100.753C25.3768 101.119 25.3898 101.496 25.4802 101.857C25.6105 102.232 25.8941 102.24 26.0704 101.979C26.2828 101.536 26.4003 101.053 26.4154 100.561C26.5073 99.3271 26.5993 98.0853 26.676 96.8282C26.6704 96.7321 26.6308 96.6411 26.5643 96.5715C26.4979 96.5018 26.4089 96.4581 26.3131 96.4479C26.2174 96.4378 26.1212 96.462 26.0416 96.5162C25.9621 96.5704 25.9044 96.6511 25.8788 96.7439ZM8.30178 79.2895C6.98345 79.1731 5.65495 79.2741 4.36937 79.5885C3.46484 79.7801 3.60282 80.585 4.26206 80.585C5.58007 80.309 6.91821 80.1398 8.26345 80.0791C8.35989 80.0712 8.45017 80.0285 8.51745 79.959C8.58472 79.8894 8.62441 79.7978 8.6291 79.7011C8.6338 79.6045 8.60317 79.5094 8.54294 79.4337C8.48272 79.358 8.397 79.3067 8.30178 79.2895ZM148.964 66.1279C147.736 65.4966 146.474 64.9336 145.185 64.4415C145.103 64.4569 145.027 64.496 144.967 64.5538C144.907 64.6116 144.864 64.6857 144.846 64.7671C144.827 64.8484 144.832 64.9335 144.861 65.0118C144.89 65.0901 144.941 65.1583 145.008 65.208C146.143 65.8059 147.308 66.3578 148.527 66.9328C149.746 67.5077 150.045 66.6338 148.964 66.1279ZM135.518 77.4268C135.342 77.1509 134.752 77.3502 134.836 77.8101C135.556 79.0458 136.196 80.3259 136.753 81.6428C137.136 82.5934 138.071 82.2484 137.588 81.1829C137.011 79.872 136.318 78.6151 135.518 77.4268ZM125.921 27.4861C125.362 27.4861 125.377 28.4673 125.323 29.0192C125.185 30.277 125.17 31.5452 125.277 32.8059C125.279 32.8862 125.304 32.9642 125.35 33.0301C125.395 33.0961 125.459 33.147 125.534 33.1765C125.609 33.2061 125.69 33.2128 125.769 33.196C125.847 33.1791 125.919 33.1394 125.975 33.0819C126.121 32.9363 126.098 32.8443 126.136 31.6561C126.145 30.6818 126.214 29.709 126.343 28.7432C126.389 28.406 126.473 27.9077 126.258 27.6624C126.221 27.6077 126.171 27.563 126.112 27.5323C126.053 27.5016 125.988 27.4857 125.921 27.4861ZM120.302 80.93L119.904 85.1153C119.835 85.7209 120.793 85.7822 120.831 85.169C120.923 83.7738 121.015 82.3787 121.107 80.9606C121.098 80.8626 121.053 80.7712 120.982 80.7036C120.91 80.6359 120.817 80.5965 120.718 80.5928C120.62 80.589 120.523 80.6212 120.447 80.6832C120.37 80.7452 120.319 80.8329 120.302 80.93ZM144.878 49.1105C146.005 48.9878 147.239 48.8268 148.757 48.6122C148.863 48.5787 148.953 48.5092 149.013 48.4158C149.073 48.3223 149.099 48.2108 149.085 48.1006C149.071 47.9904 149.02 47.8885 148.939 47.8125C148.858 47.7366 148.753 47.6913 148.642 47.6847C148.358 47.6847 145.422 48.1983 144.771 48.2979C144.717 48.305 144.666 48.3225 144.619 48.3494C144.573 48.3763 144.532 48.4121 144.499 48.4549C144.433 48.5411 144.404 48.6501 144.418 48.7579C144.432 48.8656 144.489 48.9633 144.575 49.0294C144.661 49.0955 144.77 49.1247 144.878 49.1105ZM141.934 35.2052C141.061 36.3014 140.171 37.3976 139.29 38.4937C138.96 38.9 139.589 39.3829 139.926 38.992L142.678 35.7878C143.077 35.3049 142.302 34.7606 141.934 35.2052ZM26.3924 81.1829C25.4955 80.7153 24.3917 81.9495 25.6258 82.8617C26.5227 83.4289 27.5498 81.7885 26.3924 81.1829ZM32.1951 79.2282C32.2062 79.3554 32.2424 79.4792 32.3016 79.5924C32.3608 79.7055 32.4419 79.8058 32.5401 79.8874C32.6895 80.0114 32.872 80.0886 33.065 80.1095C33.258 80.1304 33.4529 80.094 33.6253 80.005C33.7978 79.9159 33.9402 79.778 34.0348 79.6085C34.1295 79.439 34.1721 79.2455 34.1575 79.0519C34.1501 78.9286 34.1161 78.8083 34.0579 78.6993C33.9877 78.4523 33.8223 78.2432 33.5981 78.1182C33.3738 77.9931 33.1091 77.9623 32.862 78.0324C32.615 78.1025 32.406 78.2679 32.2809 78.4922C32.1559 78.7164 32.125 78.9812 32.1951 79.2282Z" fill="black"/>
<path d="M141.283 54.5299C139.93 53.4308 138.517 52.4072 137.051 51.4637C137.243 50.7968 138.424 45.3849 138.424 44.9403C138.424 44.4957 132.72 44.0282 132.061 43.9975C131.311 42.2575 130.766 40.4362 130.436 38.5703C130.283 37.6198 125.569 40.9773 125.132 41.3452C123.453 40.0651 121.583 38.4783 119.827 37.3745C119.452 37.1369 116.493 42.1424 116.178 42.7403L112.108 42.656C112.031 36.5236 112.108 30.2839 111.893 24.2052C111.594 15.5431 108.107 14.1787 100.717 14.1787C84.0369 14.1787 67.0271 14.0484 50.1784 14.2247C41.547 14.3167 37.8139 15.0449 37.7526 24.9027C37.6683 38.3174 37.9289 51.7856 38.0056 65.0393C29.5735 56.2393 14.3652 60.9306 12.4488 73.0651C12.0973 75.1802 12.1984 77.3459 12.7454 79.4191C13.2925 81.4923 14.273 83.4259 15.6223 85.0922C16.9742 86.7406 18.662 88.0818 20.5732 89.0263C22.4844 89.9707 24.575 90.4968 26.7056 90.5693C28.8363 90.6419 30.9578 90.2592 32.9289 89.447C34.8999 88.6347 36.675 87.4114 38.1359 85.8588C38.2074 92.8037 38.2713 99.7436 38.3275 106.678C38.3275 106.855 38.6341 106.862 38.6341 106.678C38.6801 99.5647 38.6341 92.4434 38.6341 85.3375C44.9352 76.8442 41.2097 69.0713 38.5191 65.5605C38.4502 51.9849 38.5191 38.3097 38.2738 24.7417C62.4892 25.263 87.1644 24.6958 111.426 24.6498L111.633 42.6177C110.927 42.6177 109.663 42.6177 109.732 43.0086C110.169 45.1626 110.498 47.3396 110.897 49.4937C109.992 49.8999 106.535 51.3794 106.658 51.9773C107.33 53.8601 108.215 55.6603 109.295 57.3431C108.375 58.936 107.556 60.5847 106.842 62.2797C106.704 62.6936 111.28 63.1076 111.817 63.1842C111.686 64.8553 111.441 66.9633 111.479 68.5501C111.479 68.803 111.771 68.7954 111.955 68.7724C112.1 81.5508 112.223 94.3138 112.476 107.1C112.476 107.33 112.813 107.292 112.813 107.1C112.813 94.3215 112.591 81.5354 112.438 68.7724C113.802 68.6191 115.274 68.3814 116.623 68.2818C117.343 69.8839 118.739 72.7201 119.344 72.7584C119.743 72.7584 123.867 69.1557 124.181 68.9257C124.235 69.0637 129.363 71.8079 130.367 72.2449C130.934 72.4978 132.146 67.0706 132.337 66.3654C132.858 66.3654 138.554 65.8212 138.408 65.3536C137.642 63.0539 137.412 60.8463 136.799 58.7076C137.251 58.2936 141.566 54.7982 141.283 54.5299ZM34.0655 80.8149C33.6619 81.0348 33.1913 81.0977 32.7442 80.9915C32.297 80.8854 31.9049 80.6177 31.6432 80.24C30.4397 80.7306 29.1749 81.3131 27.8871 81.7731C27.9157 82.0789 27.8706 82.3872 27.7556 82.6721C27.6407 82.957 27.4592 83.2102 27.2263 83.4105C26.9934 83.6109 26.716 83.7526 26.4171 83.8237C26.1183 83.8949 25.8067 83.8935 25.5086 83.8196C25.2104 83.7457 24.9342 83.6015 24.7032 83.399C24.4722 83.1965 24.293 82.9417 24.1807 82.6557C24.0683 82.3698 24.026 82.0612 24.0574 81.7556C24.0888 81.45 24.1929 81.1563 24.361 80.8992C23.0655 79.3661 20.5282 74.7668 19.4704 72.5898L16.4962 72.2679C16.4161 72.2568 16.3391 72.2301 16.2694 72.1892C16.1997 72.1483 16.1387 72.0942 16.0899 72.0297C16.0412 71.9653 16.0056 71.8919 15.9852 71.8138C15.9648 71.7356 15.96 71.6542 15.9711 71.5741C15.9821 71.4941 16.0089 71.417 16.0497 71.3473C16.0906 71.2776 16.1448 71.2167 16.2092 71.1679C16.2736 71.1191 16.347 71.0836 16.4252 71.0632C16.5033 71.0428 16.5848 71.038 16.6648 71.049C17.8683 71.1104 20.053 71.049 20.2906 71.5243L21.701 73.9696C24.9052 72.5438 28.439 71.1104 31.6662 69.9299C31.7602 69.8971 31.86 69.8844 31.9592 69.8926C32.0583 69.9007 32.1547 69.9296 32.2421 69.9772C32.3295 70.0249 32.4059 70.0903 32.4664 70.1693C32.527 70.2483 32.5704 70.3391 32.5937 70.4358C32.6219 72.0227 32.5528 73.6099 32.3867 75.1884C32.2718 75.633 26.4383 79.2358 25.3498 79.9027L25.4725 80.1097C25.7993 80.0208 26.144 80.0216 26.4705 80.1119C26.7969 80.2023 27.0929 80.3789 27.3275 80.6233C28.5387 80.033 29.7651 79.5424 31.1603 78.9522C31.1573 78.6733 31.2137 78.3969 31.3259 78.1416C31.4381 77.8863 31.6034 77.6578 31.8109 77.4713C32.0183 77.2849 32.2632 77.1449 32.529 77.0605C32.7948 76.9762 33.0756 76.9494 33.3526 76.9821C33.7964 77.0151 34.2169 77.1941 34.5484 77.4911C34.8799 77.7881 35.1038 78.1864 35.1852 78.624C35.2665 79.0615 35.2008 79.5137 34.9983 79.91C34.7958 80.3063 34.4678 80.6245 34.0655 80.8149ZM74.0641 19.2073C74.0641 17.2449 77.0919 16.8156 77.6515 18.7473C78.4717 21.5452 74.0564 22.1125 74.0641 19.2073ZM115.626 51.9083C114.001 48.5891 119.068 45.8525 120.931 49.256C122.794 52.6595 117.389 55.4957 115.626 51.9083ZM119.191 60.9306C118.739 61.5745 117.711 60.9919 118.133 60.302C120.586 56.3083 123.798 51.1724 126.895 46.9334C127.401 46.2358 128.52 46.8644 128.068 47.6309C125.523 51.916 122.15 56.7605 119.191 60.9306ZM130.497 60.164C129.524 63.7208 123.675 62.64 124.603 58.6309C125.469 54.7522 131.594 56.155 130.497 60.164Z" fill="black"/>
</svg>
