<svg width="154" height="154" viewBox="0 0 154 154" fill="none" xmlns="http://www.w3.org/2000/svg">
<path fill-rule="evenodd" clip-rule="evenodd" d="M72.8505 24.5223C73.1265 24.6067 74.2993 25.1356 74.4909 25.1356C74.5668 25.1238 74.636 25.0852 74.686 25.0269C74.7359 24.9685 74.7634 24.8943 74.7634 24.8175C74.7634 24.7406 74.7359 24.6664 74.686 24.608C74.636 24.5497 74.5668 24.5111 74.4909 24.4993C74.399 24.4993 74.031 24.323 73.7857 24.2234C72.8505 23.8324 72.7509 23.7941 72.5746 23.9934C72.5331 24.0422 72.5071 24.1023 72.5 24.166C72.4929 24.2296 72.5049 24.294 72.5345 24.3508C72.5641 24.4076 72.61 24.4542 72.6663 24.4848C72.7226 24.5153 72.7868 24.5284 72.8505 24.5223ZM90.0289 132.905C90.26 133.626 90.5738 134.318 90.9641 134.967C92.9878 138.723 94.7049 141.184 94.6205 141.184H94.8812C94.9272 140.363 90.5808 132.821 90.0289 132.905ZM95.9697 131.395C95.7627 131.395 95.5327 131.08 96.215 132.483C97.1578 134.407 99.2045 138.094 100.623 139.689C101.765 140.563 97.1655 133.02 95.9697 131.395ZM113.432 135.611C113.179 135.68 113.156 135.611 113.248 135.856C114.11 138.336 115.247 140.711 116.636 142.939C117.272 143.706 115.31 138.616 113.432 135.611ZM126.984 131.778C126.67 131.709 126.601 131.602 127.368 133.311C128.134 135.021 130.342 138.968 130.656 138.961C130.717 138.961 130.748 138.922 130.771 138.853C129.748 136.374 128.48 134.004 126.984 131.778ZM118.284 28.2784C118.361 28.2784 142.967 27.1516 143.335 26.9676C143.749 26.661 143.649 27.1209 143.764 16.8492C143.764 14.7795 143.879 7.40527 143.818 7.06799C143.649 6.52374 143.105 6.5314 142.423 6.50841C137.363 6.36276 118.982 7.58158 114.934 7.75022C114.735 7.75022 114.52 7.75022 114.52 8.03384C114.436 8.03384 116.053 27.8645 116.053 27.9641C116.26 28.5084 116.659 28.3551 118.284 28.2784ZM142.622 7.73489C142.622 8.58576 142.377 25.8101 142.369 25.8255C142.361 25.8408 117.126 27.1669 117.073 27.2436C117.073 27.0826 115.586 13.1161 115.064 8.26381C118.775 8.24848 139.272 7.55858 142.622 7.73489Z" fill="black"/>
<path d="M80.3169 31.9794C79.6095 31.9575 78.9092 32.1262 78.2894 32.4678C78.0621 32.6053 78.1213 32.6212 78.047 32.3949C78.0741 31.9975 78.7049 31.4205 79.6071 31.4004C79.9775 31.3759 80.3433 31.4938 80.6298 31.73C81.0298 32.0435 80.3169 31.9794 80.3169 31.9794Z" fill="black"/>
<path fill-rule="evenodd" clip-rule="evenodd" d="M129.11 18.3972C129.302 18.6349 129.93 18.0676 130.973 17.3547C132.69 16.1819 135.779 14.0279 137.442 12.7554C138.6 10.8084 135.426 13.108 135.066 13.384C133.61 14.5185 129.7 17.646 129.248 18.037C128.481 17.3317 121.36 12.4641 121.284 12.3875C120.586 12.2495 120.394 12.6481 120.755 13.154C122.901 14.6181 128.987 18.2286 129.11 18.3972ZM136.208 46.7596C128.987 46.7596 123.943 50.5387 123.215 58.3805C122.625 64.7429 125.829 68.8822 129.946 70.5763C133.617 72.1094 137.833 72.485 141.658 70.7909C143.903 69.7753 145.885 68.2598 147.454 66.3603C152.543 59.8599 147.76 46.7596 136.208 46.7596ZM143.023 67.1268C136.745 71.9561 128.083 68.7902 126.251 63.0411C125.124 59.515 126.159 53.9728 128.857 51.4815C131.555 48.9903 136.852 48.2084 140.302 49.5115C145.928 51.6348 150.443 61.416 143.023 67.1268ZM41.846 21.4634C41.7923 20.1833 41.7387 19.0641 41.6927 18.1366C42.0759 18.2583 42.4163 18.487 42.6738 18.7958C43.2871 20.0223 44.2529 19.4244 44.2529 18.5889C44.0613 17.554 42.9268 16.7645 41.6313 16.5422C41.593 15.3617 41.6313 15.6453 41.3094 15.4614C40.9338 15.63 41.0181 15.561 40.9338 16.4885C40.2075 16.4582 39.4912 16.6667 38.8946 17.082C38.298 17.4973 37.8538 18.0966 37.6299 18.7882C36.8634 21.0035 38.7874 21.6321 40.6118 22.345C40.6118 23.6174 40.5428 25.1122 40.5352 26.8829C40.1546 26.9325 39.7677 26.8831 39.4119 26.7394C39.056 26.5957 38.7432 26.3626 38.5038 26.0627C37.6836 24.6523 37.5993 25.1046 37.7373 25.8634C38.0132 27.1129 39.2244 27.7108 40.5428 27.7491C40.5428 29.037 40.3972 29.7115 41.6543 29.6042C42.1603 29.2516 42.1603 29.3282 42.0989 27.5575C43.3637 27.1896 44.3986 26.331 44.5136 25.0739C44.6285 23.1958 43.2411 22.161 41.846 21.4634ZM40.6272 20.9575C39.985 20.7683 39.4035 20.4141 38.9407 19.9303C38.7798 19.5854 39.1324 18.9568 39.37 18.6732C39.5471 18.4628 39.7693 18.295 40.0201 18.1822C40.2709 18.0694 40.5439 18.0145 40.8188 18.0216C40.7651 18.7575 40.7115 19.7234 40.6272 20.9575ZM42.0146 26.5917C41.9763 25.2885 41.9303 24.0697 41.8843 22.9429C42.4928 23.2046 42.9801 23.6865 43.2488 24.292C43.6934 25.4035 43.1184 26.1317 42.0453 26.5917H42.0146ZM82.2815 24.9512C82.8759 24.6274 83.5134 24.3899 84.1749 24.246C84.2572 24.2287 84.3293 24.1795 84.3753 24.109C84.4213 24.0386 84.4374 23.9527 84.4202 23.8704C84.4029 23.7881 84.3536 23.716 84.2831 23.67C84.2127 23.624 84.1269 23.6078 84.0445 23.6251C84.0445 23.6251 81.6452 24.2154 81.7449 24.7826C81.7565 24.8388 81.7829 24.8908 81.8214 24.9333C81.8598 24.9759 81.9089 25.0074 81.9636 25.0245C82.0184 25.0417 82.0767 25.044 82.1325 25.0311C82.1884 25.0182 82.2398 24.9907 82.2815 24.9512Z" fill="black"/>
<path fill-rule="evenodd" clip-rule="evenodd" d="M137.389 52.7922C136.553 52.3553 137.557 54.5706 136.837 59.5685C129.938 59.5685 131.08 59.2389 130.413 59.5685C129.769 60.2814 130.137 60.9943 131.088 61.0403C131.732 61.0403 137.036 61.0403 137.603 60.8027C138.171 60.5651 138.109 59.7832 138.125 59.1163C138.108 57.3198 137.964 55.5268 137.695 53.7504C137.603 53.1372 137.58 52.9302 137.389 52.7922ZM135.756 129.363C134.974 128.883 134.137 128.497 133.265 128.213C131.736 127.674 130.138 127.359 128.52 127.278C120.548 126.964 117.696 132.912 109.755 131.601C105.155 130.835 100.786 128.251 98.0264 127.531C93.7797 126.412 90.1386 128.006 86.1832 130.022C84.4048 130.927 81.0703 133.778 80.8786 133.088C80.0431 131.601 79.8438 123.499 79.9511 112.759C84.1441 113.143 92.6988 111.824 99.4752 108.49C102.832 106.793 105.574 104.088 107.317 100.755C107.918 99.703 108.394 98.5838 108.735 97.4208C111.418 88.0765 110.82 83.9755 110.966 79.6445C116.178 73.5581 116.332 55.5595 107.585 44.0459C105.615 41.3936 100.556 38.1818 98.8849 37.5609C99.125 37.4005 99.321 37.1824 99.455 36.9266C99.5889 36.6708 99.6565 36.3855 99.6515 36.0968C99.7358 34.763 99.4675 34.3644 100.717 33.6438C101.199 33.4171 101.632 33.0966 101.989 32.701C102.345 32.1822 102.633 31.6208 102.848 31.0299C103.829 27.8487 100.686 27.8947 101.529 22.6592C101.661 21.9207 101.697 21.1685 101.637 20.4208C101.612 19.7812 101.384 19.1662 100.985 18.6654C100.529 18.1467 100.14 17.5723 99.8278 16.956C99.2682 15.1393 99.4675 13.5372 98.7086 12.0118C98.1864 11.007 97.5539 10.0634 96.8229 9.19855C94.8835 6.97555 92.6452 7.50447 90.0159 6.27799C89.0989 5.79226 88.1485 5.37216 87.172 5.02085C85.0738 4.55374 82.9097 4.46033 80.779 4.74489C78.3644 5.1435 74.3553 7.43548 72.0557 10.494C71.5646 11.1292 71.1262 11.8035 70.7449 12.51C69.6688 14.6606 68.9417 16.9687 68.5908 19.3477C68.4222 20.6201 68.8438 20.4745 68.4145 21.7316C67.5713 21.816 67.5483 21.8543 67.5177 22.0153C67.6132 22.409 67.7494 22.7918 67.9239 23.1574C67.6787 23.8856 67.4334 24.6139 67.3644 24.8668C67.0807 26.3999 67.9623 27.933 67.2264 29.1748C66.6208 30.1867 65.0341 30.7079 64.7044 31.9804C64.2598 33.6592 65.1797 35.2612 66.3908 36.5337C66.4972 36.6752 66.6367 36.7884 66.7971 36.8633C62.3511 38.5497 59.6682 42.0682 59.6912 42.2905L55.4598 41.7386C55.1915 41.7386 55.5365 41.3553 55.1302 47.7867C54.9869 47.6525 54.7976 47.5784 54.6013 47.5797C53.2139 47.5797 52.7386 50.6919 52.6159 52.0717C52.432 54.0647 52.4243 55.9044 54.0801 57.0696C54.2116 57.1616 54.353 57.2387 54.5017 57.2996C54.287 60.4348 54.0571 63.9455 53.8194 67.694C50.5061 66.8746 47.1065 66.4551 43.6933 66.4445C40.7244 66.3958 37.7737 66.9162 35.0006 67.9776C28.1017 70.4152 22.8585 74.409 18.7038 81.8828C18.6578 81.9595 16.2125 86.4821 15.5149 88.1685C14.4954 90.6062 14.1198 93.1664 16.6877 93.772C17.4017 93.9184 18.1424 93.8626 18.8264 93.611C17.8222 98.1184 14.8404 115.649 14.8327 115.749C13.6215 115.343 5.2968 112.798 4.13931 113.288C4.01616 113.342 3.91867 113.442 3.86724 113.566C3.81581 113.691 3.81442 113.83 3.86335 113.955C4.43827 115.749 14.9707 122.28 17.416 123.414C18.4891 123.905 18.4738 123.683 18.8341 123.07C21.9539 117.811 26.8062 105.623 30.179 100.18C29.1595 111.403 33.0306 127.01 36.3114 137.826C34.7783 138.776 29.7191 141.206 28.0097 142.916C27.9407 142.992 25.5874 144.679 27.1511 145.384C27.6647 145.667 29.6348 145.568 31.9651 145.322C32.9616 145.208 42.4515 144.111 42.9267 143.345C43.2947 142.862 42.7888 140.493 42.6431 139.711C42.2117 137.01 42.0346 134.274 42.1142 131.54C42.3365 121.667 46.7135 110.437 49.9483 105.899C50.8525 106.908 51.5225 108.104 51.9107 109.402C51.6961 121.245 51.972 131.341 53.2138 136.132C54.0125 139.659 56.151 142.737 59.1776 144.717C67.1727 150.006 81.7525 149.37 90.6062 146.748C94.1706 145.69 98.54 143.751 102.518 144.104C105.546 144.364 107.539 145.89 112.706 146.84C120.164 148.205 122.671 145.644 126.925 143.774C131.525 141.773 134.752 140.762 139.481 142.494C141.12 143.174 142.693 144.003 144.18 144.97C145.001 145.537 144.947 145.683 145.254 145.667C145.314 145.661 145.37 145.636 145.415 145.597C145.461 145.557 145.493 145.504 145.506 145.445C145.506 145.231 146.143 146.411 135.756 129.363ZM30.225 99.6514C27.3964 103.929 23.2724 113.02 20.4208 118.815C18.7508 117.872 17.0745 116.939 15.3923 116.017C15.6376 114.875 19.0257 94.2856 19.1637 93.519C21.701 92.5685 24.3302 90.2306 28.071 92.8751C29.0752 93.588 30.0717 94.6842 31.1372 95.6194C30.8141 96.256 30.6016 96.9429 30.5086 97.6508C30.3937 98.2793 30.294 98.9386 30.2173 99.6208L30.225 99.6514ZM41.7233 137.136C40.1178 137.201 38.5217 137.414 36.9553 137.772C34.2724 128.274 28.5616 109.356 30.8842 97.5358C31.0069 96.8919 31.1142 96.4856 31.1909 96.2173C31.3672 95.6731 31.3672 95.7957 31.6815 96.0333C35.0236 98.5859 36.9783 96.8919 40.0139 97.9804C40.9086 98.3131 41.7445 98.7867 42.4898 99.3832C43.451 100.243 44.1655 101.344 44.5595 102.572C44.7308 103.086 45.051 103.536 45.4794 103.867C47.1581 105.339 48.4689 104.672 49.8104 105.761C49.6877 105.784 40.1442 119.773 41.6849 137.113L41.7233 137.136ZM101.33 106.757C98.402 108.842 91.2961 111.686 83.2856 112.361C81.4306 112.522 80.3804 112.499 79.9894 112.583C79.9894 111.403 79.9894 110.192 80.0431 108.957C81.0013 108.881 83.4236 108.497 83.7839 108.436C88.0612 107.67 94.3929 106.136 97.5818 103.17C98.3483 103.844 98.3483 103.89 98.5553 103.837C99.5277 102.986 100.39 102.018 101.123 100.955C103.745 97.2598 105.585 92.6222 105.968 85.7922C105.968 85.7309 106.052 83.9755 106.037 83.3623C107.84 82.6121 109.446 81.4551 110.728 79.9818C110.207 89.5713 109.617 100.794 101.292 106.734L101.33 106.757ZM79.8668 57.4605C78.9603 57.1404 78.0874 56.7322 77.2605 56.2417C77.1763 56.1643 77.1217 56.0599 77.1063 55.9465C77.0909 55.8331 77.1156 55.7179 77.1762 55.6208C77.7664 55.0382 79.2076 55.4598 79.9741 55.7818C80.1044 55.8354 80.3114 55.9274 80.4187 55.6668C80.526 55.4062 80.4187 55.4215 79.6522 54.9463C79.4069 54.7929 78.7936 54.402 78.372 54.0877C78.0963 53.9234 77.8792 53.6768 77.7511 53.3825C77.6975 53.1295 77.9351 52.7693 78.5177 52.7922C79.5937 52.9978 80.5991 53.4755 81.4382 54.1797C81.4648 54.2092 81.4973 54.2329 81.5336 54.249C81.57 54.2652 81.6093 54.2736 81.649 54.2736C81.6888 54.2736 81.7281 54.2652 81.7644 54.249C81.8007 54.2329 81.8332 54.2092 81.8598 54.1797C82.0515 53.9114 81.9978 52.3093 82.5497 51.2055C82.657 51.0445 82.7414 50.8452 82.91 50.8375C83.5999 50.8375 83.6306 52.6159 83.6152 53.2675C83.6152 55.2529 83.2396 55.0612 83.7532 55.6208C84.3555 56.1982 85.0156 56.7119 85.7232 57.1539C85.4856 57.4682 86.1372 56.6403 82.5037 61.1246C82.0898 60.7107 81.5455 59.3539 81.1316 59.4919C79.9894 60.0668 76.7623 58.986 76.8849 58.0508C76.9692 57.3839 78.418 57.6445 79.1386 57.7518C79.8591 57.8591 79.7901 57.8668 79.9051 57.7518C79.9241 57.7287 79.938 57.7019 79.9461 57.6731C79.9541 57.6443 79.956 57.6141 79.9516 57.5845C79.9473 57.5549 79.9368 57.5266 79.9209 57.5013C79.905 57.4759 79.8839 57.4542 79.8591 57.4375L79.8668 57.4605ZM76.3713 30.3093C76.9064 30.5923 77.488 30.7767 78.0884 30.8536C78.2494 30.7003 78.2417 30.7616 78.0884 30.6006C77.5598 30.426 77.0628 30.1671 76.6166 29.8341C76.6856 29.3895 77.7741 26.5226 78.0347 25.6487C78.1957 25.1121 78.2417 24.9741 78.372 24.4836C78.7652 24.4607 79.1593 24.4607 79.5525 24.4836C79.558 25.2506 79.6769 26.0126 79.9051 26.7449C80.5644 27.841 83.5539 27.91 84.8264 27.8564C86.0989 27.8027 86.6124 27.7414 87.126 27.0132C86.5205 29.2659 86.1758 31.5807 86.0988 33.9121C85.7352 34.5877 85.2309 35.1775 84.62 35.6416C84.0091 36.1058 83.3057 36.4335 82.5574 36.6027C78.7783 37.2006 76.7853 36.3727 74.6389 33.3832C73.555 31.8672 72.8577 30.1094 72.6076 28.2626C73.9887 28.3303 75.3685 28.103 76.655 27.5957C75.8347 29.7957 75.9344 30.041 76.3713 30.3093ZM80.2041 22.0919C81.1239 21.9156 85.9379 22.1379 88.5595 22.1916C88.2605 22.9581 87.8619 24.2229 87.4633 25.6717C87.2419 26.2732 86.9205 26.833 86.5128 27.3275C85.9455 27.6494 82.2891 27.5804 80.8633 26.8062C80.1811 26.4459 80.1811 26.3923 80.1811 22.0919H80.2041ZM83.8988 36.7943L83.8299 36.894C83.1496 38.0311 82.3807 39.1127 81.5302 40.1288C81.2466 39.7072 79.9971 37.8292 79.6982 37.2926C80.6664 37.3885 81.6431 37.3575 82.6034 37.2006C83.0538 37.1338 83.4909 36.9967 83.8988 36.7943ZM74.7002 38.2661C74.8842 40.338 75.2484 42.3899 75.7888 44.3985C74.8112 44.1562 73.8208 43.9694 72.8222 43.8389C73.2055 42.8424 74.5623 38.5727 74.6849 38.2508L74.7002 38.2661ZM75.2215 37.0933C75.7601 36.8686 76.2739 36.5886 76.7546 36.2578C77.5346 36.7885 78.4264 37.1321 79.3609 37.2619C79.8001 38.3692 80.3443 39.4319 80.986 40.4355C76.8543 44.3295 76.6703 44.5748 77.0689 44.5135C77.8354 44.3525 80.756 41.524 81.2926 41.0027C81.9441 41.6619 84.7114 45.2494 85.2403 45.8473C85.5086 46.0619 85.6696 45.7936 85.9302 45.5483C87.0264 44.5212 87.5476 44.0689 87.8236 43.8543C81.4229 61.8145 85.1177 53.5818 83.7379 50.9219C83.6611 50.7098 83.5072 50.5344 83.3069 50.4307C83.1066 50.327 82.8746 50.3025 82.657 50.3623C82.4702 50.4606 82.3056 50.5965 82.1737 50.7613C82.0418 50.9262 81.9454 51.1166 81.8905 51.3205C82.0055 48.0856 82.0668 45.9546 82.0285 45.349C82.0285 45.1957 82.5037 45.2494 76.034 44.4139C76.0417 44.3219 75.2215 37.1546 75.2062 37.078L75.2215 37.0933ZM82.3657 61.3776C82.0821 61.7609 81.8292 62.1442 81.5992 62.4201C81.5992 61.6996 81.6759 61.0557 81.7142 60.5037C81.8744 60.825 82.0897 61.1155 82.3504 61.3623L82.3657 61.3776ZM81.5072 64.5818C85.7386 76.9616 91.6333 87.5783 104.166 83.9985C104.711 83.8452 105.24 83.6689 105.769 83.4619C105.769 90.5372 103.63 98.4863 98.4556 103.316C92.9634 98.1815 86.9666 93.6152 80.5567 89.6863C80.7253 81.7065 81.1469 71.1741 81.4919 64.5665L81.5072 64.5818ZM93.0055 38.0285C94.0038 38.1646 94.9869 38.3956 95.9414 38.7184C96.3065 38.8589 96.7107 38.8589 97.0758 38.7184C97.5095 38.5588 97.9175 38.3367 98.287 38.0592C99.6285 38.1818 104.182 41.294 106.182 43.264C108.482 45.5637 111.096 50.278 112.637 55.6745C114.706 63.2173 115.22 75.7044 108.727 80.9706C105.132 83.8835 99.3755 84.8034 95.5657 83.4159C88.0459 80.756 84.3358 70.9288 81.7678 63.386C81.9901 62.4968 86.4591 57.1309 87.011 56.487C92.2696 56.349 102.388 63.9762 103.683 66.8354L103.913 66.7281C102.764 64.1679 94.9525 57.8438 89.303 56.326C89.4793 54.8389 89.786 50.6076 89.786 50.5309C91.5797 50.4006 93.542 50.6612 93.6187 50.1553C93.6647 49.2585 92.0856 39.9372 91.7637 38.2585C92.145 38.0906 92.5581 38.0069 92.9748 38.0132L93.0055 38.0285ZM90.3455 38.864C90.7444 38.723 91.1358 38.5618 91.5184 38.3811C91.5184 38.4578 92.9365 49.7797 92.9441 49.8794C88.9504 50.0327 89.188 49.6187 89.1497 51.1518C89.1497 51.2208 89.0424 55.6438 89.0271 56.303C88.6515 56.2111 87.011 55.8891 86.7274 56.0961C86.6048 56.2187 86.3518 56.5023 86.0145 56.8626C85.6772 56.6097 84.9337 56.0961 84.4278 55.6285C84.9797 54.425 83.6229 57.5449 90.3149 38.8487L90.3455 38.864ZM88.0459 43.402C87.1661 43.9526 86.3283 44.5675 85.5393 45.2417C84.8954 44.3679 82.8947 41.7386 81.9288 40.7038C82.8124 39.7581 83.5117 38.6558 83.9908 37.4536C84.1092 37.2125 84.1869 36.9535 84.2208 36.687C84.9729 36.2657 85.6304 35.6943 86.1525 35.0083C86.3441 37.4076 87.264 39.186 89.6173 39.0327C89.234 39.9065 88.7358 41.2863 87.9922 43.3867L88.0459 43.402ZM71.9483 18.8724C72.4313 19.6926 72.4083 19.8306 72.8759 20.0759C73.4072 20.3253 73.9913 20.441 74.5776 20.4132C75.6508 20.2752 76.3407 19.225 77.3602 19.1024C77.5595 19.1024 79.8668 20.6815 81.1929 20.2599C82.5191 19.8383 83.2013 18.8111 84.1595 19.2787C85.1177 19.7463 85.5469 21.0341 87.6166 20.3519C88.2681 20.0686 88.8874 19.7166 89.464 19.3017C89.3197 20.1062 89.1042 20.8963 88.8201 21.6627C87.0264 21.54 81.9211 21.356 80.503 21.4557C79.8208 21.5017 79.4759 21.4557 79.5295 23.1958C78.9236 23.1467 78.314 23.1673 77.7128 23.2571C77.7206 22.9344 77.7052 22.6117 77.6668 22.2912C77.5748 21.6627 77.4138 21.5937 77.0229 21.5247C76.632 21.4557 74.202 21.5247 71.8487 21.563C71.7188 20.6597 71.7292 19.7419 71.8793 18.8417L71.9483 18.8724ZM77.0382 22.1839C77.1766 23.7349 77.1044 25.2975 76.8236 26.8292C75.9651 27.8794 71.2584 28.255 70.6299 27.7031C69.9093 26.7372 68.5755 23.2724 68.2536 22.3372C69.6564 22.2912 76.9692 21.9386 76.9692 22.1532L77.0382 22.1839ZM67.0807 36.9783C69.3994 37.7623 71.8808 37.9366 74.2863 37.4842C73.7881 38.8564 72.8835 42.0835 72.1936 43.7086C72.1553 43.8159 60.5804 42.2675 60.4271 42.1755C65.7853 36.5184 66.1532 37.7679 67.0807 36.9783ZM54.1644 56.8626C52.7923 55.8738 52.7693 54.195 52.9532 52.5086C53.011 51.6814 53.1523 50.8621 53.3748 50.0633C53.5117 49.419 53.7921 48.8137 54.195 48.2926C54.3943 48.0703 54.6933 47.9783 54.8389 48.2006C54.8389 48.2773 55.0306 48.2543 55.0459 49.1665C55.0459 51.0062 54.5706 51.6578 55.0459 51.7267C55.1302 51.7267 58.4647 50.3776 59.078 51.4661C59.3539 52.064 58.549 52.3093 57.6598 52.6006C56.0041 53.1449 55.7971 53.0222 55.8354 53.3672C55.8738 53.7121 56.2954 53.3672 57.7595 53.5358C58.3804 53.6048 59.3463 53.9574 59.0013 54.4863C58.8173 54.8619 57.2229 55.0152 56.7017 55.0766C55.9351 55.1686 55.7435 55.1149 55.7281 55.3985C55.7128 55.6821 56.0807 55.6515 56.786 55.7281C58.664 55.9351 58.6564 56.3337 58.687 56.4104C58.871 57.4912 55.3219 57.7058 54.1644 56.8626ZM82.7184 147.668C78.6301 148.255 74.4812 148.286 70.3846 147.76C62.1978 146.817 55.8891 143.851 53.7504 135.971C50.4696 123.913 53.8654 73.3435 54.8313 57.4145C56.0884 57.8208 58.0278 57.7978 58.8097 57.1233C58.9469 57.019 59.0451 56.8715 59.0882 56.7046C59.1313 56.5377 59.1169 56.3611 59.0473 56.2034C58.931 56.023 58.7781 55.8691 58.5985 55.7516C58.4189 55.6341 58.2166 55.5556 58.0048 55.5212C57.4912 55.3832 57.8208 55.5212 58.7713 55.2682C59.9518 54.9463 60.0132 53.5205 58.3727 53.1219C57.9511 53.0222 57.9205 53.1219 58.1964 52.9915C58.848 52.7616 59.6759 52.4703 59.7295 51.7727C59.7414 51.5883 59.7045 51.4041 59.6224 51.2385C59.5403 51.073 59.4159 50.932 59.2619 50.8299C58.3727 50.1706 56.4717 50.6842 55.4292 51.0445C55.4292 50.7302 55.7665 49.0591 55.4292 48.1546C55.6132 44.8815 55.6975 42.6968 55.6438 42.0222C82.7797 45.7247 81.8675 45.5407 81.7065 45.5407C81.7065 47.2884 81.5839 50.0327 81.4459 53.5051C80.526 52.8919 78.786 51.8877 77.7971 52.386C77.626 52.467 77.4802 52.593 77.3753 52.7506C77.2705 52.9082 77.2105 53.0914 77.2018 53.2805C77.1931 53.4696 77.2361 53.6575 77.3261 53.824C77.4162 53.9905 77.5498 54.1294 77.7128 54.2257C78.4793 54.9309 78.763 54.8466 78.3184 54.8159C76.9922 54.724 76.471 55.4445 76.6626 56.1267C76.7392 56.3041 76.8516 56.4637 76.9927 56.5956C77.1338 56.7275 77.3007 56.8289 77.4828 56.8933C78.4947 57.4069 78.3414 57.1233 77.4828 57.2306C76.4097 57.3609 76.103 58.3421 77.2605 59.078C77.844 59.4359 78.4933 59.6732 79.17 59.7759C79.8468 59.8786 80.5372 59.8446 81.2006 59.6759C81.2006 59.7525 80.1657 75.4131 79.7901 96.3093C79.2229 114.852 79.0236 131.571 80.434 133.487C81.0779 138.217 85.7999 144.985 91.0431 145.974C88.3263 146.794 85.5396 147.361 82.7184 147.668ZM143.82 144.035C140.662 142.118 138.017 140.877 134.116 140.968C126.128 141.244 123.154 147.867 113.25 146.25C105.899 145.07 104.511 142.325 97.6738 143.866C95.4201 144.372 93.7797 145.077 91.5873 145.775C86.988 144.955 81.9748 138.477 80.7867 133.717C80.7867 133.717 87.4786 129.946 89.326 129.118C97.0528 125.829 98.8696 128.964 106.435 131.341C112.951 133.395 115.09 132.268 120.755 129.693C123.997 128.213 126.511 127.439 130.083 127.998C131.89 128.272 133.639 128.845 135.258 129.693C144.824 145.437 144.226 144.288 143.82 144.035ZM31.4285 17.5463C29.9567 20.7428 29.6578 25.5721 31.3058 28.439C31.9575 29.5406 32.7953 30.521 33.7818 31.3365C35.2858 32.4265 37.0086 33.1768 38.8311 33.5355C40.6536 33.8942 42.5323 33.8527 44.3372 33.4139C46.6243 32.762 48.6843 31.4851 50.2856 29.7268C51.221 28.7502 51.9159 27.569 52.3151 26.2769C52.7143 24.9849 52.8068 23.6176 52.5853 22.2836C51.9567 17.3776 48.0396 12.1498 41.2863 12.1268C37.1776 12.1114 33.2069 13.7978 31.4285 17.5463ZM49.2891 29.9951C46.0696 32.9079 42.4975 33.9734 38.0898 32.793C37.0093 32.5376 35.9749 32.1161 35.0236 31.5435C33.4614 30.581 32.2187 29.1782 31.4515 27.5114C29.8571 23.9163 30.7769 18.3128 33.2912 15.5456C39.1553 9.09123 51.5811 12.7553 52.2097 22.3219C52.4703 26.1086 51.1902 28.2856 49.2891 29.9951Z" fill="black"/>
<path fill-rule="evenodd" clip-rule="evenodd" d="M32.9003 12.8013C30.9376 14.2873 29.542 16.3997 28.9449 18.788C26.7756 25.8709 29.5505 31.6124 34.5024 33.9734C38.0124 35.6741 42.0373 35.9783 45.763 34.8242C48.6989 33.7894 52.0027 31.3364 53.4285 28.6918C55.6668 24.4835 55.0919 17.7148 49.979 13.1232C46.3149 9.8807 38.7337 8.61589 32.9003 12.8013ZM50.6383 31.1371C46.9205 34.464 42.6431 35.7364 37.5149 34.372C35.7331 33.9489 34.0677 33.1345 32.6397 31.988C26.5073 26.8291 27.1358 12.8779 38.7721 10.9769C49.5038 9.20613 54.3407 17.9908 54.1031 24.1922C54.051 25.5293 53.7151 26.84 53.1177 28.0374C52.5204 29.2347 51.6752 30.2914 50.6383 31.1371Z" fill="black"/>
</svg>
