<svg width="153" height="131" viewBox="0 0 153 131" fill="none" xmlns="http://www.w3.org/2000/svg">
<path d="M117.037 48.8959C116.715 48.8959 116.715 49.4938 117.037 49.4938C117.804 49.4938 128.482 49.3175 129.379 49.1412C129.46 49.129 129.535 49.0878 129.589 49.0252C129.643 48.9626 129.672 48.8827 129.672 48.8001C129.672 48.7175 129.643 48.6377 129.589 48.5751C129.535 48.5125 129.46 48.4713 129.379 48.459C126.565 48.0911 120.134 48.8346 117.037 48.8959ZM121.315 64.5489C120.962 64.5489 121.023 65.1391 121.361 65.1545C123.859 65.2388 127.754 65.1085 130.306 64.9935C130.774 64.9935 130.827 64.2269 130.306 64.2269C127.447 64.2423 124.181 64.2806 121.315 64.5489ZM121.644 38.1106C121.57 38.1138 121.499 38.1439 121.445 38.1952C121.392 38.2466 121.358 38.3158 121.352 38.3898C121.345 38.4639 121.366 38.5378 121.41 38.5979C121.454 38.6579 121.518 38.6999 121.59 38.7162C122.963 38.8848 127.416 39.0611 128.758 38.4939C128.826 38.4598 128.882 38.4044 128.916 38.3358C128.951 38.2673 128.962 38.1895 128.948 38.1141C128.934 38.0388 128.896 37.97 128.84 37.9182C128.783 37.8664 128.711 37.8343 128.635 37.827C126.857 37.7196 124.005 38.2869 121.644 38.1106ZM112.89 52.9203C119.36 52.8283 126.688 52.3761 133.219 51.7782C133.625 51.7782 133.587 51.0116 133.165 51.0116C126.742 51.1726 119.237 51.5942 112.852 52.2534C112.763 52.2585 112.681 52.2985 112.622 52.3646C112.563 52.4308 112.532 52.5176 112.538 52.606C112.543 52.6945 112.583 52.7773 112.649 52.8362C112.715 52.8951 112.802 52.9254 112.89 52.9203ZM122.165 18.7782C123.967 18.6402 125.768 18.5329 127.531 18.3183C128.037 18.2646 127.907 17.5517 127.409 17.5517C125.615 17.6897 123.821 17.9197 122.043 18.1266C121.629 18.1726 121.744 18.8089 122.165 18.7782ZM111.648 34.7684C111.265 34.7684 111.25 35.42 111.648 35.4506C115.982 35.6525 120.324 35.3489 124.588 34.5461C125.071 34.4618 124.994 33.6952 124.503 33.7796C120.258 34.5036 115.955 34.8346 111.648 34.7684ZM125.914 22.45C126.581 22.6109 126.68 21.5224 126.067 21.6298C123.075 22.1148 120.043 22.3022 117.014 22.1893C116.608 22.1893 116.516 22.7796 116.93 22.8256C119.927 23.1265 122.952 23 125.914 22.45ZM109.31 52.56C108.712 52.3301 105.953 52.7134 105.179 52.7977C104.803 52.7977 104.788 53.4032 105.179 53.3956L108.314 53.2959C109.763 53.2423 109.755 52.7363 109.31 52.56ZM112.476 85.7287C111.832 85.5753 107.256 85.9203 106.505 85.9663C106.106 85.9663 106.183 86.5795 106.581 86.5719C107.394 86.5719 111.848 86.5719 112.553 86.3496C112.867 86.2422 112.76 85.79 112.476 85.7287ZM106.497 82.4861C108.651 82.5858 113.986 82.6778 116.14 82.1642C116.191 82.1638 116.24 82.1529 116.286 82.1321C116.332 82.1114 116.373 82.0812 116.406 82.0436C116.44 82.0061 116.465 81.9619 116.481 81.914C116.496 81.8661 116.501 81.8155 116.496 81.7654C116.49 81.7154 116.475 81.667 116.449 81.6235C116.424 81.5799 116.39 81.5421 116.349 81.5125C116.309 81.4829 116.262 81.4622 116.213 81.4516C116.164 81.4411 116.113 81.441 116.064 81.4513C112.913 81.4513 109.993 81.9802 106.589 81.8422C106.183 81.8269 106.075 82.4632 106.497 82.4861ZM113.933 68.8569C114.393 68.7726 114.354 68.0903 113.871 68.0903C110.468 68.4353 109.755 68.5196 106.267 68.6576C105.93 68.6576 105.892 69.2402 106.267 69.2632C108.829 69.4333 111.403 69.2969 113.933 68.8569ZM118.655 64.0353C114.485 64.1886 110.154 64.8938 105.8 65.0471C105.722 65.0591 105.651 65.0985 105.6 65.1583C105.548 65.2181 105.52 65.2942 105.52 65.3729C105.52 65.4517 105.548 65.5278 105.6 65.5875C105.651 65.6473 105.722 65.6867 105.8 65.6987C109.41 65.6987 115.22 65.5301 118.739 64.7482C118.812 64.7157 118.873 64.6605 118.913 64.5908C118.953 64.521 118.969 64.4403 118.96 64.3606C118.95 64.2809 118.916 64.2063 118.861 64.1477C118.806 64.0892 118.734 64.0498 118.655 64.0353ZM132.859 83.8506C132.797 83.8506 128.589 84.1956 127.869 84.1726C127.8 84.1848 127.738 84.2188 127.69 84.2694C127.643 84.32 127.613 84.3845 127.605 84.4535C127.598 84.5224 127.612 84.5919 127.647 84.6518C127.682 84.7117 127.736 84.7587 127.8 84.7858C128.658 84.9468 132.276 85.0081 133.02 84.3795C133.057 84.3383 133.083 84.288 133.095 84.2336C133.108 84.1793 133.106 84.1227 133.089 84.0694C133.073 84.0161 133.043 83.9679 133.003 83.9295C132.963 83.8912 132.913 83.864 132.859 83.8506ZM134.216 67.1322C128.903 67.4771 122.97 67.6764 117.681 68.1287C117.267 68.1287 117.344 68.7496 117.742 68.7726C120.602 68.8569 130.774 68.3356 134.285 67.891C134.335 67.8872 134.383 67.8734 134.428 67.8504C134.473 67.8273 134.512 67.7956 134.545 67.757C134.577 67.7184 134.601 67.6737 134.615 67.6257C134.63 67.5776 134.635 67.5271 134.629 67.4771C134.62 67.3767 134.571 67.2842 134.493 67.2196C134.416 67.155 134.316 67.1236 134.216 67.1322ZM114.262 49.7008C114.364 49.7008 114.461 49.6604 114.533 49.5886C114.605 49.5167 114.646 49.4192 114.646 49.3175C114.646 49.2159 114.605 49.1184 114.533 49.0465C114.461 48.9746 114.364 48.9343 114.262 48.9343C110.958 49.0186 107.624 49.0416 104.297 49.2945C104.226 49.3104 104.162 49.3502 104.116 49.4074C104.07 49.4645 104.045 49.5356 104.045 49.6088C104.045 49.6821 104.07 49.7531 104.116 49.8103C104.162 49.8674 104.226 49.9072 104.297 49.9231C107.639 49.9844 110.958 49.8081 114.262 49.7008ZM127.332 80.6464C126.167 80.6464 121.966 80.9454 120.97 81.1217C120.648 81.1754 120.602 81.7043 120.97 81.7196C122.05 81.7733 126.228 81.505 127.439 81.3977C127.907 81.413 127.807 80.6464 127.332 80.6464ZM125.094 84.9468L115.458 85.56C115.021 85.56 115.128 86.2269 115.558 86.2039C117.428 86.1196 123.446 85.882 125.132 85.652C125.508 85.606 125.515 84.9468 125.094 84.9468ZM118.195 18.3183C115.366 17.9963 106.489 18.5329 103.477 18.8395C103.063 18.8778 103.032 19.5217 103.477 19.4834C108.429 19.1615 113.25 19.0541 118.202 19.0695C118.289 19.051 118.366 19.0032 118.422 18.9342C118.477 18.8652 118.506 18.7792 118.506 18.6907C118.505 18.6023 118.473 18.5169 118.417 18.449C118.36 18.3811 118.281 18.3349 118.195 18.3183ZM119.015 39.0074C119.498 38.9384 119.321 38.2409 118.839 38.2409C113.905 38.803 108.941 39.059 103.975 39.0074C103.903 39.0189 103.838 39.0557 103.79 39.1112C103.743 39.1667 103.717 39.2373 103.717 39.3102C103.717 39.3832 103.743 39.4537 103.79 39.5092C103.838 39.5647 103.903 39.6015 103.975 39.613C108.996 39.8548 114.029 39.6522 119.015 39.0074ZM113.81 22.9559C113.86 22.9511 113.909 22.9364 113.954 22.9125C113.999 22.8887 114.038 22.8562 114.07 22.817C114.102 22.7778 114.126 22.7327 114.141 22.6841C114.155 22.6356 114.16 22.5847 114.155 22.5343C114.15 22.4839 114.135 22.4349 114.112 22.3902C114.088 22.3455 114.055 22.306 114.016 22.2739C113.977 22.2418 113.932 22.2178 113.883 22.2033C113.835 22.1888 113.784 22.184 113.733 22.1893C110.353 22.6109 107.149 22.6263 103.814 22.9176C103.462 22.9559 103.423 23.5308 103.814 23.5461C107.156 23.6002 110.498 23.4028 113.81 22.9559ZM104.312 35.0904C103.929 35.0904 103.921 35.6959 104.358 35.7113C105.734 35.8408 107.117 35.8767 108.498 35.8186C108.56 35.7908 108.613 35.7456 108.65 35.6885C108.687 35.6314 108.707 35.5647 108.707 35.4966C108.707 35.4285 108.687 35.3619 108.65 35.3048C108.613 35.2476 108.56 35.2025 108.498 35.1747C108.36 35.098 105.018 35.0904 104.312 35.0904ZM94.7459 39.5057C95.1905 39.5057 96.8386 36.7768 97.7661 35.8416C98.1034 35.5043 97.5515 34.9371 97.2065 35.259C96.2286 36.1406 95.3819 37.1577 94.6922 38.2792L92.7529 36.4932C92.3543 36.1252 91.8407 36.7538 92.2086 37.1294C92.5766 37.505 94.1786 39.5057 94.7459 39.5057ZM89.5027 26.9879C92.6456 27.1719 95.911 27.1106 99.3605 27.1336C99.6058 27.1336 99.7515 26.4514 99.3605 18.3106C99.3605 17.7203 99.3069 17.2834 99.2992 17.1224C99.3012 17.0987 99.2981 17.0748 99.2902 17.0524C99.2822 17.0299 99.2696 17.0094 99.2532 16.9921C99.0309 16.7545 97.5821 16.7698 94.3243 16.8541C88.8435 16.9845 88.2379 16.9461 88.2379 17.2604C88.2149 17.3217 88.5598 26.896 89.5027 26.9879ZM89.7173 26.4207C89.3341 24.374 89.0581 20.0507 88.8205 17.6284C91.0511 17.7587 96.1334 17.5057 98.6936 17.4444C98.6936 17.4444 98.8316 24.259 98.8929 26.459C95.8881 26.39 92.7529 26.275 89.6867 26.3824L89.7173 26.4207Z" fill="black"/>
<path d="M100.418 41.5063C101.062 41.2533 100.311 34.1091 100.204 32.231C100.198 32.1924 100.179 32.157 100.15 32.1314C99.69 31.7327 89.9625 32.2617 89.4719 32.3C88.9813 32.3383 89.4719 35.0059 89.5562 36.8226C89.7325 41.3453 89.9395 41.7362 90.1694 41.7669C91.8405 42.0045 98.8851 42.1042 100.418 41.5063ZM89.9395 32.9286C93.2586 32.7139 96.6238 32.6986 99.6133 32.6833C99.69 34.477 99.8126 39.5286 99.966 40.893C96.8418 41.2161 93.6979 41.3058 90.5604 41.1613C90.6907 40.0192 90.0545 34.224 89.9395 32.9286ZM96.1792 52.284L97.9576 50.6742C98.0094 50.5866 98.0322 50.4848 98.0228 50.3834C98.0133 50.282 97.9721 50.1863 97.9049 50.1097C97.8377 50.0332 97.7481 49.9799 97.6488 49.9574C97.5495 49.9348 97.4456 49.9443 97.352 49.9843C96.6238 50.4328 95.9631 50.9825 95.3896 51.6171L93.7952 50.1453C93.7088 50.065 93.5941 50.0223 93.4762 50.0266C93.3583 50.0309 93.247 50.0819 93.1667 50.1683C93.0863 50.2547 93.0437 50.3694 93.048 50.4873C93.0523 50.6052 93.1032 50.7165 93.1896 50.7968L94.7227 52.3299C93.343 53.7864 92.7374 54.6986 92.8754 55.1125C93.0133 55.5265 93.5116 55.3425 93.6419 55.1585C94.1785 54.4993 94.7841 53.7481 95.4356 53.0505C96.0816 53.7557 96.7982 54.3928 97.5743 54.9516C97.6544 54.9723 97.7386 54.9711 97.818 54.948C97.8975 54.925 97.9692 54.8809 98.0257 54.8205C98.0822 54.7601 98.1214 54.6855 98.1391 54.6047C98.1567 54.5239 98.1523 54.4398 98.1262 54.3613C97.5492 53.6048 96.8968 52.9087 96.1792 52.284ZM96.5855 19.422C95.361 20.4928 94.3606 21.7954 93.6419 23.2547C93.0645 22.5635 92.3997 21.9502 91.6642 21.4303C91.2119 21.116 90.6294 21.7139 91.074 22.0512C91.9484 22.824 92.7656 23.6592 93.5193 24.5502C93.7186 24.7571 93.9102 24.6498 94.0788 24.4275C94.9136 22.8012 95.9433 21.2824 97.145 19.9049C97.513 19.4986 96.9841 19.0463 96.5855 19.422ZM96.3402 69.47C96.7388 69.194 98.2565 66.2658 99.1381 65.2693C99.483 64.886 98.8851 64.3571 98.4942 64.7634C97.4448 65.8445 96.545 67.0614 95.8189 68.3815L94.0328 66.8484C93.6419 66.5188 93.1207 67.109 93.5269 67.5C93.9332 67.8909 95.6809 70.0373 96.3402 69.47ZM102.189 79.2972C101.898 78.7223 91.4113 79.2972 91.3116 79.2972C91.2887 79.3 91.2669 79.3085 91.2482 79.3219C91.2294 79.3352 91.2144 79.3531 91.2043 79.3738C90.8517 79.9411 91.2043 89.1627 91.4572 90.0212C91.7562 91.0637 101.921 90.1975 102.427 90.2435C102.442 90.2469 102.458 90.2469 102.473 90.2435C102.488 90.2401 102.502 90.2334 102.515 90.224C102.527 90.2145 102.537 90.2024 102.545 90.1886C102.552 90.1747 102.556 90.1595 102.557 90.1439C102.718 88.971 102.227 79.3738 102.189 79.2972ZM91.8022 79.8568C94.8684 79.9871 98.4942 79.7954 101.606 79.7878C101.652 81.0679 101.928 88.5801 101.967 89.5919C98.5632 89.7453 95.7039 89.6916 92.0782 89.5919C92.1165 88.3118 91.8482 81.0219 91.8022 79.8798V79.8568Z" fill="black"/>
<path d="M95.5045 84.824C96.0488 84.824 98.8313 85.0157 99.0536 84.893C99.1122 84.8597 99.1623 84.8133 99.2 84.7574C99.2377 84.7016 99.2619 84.6377 99.2708 84.5709C99.2797 84.5041 99.2731 84.4361 99.2514 84.3723C99.2296 84.3085 99.1934 84.2506 99.1456 84.2031C98.7393 83.7739 96.1714 83.8659 95.7421 83.9502C95.1596 84.0575 95.0522 84.2798 95.0676 84.4484C95.088 84.5508 95.1421 84.6435 95.2213 84.7115C95.3005 84.7796 95.4002 84.8192 95.5045 84.824ZM96.5394 62.3258C94.0251 62.3718 91.3805 62.4638 90.9435 62.4944C90.7749 62.4944 90.5986 62.6401 90.5756 64.2345C90.5756 66.1432 90.9052 72.1913 91.6718 72.245C93.2049 72.3599 101.131 72.3906 102.15 72.3139C102.311 72.3139 102.442 72.3139 102.15 68.3279C101.99 66.2735 101.629 62.5404 101.629 62.5404C101.599 62.3871 101.583 62.2491 96.5394 62.3258ZM101.054 63.0004C101.238 65.8596 101.338 68.7878 101.645 71.6624H91.8941C91.5951 68.8951 91.3958 66.0436 91.1812 63.1153L101.054 63.0004ZM92.7526 58.0101C95.8648 58.0101 101.07 57.5885 101.116 57.5655C101.606 57.3126 101.116 50.3906 100.955 47.4317C100.955 46.9028 98.2488 46.8952 96.0028 46.9795C95.0216 46.9795 90.1463 47.2401 90.1617 47.9377C90.4223 58.2018 90.361 57.7035 90.5526 57.8108C91.2699 57.998 92.0133 58.0653 92.7526 58.0101ZM91.1352 57.2436C90.9589 54.2234 90.8975 51.0192 90.7749 48.045C93.958 47.7623 97.1542 47.6548 100.349 47.723C100.349 48.7732 100.556 55.7565 100.686 56.9216C99.5519 56.9983 92.3233 57.0519 91.1582 57.2512L91.1352 57.2436Z" fill="black"/>
<path d="M148.711 69.3551C146.703 14.723 147.546 15.183 147.178 14.861C146.657 14.3704 142.632 14.6924 141.643 14.746L141.229 6.36765C141.249 6.31712 141.256 6.26257 141.251 6.20864C141.245 6.1547 141.226 6.10297 141.196 6.05783C141.166 6.01269 141.125 5.97548 141.078 5.94935C141.03 5.92321 140.977 5.90894 140.923 5.90772C124.825 5.70842 108.26 6.77393 91.6489 7.90075C87.1723 8.21504 82.5193 8.491 77.966 8.97392C77.9234 8.96708 77.8799 8.96978 77.8384 8.98182C77.797 8.99385 77.7588 9.01494 77.7266 9.04354C77.6943 9.07214 77.6688 9.10755 77.6519 9.14721C77.6349 9.18687 77.627 9.22979 77.6287 9.27288C78.4719 29.7398 80.9249 62.8241 85.1639 99.4575C85.2099 99.8791 88.7054 99.5111 91.8482 99.3042C91.8893 100.206 92.0518 101.098 92.3311 101.956C92.7911 102.539 149.654 99.0129 149.585 96.5906C149.339 87.4916 149.01 78.2777 148.711 69.3551ZM144.403 93.2561C124.243 96.3223 106.114 97.1808 85.8691 98.9286C81.8601 64.1962 80.212 40.3718 78.2036 9.51051C84.428 9.14256 107.448 7.02689 140.7 6.58995C141.528 28.8736 144.61 90.8031 144.38 93.2561H144.403ZM48.1779 40.5558C47.6566 40.5558 47.6643 41.5676 47.9096 41.9509C47.9379 42.007 47.982 42.0536 48.0365 42.0849C48.091 42.1163 48.1534 42.131 48.2162 42.1272C48.6838 42.0736 48.6608 40.6094 48.1779 40.5558ZM45.4413 44.9864C45.7709 45.0708 46.6601 45.1244 46.8671 44.8178C47.1583 44.3885 46.3688 40.4945 46.2691 40.2185C46.2486 40.1622 46.2088 40.115 46.1567 40.0853C46.1047 40.0556 46.0437 40.0454 45.9848 40.0564C45.9259 40.0675 45.8729 40.0991 45.8351 40.1456C45.7973 40.1921 45.7773 40.2506 45.7786 40.3105C45.7786 41.008 46.0928 43.3767 46.2155 44.3655L45.4489 44.4115C45.3929 44.4354 45.345 44.475 45.3111 44.5256C45.2771 44.5762 45.2587 44.6356 45.2578 44.6965C45.257 44.7574 45.2739 44.8172 45.3065 44.8687C45.3391 44.9202 45.3859 44.9611 45.4413 44.9864ZM47.5263 39.1223C47.7532 39.0602 47.9918 39.0542 48.2215 39.105C48.4512 39.1557 48.6652 39.2617 48.8448 39.4136C49.1437 39.6819 49.7186 39.1683 48.8984 38.6471C48.3082 38.2485 46.9284 38.1105 47.074 38.8157C47.0978 38.9139 47.1573 38.9997 47.2409 39.0564C47.3245 39.1131 47.4263 39.1366 47.5263 39.1223Z" fill="black"/>
<path d="M70.0015 66.9863C65.0726 62.1264 56.2036 56.4156 48.2315 55.2811C48.3635 54.8255 48.3635 54.3417 48.2315 53.886C48.8383 53.3788 49.4024 52.8224 49.9179 52.2226C51.014 50.9348 50.991 49.6776 49.4273 50.3139C50.9604 46.9257 50.9604 39.5822 50.4085 35.4581C52.9764 37.0602 57.3074 35.5195 56.7785 32.3919C60.2663 33.4421 62.5353 26.5125 58.1046 25.263C58.7255 20.0198 52.0106 19.2609 49.9562 22.3195C48.7987 18.939 43.4789 20.7174 43.8621 23.3697C41.4628 20.794 36.2809 21.6909 35.5604 24.9028C33.3911 22.9327 29.8113 23.7683 30.1256 26.6735C26.6914 25.0791 24.8747 29.1878 27.5423 30.5062C25.8329 31.4261 25.8865 35.2129 28.5081 35.2129C28.5081 37.7425 30.0412 43.5376 33.8357 46.7111C34.2419 50.2602 33.5137 52.0769 32.2489 55.3654C19.7388 57.2665 10.2412 67.0247 5.97923 79.1285C1.1193 92.9264 3.42661 105.958 17.8301 108.702C17.8001 110.543 17.5844 112.377 17.1862 114.175C17.179 114.243 17.1965 114.311 17.2355 114.367C17.2745 114.423 17.3324 114.463 17.3985 114.48C17.4647 114.497 17.5346 114.489 17.5956 114.458C17.6566 114.428 17.7044 114.376 17.7304 114.313C18.2436 112.527 18.5219 110.682 18.5583 108.825C22.0283 109.34 25.5732 108.799 28.7315 107.272C31.8897 105.745 34.515 103.302 36.2656 100.262C38.4846 101.105 40.7495 101.822 43.0496 102.409C50.2858 104.455 59.722 106.487 68.66 104.064C68.4837 108.349 68.2384 111.784 67.8551 115.195C67.8551 115.532 68.3227 115.632 68.3764 115.294C68.6754 113.501 69.4189 105.628 69.3729 103.857C75.0607 102.11 78.8628 98.1619 79.798 93.0337C81.4307 84.341 77.7513 74.5829 70.0015 66.9863ZM37.4461 33.971C37.6454 36.2094 37.4461 37.8038 36.7639 38.8386C36.5109 39.2142 36.1276 39.6052 35.798 39.6052C35.5451 39.3292 33.8893 37.6122 32.3256 38.6163C31.306 39.2832 31.26 40.5787 32.2259 42.2651C32.9162 43.2894 33.4101 44.4331 33.6823 45.6379C30.7465 42.4491 29.8496 39.4595 29.175 35.1745C29.9542 35.034 30.6655 34.6407 31.1987 34.0554C32.5402 36.0484 35.821 35.6498 37.4461 33.971ZM32.6935 39.1223C33.7283 38.486 34.6865 39.2526 35.5604 40.0191C36.074 40.4714 36.9172 39.8351 37.3158 39.2526C38.3583 37.8115 38.2663 35.4198 38.1283 34.224C38.8724 34.9326 39.8605 35.3278 40.8879 35.3278C41.9154 35.3278 42.9035 34.9326 43.6475 34.224C43.8008 36.4317 48.4308 36.9376 49.6496 35.1055C50.2092 38.9383 50.4775 47.2247 48.6224 50.6972C47.0893 51.3717 43.6015 52.9125 41.8691 52.2303C40.382 51.64 39.6308 49.371 37.8984 48.3975C36.7332 47.7536 35.7367 48.4818 36.5492 49.785C38.6036 53.0505 38.4196 54.2923 36.7945 57.6498C35.3703 57.2616 34.0383 56.5917 32.8775 55.6797C34.5639 53.2651 35.0238 48.9571 34.6022 46.0902C34.2266 43.5376 33.8357 43.6909 32.8238 41.8052C32.3562 41.031 31.9423 39.5975 32.6935 39.1223ZM45.6252 54.5836C45.564 54.6119 45.5154 54.6617 45.4884 54.7235C45.4614 54.7852 45.458 54.8547 45.4787 54.9189C45.4995 54.983 45.543 55.0373 45.601 55.0716C45.6591 55.1058 45.7277 55.1177 45.7938 55.1048C46.4512 54.9874 47.0743 54.7256 47.6182 54.3383C47.6624 55.0531 47.4741 55.763 47.0816 56.362C46.9437 56.5536 47.189 57.1285 47.6872 56.4156C47.6489 58.5313 46.5681 61.1452 44.4907 62.1724C43.0828 61.9179 41.7429 61.3744 40.5555 60.5762C39.3681 59.778 38.359 58.7424 37.5918 57.5348C39.8914 53.5947 37.8677 50.6358 37.1931 49.4094C36.8175 48.7041 37.0092 48.5968 37.6224 48.9954C39.0712 49.9153 40.3437 52.4832 41.7464 52.8282C44.391 53.4644 47.6489 51.87 49.2433 51.1571C50.0712 50.7815 50.5541 50.5285 49.5576 51.778C48.2238 53.4261 47.4649 53.771 45.6252 54.5836ZM13.1848 87.2999C13.1571 87.3622 13.1527 87.4325 13.1726 87.4978C13.1924 87.563 13.2352 87.619 13.2929 87.6553C13.3507 87.6916 13.4196 87.7059 13.487 87.6955C13.5544 87.6852 13.6159 87.6509 13.6601 87.5989C20.3827 77.0052 31.5053 69.6539 37.2315 58.3167C38.1207 60.2944 41.9228 62.8393 44.2684 62.8393C44.2684 64.748 44.0768 67.017 43.8775 69.194C41.5778 68.6651 35.3611 66.7181 34.2419 64.1731C34.1116 63.8588 33.6057 64.0735 33.7283 64.3877C34.7785 67.2316 41.2635 69.516 43.8085 69.9989C43.2709 75.7265 42.206 81.3924 40.6273 86.9243C39.4698 91.0637 37.9827 96.0692 35.8363 99.7717C34.1252 102.816 31.507 105.25 28.3467 106.735C25.1863 108.221 21.6413 108.683 18.2057 108.058C4.05519 105.574 1.92418 92.8114 6.73045 79.3278C11.2224 66.6951 21.0573 57.8031 32.4022 56.1167C33.6354 57.026 34.9835 57.7683 36.4113 58.3243C30.6621 69.4163 19.7005 76.6985 13.1848 87.2999ZM41.2865 87.2463C48.7352 84.1072 56.6494 82.2141 64.7123 81.6428C67.0119 81.4895 69.3116 81.4971 71.6112 81.4971C71.9485 81.4971 71.9562 80.9452 71.6112 80.9452C70.0474 80.8367 68.479 80.8086 66.9123 80.8609C66.5367 77.7947 61.0099 68.8491 59.1318 66.3731C59.0837 66.3277 59.0209 66.301 58.9548 66.298C58.8887 66.2949 58.8238 66.3158 58.7717 66.3567C58.7197 66.3975 58.6841 66.4557 58.6714 66.5207C58.6587 66.5856 58.6698 66.6529 58.7025 66.7104C62.4663 71.9842 65.5095 78.6992 66.1151 80.8916C59.3771 81.1445 48.9827 82.7389 41.5012 86.4031C42.2064 83.8198 44.9353 73.1647 44.9966 62.64C47.1046 61.6972 48.6071 58.286 48.4308 55.994C56.3787 57.8041 63.6683 61.7846 69.4879 67.4923C76.3179 74.1842 80.5032 82.8233 79.2154 92.2135C78.5332 97.5794 74.7234 101.734 69.0356 103.244C59.2315 105.927 49.1437 103.597 39.4621 100.592C38.5249 100.276 37.5702 100.015 36.6029 99.81C38.562 95.7814 40.1304 91.5742 41.2865 87.2463Z" fill="black"/>
<path d="M40.911 37.8958C41.1091 37.6031 41.3733 37.361 41.6822 37.1893C41.9911 37.0175 42.3362 36.9208 42.6894 36.907C43.2489 36.907 43.2183 36.0638 42.6894 36.1404C42.2341 36.1883 41.7957 36.3395 41.4078 36.5827C41.0199 36.8258 40.6926 37.1543 40.451 37.5432C40.2517 37.8575 40.6963 38.2024 40.911 37.8958ZM42.72 40.0192C42.4057 40.2721 42.4287 41.5523 42.904 41.5523C43.0127 41.5409 43.1143 41.4931 43.1923 41.4165C43.2703 41.3399 43.32 41.2391 43.3333 41.1307C43.5096 40.4638 43.0573 39.7815 42.72 40.0192ZM42.0455 46.3509C42.0311 46.2909 41.9986 46.2369 41.9524 46.1961C41.9062 46.1554 41.8485 46.1299 41.7873 46.1232C41.726 46.1165 41.6642 46.1288 41.6102 46.1586C41.5563 46.1884 41.5128 46.2341 41.4859 46.2895C41.4092 46.3969 41.2636 46.7265 41.5855 47.3934C41.8041 47.8474 42.1813 48.2056 42.6459 48.4005C43.1105 48.5954 43.6305 48.6135 44.1075 48.4512C44.1721 48.4256 44.225 48.3771 44.2562 48.315C44.2874 48.2529 44.2948 48.1814 44.2768 48.1143C44.2588 48.0471 44.2168 47.9889 44.1588 47.9507C44.1007 47.9125 44.0306 47.8969 43.9618 47.907C42.8733 48.1216 42.2448 47.4317 42.0455 46.3509Z" fill="black"/>
</svg>
