<svg width="154" height="154" viewBox="0 0 154 154" fill="none" xmlns="http://www.w3.org/2000/svg">
<path d="M46.2219 121.51C45.6164 120.66 45.3711 121.878 39.4075 125.65C39.9681 124.11 40.6632 122.622 41.4848 121.204C41.5767 121.05 41.3315 120.912 41.2395 121.066C40.4716 121.119 39.7002 121.086 38.9399 120.966C38.1733 120.905 33.8425 120.774 33.4745 120.782C33.3389 120.763 33.2008 120.773 33.0689 120.81C32.937 120.847 32.8141 120.91 32.708 120.997C32.4857 121.211 28.4844 128.018 25.6329 132.663C25.6215 132.683 25.6149 132.705 25.6135 132.728C25.6122 132.75 25.6161 132.773 25.6251 132.794C25.634 132.815 25.6477 132.833 25.665 132.848C25.6823 132.862 25.7028 132.873 25.7249 132.878C26.5069 132.943 27.2937 132.92 28.0705 132.809C28.9156 132.861 29.7559 132.973 30.5847 133.146C31.4355 133.254 32.2864 133.3 33.1449 133.361C35.1226 133.499 35.2682 133.53 35.4445 133.422C35.6208 133.315 36.9009 131.123 37.0542 130.893C37.8481 131.746 38.5663 132.667 39.2005 133.645C39.3833 133.697 39.5786 133.683 39.7524 133.606C40.2277 133.453 46.4442 131.061 48.6748 128.486C48.9661 128.149 49.2037 127.98 49.0198 127.535C48.8358 127.091 46.5285 121.94 46.2219 121.51ZM35.2605 133.192C35.1915 133.284 30.2781 132.824 29.8105 132.748C29.3429 132.671 28.952 132.579 28.5151 132.541C27.6872 132.472 26.844 132.748 26.0238 132.633C27.5569 130.272 31.8801 122.99 32.5853 121.756C32.7463 121.464 32.8766 121.089 33.2676 121.058C33.6585 121.027 38.1197 121.196 38.9169 121.25C39.6417 121.338 40.3736 121.353 41.1015 121.296C38.9629 124.944 38.4953 128.846 35.2605 133.192ZM48.6595 128.141C47.1724 130.287 39.3691 133.438 39.2312 133.33C38.6794 132.341 37.9932 131.433 37.1922 130.632C37.3608 130.341 38.7253 127.374 39.2465 126.033C39.3231 125.972 45.693 121.556 45.7697 121.549C45.8463 121.541 46.0303 121.748 46.0916 121.855C46.1529 121.963 48.4909 127.106 48.5828 127.321C48.6748 127.535 48.8818 127.834 48.6672 128.141H48.6595Z" fill="black"/>
<path d="M33.7809 124.523C34.2485 123.657 33.666 123.067 33.0144 123.22C32.8744 123.24 32.7399 123.289 32.6193 123.362C32.4986 123.436 32.3942 123.534 32.3124 123.649C32.2307 123.765 32.1733 123.896 32.1437 124.034C32.1142 124.172 32.1131 124.315 32.1406 124.454C32.1912 124.628 32.2951 124.782 32.4378 124.894C32.5805 125.006 32.7548 125.07 32.936 125.078C33.1172 125.086 33.2962 125.036 33.4478 124.937C33.5994 124.837 33.7159 124.692 33.7809 124.523ZM35.2603 123.695C35.1657 123.897 35.143 124.125 35.1961 124.341C35.2491 124.557 35.3746 124.748 35.5516 124.883C35.7345 125.023 35.958 125.098 36.1878 125.098C36.4177 125.098 36.6412 125.023 36.8241 124.883C37.0004 124.739 37.128 124.544 37.1897 124.324C37.2514 124.105 37.2442 123.872 37.169 123.657C37.0753 123.483 36.9356 123.339 36.7652 123.239C36.5948 123.14 36.4002 123.09 36.203 123.093C36.0057 123.097 35.8134 123.156 35.6471 123.262C35.4808 123.368 35.347 123.518 35.2603 123.695ZM34.7774 126.209C34.6545 126.292 34.5519 126.401 34.4771 126.528C34.4023 126.656 34.3573 126.799 34.3455 126.946C34.3337 127.094 34.3554 127.242 34.409 127.38C34.4625 127.518 34.5466 127.642 34.6548 127.743C35.3447 128.264 36.3182 127.106 35.8429 126.324C35.5286 125.788 34.8771 126.14 34.7774 126.209ZM31.489 126.263C31.2777 126.501 31.1653 126.811 31.1747 127.129C31.1822 127.266 31.23 127.397 31.312 127.506C31.3941 127.615 31.5066 127.697 31.6355 127.743C31.7643 127.788 31.9037 127.794 32.0359 127.759C32.1681 127.725 32.2873 127.653 32.3782 127.551C32.6235 127.321 32.9301 126.685 32.7691 126.378C32.7094 126.265 32.6224 126.169 32.5161 126.098C32.4097 126.028 32.2874 125.985 32.1603 125.973C32.0331 125.962 31.9051 125.982 31.7879 126.033C31.6706 126.084 31.5679 126.163 31.489 126.263ZM33.229 131.131C33.284 131.259 33.3753 131.368 33.4918 131.445C33.6083 131.522 33.7448 131.563 33.8844 131.563C34.024 131.563 34.1605 131.522 34.277 131.445C34.3935 131.368 34.4849 131.259 34.5398 131.131C34.6187 131.021 34.6732 130.896 34.6996 130.764C34.7261 130.632 34.7239 130.495 34.6931 130.364C34.2639 129.222 32.9608 130.41 33.229 131.131ZM31.0674 129.368C30.9691 129.316 30.8609 129.287 30.7502 129.282C30.6395 129.277 30.529 129.295 30.4263 129.337C30.3236 129.378 30.2311 129.442 30.1552 129.522C30.0792 129.603 30.0217 129.699 29.9866 129.804C29.9077 129.938 29.8661 130.09 29.8661 130.245C29.8661 130.4 29.9077 130.553 29.9866 130.686C30.0648 130.761 30.1579 130.818 30.2599 130.855C30.3619 130.891 30.4704 130.905 30.5783 130.896C30.6862 130.888 30.7911 130.856 30.8859 130.804C30.9808 130.752 31.0636 130.68 31.1287 130.594C31.2266 130.472 31.2901 130.327 31.3127 130.172C31.3357 129.889 31.3664 129.498 31.0674 129.368ZM39.5299 130.962C39.5446 131.067 39.5875 131.165 39.6539 131.247C39.7203 131.329 39.8078 131.392 39.907 131.428C40.0062 131.464 40.1134 131.473 40.2171 131.453C40.3208 131.433 40.4171 131.385 40.4957 131.315C40.5975 131.229 40.6796 131.122 40.7365 131.002C40.7934 130.881 40.8237 130.75 40.8254 130.617C40.8308 130.546 40.8213 130.474 40.7976 130.407C40.7738 130.34 40.7363 130.278 40.6874 130.226C40.0282 129.705 39.4686 130.356 39.5299 130.962ZM42.9257 128.011C42.7384 128.071 42.5662 128.17 42.4207 128.302C42.2752 128.435 42.1599 128.597 42.0825 128.777C41.9522 129.099 41.9675 129.958 43.0943 129.85C44.5814 129.682 44.4587 127.428 42.9257 128.011ZM45.4169 125.872C44.911 125.512 43.9988 126.179 43.9681 126.83C43.9681 127.651 44.8496 127.497 45.0489 127.436C45.208 127.393 45.3526 127.308 45.4672 127.19C45.5818 127.071 45.6623 126.924 45.7 126.764C45.7377 126.604 45.7313 126.436 45.6815 126.279C45.6316 126.122 45.5402 125.981 45.4169 125.872ZM43.9605 125.497C44.0914 125.455 44.2088 125.379 44.3004 125.277C44.3919 125.174 44.4543 125.049 44.4809 124.914C44.5076 124.78 44.4975 124.64 44.4518 124.511C44.4061 124.381 44.3264 124.266 44.2211 124.178C43.7995 123.841 43.1709 124.04 43.0483 124.761C43.0296 124.839 43.0268 124.919 43.0399 124.998C43.0531 125.077 43.082 125.153 43.1249 125.221C43.1863 125.297 43.6002 125.711 43.9605 125.497ZM42.6037 126.708C42.6727 126.577 43.1863 125.175 42.0365 125.305C40.8867 125.435 40.3884 127.145 41.8295 127.145C41.9857 127.147 42.1397 127.108 42.2757 127.031C42.4118 126.954 42.5249 126.843 42.6037 126.708ZM40.6261 127.949C40.6797 127.827 40.6261 126.83 39.9209 127.045C38.9397 127.344 38.5718 128.448 39.6296 128.578C40.0742 128.639 40.3731 128.524 40.6261 127.949ZM19.4775 130.18C19.2628 130.234 18.7109 130.51 18.573 129.713C18.504 129.406 18.136 129.276 17.8064 129.222C17.0399 129.092 16.4727 129.682 15.9668 130.172C15.6602 130.471 15.0623 130.77 14.863 130.172C14.7556 129.858 14.8016 129.513 14.6943 129.191C14.587 128.869 14.403 128.54 14.1348 128.647C13.9404 128.719 13.7336 128.75 13.5268 128.74C13.3199 128.729 13.1174 128.677 12.9313 128.586C12.5994 128.574 12.2698 128.646 11.9735 128.796C11.6772 128.947 11.4239 129.169 11.2373 129.444C11.1376 129.598 10.9 130.042 10.8004 130.027C10.6483 129.946 10.5131 129.836 10.4018 129.705C8.86869 127.804 6.69941 129.705 8.04084 131.054C8.30674 131.239 8.52054 131.49 8.66173 131.782C8.71785 132.197 8.64843 132.619 8.46243 132.993C8.25547 133.76 8.41644 135.392 9.32861 135.737C12.0575 136.788 13.2379 137.876 14.0734 138.19C14.9162 138.459 15.8215 138.459 16.6643 138.19C16.8302 138.17 16.9893 138.112 17.1289 138.02C17.2686 137.929 17.385 137.806 17.4692 137.661C17.7243 136.828 17.8154 135.954 17.7375 135.086C17.7375 134.864 17.6761 134.542 18.2357 134.542C18.7675 134.554 19.2917 134.413 19.7447 134.134C20.1977 133.855 20.5602 133.451 20.7882 132.97C21.3708 131.552 20.9952 129.804 19.4775 130.18ZM20.7423 132.257C20.599 132.852 20.2653 133.383 19.7921 133.771C19.3188 134.158 18.7319 134.381 18.1207 134.404C17.9291 134.404 17.6915 134.319 17.5841 134.534C17.4768 134.749 17.6838 135.73 17.4538 136.995C17.3772 137.416 17.3005 137.815 16.8406 137.96C14.3111 138.727 13.3222 137.194 10.877 136.105C10.1641 135.799 9.29795 135.707 8.93002 134.94C8.63173 134.281 8.56684 133.541 8.74605 132.84C9.32861 131.384 8.35512 131.307 7.97952 130.617C7.46594 129.636 8.999 128.54 10.0568 129.72C10.2714 129.965 10.4171 130.303 10.7774 130.364C11.1376 130.425 11.2679 130.218 11.3829 129.942C11.5132 129.62 11.7439 129.349 12.0408 129.168C12.3376 128.987 12.6848 128.906 13.031 128.938C13.4039 129.034 13.7927 129.053 14.1731 128.992C14.5027 128.938 14.4874 129.605 14.518 129.873C14.5232 130.156 14.6292 130.428 14.817 130.64C15.3842 131.161 16.0204 130.525 16.4037 130.134C16.6873 129.858 17.7145 129.053 18.3507 129.904C18.5193 130.134 18.527 130.456 18.8336 130.556C19.1402 130.655 19.4468 130.464 19.7458 130.441C20.6963 130.31 20.8726 131.552 20.7423 132.257Z" fill="black"/>
<path d="M15.4304 134.227C14.7175 134.519 12.5712 134.603 12.5252 132.855C12.5252 132.679 12.7322 132.564 12.9161 132.549C12.9405 132.549 12.9639 132.539 12.9812 132.522C12.9984 132.504 13.0081 132.481 13.0081 132.457C13.0081 132.432 12.9984 132.409 12.9812 132.392C12.9639 132.374 12.9405 132.365 12.9161 132.365C12.7355 132.384 12.5677 132.468 12.4427 132.6C12.3178 132.732 12.2438 132.904 12.2339 133.085C12.1956 133.53 12.8778 135.162 15.5223 134.557C15.737 134.503 15.6297 134.143 15.4304 134.227ZM130.51 84.0655C127.07 83.437 123.618 82.926 120.154 82.5325C119.947 82.5325 119.954 82.8238 120.154 82.8468C123.598 83.2658 127.03 83.7564 130.448 84.3185C130.594 84.3185 130.655 84.0885 130.51 84.0655ZM34.0954 85.1234C34.0954 85.2843 34.3483 85.3226 34.379 85.1234C34.6626 83.4753 34.8313 57.1526 15.1467 42.3893C15.0548 42.3203 14.9628 42.4736 15.0548 42.5426C35.1225 58.5707 34.126 84.7171 34.0954 85.1234Z" fill="black"/>
<path d="M148.5 51.8558C148.5 51.8098 148.393 51.6795 148.347 51.6795C144.214 50.4585 140.01 49.4884 135.76 48.7744C135.76 48.7744 135.76 46.7124 135.615 45.7082C135.558 44.8948 135.19 44.1345 134.588 43.585C134.351 43.3582 134.052 43.2088 133.728 43.1568C133.405 43.1048 133.074 43.1525 132.779 43.2937V41.6993C132.625 41.4645 132.41 41.2763 132.158 41.155C130.204 40.6475 128.197 40.3747 126.179 40.3425C121.579 40.5342 120.529 41.1091 120.468 41.4847C120.138 43.7842 120.629 48.9813 120.69 49.9702C120.652 49.8935 109.545 50.9896 108.058 51.1506C108.028 51.1638 108.001 51.1838 107.98 51.2091C107.958 51.2343 107.943 51.2642 107.935 51.2962C108.112 58.287 108.602 62.158 108.633 62.4109C106.64 60.2056 104.46 58.1769 102.117 56.3477C102.296 53.7676 102.037 51.176 101.351 48.6824C100.791 46.1528 100.239 43.6156 99.5877 41.1091C97.0275 31.2975 94.8352 30.232 94.222 25.5025C93.9943 22.894 94.0328 20.2692 94.337 17.6685C94.333 17.5062 94.2834 17.3482 94.194 17.2127C94.1045 17.0772 93.9788 16.9695 93.8311 16.902C93.5213 16.8014 93.1898 16.7881 92.8729 16.8637C92.459 16.9403 86.9936 18.4581 86.0201 18.5654C84.0646 18.7186 82.0982 18.6569 80.1562 18.3814C75.557 17.8755 72.3606 18.1821 67.8304 18.734C67.4548 15.0393 61.5218 13.468 58.2564 16.9787C58.1491 16.8484 56.7847 15.4456 56.7233 15.4456C55.7268 14.4645 53.7569 14.9627 52.4691 15.5069C50.4914 16.3501 49.4643 17.8065 49.7249 19.9911C46.3982 19.8762 45.2637 21.0949 44.7578 21.6392C38.7559 23.0036 35.958 24.2224 31.5121 27.0049C26.3227 30.2703 21.1256 34.1643 14.8554 33.7274C13.6007 33.5444 12.3246 33.5651 11.0764 33.7887C11.057 33.7874 11.0377 33.7915 11.0204 33.8004C11.0031 33.8093 10.9886 33.8228 10.9783 33.8393C10.9681 33.8558 10.9626 33.8748 10.9623 33.8943C10.962 33.9137 10.967 33.9328 10.9768 33.9497C12.5098 36.0576 11.498 38.5948 11.1378 40.9098C10.7219 43.777 10.5858 46.6779 10.7315 49.5716C11.0494 56.9411 12.9694 64.1528 16.3578 70.7048C18.0212 74.0469 20.1292 77.113 22.1068 80.2788C25.3646 85.5142 32.9455 92.8422 33.4668 93.3098C33.4889 93.3264 33.5163 93.3345 33.5439 93.3325C33.5715 93.3305 33.5975 93.3187 33.6171 93.2991C33.6367 93.2795 33.6485 93.2536 33.6505 93.226C33.6524 93.1984 33.6444 93.171 33.6278 93.1488C20.3131 80.1178 15.116 67.1558 14.2805 64.9482C12.5635 60.5559 9.68901 51.6029 11.8813 38.6945C12.0729 37.5983 12.5022 35.4904 11.2604 33.9727C13.1844 33.5587 14.8248 34.3406 17.9445 33.9037C26.8286 32.6466 32.248 24.6057 44.3592 22.1298C43.9281 22.661 43.6122 23.276 43.4314 23.9357C43.2506 24.5955 43.209 25.2857 43.309 25.9624C43.4532 27.572 44.0335 29.1117 44.9877 30.416C44.7544 30.9096 44.6333 31.4489 44.6333 31.995C44.6333 32.5411 44.7544 33.0804 44.9877 33.5741C46.1605 36.1343 46.0456 39.8596 45.9919 40.9404C45.9152 42.5501 45.7313 42.9947 45.9919 43.9299C46.2832 44.9954 46.6588 44.9417 47.065 46.0762C47.4576 47.2361 47.5343 48.4795 47.2873 49.6789C46.9884 51.3652 46.3368 51.5952 46.3368 52.745C46.3975 53.8489 46.8773 54.888 47.6783 55.6501C35.5288 71.7473 37.8513 86.733 38.5489 90.7956C34.8925 90.7496 31.1365 97.3801 30.3547 98.5682C29.6495 99.6337 27.2886 102.531 24.2761 103.459C22.789 102.47 22.743 102.393 22.6664 102.462C22.016 102.898 21.2782 103.185 20.5048 103.305C20.5048 103.305 19.0943 102.746 18.9717 102.018C18.9027 101.665 20.4128 100.316 19.079 99.0511C18.6344 98.6295 18.0289 98.1313 15.6679 96.9738C14.5335 96.4219 13.0081 95.778 11.8353 96.5982C11.8001 96.6217 11.775 96.6577 11.765 96.6989C11.7551 96.7401 11.761 96.7835 11.7816 96.8205C12.8395 98.8978 11.6437 101.167 10.1183 102.638C10.0963 102.662 10.0815 102.691 10.0756 102.723C10.0698 102.755 10.0731 102.787 10.0852 102.817C10.0972 102.847 10.1176 102.873 10.1439 102.891C10.1701 102.91 10.2011 102.921 10.2332 102.922C13.675 103.19 13.7593 105.988 13.767 106.088C3.39579 110.258 3.83272 110.005 3.83272 110.219C4.10867 111.867 5.01317 117.655 5.14348 117.8C8.05067 120.223 11.185 122.358 14.5028 124.178C14.5565 124.178 22.9347 121.342 31.9797 117.609C32.2327 117.509 32.0794 117.356 31.9031 116.405C32.1254 115.723 32.3936 115.639 32.9685 115.853C33.5434 116.068 33.9344 117.915 35.6591 117.616C36.0478 117.559 36.4321 117.475 36.8089 117.364C37.1078 117.264 37.6214 116.957 37.5754 116.597C39.1085 116.459 44.8881 115.83 48.3835 111.714C53.66 117.475 59.339 122.855 65.3775 127.811C65.6346 127.837 65.8942 127.816 66.144 127.75C67.3306 129.184 68.8748 130.278 70.6205 130.923C71.0651 131.1 71.1724 130.755 70.9425 130.333C71.3794 130.494 72.0923 130.732 72.4755 130.471C72.5668 130.401 72.6311 130.302 72.6576 130.191C72.6842 130.079 72.6713 129.961 72.6212 129.858C72.6212 129.858 73.495 129.996 73.6407 129.643C73.7863 129.291 73.541 129.13 73.3111 128.953C73.6253 128.953 73.9089 128.724 73.8323 128.363C73.7556 128.003 72.6442 127.106 71.709 126.792C72.1766 126.439 72.7898 125.818 72.3529 125.458C71.916 125.098 71.2031 125.826 70.1759 125.029C70.325 124.812 70.4412 124.574 70.5209 124.324C69.7544 121.112 67.8993 115.125 61.9127 102.746C64.2123 100.845 75.9556 91.1865 85.1769 87.5531C91.3952 85.0627 98.0492 83.843 104.746 83.9658C106.111 85.7135 108.97 92.068 110.112 94.4366C111.883 97.9925 113.99 101.37 116.405 104.524C116.749 104.608 117.104 104.634 117.456 104.601C117.456 105.896 116.49 106.011 116.49 106.571C116.49 107.13 117.433 107.023 117.946 106.877C117.732 107.529 117.456 109.047 117.946 109.53C117.998 109.582 118.061 109.621 118.131 109.646C118.2 109.671 118.274 109.68 118.348 109.673C118.421 109.665 118.492 109.642 118.555 109.604C118.618 109.566 118.672 109.514 118.713 109.453C118.713 110.219 119.249 110.511 119.855 109.453C119.899 109.542 119.97 109.616 120.058 109.662C120.146 109.709 120.247 109.727 120.345 109.714C120.713 109.675 121.173 108.594 121.219 108.403C121.277 108.55 121.379 108.676 121.511 108.763C121.932 108.97 121.986 108.089 122.047 107.859C122.443 106.325 122.425 104.714 121.993 103.19C121.993 103.19 122.285 103.098 122.269 102.968C121.465 88.7489 119.495 76.6914 111.17 65.6074C121.373 67.4317 131.1 74.1159 140.298 74.6448C140.451 74.6448 140.444 74.4148 140.298 74.4071C137.902 74.039 135.533 73.5089 133.208 72.8204C133.054 68.9878 132.526 59.2835 132.441 58.2563C134.549 57.5971 145.534 53.8641 148.155 52.1241C147.527 58.425 148.922 67.5314 149.167 68.7272C149.167 68.9188 149.481 68.8345 149.451 68.6505C148.768 64.2736 147.94 55.1902 148.5 51.8558ZM132.779 43.585C134.235 43.0714 135.078 44.2672 135.3 45.7849C135.4 46.5974 135.415 48.5751 135.423 48.7437C135.362 48.7437 133.208 48.8433 132.763 48.9047C132.763 47.134 132.779 45.3556 132.779 43.585ZM132.779 49.0733C133.254 49.0196 135.392 49.012 135.446 49.0043C135.446 51.4649 133.369 50.6677 132.771 50.6984C132.763 50.5067 132.763 49.4182 132.763 49.058L132.779 49.0733ZM120.652 41.8756C126.179 45.2943 132.418 42.0979 132.441 42.0826V50.4454C132.441 52.2237 132.05 53.1206 129.942 53.5115C126.7 54.1401 121.917 53.9944 121.135 50.775C120.782 47.822 120.615 44.8496 120.637 41.8756H120.652ZM67.861 19.0023C79.267 17.7989 79.9722 19.2169 84.4794 19.102C86.3267 19.0483 85.8285 19.1939 92.7579 17.3006C93.0875 17.2086 93.6088 17.0783 93.8694 17.3926C94.13 17.7069 93.1795 22.8733 93.8694 25.8704C94.5094 28.2885 95.3796 30.6397 96.4679 32.8918C98.5682 37.5983 99.6337 42.6421 100.799 47.6476C101.45 50.4607 102.087 53.2969 101.864 56.202C99.9557 54.7533 88.2661 46.7584 76.3772 45.2253C76.692 44.5894 76.789 43.8675 76.6531 43.171C76.1779 41.1091 73.2574 40.9328 71.1341 36.4409C71.0268 36.5175 78.5695 29.5881 79.014 29.0822C79.8879 28.101 79.6733 27.0892 79.014 26.568C78.0482 25.8014 76.7144 26.568 75.8636 27.0892C75.3577 27.4188 71.2644 31.1978 70.3982 32.0103C70.6665 30.2167 71.8087 23.3332 67.792 20.2901C67.8572 19.8641 67.8803 19.4328 67.861 19.0023ZM70.7278 36.2033C70.5592 36.3642 69.1948 37.675 68.6582 38.1196C68.4603 38.3213 68.1963 38.4448 67.9146 38.4673C67.6329 38.4898 67.3526 38.4099 67.1251 38.2422C67.0923 38.2104 67.0483 38.1926 67.0025 38.1926C66.9567 38.1926 66.9127 38.2104 66.8799 38.2422C66.8262 38.2959 65.1092 40.0666 65.0785 40.1432C64.9789 39.9363 64.6876 39.8596 64.4576 39.8213C65.1628 39.2541 65.8374 38.6485 66.5273 38.0583C66.5886 38.0046 66.2896 37.2917 66.282 37.1231C66.2998 36.8291 66.3769 36.5417 66.5086 36.2782C66.6403 36.0148 66.824 35.7807 67.0485 35.59C67.93 34.7009 75.9939 27.3728 76.4768 27.1122C76.9673 26.7822 77.5416 26.5988 78.1325 26.5833C79.0524 26.6829 79.5966 27.7331 78.7764 28.7143C78.4085 29.1588 76.0476 31.2668 76.0092 31.3128C75.7503 31.2053 75.5176 31.0432 75.327 30.8375C75.327 30.7839 75.1891 30.8375 75.1737 30.9295C75.1584 31.0215 75.4497 31.3664 75.7946 31.5044L74.6601 32.5469C74.4225 32.4856 74.2845 32.202 74.2462 32.1866C74.2283 32.1803 74.2092 32.1784 74.1904 32.1813C74.1717 32.1842 74.1539 32.1916 74.1387 32.203C74.1235 32.2144 74.1114 32.2293 74.1034 32.2465C74.0954 32.2638 74.0918 32.2827 74.0929 32.3016C74.0929 32.5316 74.4685 32.7232 74.4685 32.7232L73.587 33.5587C73.3985 33.4378 73.2431 33.2718 73.1348 33.0758C73.1348 33.0222 73.0044 33.0758 73.0044 33.1295C73.0044 33.4208 73.3494 33.6737 73.4184 33.7197L72.2839 34.7622C72.117 34.6106 71.9346 34.477 71.7397 34.3636C71.6937 34.3636 71.6094 34.4479 71.6477 34.4786C71.8198 34.6089 71.9744 34.7609 72.1076 34.9308L70.8965 36.027C70.7349 35.9337 70.5941 35.8085 70.4826 35.659H70.3522C70.1683 35.797 70.5209 36.1113 70.7278 36.2033ZM69.3404 33.0068C68.9265 33.3978 66.9412 35.1914 66.4736 35.7817C66.2819 35.9846 66.1367 36.2269 66.048 36.4916C65.9593 36.7564 65.9293 37.0372 65.96 37.3147C66.0105 37.5343 66.0851 37.7477 66.1823 37.9509C65.5001 38.5565 64.8102 39.1544 64.151 39.7906C62.2577 39.6833 61.4682 40.4805 61.2612 40.7565C61.1999 40.8331 61.3148 40.9328 61.3838 40.8791C62.8632 39.668 64.7259 40.1126 64.8486 40.3962C64.9099 40.5188 65.2395 40.3962 65.3085 40.3272L66.9872 38.6102C67.1589 38.7244 67.3534 38.8 67.5572 38.8318C67.761 38.8635 67.9693 38.8507 68.1676 38.7941C68.809 38.4555 69.3914 38.0155 69.8923 37.491C69.3634 42.4888 64.9329 44.6044 63.5301 45.1563C60.5636 46.3368 56.0181 46.5514 53.7645 44.3898C52.77 43.4692 51.9857 42.3449 51.4649 41.0937C50.9567 41.0937 50.4693 40.8918 50.1099 40.5324C49.7505 40.1731 49.5486 39.6856 49.5486 39.1774C49.5486 38.6692 49.7505 38.1817 50.1099 37.8223C50.4693 37.463 50.9567 37.2611 51.4649 37.2611C51.7409 36.7935 53.4962 34.9155 52.7297 30.6229C53.3059 31.1135 53.9743 31.4842 54.6956 31.7132C55.4169 31.9422 56.1766 32.025 56.9303 31.9567C58.0522 31.7141 59.0924 31.186 59.9504 30.4236C61.8284 29.0362 62.25 26.7596 66.6882 26.637C67.9039 28.6065 68.7991 30.7565 69.3404 33.0068ZM65.3391 50.5374C63.7788 51.2242 62.0469 51.4219 60.372 51.1044C58.697 50.7869 57.1576 49.9692 55.9568 48.759C55.7381 48.3139 55.6796 47.807 55.7913 47.3238C55.9031 46.8406 56.1781 46.4107 56.57 46.1068C58.481 46.5358 60.4678 46.4919 62.3579 45.979C64.2481 45.466 65.9845 44.4995 67.4164 43.1634C69.7543 43.7306 68.6046 48.8893 65.3391 50.5374ZM66.1057 50.5374C68.16 51.3039 70.8428 57.9497 71.3794 59.7358C71.4254 59.8891 71.5864 59.8201 71.6783 59.8047C71.6977 59.9841 71.7557 60.1571 71.8484 60.312C71.941 60.4668 72.066 60.5997 72.2149 60.7016C72.2334 60.7045 72.2523 60.7029 72.27 60.6968C72.2877 60.6908 72.3036 60.6806 72.3165 60.667C72.3293 60.6534 72.3386 60.6369 72.3436 60.6188C72.3486 60.6008 72.3492 60.5819 72.3452 60.5636C72.3452 60.487 71.893 60.0654 71.9313 59.7511L72.6978 59.5824C72.9648 60.0479 73.095 60.5793 73.0734 61.1155C73.0799 61.14 73.0943 61.1617 73.1144 61.1772C73.1346 61.1927 73.1592 61.201 73.1846 61.201C73.2099 61.201 73.2346 61.1927 73.2547 61.1772C73.2748 61.1617 73.2892 61.14 73.2957 61.1155C73.3356 60.5734 73.1925 60.0336 72.8895 59.5824L73.656 59.4138C73.6375 59.6329 73.6757 59.8531 73.767 60.0532C73.8583 60.2532 73.9996 60.4264 74.1772 60.5559C74.194 60.5618 74.2122 60.5626 74.2295 60.5584C74.2467 60.5541 74.2624 60.545 74.2746 60.532C74.2867 60.519 74.2949 60.5028 74.298 60.4853C74.3011 60.4677 74.2991 60.4497 74.2922 60.4333C74.2922 60.3413 73.771 59.8814 73.8706 59.3678L74.8364 59.1455C75.0641 59.4662 75.2113 59.8369 75.2657 60.2263C75.2758 60.2438 75.2903 60.2584 75.3078 60.2685C75.3253 60.2786 75.3451 60.2839 75.3654 60.2839C75.3856 60.2839 75.4054 60.2786 75.4229 60.2685C75.4404 60.2584 75.4549 60.2438 75.465 60.2263C75.4875 60.0188 75.4626 59.8089 75.3923 59.6124C75.3219 59.4159 75.2079 59.2379 75.0587 59.0919L75.7639 58.9309C77.0554 61.3698 78.0833 63.9394 78.8301 66.5962C78.9144 66.9028 79.0524 67.2554 78.8301 67.5237C75.9999 69.0464 73.0551 70.3458 70.0226 71.41C69.4017 68.5585 67.6081 58.0264 66.029 54.7686C65.4678 53.542 64.6708 52.4376 63.6834 51.5185C64.534 51.3206 65.3539 51.0086 66.121 50.591L66.1057 50.5374ZM71.6017 59.5288C70.7206 56.6903 69.3988 54.0079 67.6847 51.5799C67.3628 51.055 66.9009 50.6303 66.351 50.3534C67.1175 49.7785 68.5049 48.4371 68.7042 46.95C70.4159 47.7555 71.9992 48.8094 73.403 50.0775C75.8636 52.1701 78.4161 57.2292 78.5618 57.7428C78.3318 57.8961 72.8205 59.2605 71.617 59.5671L71.6017 59.5288ZM50.4838 17.5766C51.8789 15.277 55.7805 14.8171 56.5164 15.7676C56.8766 16.2351 56.2864 16.856 55.9721 17.1626C54.3777 18.6957 51.5263 18.8337 51.166 18.8337C50.8057 18.8337 49.8246 18.665 50.4838 17.5766ZM43.6923 26.2307C43.2707 22.49 46.0302 20.0985 49.8246 20.3284C49.9201 20.8462 50.0455 21.3581 50.2002 21.8615C50.2091 21.8868 50.2273 21.9078 50.251 21.9203C50.2747 21.9329 50.3022 21.9362 50.3282 21.9294C50.3542 21.9227 50.3767 21.9065 50.3913 21.884C50.4059 21.8614 50.4116 21.8343 50.4071 21.8078C50.1285 20.8112 50.0298 19.7729 50.1158 18.7417C50.5451 19.6692 52.837 19.0406 53.5729 18.849C54.3088 18.6574 57.0299 17.6992 57.0529 15.9975C57.3825 16.4114 58.8006 17.9982 58.77 18.3814C58.4634 22.1068 54.4007 22.789 53.6495 22.8886C53.6287 22.8946 53.6104 22.9071 53.5974 22.9244C53.5843 22.9417 53.5773 22.9628 53.5773 22.9844C53.5773 23.0061 53.5843 23.0272 53.5974 23.0444C53.6104 23.0617 53.6287 23.0743 53.6495 23.0803C55.06 23.1646 58.54 22.3137 59.1762 18.7647C59.2452 18.3738 58.563 17.3313 58.4097 17.155C59.2286 16.4234 60.1923 15.8723 61.2382 15.5376C63.7831 14.8094 66.3663 16.0205 67.0485 17.4922C68.0756 19.6999 66.7342 22.0531 66.5579 22.4287C65.7377 24.1611 61.1156 25.3798 58.8926 25.8321C54.646 26.6829 52.3464 29.6188 51.4419 30.1017C49.6636 31.0522 44.3745 32.3936 43.6923 26.2307ZM13.9203 105.015C13.7435 104.471 13.4379 103.978 13.0295 103.577C12.6211 103.177 12.122 102.881 11.5747 102.715C12.8592 102.603 14.0925 102.159 15.1544 101.427C15.2464 101.358 15.1544 101.205 15.0624 101.274C13.7035 102.036 12.1877 102.477 10.6318 102.562C12.6172 100.5 12.8471 98.3459 12.1112 96.7822C13.1231 96.169 14.4108 96.7132 15.3767 97.1654C16.5517 97.6787 17.6629 98.3269 18.6881 99.0971C19.8609 100.186 18.7954 101.297 18.6881 101.703C18.1362 102.7 15.6833 103.543 14.7864 104.233C14.6638 104.317 14.7864 104.516 14.9014 104.432C15.9362 103.758 18.1822 102.899 18.6498 102.133C18.7647 103.19 20.2748 103.313 20.9493 103.873C21.3393 104.212 21.6111 104.667 21.7254 105.171C21.8398 105.676 21.7908 106.203 21.5856 106.678C20.4425 107.442 19.2283 108.094 17.9599 108.625C16.6751 109.116 15.3523 109.501 14.0046 109.775C13.9191 109.763 13.8372 109.733 13.7644 109.687C13.6916 109.641 13.6297 109.579 13.583 109.507C13.7766 108.763 14.1163 108.066 14.5822 107.455C15.0481 106.845 15.6308 106.333 16.2965 105.95C16.4038 105.896 16.2965 105.705 16.2122 105.751C15.5328 106.091 14.9334 106.572 14.4537 107.161C13.974 107.75 13.6249 108.435 13.4297 109.169C13.1844 108.134 14.5641 107.069 13.9203 105.015ZM13.744 106.379C13.6339 107.032 13.4353 107.666 13.1537 108.265C13.0251 108.576 13.0066 108.922 13.1014 109.246C13.1962 109.569 13.3985 109.85 13.675 110.043C13.9509 110.196 17.0477 109.591 19.9912 107.997C20.3055 107.828 21.7849 106.893 21.8232 106.854C22.1051 106.243 22.1457 105.548 21.9367 104.909C21.7277 104.269 21.2847 103.732 20.6964 103.405C21.4057 103.309 22.0885 103.072 22.7047 102.707C23.1723 103.037 29.7951 107.307 30.3087 107.59C26.1847 110.104 14.5028 114.734 13.1767 115.34C12.8931 115.118 5.87169 110.955 4.31563 110.181C7.4814 108.947 10.6088 107.659 13.744 106.394V106.379ZM7.61171 119.326C6.89884 118.812 5.36578 117.609 5.36578 117.593C5.36578 117.578 4.13166 110.327 4.13166 110.327C5.66472 111.178 12.7245 115.417 13.0847 115.593C13.5293 118.352 13.9892 121.104 14.4338 123.864C12.0927 122.487 9.8328 120.977 7.66537 119.341L7.61171 119.326ZM14.6331 123.779C14.2192 121.043 13.8206 118.299 13.399 115.57C19.2476 112.956 24.9813 111.178 30.4697 107.905C30.6103 111.059 31.0232 114.196 31.7038 117.279C27.2732 119.004 15.9209 123.411 14.6561 123.795L14.6331 123.779ZM37.5601 116.267C37.4068 115.746 36.9468 115.248 37.5217 114.834C37.9951 114.601 38.5103 114.466 39.037 114.435C39.5636 114.405 40.0909 114.481 40.5879 114.658C40.7488 114.711 40.8408 114.527 40.7872 114.397C40.6202 114.004 40.5341 113.582 40.5341 113.155C40.5341 112.729 40.6202 112.306 40.7872 111.913C40.8023 111.887 40.8101 111.858 40.8098 111.827C40.8095 111.797 40.8011 111.767 40.7854 111.742C40.7698 111.716 40.7474 111.695 40.7207 111.68C40.6941 111.666 40.6641 111.659 40.6339 111.661C39.8636 111.593 39.0876 111.648 38.3343 111.822C38.1738 111.607 38.0871 111.346 38.0871 111.078C38.0871 110.81 38.1738 110.549 38.3343 110.334C38.3574 110.308 38.3716 110.275 38.375 110.24C38.3783 110.204 38.3705 110.169 38.3527 110.139C38.335 110.108 38.3081 110.084 38.2759 110.07C38.2437 110.055 38.2078 110.051 38.1733 110.058C37.2914 110.237 36.3756 110.126 35.5612 109.744C34.7468 109.362 34.077 108.727 33.6508 107.935C33.6359 107.908 33.6131 107.886 33.5854 107.872C33.5577 107.858 33.5265 107.853 33.4958 107.857C33.4651 107.861 33.4363 107.874 33.4134 107.895C33.3904 107.916 33.3743 107.943 33.3671 107.974C33.2701 108.574 33.0383 109.144 32.6892 109.642C32.34 110.14 31.8825 110.552 31.3512 110.848C31.2362 110.909 31.3512 111.086 31.4585 111.024C31.9777 110.771 32.4366 110.41 32.8042 109.964C33.1718 109.518 33.4396 108.999 33.5894 108.441C34.0507 109.142 34.6981 109.7 35.459 110.054C36.22 110.407 37.0643 110.541 37.8973 110.442C37.7736 110.717 37.7309 111.022 37.7744 111.321C37.8178 111.619 37.9456 111.899 38.1426 112.128C38.2806 112.297 38.7865 111.906 40.3809 111.982C40.1395 112.709 40.1395 113.494 40.3809 114.221C39.5474 114.003 38.6685 114.032 37.8513 114.305C36.8779 114.65 36.7016 115.371 37.0848 115.907C37.4681 116.444 37.1768 116.85 37.0005 116.934C36.594 117.109 36.1615 117.215 35.7204 117.249C33.6814 117.479 34.2793 115.715 32.7233 115.363C32.5494 115.309 32.3613 115.324 32.1984 115.406C32.0355 115.487 31.9105 115.628 31.8494 115.8C31.3211 113.094 30.9983 110.352 30.8836 107.598C30.8836 107.506 25.5715 104.287 24.7513 103.727C26.8665 102.847 28.7158 101.431 30.1171 99.6183C31.7881 97.4491 34.2563 91.8304 38.6715 91.0639C38.6715 91.0639 39.4381 94.5209 39.9363 96.2226C41.6485 101.831 44.4979 107.026 48.3068 111.484C44.1062 115.669 38.3266 116.168 37.5601 116.267ZM71.479 125.803C71.64 125.803 72.0923 125.711 72.0693 125.857C72.0309 126.133 71.479 126.531 71.1954 126.692C71.1645 126.712 71.1399 126.74 71.1244 126.773C71.1089 126.806 71.1032 126.843 71.1081 126.879C71.1129 126.916 71.128 126.95 71.1517 126.978C71.1753 127.006 71.2064 127.026 71.2414 127.037C71.9953 127.211 72.6921 127.575 73.2651 128.095C73.3724 128.195 73.6177 128.44 73.4337 128.57C73.2497 128.701 72.6672 128.386 71.7857 127.995C71.5787 127.903 71.3947 128.21 71.6094 128.302C72.2632 128.529 72.8433 128.929 73.2881 129.459C73.2881 129.536 72.9201 129.789 71.5174 129.099C71.3487 129.022 71.2108 129.329 71.3871 129.406C73.472 130.349 71.8623 130.663 70.2066 129.505C70.0686 129.406 69.8693 129.643 70.0226 129.743C70.7892 130.241 70.7892 130.655 70.7892 130.663C70.2773 130.488 69.7842 130.262 69.3174 129.988C68.2094 129.4 67.2131 128.621 66.3739 127.689C66.6039 127.627 69.2331 126.577 69.9536 125.351C70.3823 125.692 70.9261 125.854 71.4714 125.803H71.479ZM86.0431 86.664C83.0841 87.8656 80.1994 89.2427 77.4043 90.7879C71.0575 94.0993 61.8284 102.186 61.7134 102.286C59.1938 96.4515 57.7948 90.195 57.5895 83.8431C66.0137 74.1925 71.2874 74.3535 81.8962 71.4867C83.1686 71.1417 87.5455 69.785 89.1169 68.5202C93.8004 73.5793 102.6 80.3631 104.448 83.5825C98.1512 83.2935 91.8652 84.3438 86.0048 86.664H86.0431ZM121.679 108.456C121.542 108.301 121.446 108.113 121.401 107.911C121.355 107.709 121.361 107.498 121.419 107.299C121.419 107.138 121.097 107.077 121.112 107.299C121.189 108.039 120.972 108.78 120.506 109.361C120.246 109.583 120.131 109.215 120.131 109.001C120.208 108.734 120.27 108.462 120.315 108.188C120.315 108.027 120.069 107.958 120.008 108.104C120.008 108.104 119.778 108.993 119.755 109.047C119.732 109.1 119.341 109.989 119.165 109.76C119.007 109.09 119.052 108.388 119.295 107.744C119.307 107.698 119.301 107.649 119.277 107.608C119.254 107.567 119.214 107.537 119.169 107.525C119.123 107.513 119.074 107.519 119.033 107.543C118.992 107.567 118.962 107.606 118.95 107.652C118.858 108.058 118.766 109.093 118.475 109.292C117.977 109.645 118 107.859 118.475 106.693C118.497 106.658 118.506 106.617 118.501 106.576C118.496 106.535 118.477 106.496 118.448 106.467C118.419 106.438 118.381 106.42 118.34 106.415C118.299 106.41 118.257 106.419 118.222 106.44C117.9 106.578 117.233 106.77 116.98 106.594C116.919 106.548 117.272 106.218 117.371 106.103C117.74 105.68 117.929 105.13 117.9 104.57C117.938 104.57 120.66 104.225 121.855 103.298C122.26 105.004 122.186 106.789 121.641 108.456H121.679ZM112.511 68.1216C119.755 79.0293 120.943 89.7991 121.947 102.922C120.369 103.856 118.56 104.326 116.727 104.279C108.978 94.107 108.725 87.7448 103.359 81.5052C100.923 78.9434 98.3375 76.5272 95.6171 74.2692C92.7886 71.7779 86.94 65.661 86.6487 65.2854C86.572 65.1934 86.4111 65.2854 86.48 65.4157C87.2466 66.4046 88.0131 67.3474 88.8793 68.2596C86.4571 70.2985 77.8259 72.1459 75.5033 72.7054C70.6129 73.8782 66.8569 75.304 62.8249 78.3548C60.793 79.8823 58.9867 81.6886 57.4592 83.7205C57.3747 81.0889 57.49 78.4547 57.8041 75.8406C57.8041 75.7409 57.6278 75.7102 57.6125 75.8406C56.682 82.3906 57.1073 89.0619 58.862 95.4407C60.5483 101.711 62.9476 105.628 66.4736 113.837C67.7997 116.904 70.1836 124.454 70.1836 124.454C68.8575 126.914 65.7147 127.52 65.5078 127.604C62.9476 125.305 53.0593 116.106 50.7674 113.723C46.45 109.375 43.1238 104.145 41.0171 98.3919C37.8363 89.7732 37.567 80.3496 40.2506 71.5633C41.0733 68.6676 42.14 65.8469 43.4394 63.1315C44.6428 60.6479 49.9932 51.7638 56.0564 49.3339C57.0344 50.267 58.2193 50.9554 59.5142 51.3431C60.8091 51.7308 62.1773 51.8067 63.5071 51.5645C65.2684 53.482 66.4672 55.8477 66.9718 58.402C67.2938 59.7894 69.4247 70.0456 69.7544 71.6553C69.7668 71.6961 69.7944 71.7307 69.8313 71.7521C69.8683 71.7734 69.912 71.7799 69.9536 71.7703L70.2449 71.6706C70.171 71.9163 70.164 72.1773 70.2246 72.4266C70.2852 72.6759 70.4113 72.9044 70.5899 73.0887C70.6972 73.1654 70.8352 73.0197 70.7662 72.9124C70.6389 72.7161 70.5528 72.4959 70.5133 72.2653C70.4737 72.0347 70.4815 71.7985 70.5362 71.571L71.2491 71.318C71.171 71.5855 71.1802 71.8709 71.2753 72.1327C71.3704 72.3946 71.5465 72.6194 71.778 72.7744C71.8055 72.7889 71.8373 72.7931 71.8677 72.7861C71.898 72.7792 71.9248 72.7617 71.9434 72.7367C71.9619 72.7117 71.9708 72.6809 71.9686 72.6498C71.9664 72.6188 71.9532 72.5896 71.9313 72.5675C71.9313 72.5215 71.2568 71.8929 71.5097 71.226L72.4219 70.8811C72.3928 71.1292 72.4432 71.3801 72.5658 71.5977C72.6884 71.8154 72.8769 71.9885 73.1041 72.0922C73.1281 72.0973 73.1531 72.0946 73.1755 72.0845C73.1978 72.0744 73.2164 72.0574 73.2283 72.0359C73.2403 72.0145 73.2452 71.9898 73.2421 71.9655C73.2391 71.9411 73.2283 71.9184 73.2114 71.9006C73.1194 71.8163 72.5522 71.2414 72.6902 70.7738L73.8936 70.2832C73.748 70.6281 74.2922 71.663 74.4149 71.7549C74.4308 71.7693 74.4505 71.779 74.4716 71.7827C74.4928 71.7865 74.5146 71.7843 74.5345 71.7763C74.5545 71.7683 74.5718 71.7549 74.5845 71.7376C74.5972 71.7203 74.6049 71.6997 74.6065 71.6783C74.6065 71.5403 74.0316 70.6588 74.0852 70.1989C74.4838 70.0303 74.8518 69.8616 75.2734 69.6777C75.3377 69.9819 75.4301 70.2796 75.5493 70.5668C75.5626 70.5908 75.5834 70.6096 75.6086 70.6203C75.6338 70.631 75.6618 70.633 75.6883 70.626C75.7147 70.6189 75.738 70.6032 75.7545 70.5814C75.771 70.5596 75.7797 70.5329 75.7793 70.5055C75.7109 70.1914 75.616 69.8837 75.4957 69.5857L76.1932 69.2637C76.4805 69.6958 76.6375 70.2013 76.6455 70.7201C76.6522 70.7465 76.6676 70.7699 76.6891 70.7866C76.7106 70.8033 76.737 70.8124 76.7643 70.8124C76.7915 70.8124 76.818 70.8033 76.8395 70.7866C76.861 70.7699 76.8763 70.7465 76.8831 70.7201C76.8988 70.1632 76.7436 69.6149 76.4385 69.1487C76.7528 69.0031 77.6036 68.5815 77.7186 68.5202C77.7275 68.7033 77.7906 68.8797 77.8997 69.0271C78.0089 69.1744 78.1592 69.2861 78.3318 69.348C78.3533 69.3484 78.3743 69.3422 78.3923 69.3305C78.4102 69.3187 78.4242 69.3018 78.4324 69.282C78.4407 69.2622 78.4428 69.2404 78.4386 69.2194C78.4343 69.1983 78.4238 69.1791 78.4085 69.1641C78.4085 69.1641 77.8719 68.7578 77.9639 68.3975C77.9639 68.3975 78.5158 68.1139 78.6614 68.0373C78.7151 68.6122 79.428 68.9648 79.5046 68.9648C79.5295 68.9703 79.5556 68.9661 79.5774 68.953C79.5993 68.9399 79.6153 68.9189 79.6222 68.8944C79.6291 68.8698 79.6263 68.8436 79.6144 68.821C79.6025 68.7985 79.5824 68.7813 79.5583 68.7731C79.3763 68.7001 79.2187 68.5771 79.1034 68.4185C78.9882 68.2599 78.92 68.0719 78.9067 67.8763C78.9067 67.8763 79.5199 67.723 79.1367 66.3969C78.3629 63.7814 77.336 61.2475 76.0706 58.8312L76.5305 58.7316C76.595 59.1238 76.8094 59.4756 77.1284 59.7128C77.2127 59.7128 77.32 59.6361 77.2587 59.5518C77.1974 59.4675 76.7298 58.9769 76.7681 58.6703L77.6496 58.3943C77.7113 58.7071 77.8117 59.0109 77.9486 59.2988C77.9734 59.311 78.0018 59.3139 78.0285 59.3068C78.0553 59.2998 78.0786 59.2833 78.0942 59.2605C78.0393 58.9456 77.9598 58.6355 77.8566 58.333L78.3855 58.1414C78.4391 58.3713 78.7151 59.4368 78.7764 59.5518C78.7897 59.5757 78.8105 59.5946 78.8357 59.6053C78.8609 59.616 78.8889 59.618 78.9153 59.6109C78.9418 59.6039 78.9651 59.5882 78.9816 59.5664C78.9981 59.5445 79.0068 59.5178 79.0064 59.4905C79.0064 59.3678 78.6921 58.2793 78.6154 58.0417C78.7381 57.9881 78.8454 57.9651 78.8147 57.8424C78.7074 57.3365 77.4503 54.1401 73.8859 50.1771C72.413 48.7319 70.6846 47.5727 68.7885 46.7584C68.9017 46.3585 68.9686 45.947 68.9878 45.5319C69.969 45.4093 76.1855 44.4128 85.6369 47.9388C88.4154 49.0248 91.1352 50.2555 93.7851 51.6259C101.398 55.3392 107.867 61.0381 112.511 68.1216ZM132.97 72.7208C125.642 70.2985 117.509 66.029 110.925 65.2241C110.304 64.4116 109.652 63.6144 108.985 62.8479C108.947 62.4263 108.219 53.3889 108.173 51.4649C114.443 53.1896 130.471 57.8271 132.242 58.3637C132.38 62.1273 132.916 71.7243 132.97 72.7208ZM132.38 58.0111C132.38 58.0111 110.151 51.7562 108.525 51.3346C111.592 51.1199 120.706 50.2461 120.729 50.1924C120.776 50.7562 120.946 51.3027 121.227 51.7939C121.508 52.2851 121.892 52.7091 122.354 53.0363C124.109 54.2704 127.068 54.2704 129.191 53.9791C131.314 53.6878 132.602 53.2126 132.748 50.9973C133.108 51.1659 135.975 51.8865 135.76 48.9967C139.056 49.5486 147.128 51.6412 147.933 51.8405C143.955 53.6572 133.537 57.6125 132.38 58.0111Z" fill="black"/>
<path d="M123.542 34.1721C124.638 35.4445 126.355 36.9852 125.581 38.8556C125.57 38.88 125.569 38.9078 125.578 38.933C125.587 38.9581 125.606 38.9785 125.631 38.9897C125.655 39.0009 125.683 39.0019 125.708 38.9926C125.733 38.9832 125.754 38.9643 125.765 38.9399C126.531 37.4911 125.535 35.9811 124.592 34.9079C123.404 33.5665 122.331 32.6083 122.499 30.6767C122.806 27.2656 126.37 25.4719 127.765 22.5898C128.16 21.8931 128.352 21.1007 128.323 20.3008C128.293 19.501 128.042 18.7251 127.597 18.0596C127.536 17.9753 127.39 18.0596 127.451 18.1746C127.813 18.8238 128.003 19.5546 128.003 20.2979C128.003 21.0411 127.813 21.7719 127.451 22.4211C126.094 25.2496 122.852 26.9437 122.223 30.1708C121.955 31.8341 122.446 32.915 123.542 34.1721ZM127.244 32.0871C127.459 33.4515 128.777 34.1644 129.345 35.3219C129.541 35.7226 129.644 36.1631 129.644 36.6096C129.644 37.0561 129.541 37.4967 129.345 37.8974C129.337 37.9192 129.337 37.9432 129.344 37.9651C129.352 37.9869 129.368 38.0054 129.388 38.0172C129.408 38.029 129.431 38.0335 129.454 38.0298C129.477 38.0261 129.498 38.0145 129.513 37.997C129.853 37.4206 129.991 36.7471 129.905 36.0834C129.819 35.4196 129.514 34.8036 129.038 34.333C127.98 33.0376 126.14 31.8111 129.191 28.2698C129.283 28.1625 129.099 28.0321 129 28.1241C128.427 28.6098 127.972 29.2185 127.668 29.9047C127.364 30.591 127.219 31.337 127.244 32.0871ZM32.961 110.948C33.3704 110.928 33.778 111.013 34.1457 111.194C34.5135 111.375 34.8293 111.646 35.0637 111.982C35.298 112.318 35.4432 112.709 35.4857 113.116C35.5282 113.524 35.4666 113.936 35.3066 114.313C35.2376 114.451 35.4369 114.573 35.5135 114.435C35.9581 113.577 36.0884 110.679 32.9227 110.687C32.8 110.687 32.8384 110.94 32.961 110.948ZM26.3612 114.458C25.3647 114.106 22.0226 114.458 19.0485 116.612C18.6949 116.836 18.392 117.131 18.1593 117.479C17.5537 118.475 18.2896 119.288 19.2938 119.357C21.762 119.518 24.0309 118.26 26.0622 116.965C27.6873 115.923 27.327 114.803 26.3612 114.458ZM51.6337 27.3959C49.3801 29.0056 46.7049 27.7409 46.314 26.8134C46.2756 26.7137 46.107 26.7597 46.153 26.8517C47.2951 29.1973 51.2351 28.3848 51.7717 27.5722C51.8407 27.4573 51.741 27.3193 51.6337 27.3959ZM53.4657 26.6601C53.6352 26.4474 53.8451 26.2702 54.0831 26.1387C54.3212 26.0072 54.5828 25.9239 54.8531 25.8935C54.8776 25.887 54.8993 25.8726 54.9148 25.8525C54.9303 25.8324 54.9387 25.8077 54.9387 25.7824C54.9387 25.757 54.9303 25.7324 54.9148 25.7123C54.8993 25.6922 54.8776 25.6777 54.8531 25.6712C54.5508 25.6762 54.254 25.7531 53.9873 25.8958C53.7207 26.0384 53.4919 26.2426 53.3201 26.4914C53.1974 26.6371 53.3814 26.7674 53.4657 26.6601ZM56.3325 36.5176C56.3325 36.6403 56.5318 36.6863 56.5548 36.5176C56.6433 36.1841 56.859 35.8985 57.1557 35.7223C57.4523 35.546 57.8063 35.4931 58.1415 35.5748C58.2182 35.5748 58.2488 35.4292 58.1875 35.4062C57.9929 35.3343 57.7846 35.307 57.578 35.3263C57.3714 35.3455 57.1718 35.4109 56.9938 35.5175C56.8158 35.6242 56.664 35.7694 56.5495 35.9425C56.4351 36.1156 56.3609 36.3121 56.3325 36.5176ZM64.3888 33.8654C64.3888 33.9651 64.5727 33.9421 64.5727 33.8654C64.5823 33.6922 64.6391 33.5248 64.737 33.3816C64.8349 33.2383 64.9702 33.1245 65.1281 33.0527C65.2861 32.9808 65.4607 32.9536 65.633 32.9739C65.8054 32.9942 65.9689 33.0613 66.1058 33.1679C66.1748 33.2062 66.3128 33.0759 66.2361 33.0299C64.841 32.1024 64.2891 33.4209 64.3888 33.8654ZM61.5909 34.6856C61.5143 34.5707 61.3226 34.6856 61.407 34.7929C61.6216 35.0996 62.5721 36.487 62.6027 36.5406C62.3102 36.6285 62.0296 36.7521 61.7672 36.9086C61.7059 36.9776 61.7212 37.1155 61.8209 37.1309C62.1286 37.0897 62.4299 37.0098 62.7177 36.8932C62.7804 36.8785 62.8375 36.8461 62.8823 36.7999C62.9271 36.7537 62.9578 36.6957 62.9707 36.6326C62.5632 35.948 62.1018 35.297 61.5909 34.6856ZM76.2087 29.6649C76.3899 29.6996 76.5772 29.6853 76.7511 29.6233C76.925 29.5613 77.0791 29.4539 77.1975 29.3123C77.3043 29.187 77.368 29.0306 77.379 28.8663C77.3901 28.702 77.3479 28.5385 77.2588 28.4001C77.1239 28.2913 76.9524 28.2386 76.7797 28.2528C76.607 28.2671 76.4465 28.3473 76.3313 28.4767C76.185 28.5733 76.0724 28.713 76.0093 28.8765C75.9461 29.04 75.9354 29.2191 75.9787 29.3889C75.7871 29.5652 67.9148 36.5483 67.5469 36.9239C67.4855 36.9929 67.5469 37.1079 67.6465 37.0619C68.0911 36.7936 76.0247 29.8335 76.2087 29.6649ZM17.5461 47.525C16.1586 63.4765 23.1494 72.7745 24.3835 74.4532C24.4602 74.5606 24.6441 74.4532 24.5675 74.3536C22.5132 71.2875 16.6722 62.3267 17.73 47.525C17.7377 47.4024 17.5537 47.41 17.5461 47.525Z" fill="black"/>
</svg>
