<svg width="20" height="20" viewBox="0 0 20 20" fill="none" xmlns="http://www.w3.org/2000/svg">
<path d="M10 15.4163C12.9916 15.4163 15.4167 12.9912 15.4167 9.99967C15.4167 7.00813 12.9916 4.58301 10 4.58301C7.0085 4.58301 4.58337 7.00813 4.58337 9.99967C4.58337 12.9912 7.0085 15.4163 10 15.4163Z" stroke="#AE78E7" stroke-width="1.5" stroke-linecap="round" stroke-linejoin="round"/>
<path d="M15.95 15.9503L15.8416 15.842M15.8416 4.15866L15.95 4.05033L15.8416 4.15866ZM4.04996 15.9503L4.15829 15.842L4.04996 15.9503ZM9.99996 1.73366V1.66699V1.73366ZM9.99996 18.3337V18.267V18.3337ZM1.73329 10.0003H1.66663H1.73329ZM18.3333 10.0003H18.2666H18.3333ZM4.15829 4.15866L4.04996 4.05033L4.15829 4.15866Z" stroke="#AE78E7" stroke-width="2" stroke-linecap="round" stroke-linejoin="round"/>
</svg>
