<svg width="218" height="219" viewBox="0 0 218 219" fill="none" xmlns="http://www.w3.org/2000/svg">
<path d="M109.282 0C125.572 0.000235803 138.776 13.2862 138.776 29.6748C138.776 31.9789 138.414 34.4562 137.763 37.0128C137.57 37.7671 137.907 38.5629 138.597 38.9235V38.9235C139.355 39.3198 140.288 39.0634 140.763 38.3522C142.704 35.4488 144.856 32.9381 147.151 31.0547C159.82 20.6583 178.467 22.4383 188.801 35.0303C199.135 47.6224 197.241 66.2586 184.572 76.6553C183.002 77.9443 181.148 79.1006 179.093 80.1231C178.707 80.3153 178.523 80.7665 178.673 81.1706V81.1706C178.826 81.5802 179.27 81.8007 179.691 81.6832C182.729 80.8353 185.681 80.3612 188.392 80.3672C204.78 80.4037 218.036 93.6384 218 109.928C217.964 126.217 204.649 139.393 188.26 139.356C185.369 139.35 182.207 138.774 178.959 137.77C178.342 137.579 177.684 137.936 177.524 138.562V138.562C177.398 139.057 177.629 139.574 178.076 139.821C181.388 141.653 184.285 143.763 186.47 146.087C197.696 158.026 197.178 176.751 185.311 187.91C173.444 199.069 154.722 198.436 143.495 186.496C141.949 184.851 140.542 182.847 139.284 180.595C139.079 180.228 138.646 180.049 138.244 180.174V180.174C137.788 180.315 137.53 180.796 137.653 181.258C138.373 183.964 138.776 186.588 138.776 189.019C138.776 205.407 125.571 218.692 109.282 218.692C92.993 218.692 79.7874 205.407 79.7872 189.019C79.7872 186.193 80.309 183.107 81.2327 179.934C81.3907 179.391 81.151 178.808 80.6501 178.547V178.547C80.086 178.252 79.3907 178.464 79.0745 179.017C76.6912 183.181 73.8974 186.789 70.8497 189.29C58.1807 199.687 39.5329 197.907 29.1993 185.314C18.8658 172.722 20.759 154.086 33.4278 143.689C35.5367 141.959 38.1548 140.466 41.0862 139.218C41.3933 139.087 41.5621 138.753 41.4801 138.429V138.429C41.3833 138.047 40.9799 137.832 40.6065 137.957C36.7647 139.243 32.9991 139.985 29.6094 139.978C13.2207 139.941 -0.0361921 126.706 7.4232e-05 110.417C0.0363422 94.1276 13.3517 80.9519 29.7403 80.9883C32.3344 80.9941 35.1471 81.4592 38.0445 82.2801C38.6726 82.458 39.3388 82.1333 39.5667 81.5216V81.5216C39.7793 80.9513 39.5415 80.313 39.0156 80.0066C36.0825 78.298 33.5132 76.3665 31.5303 74.2578C20.3037 62.3184 20.8226 43.5933 32.6895 32.4346C44.5566 21.2758 63.2781 21.9092 74.505 33.8486C75.76 35.1834 76.9239 36.7543 77.9901 38.5026C78.4219 39.2105 79.326 39.4839 80.0609 39.0997V39.0997C80.7039 38.7636 81.0193 38.0226 80.8405 37.3194C80.1631 34.6546 79.7872 32.0712 79.7872 29.6748C79.7873 13.2861 92.9929 0 109.282 0ZM136.657 43.5914C136.165 43.3341 135.559 43.556 135.341 44.0668C129.514 57.7297 117.525 71.2275 109.282 71.2197C100.589 71.2127 88.971 57.9531 83.2583 44.4165C83.0165 43.8436 82.3383 43.5923 81.7872 43.8804V43.8804C81.3041 44.133 81.0953 44.7114 81.2973 45.2177C86.9296 59.335 87.7003 78.4778 81.4766 84.3184C75.3164 90.1014 58.5687 88.6577 45.2985 83.1112C44.8516 82.9244 44.3374 83.1432 44.1682 83.5971V83.5971C44.0103 84.0207 44.2127 84.4923 44.6264 84.6745C58.1026 90.6077 71.2447 102.434 71.2188 110.575C71.194 118.78 59.3578 129.563 46.6363 135.527C46.2752 135.696 46.0831 136.097 46.1812 136.483V136.483C46.2965 136.938 46.7655 137.204 47.2167 137.077C61.3965 133.069 79.0905 133.83 84.254 140.135C89.1565 146.119 87.416 160.549 82.154 172.818C81.9898 173.2 82.1455 173.646 82.5146 173.839V173.839C82.9239 174.053 83.4277 173.873 83.6137 173.45C89.4421 160.205 100.766 147.48 109.282 147.474C117.643 147.466 129.861 161.355 135.589 175.216C135.695 175.472 135.977 175.605 136.241 175.523V175.523C136.538 175.431 136.693 175.106 136.579 174.817C131.059 160.731 130.345 141.825 136.523 136.026C142.535 130.381 158.636 131.623 171.744 136.843C172.233 137.038 172.786 136.762 172.916 136.252V136.252C173.019 135.844 172.815 135.423 172.434 135.247C159.293 129.189 146.756 117.721 146.781 109.77C146.808 101.087 160.059 89.5156 173.591 83.8254C173.928 83.6838 174.094 83.3031 173.966 82.9609V82.9609C173.838 82.6175 173.462 82.4385 173.114 82.5534C158.611 87.3414 139.198 86.8654 133.747 80.21C128.483 73.7845 130.877 57.6196 137.068 44.8501C137.292 44.3878 137.112 43.8294 136.657 43.5914V43.5914Z" fill="black"/>
</svg>
