<svg width="124" height="32" viewBox="0 0 124 32" fill="none" xmlns="http://www.w3.org/2000/svg">
<circle cx="15" cy="16" r="15" fill="white"/>
<path d="M11 15.9997V14.2197C11 12.0097 12.565 11.1047 14.48 12.2097L16.025 13.0997L17.57 13.9897C19.485 15.0947 19.485 16.9047 17.57 18.0097L16.025 18.8997L14.48 19.7897C12.565 20.8947 11 19.9897 11 17.7797V15.9997Z" fill="#201913"/>
<rect opacity="0.5" x="38" y="15" width="2" height="2" rx="1" fill="#979491"/>
<rect opacity="0.5" x="44" y="12" width="2" height="8" rx="1" fill="#979491"/>
<rect opacity="0.5" x="50" y="9" width="2" height="14" rx="1" fill="#979491"/>
<rect opacity="0.5" x="56" y="14" width="2" height="4" rx="1" fill="#979491"/>
<rect opacity="0.5" x="62" y="8" width="2" height="16" rx="1" fill="#979491"/>
<rect opacity="0.5" x="68" y="9" width="2" height="14" rx="1" fill="#979491"/>
<rect opacity="0.5" x="74" y="11" width="2" height="10" rx="1" fill="#979491"/>
<rect opacity="0.5" x="80" y="11" width="2" height="10" rx="1" fill="#979491"/>
<rect opacity="0.5" x="86" y="11" width="2" height="10" rx="1" fill="#979491"/>
<rect opacity="0.5" x="92" y="9" width="2" height="14" rx="1" fill="#979491"/>
<rect opacity="0.5" x="98" y="11" width="2" height="10" rx="1" fill="#979491"/>
<rect opacity="0.5" x="104" y="8" width="2" height="16" rx="1" fill="#979491"/>
<rect opacity="0.5" x="110" y="11" width="2" height="10" rx="1" fill="#979491"/>
<rect opacity="0.5" x="116" y="14" width="2" height="4" rx="1" fill="#979491"/>
<rect opacity="0.5" x="122" y="15" width="2" height="2" rx="1" fill="#979491"/>
</svg>
