<svg width="16" height="17" viewBox="0 0 16 17" fill="none" xmlns="http://www.w3.org/2000/svg">
<path d="M10.6667 9.09967V11.8997C10.6667 14.233 9.73337 15.1663 7.40004 15.1663H4.60004C2.26671 15.1663 1.33337 14.233 1.33337 11.8997V9.09967C1.33337 6.76634 2.26671 5.83301 4.60004 5.83301H7.40004C9.73337 5.83301 10.6667 6.76634 10.6667 9.09967Z" stroke="#979491" stroke-width="1.5" stroke-linecap="round" stroke-linejoin="round"/>
<path d="M14.6667 5.09967V7.89967C14.6667 10.233 13.7334 11.1663 11.4 11.1663H10.6667V9.09967C10.6667 6.76634 9.73337 5.83301 7.40004 5.83301H5.33337V5.09967C5.33337 2.76634 6.26671 1.83301 8.60004 1.83301H11.4C13.7334 1.83301 14.6667 2.76634 14.6667 5.09967Z" stroke="#979491" stroke-width="1.5" stroke-linecap="round" stroke-linejoin="round"/>
</svg>
