<svg width="154" height="134" viewBox="0 0 154 134" fill="none" xmlns="http://www.w3.org/2000/svg">
<path d="M37.4827 96.6931C37.774 96.7391 39.3684 96.8158 39.3684 96.5398C39.3684 96.3789 39.0771 96.3865 39.0771 96.3865C39.1154 95.1601 40.6715 94.8535 41.7829 95.4973C42.0893 95.6736 42.3725 95.8874 42.6261 96.1336C41.0547 96.2179 38.9698 97.291 39.1077 98.8471C39.187 99.2528 39.3571 99.6354 39.6054 99.9659C39.8536 100.297 40.1736 100.567 40.5412 100.756C41.0006 101.1 41.524 101.349 42.0807 101.488C42.6374 101.628 43.2163 101.655 43.7836 101.568C44.794 101.311 45.6831 100.709 46.2978 99.8666C47.6872 99.9108 49.0465 99.4568 50.1305 98.5865C50.1762 98.5502 50.2141 98.505 50.2418 98.4536C50.2694 98.4022 50.2863 98.3457 50.2914 98.2875C50.2914 98.0192 50.2914 98.0346 48.7584 96.3329C48.715 96.2844 48.6606 96.2471 48.5998 96.2241C48.539 96.2011 48.4735 96.193 48.4089 96.2005C48.3443 96.208 48.2825 96.2309 48.2286 96.2673C48.1747 96.3036 48.1303 96.3524 48.0992 96.4095C48.0727 96.4429 48.0496 96.4789 48.0302 96.5168C47.9084 96.7455 47.7116 96.9252 47.4729 97.0257C47.2341 97.1262 46.968 97.1414 46.7194 97.0687C45.9529 96.8464 44.964 94.8151 43.1627 93.604C41.5913 92.5462 39.4833 92.2319 37.9963 93.489C37.3562 94.0385 36.9012 94.7719 36.6932 95.5893C36.6104 95.8414 36.6269 96.1155 36.7392 96.3559C36.9405 96.5509 37.2033 96.6702 37.4827 96.6931ZM40.3649 99.537C40.1547 99.3868 40.0088 99.1631 39.9563 98.9102C39.9037 98.6573 39.9483 98.394 40.0812 98.1725C40.4212 97.7027 40.8936 97.3451 41.438 97.1454C40.9988 97.89 40.6391 98.6788 40.3649 99.4986V99.537ZM47.5856 98.3258C47.7695 97.7739 47.5856 97.9656 47.8922 97.8276C48.1245 97.7118 48.3347 97.5562 48.5131 97.3677L49.2106 98.1955C48.633 98.5618 47.9943 98.8214 47.325 98.9621C47.4016 98.7628 47.5243 98.4562 47.5856 98.2875V98.3258ZM44.8107 96.3712C45.5389 97.2834 46.1445 98.0959 47.256 98.0039C47.0974 98.334 46.9691 98.6778 46.8727 99.0311C46.3131 99.0694 46.2365 98.9391 46.0142 99.0311C45.5773 99.1997 44.8567 100.771 43.109 100.763C43.2178 100.52 43.2877 100.262 43.316 99.9969C43.8105 99.897 44.2735 99.6787 44.6651 99.3607C44.8329 99.2152 44.942 99.0135 44.9717 98.7934C44.9717 98.5251 44.8797 98.1802 44.3125 97.728C44.5238 97.2803 44.6907 96.8131 44.8107 96.3329V96.3712ZM42.2352 99.2687C41.5606 98.9084 42.7104 98.2722 43.454 98.2952C43.6248 98.2965 43.7918 98.3461 43.9356 98.4383C44.0794 98.5306 44.1941 98.6617 44.2665 98.8164C44.1641 98.9813 44.0291 99.1235 43.8698 99.2344C43.7105 99.3452 43.5302 99.4224 43.3401 99.4612C43.1499 99.4999 42.9538 99.4994 42.7638 99.4597C42.5738 99.4201 42.3939 99.342 42.2352 99.2303V99.2687ZM43.1397 94.5775C43.6602 95.02 44.1329 95.5159 44.5501 96.0569C44.3076 96.4993 44.1221 96.9706 43.9982 97.4597C43.6761 97.3672 43.3384 97.3419 43.0061 97.3855C42.6738 97.429 42.354 97.5403 42.0666 97.7126C40.6638 98.4791 40.9934 100.158 42.9404 99.9662C42.826 100.187 42.7409 100.421 42.6874 100.664C41.9101 100.509 41.1833 100.164 40.5718 99.6596C41.1152 98.8153 41.5383 97.8995 41.8289 96.9384C42.1269 96.8015 42.4493 96.7256 42.7771 96.715C43.1048 96.7045 43.4314 96.7596 43.7376 96.8771L43.8986 96.2715L43.7299 96.1949C43.3697 95.9496 43.2087 95.758 42.7948 95.4284C42.9484 95.1484 43.0644 94.8495 43.1397 94.5392V94.5775ZM40.1656 93.3511C41.1248 93.3686 42.0536 93.6907 42.8178 94.2709C42.6805 94.5833 42.5777 94.9097 42.5111 95.2444C42.1437 94.956 41.7103 94.7637 41.2499 94.6847C40.7896 94.6058 40.3168 94.6427 39.8743 94.7921C40.036 94.3271 40.134 93.8424 40.1656 93.3511ZM38.4102 93.9489C38.8351 93.6183 39.3458 93.4161 39.8819 93.3664C39.6441 93.8817 39.4963 94.4339 39.445 94.9991C39.2166 95.1361 39.0297 95.3325 38.9042 95.5674C38.7786 95.8023 38.7192 96.0668 38.7322 96.3329C38.1951 96.3625 37.6577 96.2816 37.1531 96.0952C37.2671 95.2438 37.7136 94.4722 38.3949 93.9489H38.4102ZM26.9582 92.6688C25.5785 92.071 22.5124 93.8416 21.9528 94.7921C21.8719 95.0018 21.8719 95.234 21.9528 95.4437C22.4357 97.2757 26.9429 103.745 27.7784 104.749C27.9241 104.933 28.1234 104.68 27.9931 104.466C27.5945 103.807 27.6405 105.133 29.6794 98.5328C29.8683 98.4588 30.0442 98.3553 30.2007 98.2262C30.2718 98.1473 30.3111 98.0449 30.3111 97.9387C30.3111 97.8326 30.2718 97.7302 30.2007 97.6513C30.1311 97.5653 30.0513 97.4881 29.963 97.4213L30.446 95.6353L32.3623 96.6931C31.9747 97.6618 31.6921 98.6691 31.5191 99.6979C30.7462 99.9766 30.022 100.375 29.3728 100.878C28.9206 101.377 29.6334 102.296 30.078 102.848C30.5226 103.4 30.8982 103.776 30.9825 103.86C31.0668 103.945 31.3351 103.86 31.3121 103.722C31.2635 103.611 31.1989 103.508 31.1205 103.416C30.7052 102.769 30.3486 102.087 30.055 101.377C30.6508 101.02 31.2797 100.722 31.933 100.487C32.1706 100.403 32.9065 100.173 33.1058 100.296C34.0892 100.814 35.115 101.247 36.1719 101.591C36.2146 101.612 36.2636 101.614 36.3082 101.598C36.3528 101.583 36.3892 101.55 36.4096 101.507C36.4299 101.464 36.4324 101.415 36.4166 101.371C36.4008 101.326 36.3679 101.29 36.3252 101.269L34.9991 100.464C35.2815 99.8244 35.4625 99.1442 35.5357 98.4485L38.8088 100.219C39.0081 100.334 39.1614 100.02 39.0158 99.9356C38.8701 99.8512 28.9359 93.535 26.9582 92.6688ZM25.7931 93.4814C26.0606 93.401 26.3458 93.401 26.6133 93.4814C26.7896 93.558 27.2189 93.788 27.8014 94.1099C27.6049 94.6524 27.4712 95.2157 27.4028 95.7886C26.8893 95.4973 26.5826 95.2751 26.1764 95.344C25.9549 95.3937 25.7478 95.4933 25.5708 95.6353C25.6475 95.0374 25.7165 94.5775 25.7931 93.4814ZM22.727 95.1677C23.522 94.4098 24.4864 93.8527 25.5402 93.5427C25.1311 95.3508 24.8442 97.1844 24.6816 99.0311C23.9087 97.8069 23.2566 96.5105 22.7347 95.1601L22.727 95.1677ZM26.207 101.614C25.7854 100.917 25.3255 100.143 24.8886 99.3836C25.1492 98.2875 25.2335 97.7816 25.3945 96.7468C25.8139 97.4742 26.2988 98.1618 26.8433 98.8011C26.5342 99.7138 26.3235 100.657 26.2147 101.614H26.207ZM27.5485 103.822C27.2725 103.385 26.9199 102.795 26.46 102.036C26.751 101.074 26.9436 100.085 27.0349 99.0847C27.2035 99.491 28.7059 98.9084 29.1122 98.7551C28.8132 99.6979 27.7708 102.979 27.5561 103.822H27.5485ZM27.3185 98.8471C26.8435 98.025 26.4235 97.1723 26.0614 96.2945L26.299 96.1642C26.4063 96.2255 29.0279 97.7739 29.2195 97.8966C28.6221 98.2765 27.9878 98.595 27.3262 98.8471H27.3185ZM29.6181 97.1607C29.0432 96.7774 28.2613 96.3099 27.6634 95.9649C27.868 95.4222 28.002 94.8554 28.062 94.2786L30.239 95.505C30.2007 95.7963 29.94 96.3942 29.6641 97.1607H29.6181ZM34.6925 100.227L33.5121 99.514C32.9875 99.3069 32.4039 99.3069 31.8794 99.514C32.1765 98.6179 32.392 97.6969 32.5233 96.7621L35.2981 98.2952C35.0146 98.9203 34.826 99.5843 34.7385 100.265L34.6925 100.227Z" fill="black"/>
<path d="M149.281 102.956C148.039 91.3964 137.339 73.6205 130.946 63.9086C134.515 64.1941 138.098 64.2837 141.677 64.1769C142.697 64.1769 145.364 63.9929 145.878 63.8933C146.177 63.8319 146.223 63.5483 145.771 63.533C145.318 63.5177 142.099 63.3644 141.662 63.3567H133.866C132.671 63.4027 130.8 63.51 130.693 63.51C128.393 60.007 126.791 57.8147 126.776 57.807C126.758 57.7892 126.737 57.7753 126.714 57.7663C126.69 57.7573 126.665 57.7534 126.64 57.7549C126.615 57.7564 126.591 57.7632 126.568 57.7748C126.546 57.7865 126.527 57.8028 126.511 57.8226C126.496 57.8424 126.485 57.8653 126.479 57.8897C126.473 57.9141 126.473 57.9395 126.477 57.9641C126.482 57.9888 126.492 58.0121 126.506 58.0326C126.521 58.0531 126.54 58.0703 126.561 58.083C126.914 58.3666 142.405 81.0022 147.143 96.5935C149.021 102.779 150.132 110.544 144.076 112.691C129.696 117.826 17.07 119.497 6.42292 113.457C4.94352 112.622 4.59858 110.882 4.88986 108.536C5.34211 105.278 7.09747 100.871 9.21309 95.9342C11.597 98.2338 31.3735 116.393 34.5776 115.711C37.7817 115.029 55.8028 106.658 56.5464 105.056C56.9783 103.943 57.2068 102.762 57.2209 101.568C57.3117 101.443 57.3539 101.29 57.3398 101.136C57.3257 100.982 57.2562 100.839 57.1443 100.733C55.9561 99.5523 32.3853 80.8643 30.8676 80.9179C29.8098 80.9639 27.8934 82.0524 26.9813 82.589C26.6855 82.1051 26.2452 81.7263 25.7225 81.5063C25.1999 81.2862 24.6213 81.2359 24.0685 81.3625C23.5472 81.573 23.0805 81.899 22.7035 82.3159C22.3264 82.7328 22.0488 83.2297 21.8915 83.7694C21.9001 83.8108 21.9227 83.848 21.9555 83.8747C21.9883 83.9014 22.0293 83.916 22.0716 83.916C22.114 83.916 22.155 83.9014 22.1878 83.8747C22.2206 83.848 22.2432 83.8108 22.2518 83.7694C22.7128 82.9897 23.4437 82.4061 24.3061 82.129C24.6646 82.074 25.0315 82.1218 25.3639 82.267C25.6964 82.4122 25.9808 82.6488 26.1841 82.9492L17.6603 86.5902C17.2077 86.125 16.6427 85.7844 16.0199 85.6014C14.5635 85.2181 13.5823 86.1763 12.9998 87.5791C12.9869 87.6194 12.9884 87.6629 13.0039 87.7023C13.0195 87.7417 13.0481 87.7745 13.0851 87.7952C13.122 87.816 13.1649 87.8233 13.2066 87.816C13.2484 87.8088 13.2863 87.7873 13.314 87.7554C14.2952 86.3373 15.4297 85.8544 16.7864 86.9888C15.146 87.717 12.8541 88.7519 11.2444 89.549C11.3594 89.3651 27.9011 59.4091 27.9011 59.3324C28.6293 57.9833 30.0934 55.5687 31.6035 55.2545C32.286 55.1057 32.9822 55.0286 33.6808 55.0245C32.6153 56.7875 23.9688 71.1217 23.9535 73.1453C23.9535 75.4449 24.3521 75.0846 25.5785 75.4449C26.805 75.8052 95.4325 75.3836 95.5551 75.3836C96.7432 75.3836 101.388 75.2303 101.818 74.916C103.151 73.9348 102.852 72.4707 102.27 70.93C102.132 70.5621 101.434 69.0367 100.499 66.9977C104.524 65.7866 107.551 67.3273 107.827 73.8965C108.103 79.5765 105.865 81.3088 101.58 81.0636C98.1383 80.8643 95.7621 79.8524 95.0109 81.1939C94.1677 82.6886 96.4979 86.046 97.5098 87.4411C97.3641 87.4411 90.9482 87.3108 89.3309 87.2418C87.0518 87.1535 84.7697 87.1817 82.4934 87.3261C80.9259 87.3606 79.3674 87.5741 77.8482 87.9623C77.2733 88.2459 76.5298 89.7253 76.2155 90.3462C75.5946 91.565 72.7661 99.215 71.9843 101.423C71.5244 102.695 69.9683 106.911 71.0108 107.655C70.9725 108.475 71.1028 109.571 71.8233 109.954C72.5439 110.337 82.4474 110.613 83.2063 110.629C84.5477 110.667 98.1077 110.843 106.762 110.46C115.416 110.077 119.195 109.249 118.973 109.272C119.192 109.207 119.39 109.083 119.543 108.912C119.696 108.741 119.798 108.532 119.839 108.306C119.957 107.74 119.92 107.152 119.731 106.604C120.697 104.726 113.392 89.1351 111.369 88.039C111.249 87.9717 111.115 87.9348 110.978 87.9317C110.571 87.9317 101.48 87.5484 97.9467 87.4334C97.1801 86.3526 94.6889 82.2823 95.6471 81.4162C97.1035 80.1437 109.268 86.5213 108.617 73.8275C108.28 68.0862 105.635 64.7211 100.269 66.6681C99.8017 65.6563 95.877 57.2704 94.8269 55.0398C98.8951 55.2833 102.976 55.1935 107.03 54.7716C107.088 55.487 107.294 56.1825 107.634 56.8145C107.975 57.4464 108.442 58.001 109.008 58.4432C112.074 60.7428 124.277 60.3979 126.492 57.5847C127.113 56.7358 127.542 55.7622 127.75 54.7313C127.958 53.7003 127.939 52.6366 127.696 51.6134C127.9 51.4837 128.058 51.2934 128.148 51.0692C128.271 50.8316 128.148 50.5326 127.619 50.4253C126.937 50.3231 126.247 50.2821 125.557 50.3027C125.557 49.6741 125.595 48.5013 125.557 47.1676C125.626 47.1216 126.124 46.5237 126.178 46.4547C126.789 45.7409 127.271 44.9265 127.604 44.0478C127.857 43.3349 127.956 42.5147 127.289 42.1161C126.262 41.5566 125.542 42.5837 125.197 43.7335C124.875 41.9628 124.131 39.3643 122.353 39.6249C119.333 40.0848 121.418 47.4052 122.399 50.3027C121.537 50.1814 120.662 50.1814 119.8 50.3027C120.759 47.8958 121.249 44.7837 118.789 44.3161C118.416 44.2336 118.027 44.2622 117.67 44.3985C117.313 44.5347 117.004 44.7726 116.78 45.0826C116.731 44.9091 116.639 44.751 116.512 44.623C116.385 44.495 116.227 44.4013 116.054 44.3507C115.881 44.3002 115.698 44.2944 115.522 44.3339C115.346 44.3734 115.183 44.457 115.048 44.5767C113.921 45.3892 114.565 47.2519 115.876 47.8651C115.807 48.6531 115.807 49.4457 115.876 50.2337C115.06 50.1351 114.234 50.1532 113.423 50.2873C113.377 48.4157 113.172 46.5514 112.81 44.7147C113.275 44.3833 113.667 43.9587 113.96 43.4678C114.253 42.9769 114.441 42.4305 114.511 41.8632C114.619 40.8437 114.258 39.9928 113.408 39.7705C112.342 39.4946 111.714 40.2381 111.53 41.3036C110.587 40.0005 108.739 39.5329 107.843 41.0277C104.968 38.0382 103.581 39.7092 104.309 41.0277C104.853 42.0395 106.271 42.6067 107.375 42.921C107.375 44.638 108.142 46.0868 109.092 47.5662C109.728 48.5627 110.441 49.5208 110.993 50.226C109.8 50.1877 108.607 50.2647 107.429 50.456C106.708 50.6476 106.593 51.1689 107.26 51.5445C107.049 52.4429 106.972 53.3676 107.03 54.2886C102.912 54.0695 98.784 54.1669 94.6813 54.5799C94.4206 54.0204 93.6464 52.3876 93.5545 52.196C93.4625 52.0044 94.1983 49.7814 95.2332 29.1158C99.9856 28.7172 121.357 29.1924 123.319 28.4336C123.431 28.3932 123.531 28.3236 123.608 28.232C123.685 28.1405 123.736 28.0301 123.756 27.9123C124.407 25.7737 124.852 7.39229 123.756 5.68293C123.487 5.26134 122.529 5.13103 122 5.05438C115.171 4.05789 86.671 4.48714 85.2069 5.26134C83.7429 6.03553 84.3638 13.5935 84.6397 15.0959C69.838 14.6207 35.6584 15.5482 32.439 16.7516C31.6724 17.0276 31.3888 18.0777 31.2355 18.8673C29.9631 25.4364 33.5351 46.5773 34.7309 53.1082C34.6542 53.1082 34.7309 53.1082 33.7957 54.5646C33.0042 54.5059 32.2084 54.5471 31.4272 54.6872C29.6795 54.9555 28.0697 57.3701 27.1806 58.8725C27.1422 58.9492 24.881 62.7051 24.5437 63.3184C22.6197 63.0194 13.6743 63.1344 12.5398 63.1957C11.4054 63.2571 10.2402 63.3414 9.21309 63.418C9.02913 63.418 9.0138 63.7706 9.21309 63.7783C11.3594 63.9086 12.1489 63.9546 13.8123 63.9776C17.8826 64.0389 23.8845 64.2075 24.0761 64.1845C23.6775 64.8821 17.7752 75.3836 16.9857 76.8706C13.5517 83.3095 10.8535 89.2041 10.6925 89.7024C9.80144 90.1076 8.96454 90.6226 8.20127 91.2354C7.95508 91.9108 7.80791 92.6182 7.76435 93.3357C7.72602 94.5698 8.17061 94.8688 8.85282 95.5587C7.02227 99.4809 5.51736 103.547 4.35329 107.716C3.97326 109.402 3.95758 111.151 4.3073 112.844C4.62028 114.537 5.2053 116.167 6.03966 117.673C6.41445 118.054 6.90012 118.306 7.42708 118.394C9.44305 118.961 15.6903 119.689 17.7829 119.927C17.6252 120.863 17.5814 121.816 17.6526 122.763C17.6547 123.739 17.7966 124.709 18.0742 125.645C18.0767 125.668 18.0838 125.691 18.0949 125.711C18.1061 125.731 18.1212 125.749 18.1394 125.764C18.1575 125.779 18.1784 125.789 18.2007 125.796C18.2231 125.803 18.2465 125.805 18.2697 125.802C18.2928 125.8 18.3152 125.793 18.3357 125.781C18.3561 125.77 18.3741 125.755 18.3887 125.737C18.4033 125.719 18.4142 125.698 18.4207 125.676C18.4272 125.653 18.4293 125.63 18.4268 125.607C18.5494 124.651 18.5828 123.686 18.5264 122.724C18.5214 121.799 18.416 120.876 18.2122 119.973C19.27 120.065 20.2895 120.141 21.1786 120.172C21.0372 121.067 20.9987 121.974 21.0637 122.878C21.0662 123.854 21.2082 124.824 21.4852 125.76C21.4852 125.807 21.5038 125.852 21.5369 125.885C21.57 125.918 21.6148 125.936 21.6616 125.936C21.7083 125.936 21.7532 125.918 21.7862 125.885C21.8193 125.852 21.8379 125.807 21.8379 125.76C21.9646 124.805 22.0006 123.84 21.9452 122.878C21.9399 121.983 21.8371 121.091 21.6386 120.218C23.3479 120.256 48.5054 122.518 91.9524 121.659C103.596 121.429 117.593 120.892 129.121 119.628C128.969 120.552 128.926 121.491 128.991 122.426C128.995 123.399 129.139 124.368 129.42 125.3C129.415 125.326 129.415 125.352 129.421 125.378C129.428 125.403 129.439 125.427 129.456 125.448C129.472 125.468 129.493 125.484 129.517 125.496C129.541 125.507 129.567 125.513 129.593 125.513C129.619 125.513 129.645 125.507 129.669 125.496C129.692 125.484 129.713 125.468 129.73 125.448C129.746 125.427 129.758 125.403 129.764 125.378C129.77 125.352 129.771 125.326 129.765 125.3C129.899 124.345 129.935 123.38 129.873 122.418C129.864 121.471 129.754 120.528 129.543 119.605C130.394 119.513 132.364 119.267 132.533 119.244C132.382 120.164 132.34 121.098 132.41 122.027C132.41 123.003 132.552 123.974 132.831 124.909C132.837 124.956 132.86 124.999 132.897 125.028C132.933 125.058 132.98 125.071 133.027 125.066C133.074 125.061 133.117 125.038 133.146 125.001C133.175 124.964 133.189 124.918 133.184 124.871C133.31 123.918 133.344 122.955 133.284 121.996C133.279 121.052 133.168 120.111 132.954 119.191C136.411 118.723 146.982 117.297 148.423 114.346C150.124 110.981 149.986 106.604 149.281 102.956ZM79.5269 90.6145C79.6113 90.4076 82.1791 89.848 84.9846 90.6145C85.0103 90.6091 85.0369 90.6094 85.0624 90.6156C85.088 90.6217 85.1118 90.6335 85.1322 90.65C85.1526 90.6665 85.169 90.6874 85.1803 90.7111C85.1916 90.7348 85.1975 90.7607 85.1975 90.787C85.1975 90.8132 85.1916 90.8392 85.1803 90.8629C85.169 90.8866 85.1526 90.9075 85.1322 90.924C85.1118 90.9405 85.088 90.9523 85.0624 90.9584C85.0369 90.9645 85.0103 90.9649 84.9846 90.9595C83.5876 91.2076 82.1612 91.2438 80.7534 91.0668C80.0942 90.9595 79.2587 90.9518 79.504 90.6145H79.5269ZM118.934 108.843C111.844 110.192 72.6742 109.885 72.0839 109.609C71.4937 109.333 71.44 108.444 71.4247 107.861C75.6713 109.241 117.164 108.176 119.471 106.957C119.594 107.632 119.624 108.712 118.911 108.843H118.934ZM104.056 90.6988C104.056 90.4382 105.742 90.2926 105.819 90.2849C106.822 90.2078 107.829 90.2078 108.831 90.2849C109.391 90.3462 110.165 90.4229 110.104 90.6605C110.043 90.8981 108.885 90.9978 108.686 91.0285C107.937 91.0975 107.184 91.1282 106.432 91.1204C105.926 91.1051 104.002 91.0131 104.033 90.6988H104.056ZM113.906 93.2514C115.824 96.9055 117.434 100.713 118.72 104.634C118.883 105.13 118.973 105.646 118.988 106.167C115.531 107.241 75.6866 108.344 71.6547 107.187C71.463 107.133 71.4094 107.187 71.3634 106.865C71.0721 104.78 74.4832 96.4938 75.2727 94.5622C89.7755 94.0792 113.753 93.3357 113.883 93.2514H113.906ZM107.452 42.576C106.613 42.1156 105.853 41.5258 105.198 40.8284C104.899 40.3761 104.968 40.0618 105.85 40.4911C106.402 40.744 107.176 41.1963 107.697 41.5106C107.563 41.8517 107.48 42.2107 107.452 42.576ZM125.848 43.9481C126.462 42.8443 127.067 42.5301 127.006 43.1816C126.676 44.3475 126.208 45.4696 125.611 46.5237C125.565 45.7572 125.511 45.2436 125.45 44.7377C125.48 44.6304 125.634 44.3084 125.825 43.9481H125.848ZM122.591 50.617C122.744 51.0539 122.844 51.3145 122.851 51.3298C122.86 51.3515 122.872 51.3714 122.889 51.3882C122.905 51.4049 122.924 51.4184 122.945 51.4276C122.967 51.4369 122.99 51.4418 123.013 51.4422C123.036 51.4425 123.06 51.4382 123.081 51.4295C123.418 51.2992 122.92 50.9849 122.123 46.3627C121.885 44.983 121.18 40.7287 122.575 40.5294C123.71 40.3608 124.323 43.1739 124.538 44.2854C124.935 46.4278 125.191 48.5942 125.304 50.7703C125.304 50.8127 125.318 50.8539 125.346 50.8864C125.373 50.9188 125.411 50.9402 125.453 50.9468C125.495 50.9533 125.538 50.9445 125.574 50.9219C125.61 50.8993 125.637 50.8645 125.649 50.8239C125.651 50.7805 125.651 50.737 125.649 50.6936C126.342 50.714 127.031 50.8091 127.703 50.9772C127.618 51.0771 127.51 51.1559 127.389 51.2072C125.779 52.035 120.912 51.8741 119.233 51.8434C119.463 51.3835 119.624 51.0309 119.8 50.6093C120.717 50.7599 121.651 50.7624 122.568 50.617H122.591ZM116.612 48.9383C116.788 47.4052 117.179 44.96 118.727 45.2512C120.276 45.5425 119.885 47.7885 119.548 49.2909C119.34 50.1528 119.084 51.0024 118.781 51.8357H116.481C116.463 50.8687 116.499 49.9013 116.589 48.9383H116.612ZM115.638 45.3356C115.674 45.3016 115.716 45.2755 115.763 45.2589C115.809 45.2423 115.858 45.2355 115.907 45.2392C115.956 45.2428 116.004 45.2566 116.048 45.2798C116.091 45.303 116.129 45.3351 116.159 45.3739C116.282 45.4961 116.392 45.6296 116.489 45.7725C116.271 46.2613 116.119 46.7768 116.037 47.3055C115.638 46.7536 115.125 45.7495 115.638 45.3356ZM113.224 40.6751C114.22 40.9893 113.438 43.6109 112.771 44.4081C112.587 43.583 112.312 42.781 111.951 42.0165C112.173 41.3419 112.549 40.4604 113.224 40.6674V40.6751ZM111.338 50.7013C111.714 51.1765 111.959 51.4678 111.959 51.4678C111.989 51.4979 112.03 51.5158 112.072 51.5183C112.115 51.5209 112.157 51.5078 112.191 51.4815C112.225 51.4552 112.248 51.4176 112.256 51.3756C112.264 51.3336 112.256 51.2901 112.235 51.2532C112.235 51.2532 110.878 49.3215 109.759 47.3209C108.916 45.7878 108.111 44.2547 108.333 42.5607C108.509 41.227 109.215 40.6597 110.403 41.4339C112.12 42.5377 112.902 49.3445 113.147 51.3988C113.149 51.4526 113.168 51.5043 113.201 51.5468C113.234 51.5894 113.28 51.6207 113.331 51.6364C113.538 51.6364 113.507 51.4142 113.5 51.3068C113.492 51.1995 113.5 50.6629 113.5 50.6093C114.314 50.7123 115.138 50.7123 115.952 50.6093C115.998 51.1689 116.052 51.6058 116.09 51.8357C113.369 51.8357 110.081 52.0197 107.827 51.1382C108.986 50.909 110.159 50.763 111.338 50.7013ZM107.666 51.8281C108.787 52.2626 109.969 52.5211 111.169 52.5946C112.526 52.7173 121.763 52.7326 122.813 52.6789C124.396 52.6529 125.964 52.3601 127.45 51.8127C127.593 52.754 127.539 53.7146 127.293 54.6341C127.046 55.5535 126.612 56.412 126.017 57.1555C124.154 59.3401 112.373 59.8383 109.544 57.8453C107.682 56.5652 107.344 54.005 107.666 51.8204V51.8281ZM101.488 74.3334C101.649 74.847 28.5603 74.87 28.4837 74.8623C25.4176 74.8623 26.1841 74.8623 25.1569 74.6094C24.881 74.548 24.8273 74.548 24.7737 74.2798C24.7086 73.8589 24.6907 73.4321 24.72 73.0073C24.7361 73.0388 24.762 73.0641 24.7939 73.0793C24.8258 73.0945 24.8617 73.0989 24.8963 73.0916C24.8963 73.0916 101.465 72.0492 101.963 72.0338C102.17 72.9307 102.201 73.7662 101.488 74.3334ZM123.051 27.8127C123.051 27.8127 123.097 27.736 123.112 27.759C123.127 27.782 123.051 27.805 123.012 27.8127H123.051ZM84.931 8.48077C84.931 7.98252 85.1303 6.09686 85.5749 5.8669C86.5867 5.36099 118.743 4.93173 123.135 6.30382C123.901 7.91353 123.656 25.996 123.012 27.8127C119.241 28.4029 100.262 28.3569 95.3251 28.8628C95.6241 22.8302 95.7544 17.7481 95.5091 16.7593C95.4618 16.6303 95.3853 16.5141 95.2856 16.4197C95.1858 16.3252 95.0656 16.2552 94.9342 16.2151C93.2555 15.4869 86.9393 15.2799 85.0996 15.2186C84.8609 12.9809 84.8045 10.7276 84.931 8.48077ZM31.9254 27.782C31.8104 26.1723 31.2432 18.0471 32.7762 17.4798C33.5428 17.2116 36.241 16.9433 40.1579 16.7133C47.6623 16.2457 59.4898 15.8701 70.2519 15.7935C72.6435 15.7935 92.8492 15.6172 94.8269 16.9739C95.4095 19.6261 93.5468 49.0916 93.1329 51.9354C75.0197 52.5256 53.5569 53.4148 35.2905 52.9702C34.9839 51.2149 32.6383 37.6703 31.9254 27.782ZM35.0528 53.4838C35.0543 53.4659 35.0543 53.448 35.0528 53.4301C47.9689 53.8287 88.388 52.5026 93.3092 52.472C93.8534 53.7367 101.496 70.6924 101.818 71.6352C101.733 71.6352 24.835 72.6777 24.7353 72.7544C25.7012 69.5196 33.6884 55.8447 35.0528 53.4838ZM56.1248 104.841C55.5575 105.945 38.3719 113.626 34.8382 114.691C34.9067 114.338 34.9325 113.978 34.9149 113.618C40.1349 111.809 51.4643 107.034 56.5464 103.653C56.4495 104.066 56.3082 104.467 56.1248 104.849V104.841ZM56.6537 103.147C55.1206 104.052 53.6565 104.68 34.9072 113.204C34.9079 112.857 34.8615 112.512 34.7692 112.177C37.2221 111.027 53.8558 104.581 56.8223 102.013C56.784 102.342 56.7303 102.741 56.6537 103.155V103.147ZM17.1697 87.4181C17.5383 87.8523 17.7664 88.3881 17.8239 88.9548C17.8814 89.5214 17.7655 90.0922 17.4916 90.5915C17.369 90.7832 17.6603 90.9825 17.7829 90.7832C18.2457 90.2788 18.5192 89.6295 18.557 88.946C18.5947 88.2625 18.3943 87.5871 17.9899 87.0348C21.7152 85.3255 25.3792 83.7158 26.3834 83.2788C26.6346 83.7892 26.7691 84.3491 26.777 84.9179C26.785 85.4866 26.6662 86.0501 26.4294 86.5672C26.3374 86.8125 26.6133 86.9045 26.7437 86.7436C27.1652 86.2079 27.4276 85.5644 27.5008 84.8866C27.574 84.2089 27.4551 83.5242 27.1576 82.9109C27.9854 82.4433 29.9171 81.3778 30.8599 81.3778C32.0404 81.3778 55.9945 100.863 56.439 101.308C54.4384 103.37 35.8654 110.721 34.3016 111.472C31.0056 110.705 10.8918 93.4047 9.00613 91.6264C10.1789 90.6529 15.8512 88.0313 17.1697 87.4181ZM8.42357 91.979C10.8151 94.3169 30.7679 111.732 34.11 112.284C34.0429 112.573 34.0121 112.869 34.018 113.166C28.6523 110.544 13.3217 97.268 8.24726 92.9984C8.27026 92.9984 8.38524 92.2472 8.44656 91.979H8.42357ZM8.53855 94.6082C8.32233 94.279 8.21507 93.8902 8.23193 93.4967C13.245 98.5558 27.3952 110.997 34.0104 113.587C33.9967 113.997 34.038 114.407 34.133 114.806C30.2007 113.925 9.05979 95.2367 8.56154 94.6082H8.53855ZM148.047 114.093C143.095 123.92 8.72251 121.352 6.54557 117.52C5.62281 115.916 4.99944 114.157 4.70589 112.33C5.00159 112.978 5.49552 113.515 6.11631 113.863C17.3996 120.433 129.658 118.716 144.314 113.449C147.419 112.33 148.982 109.916 149.335 106.551C149.543 109.135 149.095 111.729 148.032 114.093H148.047Z" fill="black"/>
<path d="M33.2667 61.9616C87.4681 62.7281 92.6422 62.2605 94.1599 62.0229C94.5202 61.9693 94.7502 61.8466 94.7348 61.425C94.7348 60.3136 92.1286 55.2161 91.4387 54.8635C91.1321 54.7026 36.2485 55.4767 36.0569 55.5381C36.0212 55.5467 35.9877 55.5627 35.9587 55.5852C35.9296 55.6077 35.9056 55.636 35.8883 55.6684C35.367 56.5192 32.8221 60.7198 32.9371 61.6703C32.9496 61.7496 32.9893 61.8221 33.0495 61.8753C33.1096 61.9285 33.1865 61.959 33.2667 61.9616ZM36.2792 56.067C36.8311 55.998 90.8255 55.4614 91.1551 55.4921C91.7274 56.3153 92.2397 57.1786 92.6882 58.0753C91.4311 58.0753 35.2444 58.3742 34.9531 58.3819C35.2904 57.7074 35.735 56.9408 36.2792 56.067ZM34.7461 58.7498C35.0451 58.7498 91.8987 58.4586 92.8722 58.4356C93.3766 59.3748 93.7751 60.3671 94.0603 61.3944C91.3314 61.8313 66.4652 61.6167 33.5427 61.3944C33.8503 60.4659 34.2482 59.5699 34.7308 58.7192L34.7461 58.7498ZM75.5716 64.5678C75.4186 64.2293 75.1688 63.9438 74.8536 63.7474C74.5384 63.5509 74.1721 63.4523 73.8009 63.464C71.8539 63.464 55.5038 63.0117 54.032 63.6096C53.0925 64.7481 52.3655 66.0463 51.8858 67.4423C51.8398 67.7796 52.0084 67.9329 52.2154 67.9559C56.8146 68.4541 72.0608 68.9294 76.0161 68.2012C76.5067 68.1092 76.5681 67.5879 76.4684 67.0897C76.2311 66.2284 75.9313 65.3855 75.5716 64.5678ZM52.43 67.4423C52.8703 66.1985 53.4679 65.0161 54.2084 63.9239C55.3735 63.5407 70.5278 64.3378 73.8239 64.3302C74.0201 64.3232 74.2142 64.3729 74.3828 64.4736C74.5514 64.5742 74.6874 64.7214 74.7744 64.8974C75.147 65.6936 75.4372 66.5258 75.6405 67.381C71.7542 67.9865 55.2508 67.6416 52.43 67.4423ZM128.807 65.549C127.726 64.0619 122.307 64.1309 120.49 64.1845C118.957 64.1845 113.385 64.4375 113.385 65.9399C113.391 66.0616 113.426 66.18 113.488 66.2853C113.549 66.3906 113.634 66.4798 113.737 66.5455C113.883 66.6604 112.879 76.7633 114.258 82.1827C114.711 83.9764 115.293 84.8655 117.003 85.6091C120.283 87.0348 125.726 86.7205 127.91 83.6774C128.347 82.7882 128.255 80.1974 128.294 79.4078C131.689 80.0824 134.472 78.7026 135.192 75.0463C135.645 72.693 135.062 71.1523 134.058 70.2171C133.387 69.6709 132.594 69.2951 131.746 69.1216C130.899 68.9481 130.022 68.9821 129.19 69.2206C129.161 69.2305 129.13 69.2332 129.1 69.2285C129.07 69.2239 129.041 69.2121 129.016 69.1941C128.992 69.1761 128.971 69.1524 128.958 69.125C128.944 69.0976 128.937 69.0673 128.937 69.0367C128.937 68.6304 129.083 65.8786 128.807 65.549ZM114.243 65.7099C116.313 64.4988 124.744 64.4068 127.466 65.6409C127.558 65.6869 127.903 65.8632 127.903 65.9399C127.903 66.0165 127.55 66.2005 127.466 66.2388C125.411 67.1663 118.076 67.5879 114.22 66.1775C113.952 66.0319 114.22 65.7406 114.22 65.7099H114.243ZM129.405 70.0025C130.102 69.8017 130.837 69.7729 131.547 69.9184C132.257 70.0639 132.921 70.3795 133.483 70.838C134.311 71.6046 134.725 72.923 134.341 74.8776C134.265 75.5572 134.03 76.2091 133.654 76.7805C133.279 77.3519 132.773 77.8266 132.18 78.1661C130.923 78.7318 129.507 78.8403 128.179 78.4727C128.113 78.449 128.044 78.439 127.974 78.4433C127.905 78.4476 127.837 78.4662 127.776 78.4978C127.714 78.5295 127.659 78.5735 127.615 78.6272C127.571 78.6809 127.538 78.7431 127.519 78.8099C127.312 79.3925 127.604 81.7458 127.182 83.2328C125.243 85.862 120.283 86.0996 117.347 84.8655C115.86 84.2293 115.446 83.5701 115.048 81.9834C114.021 78.2197 113.959 70.5544 114.189 66.7831C116.604 67.9252 124.967 68.2548 128.255 66.5684C128.255 68.9447 127.964 69.3433 128.562 69.8262C128.678 69.9134 128.811 69.9744 128.952 70.0049C129.094 70.0353 129.241 70.0345 129.382 70.0025H129.405ZM54.9442 86.2453C52.9311 84.5379 50.7655 83.0189 48.4747 81.7074C47.5922 81.1867 46.6536 80.7676 45.6769 80.458C44.8567 80.2434 44.5117 80.6649 44.6804 81.2245C45.0259 82.0279 45.4826 82.7788 46.0371 83.4551C47.8009 85.6877 49.8291 87.698 52.0774 89.4417C55.4961 92.3009 59.9267 95.7656 63.1614 98.2262C63.3262 98.3466 63.5134 98.4329 63.712 98.48C63.9106 98.5272 64.1167 98.5341 64.318 98.5006C64.5193 98.467 64.712 98.3936 64.8845 98.2846C65.0571 98.1756 65.2062 98.0333 65.323 97.8659C65.8903 97.245 66.2429 96.1565 65.6067 95.5663C64.8708 94.9071 60.3713 90.6682 54.9442 86.2453ZM47.6009 84.5436L46.5507 82.8496C46.9246 82.6943 47.2407 82.4264 47.4552 82.083L49.1186 82.7576C48.7012 82.8404 48.3241 83.0619 48.0485 83.3861C47.773 83.7104 47.6152 84.1183 47.6009 84.5436ZM49.9541 86.4982C49.4001 86.032 48.8872 85.5191 48.421 84.9652C48.4747 84.0377 48.766 83.6238 49.6935 83.5931C50.3114 83.8883 50.895 84.2508 51.4335 84.6739C51.0213 84.7743 50.6534 85.0071 50.3862 85.3366C50.119 85.6662 49.9672 86.0742 49.9541 86.4982ZM63.0618 97.6513C62.2109 96.9384 50.8969 87.3414 50.1994 86.7282C50.2579 86.2991 50.4453 85.8978 50.7369 85.5775C51.0284 85.2572 51.4103 85.033 51.8321 84.9345C54.4766 86.8968 58.2786 90.1469 64.9091 95.666C64.651 95.6528 64.3932 95.6963 64.1537 95.7935C63.9142 95.8906 63.6989 96.0389 63.5228 96.2281C63.3468 96.4173 63.2143 96.6428 63.1346 96.8886C63.055 97.1345 63.0301 97.3948 63.0618 97.6513ZM123.802 106.144C124.76 106.796 125.427 106.497 126.048 105.593C127.581 103.416 132.946 93.7803 132.946 93.7036C132.946 93.627 133.008 93.7726 132.755 90.6758C132.744 90.5594 132.702 90.4481 132.633 90.3535C132.564 90.2589 132.471 90.1846 132.364 90.1384C132.256 90.0921 132.138 90.0756 132.022 90.0906C131.907 90.1056 131.797 90.1515 131.705 90.2236L129.083 92.1322C129.083 92.1322 123.265 104.159 123.204 104.266C123.099 104.603 123.099 104.964 123.206 105.3C123.313 105.636 123.521 105.931 123.802 106.144ZM131.919 91.1588C131.965 91.7183 132.027 92.4618 132.073 92.9754C131.503 92.7029 130.907 92.4897 130.294 92.3392L131.919 91.1588ZM129.727 92.8605C130.391 93.3314 131.159 93.6363 131.965 93.7496C131.85 93.9489 125.994 104.634 125.933 104.742C125.755 104.38 125.462 104.086 125.1 103.907C124.738 103.729 124.328 103.674 123.932 103.753C124.53 102.641 129.512 93.2437 129.727 92.8605Z" fill="black"/>
<path d="M126.201 77.6601C126.118 77.5442 126.013 77.4458 125.892 77.3708C125.771 77.2958 125.637 77.2456 125.496 77.2232C125.042 77.102 124.581 77.0099 124.116 76.9473C124.377 78.7716 124.53 80.7799 124.522 80.9562C124.511 81.0729 124.453 81.1803 124.363 81.255C124.273 81.3296 124.156 81.3655 124.039 81.3548C123.922 81.3413 123.815 81.2824 123.74 81.1907C123.666 81.099 123.63 80.9819 123.641 80.8642C123.641 80.7339 123.595 80.205 123.557 76.8706C122.023 76.679 114.642 76.1041 114.933 77.5758C114.933 77.6525 114.328 81.4085 116.673 83.2098C119.019 85.0112 123.71 84.6586 125.35 82.8266C125.816 82.2689 126.123 81.5965 126.239 80.8796C126.42 79.8129 126.407 78.7222 126.201 77.6601ZM128.041 70.723C128.041 71.068 127.581 73.7048 127.274 77.2462L127.642 77.3229C128.991 77.6092 130.396 77.456 131.651 76.8859C132.089 76.6428 132.451 76.284 132.699 75.8486C132.946 75.4133 133.069 74.9182 133.054 74.4177C133.106 73.7955 132.998 73.1704 132.74 72.6018C132.481 72.0333 132.082 71.5403 131.579 71.1699C131.077 70.7995 130.488 70.5639 129.868 70.4857C129.249 70.4075 128.62 70.4892 128.041 70.723ZM128.386 70.9837C128.875 70.9062 129.375 70.9345 129.852 71.0668C130.33 71.199 130.773 71.432 131.153 71.7502C131.517 72.0845 131.8 72.4985 131.978 72.9599C132.156 73.4213 132.225 73.9175 132.18 74.41C132.111 76.38 130.087 76.7556 128.148 76.5563C128.24 75.1613 128.317 73.5592 128.386 70.9837ZM120.176 25.9883C120.174 26.1248 120.199 26.2604 120.25 26.3873C120.3 26.5141 120.376 26.6296 120.471 26.7273C120.567 26.8249 120.68 26.9026 120.806 26.956C120.932 27.0094 121.067 27.0375 121.203 27.0385C121.412 27.043 121.617 26.9853 121.793 26.8728C121.969 26.7602 122.107 26.5978 122.19 26.4064C122.273 26.2149 122.297 26.0031 122.259 25.7979C122.221 25.5927 122.123 25.4034 121.977 25.2543C121.831 25.1051 121.644 25.0028 121.44 24.9603C121.235 24.9179 121.023 24.9373 120.83 25.0161C120.637 25.0949 120.471 25.2294 120.355 25.4026C120.238 25.5757 120.176 25.7796 120.176 25.9883ZM36.2794 51.2762C36.4557 51.6211 36.6856 51.6594 36.8313 51.5521C36.9769 51.4448 85.5213 51.0232 89.1316 50.8316C89.9081 50.8435 90.6823 50.7454 91.4312 50.5403C93.1559 49.0072 93.8305 20.3466 93.1559 19.0205C91.4312 15.5788 37.4521 17.7941 34.1331 18.7983C31.4885 19.5954 35.0606 48.8309 36.2794 51.2762ZM33.9874 20.04C33.9874 19.9021 34.1561 19.3655 34.2864 19.3272C37.9581 18.2234 91.2703 16.4067 92.719 19.2888C92.8426 19.8655 92.8991 20.4545 92.8876 21.0442C93.018 24.3863 92.8876 31.5457 92.5427 37.9615C92.4737 39.188 91.9295 49.2372 91.1323 50.1494C87.9512 50.8239 38.9316 50.9772 36.7546 51.0615C35.5128 48.1794 32.83 25.0991 33.9874 20.04ZM121.303 9.08631C121.511 9.09087 121.716 9.03336 121.892 8.92112C122.067 8.80887 122.205 8.64695 122.289 8.45596C122.372 8.26497 122.396 8.05354 122.359 7.84856C122.322 7.64358 122.224 7.45432 122.079 7.30485C121.934 7.15538 121.748 7.05246 121.544 7.00918C121.34 6.9659 121.128 6.98421 120.935 7.0618C120.741 7.13938 120.576 7.27272 120.458 7.44486C120.341 7.617 120.277 7.82016 120.276 8.0285C120.273 8.16567 120.297 8.30208 120.347 8.4298C120.397 8.55751 120.472 8.67397 120.568 8.77241C120.664 8.87084 120.778 8.94929 120.904 9.00318C121.03 9.05707 121.166 9.08533 121.303 9.08631Z" fill="black"/>
<path d="M48.9883 39.3566H58.0947C59.1485 39.3525 60.1576 38.9305 60.9006 38.1833C61.6436 37.436 62.0597 36.4244 62.0577 35.3706V27.9813C62.0578 26.9252 61.642 25.9116 60.9003 25.1599C60.1586 24.4082 59.1507 23.9788 58.0947 23.9647H48.9883C48.4603 23.9626 47.9371 24.0651 47.4488 24.2663C46.9606 24.4674 46.517 24.7632 46.1436 25.1366C45.7702 25.51 45.4745 25.9536 45.2733 26.4418C45.0722 26.93 44.9697 27.4532 44.9717 27.9813V35.3706C44.9737 35.8961 45.0792 36.416 45.2821 36.9007C45.4851 37.3854 45.7815 37.8254 46.1545 38.1955C46.5275 38.5656 46.9697 38.8587 47.4559 39.0579C47.9422 39.2571 48.4629 39.3586 48.9883 39.3566ZM45.6233 27.9813C45.6372 27.0953 45.997 26.2498 46.6257 25.6254C47.2544 25.001 48.1023 24.6471 48.9883 24.6392H58.0947C58.5422 24.6341 58.9863 24.7178 59.4013 24.8853C59.8163 25.0528 60.194 25.3009 60.5125 25.6152C60.8311 25.9295 61.0843 26.3038 61.2574 26.7165C61.4305 27.1292 61.5201 27.5721 61.5211 28.0196V35.3706C61.5191 35.8186 61.4289 36.2617 61.2556 36.6748C61.0823 37.0879 60.8294 37.4628 60.5112 37.7781C60.193 38.0935 59.8159 38.343 59.4012 38.5126C58.9866 38.6821 58.5427 38.7684 58.0947 38.7664H48.9883C48.5444 38.7644 48.1052 38.6749 47.6959 38.5032C47.2865 38.3314 46.915 38.0808 46.6025 37.7654C46.29 37.4501 46.0427 37.0763 45.8747 36.6654C45.7067 36.2545 45.6212 35.8146 45.6233 35.3706V27.9813ZM73.6093 44.8296C73.7626 45.2819 74.1459 45.1822 74.2532 44.8986C74.3988 44.4923 75.2497 41.5719 75.357 41.066C75.9472 40.882 74.2838 41.4569 79.4273 39.5865C79.4806 39.5659 79.5264 39.5296 79.5588 39.4824C79.5911 39.4352 79.6084 39.3793 79.6084 39.3221C79.6084 39.2649 79.5911 39.209 79.5588 39.1618C79.5264 39.1146 79.4806 39.0783 79.4273 39.0576L71.5473 35.9072C71.4989 35.8843 71.4454 35.8745 71.392 35.8787C71.3386 35.883 71.2873 35.9011 71.2431 35.9313C71.1989 35.9616 71.1634 36.0028 71.1401 36.0511C71.1168 36.0993 71.1066 36.1527 71.1104 36.2061C71.1104 36.2061 73.1877 43.6108 73.6093 44.8296ZM71.8999 36.7274L78.5381 39.3413C77.6489 39.6709 76.1465 40.2381 75.426 40.5294C75.104 40.652 74.9737 40.7057 74.8971 40.8053C74.8204 40.905 75.0887 40.3071 73.9619 43.7795L71.8999 36.7274ZM89.9901 14.2527C89.9991 14.2987 90.024 14.34 90.0604 14.3695C90.0969 14.3989 90.1425 14.4146 90.1894 14.4137C90.3503 14.4137 95.3098 14.8889 96.3216 14.6206C96.9732 14.4443 97.0881 13.2945 97.1494 12.62C97.2261 11.6005 97.1495 9.10162 96.7202 8.25077C96.1376 7.10098 91.8374 7.48424 90.5879 7.70654C90.2563 7.7532 89.9393 7.87369 89.6604 8.05914C89.498 8.24763 89.4036 8.48515 89.3922 8.73369C89.3846 10.5899 89.5851 12.4412 89.9901 14.2527ZM90.2123 8.64937C91.4235 8.27377 94.8729 8.12813 95.969 8.64937C96.3446 9.64586 96.5439 13.0723 96.0916 13.8694C95.3788 14.0534 91.0249 14.0534 90.2967 14.0611C90.2737 13.4632 89.9211 10.2361 90.2123 8.64937ZM100.277 14.222C100.287 14.2674 100.312 14.3079 100.349 14.3371C100.385 14.3663 100.43 14.3825 100.476 14.383C100.637 14.383 105.597 14.8583 106.608 14.59C107.26 14.4137 107.375 13.2639 107.444 12.5893C107.513 11.5699 107.444 9.07096 107.007 8.22011C106.424 7.06265 102.124 7.45358 100.875 7.67588C100.544 7.72569 100.228 7.84593 99.9473 8.02848C99.7883 8.21902 99.6943 8.45534 99.679 8.70303C99.6719 10.5592 99.8724 12.4104 100.277 14.222ZM100.499 8.61871C101.71 8.23544 105.16 8.09747 106.256 8.61871C106.631 9.6152 106.831 13.0416 106.378 13.8311C105.666 14.0228 101.312 14.0227 100.584 14.0304C100.561 13.4325 100.208 10.2054 100.499 8.61871ZM111.039 14.5593C111.048 14.6053 111.073 14.6466 111.109 14.6761C111.146 14.7055 111.191 14.7212 111.238 14.7203C111.399 14.7203 116.359 15.1955 117.371 14.9273C118.022 14.751 118.137 13.6012 118.198 12.9266C118.275 11.9071 118.198 9.40824 117.769 8.55739C117.187 7.40759 112.886 7.79086 111.637 8.01315C111.306 8.06179 110.989 8.18212 110.709 8.36575C110.547 8.55424 110.452 8.79176 110.441 9.0403C110.434 10.8965 110.634 12.7478 111.039 14.5593ZM111.261 8.95598C112.472 8.58038 115.922 8.43474 117.018 8.95598C117.394 9.95247 117.593 13.3789 117.141 14.1761C116.428 14.36 112.074 14.36 111.346 14.3677C111.323 13.7698 110.97 10.5427 111.261 8.95598ZM100.346 26.0113C100.4 26.1646 100.522 26.1799 100.545 26.1723C100.714 26.1723 105.666 26.6475 106.677 26.3792C107.329 26.2029 107.444 25.0531 107.513 24.3786C107.582 23.3591 107.513 20.8602 107.084 20.017C106.493 18.8596 102.193 19.2505 100.951 19.4651C100.618 19.5127 100.298 19.633 100.016 19.8177C99.8558 20.0103 99.7617 20.2496 99.748 20.4999C99.7408 22.3536 99.9413 24.2023 100.346 26.0113ZM100.576 20.4079C101.787 20.0323 105.229 19.8867 106.325 20.4079C106.7 21.4044 106.9 24.8308 106.447 25.628C105.735 25.812 101.388 25.812 100.66 25.8197C100.629 25.2218 100.277 21.9947 100.576 20.4079ZM118.267 19.7027C119.494 17.8937 120.567 16.261 120.605 16.1844C120.644 16.1077 120.084 15.4178 119.754 15.9084C117.409 19.5188 117.731 19.1738 117.562 19.1125C116.213 18.6219 111.859 18.7906 111.177 19.4268C110.717 19.856 110.893 21.4121 110.947 22.079C110.456 21.803 110.081 21.6037 109.943 21.5501C109.59 21.4121 109.613 21.757 109.805 21.8797L111.001 22.6462C111.098 23.6536 111.254 24.6544 111.468 25.6434C111.476 25.6901 111.5 25.7323 111.537 25.762C111.574 25.7918 111.62 25.8068 111.668 25.8043C111.829 25.8043 116.788 26.2796 117.8 26.0113C119.118 25.6434 118.712 20.8065 118.267 19.7027ZM111.691 20.017C113.494 19.6067 115.362 19.5728 117.179 19.9174L114.519 24.1103C114.251 23.957 112.817 23.1138 111.622 22.4393C111.571 21.6391 111.594 20.836 111.691 20.04V20.017ZM117.57 25.2294C116.849 25.4211 112.503 25.4211 111.775 25.4287C111.775 25.1221 111.66 24.118 111.606 23.0065L114.519 24.8155C114.593 24.8236 114.667 24.8105 114.734 24.778C114.8 24.7454 114.856 24.6946 114.895 24.6315C115.14 24.3173 116.374 22.5236 117.631 20.6762C117.869 22.056 117.945 24.5702 117.585 25.2294H117.57ZM87.0926 8.83334C87.3006 8.83637 87.5048 8.77756 87.6793 8.66436C87.8538 8.55117 87.9908 8.38869 88.0729 8.19754C88.1549 8.00639 88.1784 7.79517 88.1402 7.59068C88.102 7.38619 88.004 7.19764 87.8585 7.04894C87.7131 6.90024 87.5267 6.79809 87.3231 6.75545C87.1195 6.71281 86.9078 6.7316 86.7149 6.80944C86.522 6.88727 86.3566 7.02065 86.2396 7.19264C86.1226 7.36464 86.0593 7.56751 86.0578 7.77553C86.0577 8.05214 86.166 8.31777 86.3594 8.5155C86.5528 8.71323 86.816 8.82732 87.0926 8.83334Z" fill="black"/>
</svg>
