<svg width="103" height="81" viewBox="0 0 103 81" fill="none" xmlns="http://www.w3.org/2000/svg">
<path d="M117.234 47.051L90.5469 16.551C90.1901 16.1435 89.7505 15.8166 89.2574 15.5923C88.7644 15.368 88.2292 15.2513 87.6875 15.25H34.3125C33.7708 15.2513 33.2356 15.368 32.7426 15.5923C32.2496 15.8166 31.81 16.1435 31.4531 16.551L4.76564 47.051C4.14305 47.7618 3.80662 48.6786 3.82158 49.6234C3.83655 50.5682 4.20186 51.4738 4.84666 52.1645L58.2217 109.352C58.5784 109.734 59.01 110.039 59.4896 110.248C59.9692 110.456 60.4866 110.564 61.0096 110.564C61.5325 110.564 62.0499 110.456 62.5295 110.248C63.0091 110.039 63.4407 109.734 63.7974 109.352L117.172 52.1645C117.815 51.4714 118.176 50.5645 118.188 49.6197C118.199 48.6749 117.86 47.7595 117.234 47.051ZM105.973 45.75H85.7813L68.625 22.875H85.9576L105.973 45.75ZM35.542 53.375L49.9009 89.2745L16.3985 53.375H35.542ZM78.242 53.375L61 96.4848L43.758 53.375H78.242ZM45.75 45.75L61 25.4151L76.25 45.75H45.75ZM86.458 53.375H105.602L72.0992 89.2745L86.458 53.375ZM36.0424 22.875H53.375L36.2188 45.75H16.0268L36.0424 22.875Z" fill="url(#paint0_linear_547_5831)" fill-opacity="0.5"/>
<defs>
<linearGradient id="paint0_linear_547_5831" x1="-54.9999" y1="-118" x2="127.5" y2="145.5" gradientUnits="userSpaceOnUse">
<stop offset="0.503231" stop-color="white"/>
<stop offset="0.726488" stop-color="white" stop-opacity="0"/>
</linearGradient>
</defs>
</svg>
