<svg width="40" height="40" viewBox="0 0 40 40" fill="none" xmlns="http://www.w3.org/2000/svg">
<rect x="0.5" y="0.5" width="39" height="39" rx="19.5" fill="white"/>
<rect x="0.5" y="0.5" width="39" height="39" rx="19.5" stroke="#EAECF0"/>
<path d="M11.25 17.25C11.25 15.1498 11.25 14.0997 11.6587 13.2975C12.0183 12.5919 12.5919 12.0183 13.2975 11.6587C14.0997 11.25 15.1498 11.25 17.25 11.25H22.75C24.8502 11.25 25.9003 11.25 26.7025 11.6587C27.4081 12.0183 27.9817 12.5919 28.3413 13.2975C28.75 14.0997 28.75 15.1498 28.75 17.25V22.75C28.75 24.8502 28.75 25.9003 28.3413 26.7025C27.9817 27.4081 27.4081 27.9817 26.7025 28.3413C25.9003 28.75 24.8502 28.75 22.75 28.75H17.25C15.1498 28.75 14.0997 28.75 13.2975 28.3413C12.5919 27.9817 12.0183 27.4081 11.6587 26.7025C11.25 25.9003 11.25 24.8502 11.25 22.75V17.25Z" fill="url(#paint0_linear_918_6335)"/>
<path d="M25.172 16.2667C24.2259 15.4667 23.0906 15.0667 21.8922 15L21.703 15.2C22.7752 15.4667 23.7213 16 24.6044 16.7333C23.5321 16.1333 22.3337 15.7333 21.0722 15.6C20.6938 15.5333 20.3784 15.5333 20 15.5333C19.6216 15.5333 19.3062 15.5333 18.9278 15.6C17.6663 15.7333 16.4679 16.1333 15.3956 16.7333C16.2787 16 17.2248 15.4667 18.297 15.2L18.1078 15C16.9094 15.0667 15.7741 15.4667 14.828 16.2667C13.7557 18.4 13.1881 20.8 13.125 23.2667C14.0711 24.3333 15.3956 25 16.7833 25C16.7833 25 17.2248 24.4667 17.5401 24C16.7202 23.8 15.9633 23.3333 15.4587 22.6C15.9002 22.8667 16.3417 23.1333 16.7833 23.3333C17.3509 23.6 17.9186 23.7333 18.4862 23.8667C18.9908 23.9333 19.4954 24 20 24C20.5046 24 21.0092 23.9333 21.5138 23.8667C22.0814 23.7333 22.6491 23.6 23.2167 23.3333C23.6583 23.1333 24.0998 22.8667 24.5413 22.6C24.0367 23.3333 23.2798 23.8 22.4599 24C22.7752 24.4667 23.2167 25 23.2167 25C24.6044 25 25.9289 24.3333 26.875 23.2667C26.8119 20.8 26.2443 18.4 25.172 16.2667ZM17.9186 22.0667C17.2878 22.0667 16.7202 21.4667 16.7202 20.7333C16.7202 20 17.2878 19.4 17.9186 19.4C18.5493 19.4 19.117 20 19.117 20.7333C19.117 21.4667 18.5493 22.0667 17.9186 22.0667ZM22.0814 22.0667C21.4507 22.0667 20.883 21.4667 20.883 20.7333C20.883 20 21.4507 19.4 22.0814 19.4C22.7122 19.4 23.2798 20 23.2798 20.7333C23.2798 21.4667 22.7122 22.0667 22.0814 22.0667Z" fill="white"/>
<defs>
<linearGradient id="paint0_linear_918_6335" x1="20" y1="11.25" x2="20" y2="28.75" gradientUnits="userSpaceOnUse">
<stop stop-color="#687EC9"/>
<stop offset="1" stop-color="#5971C3"/>
</linearGradient>
</defs>
</svg>
