<svg width="20" height="16" viewBox="0 0 20 16" fill="none" xmlns="http://www.w3.org/2000/svg">
<path d="M1.6665 3L7.42736 6.26414C9.55117 7.46751 10.4485 7.46751 12.5723 6.26414L18.3332 3" stroke="#101828" stroke-width="1.5" stroke-linejoin="round"/>
<path d="M1.67964 9.23001C1.73412 11.7846 1.76136 13.0619 2.70397 14.0081C3.64657 14.9543 4.95845 14.9873 7.58219 15.0532C9.19926 15.0938 10.8004 15.0938 12.4175 15.0532C15.0412 14.9873 16.3531 14.9543 17.2957 14.0081C18.2383 13.0619 18.2656 11.7846 18.32 9.23001C18.3376 8.40861 18.3376 7.59206 18.32 6.77065C18.2656 4.21604 18.2383 2.93874 17.2957 1.99254C16.3531 1.04635 15.0412 1.01339 12.4175 0.947466C10.8004 0.906836 9.19926 0.906834 7.58219 0.947461C4.95844 1.01338 3.64657 1.04634 2.70396 1.99253C1.76136 2.93872 1.73412 4.21603 1.67964 6.77064C1.66212 7.59205 1.66212 8.4086 1.67964 9.23001Z" stroke="#101828" stroke-width="1.5" stroke-linejoin="round"/>
</svg>
