<svg width="115" height="123" viewBox="0 0 115 123" fill="none" xmlns="http://www.w3.org/2000/svg">
<path d="M54.6655 121.049C82.6655 121.049 105.365 98.3492 105.365 70.2492C105.365 42.1492 82.6655 19.4492 54.6655 19.4492C26.6655 19.4492 3.96545 42.1492 3.96545 70.2492C3.96545 98.3492 26.6655 121.049 54.6655 121.049Z" fill="#F1F3F9" stroke="#D6DCE8" stroke-width="2" stroke-miterlimit="10"/>
<path d="M17.3654 37.3491H89.4654C92.3654 37.3491 94.5654 39.5491 94.5654 42.4491V88.1491C94.5654 91.0491 92.3654 93.2491 89.4654 93.2491H17.3654C14.4654 93.2491 12.2654 91.0491 12.2654 88.1491V42.4491C12.2654 39.5491 14.6654 37.3491 17.3654 37.3491Z" fill="#F1F3F9" stroke="#D6DCE8" stroke-width="2" stroke-miterlimit="10"/>
<path d="M95.9654 66.649V89.149C95.9654 92.049 93.6654 94.449 90.6654 94.449H16.5654C13.6654 94.449 11.2654 92.049 11.2654 89.149V64.749" stroke="#1676EE" stroke-width="3" stroke-linecap="round" stroke-linejoin="round"/>
<path d="M89.6655 54.0491H66.2655C63.9655 54.0491 61.7655 54.8491 60.0655 56.2491L53.9655 61.2491C52.2655 62.6491 50.0655 63.4491 47.7655 63.4491H21.3655C18.6655 63.4491 16.4655 65.6491 16.4655 68.3491C16.4655 68.5491 16.4655 68.8491 16.5655 69.0491L21.4655 94.8491C21.8655 97.2491 23.8655 99.0491 26.3655 99.0491H82.8655C85.2655 99.0491 87.3655 97.3491 87.7655 94.9491L94.5655 59.6491C95.0655 56.9491 93.2654 54.5491 90.5655 54.0491C90.1655 54.0491 89.8654 54.0491 89.6655 54.0491Z" fill="white"/>
<path d="M100.165 47.1491H69.7655C66.7655 47.1491 63.9655 48.1491 61.6655 50.0491L53.6655 56.5491C51.4655 58.3491 48.5655 59.4491 45.5655 59.4491H11.1655C7.66548 59.4491 4.86548 62.3491 4.86548 65.7491C4.86548 66.0491 4.86548 66.3491 4.96548 66.6491L11.2655 100.349C11.7655 103.549 14.4655 105.849 17.5655 105.849H91.1655C94.3655 105.849 96.9655 103.649 97.4655 100.449L106.365 54.3491C106.965 50.8491 104.665 47.7491 101.165 47.0491C100.865 47.1491 100.465 47.1491 100.165 47.1491Z" fill="white" stroke="#D6DCE8" stroke-width="2" stroke-miterlimit="10"/>
<path d="M41.3654 82.0492C43.1654 82.0492 44.6654 80.5492 44.6654 78.7492C44.6654 76.9492 43.1654 75.4492 41.3654 75.4492C39.5654 75.4492 38.0654 76.9492 38.0654 78.7492C38.0654 80.5492 39.5654 82.0492 41.3654 82.0492Z" fill="#AAB2C5"/>
<path d="M67.0654 81.9491C68.8654 81.9491 70.3654 80.4491 70.3654 78.6491C70.3654 76.8491 68.8654 75.3491 67.0654 75.3491C65.2654 75.3491 63.7654 76.8491 63.7654 78.6491C63.7654 80.5491 65.2654 81.9491 67.0654 81.9491Z" fill="#AAB2C5"/>
<path d="M105.065 103.549C104.665 105.249 104.065 107.049 103.365 108.549C101.465 112.249 98.4655 115.149 94.7655 117.049C90.9655 118.949 86.4655 119.749 81.9655 118.749C71.3655 116.549 64.5655 106.149 66.7655 95.5491C68.9655 84.9491 79.2655 78.0491 89.8655 80.3491C93.6655 81.1491 96.9655 83.0491 99.7655 85.6491C104.465 90.3491 106.465 97.1491 105.065 103.549Z" fill="#D6DCE8" stroke="#AAB2C5" stroke-width="2" stroke-miterlimit="10"/>
<path d="M92.1654 97.8489H87.6654V93.3489C87.6654 92.4489 86.9654 91.6489 85.9654 91.6489C85.0654 91.6489 84.2654 92.3489 84.2654 93.3489V97.8489H79.7654C78.8654 97.8489 78.0654 98.5489 78.0654 99.5489C78.0654 100.549 78.7654 101.249 79.7654 101.249H84.2654V105.749C84.2654 106.649 84.9654 107.449 85.9654 107.449C86.8654 107.449 87.6654 106.749 87.6654 105.749V101.249H92.1654C93.0654 101.249 93.8654 100.549 93.8654 99.5489C93.8654 98.5489 93.0654 97.8489 92.1654 97.8489Z" fill="white" stroke="#AAB2C5" stroke-width="2" stroke-miterlimit="10"/>
<path d="M50.1655 58.3491C46.5655 51.3491 45.7655 42.9491 48.1655 35.3491C50.4655 27.7491 55.9654 21.2491 62.7654 17.5491C64.8654 16.4491 67.2654 15.5491 69.6654 15.4491C72.0654 15.3491 74.6655 16.1491 76.2655 18.1491C77.8655 19.9491 78.1655 22.9491 76.8655 24.9491C75.4655 26.8491 72.6655 27.6491 70.3655 27.0491C66.6655 26.3491 63.6654 23.4491 62.7654 19.9491C61.8654 16.4491 63.0655 12.3491 65.8655 10.0491C67.6655 8.44909 70.1655 7.54909 72.4655 6.84909C83.6655 3.54909 95.8655 3.14909 107.265 5.64909" stroke="#D6DCE8" stroke-width="2" stroke-miterlimit="10" stroke-dasharray="4 4"/>
<path d="M57.3655 85.5491H51.1655V87.0491H57.3655V85.5491Z" fill="#AAB2C5"/>
<path d="M113.265 3.04905C113.165 4.54905 113.065 5.94905 111.965 6.24905C110.865 6.54905 110.365 5.54905 109.665 4.14905C108.965 2.84905 109.365 1.44905 110.565 1.14905C111.665 0.849051 113.465 1.24905 113.265 3.04905Z" fill="#F1F3F9" stroke="#D6DCE8" stroke-width="2" stroke-miterlimit="10"/>
<path d="M112.065 10.2491C112.365 8.44907 112.665 7.44907 111.665 6.94907C110.565 6.44907 109.865 7.34907 108.665 8.54907C107.665 9.64907 108.265 11.2491 109.265 11.7491C110.465 12.3491 111.765 11.7491 112.065 10.2491Z" fill="#F1F3F9" stroke="#D6DCE8" stroke-width="2" stroke-miterlimit="10"/>
<path d="M113.465 6.94915C113.365 7.64915 112.865 8.14915 112.165 8.24915C111.865 8.24915 111.565 8.24915 111.165 8.24915C109.765 8.04915 108.665 7.14915 108.765 6.24915C108.865 5.34915 110.165 4.84915 111.765 5.04915C112.065 5.04915 112.365 5.14915 112.565 5.24915C113.165 5.44915 113.565 6.14915 113.465 6.94915C113.465 6.94915 113.465 6.84915 113.465 6.94915Z" fill="#F1F3F9"/>
<path d="M113.465 6.94915C113.365 7.64915 112.865 8.14915 112.165 8.24915C111.865 8.24915 111.565 8.24915 111.165 8.24915C109.765 8.04915 108.665 7.14915 108.765 6.24915C108.865 5.34915 110.165 4.84915 111.765 5.04915C112.065 5.04915 112.365 5.14915 112.565 5.24915C113.165 5.44915 113.565 6.14915 113.465 6.94915ZM113.465 6.94915C113.465 6.84915 113.465 6.94915 113.465 6.94915Z" stroke="#D6DCE8" stroke-width="2" stroke-miterlimit="10"/>
<path d="M1.86548 35.0491C1.86548 33.3491 1.86548 31.6491 3.06548 31.1491C4.36548 30.6491 5.06548 31.8491 6.06548 33.5491C6.96548 35.0491 6.56548 36.6491 5.26548 37.1491C4.16548 37.6491 1.86548 37.3491 1.86548 35.0491Z" fill="#F1F3F9" stroke="#D6DCE8" stroke-width="2" stroke-miterlimit="10"/>
<path d="M2.56545 26.6492C2.36545 28.7492 2.06545 29.9492 3.36545 30.4492C4.66545 30.9492 5.36545 29.8492 6.66545 28.2492C7.66545 26.8492 6.96545 25.0492 5.66545 24.5492C4.36545 24.0492 2.76545 24.9492 2.56545 26.6492Z" fill="#F1F3F9" stroke="#D6DCE8" stroke-width="2" stroke-miterlimit="10"/>
<path d="M1.46545 30.6492C1.46545 29.8492 2.06545 29.2492 2.76545 29.1492C3.06545 29.0492 3.46545 29.0492 3.86545 29.1492C5.46545 29.2492 6.86545 30.1492 6.76545 31.1492C6.66545 32.1492 5.36545 32.8492 3.66545 32.6492C3.36545 32.6492 3.06545 32.5492 2.76545 32.4492C1.96545 32.3492 1.46545 31.5492 1.46545 30.6492Z" fill="#F1F3F9" stroke="#D6DCE8" stroke-width="2" stroke-miterlimit="10"/>
<path d="M8.26544 30.9492C18.7654 30.9492 38.1654 37.0492 38.4654 59.4492" stroke="#D6DCE8" stroke-width="2" stroke-miterlimit="10" stroke-dasharray="4 4"/>
</svg>
