<svg width="125" height="109" viewBox="0 0 125 109" fill="none" xmlns="http://www.w3.org/2000/svg">
<path d="M63.0633 104.84C89.7633 104.84 111.463 83.1396 111.463 56.4396C111.463 29.7396 89.7633 8.03955 63.0633 8.03955C36.3633 8.13955 14.6633 29.7396 14.6633 56.5396C14.6633 83.2395 36.3633 104.84 63.0633 104.84Z" fill="#F1F3F9" stroke="#D6DCE8" stroke-width="2" stroke-miterlimit="10"/>
<path d="M94.8634 48.6395V84.5395C94.8634 86.7395 93.0634 88.5395 90.8634 88.5395H33.9634C31.7634 88.5395 29.9634 86.7395 29.9634 84.5395V48.6395C29.9634 46.4395 31.8634 44.6395 33.9634 44.6395H90.8634C92.5634 44.6395 93.9634 45.6395 94.6634 47.1395C94.7634 47.5395 94.8634 48.0395 94.8634 48.6395Z" fill="#F1F3F9" stroke="#D6DCE8" stroke-width="2" stroke-miterlimit="10"/>
<path d="M122.963 44.4396C124.563 42.9396 124.663 40.4396 123.263 38.8396C121.763 37.2396 119.263 37.1396 117.663 38.5396C116.063 40.0396 115.963 42.5396 117.363 44.1396C118.863 45.8396 121.363 45.9396 122.963 44.4396Z" fill="#F1F3F9"/>
<path d="M123.263 26.9395C123.963 26.3395 123.963 25.2395 123.363 24.6395C122.763 23.9395 121.663 23.9395 121.063 24.5395C120.463 25.1395 120.363 26.2395 120.963 26.8395C121.563 27.5395 122.563 27.5395 123.263 26.9395Z" fill="#F1F3F9"/>
<path d="M81.4634 2.73952C81.9634 2.33952 81.9634 1.53952 81.5634 1.13952C81.1634 0.63952 80.4634 0.63952 79.9634 1.03952C79.4634 1.43952 79.4634 2.13952 79.8634 2.63952C80.2634 3.13952 80.9634 3.13952 81.4634 2.73952Z" fill="#F1F3F9"/>
<path d="M115.463 25.6396L101.263 50.8396C100.763 51.6396 99.6633 51.9396 98.8633 51.4396L74.6633 37.3396C73.8633 36.8396 73.5633 35.7396 74.0633 34.9396L92.7633 2.83956C93.2633 2.03956 94.3633 1.73956 95.1633 2.23956L112.763 12.5396L115.463 25.6396Z" fill="white" stroke="#D6DCE8" stroke-width="2" stroke-miterlimit="10"/>
<path d="M112.563 12.4395L108.563 19.2395C108.063 20.2395 108.363 21.4395 109.263 22.0395L115.363 25.5395" fill="#D6DCE8"/>
<path d="M95.9634 19.0395C96.3634 18.9395 96.7633 18.9395 97.0633 18.9395C97.4633 18.9395 97.8634 18.9395 98.2634 18.9395C98.6634 19.0395 99.1634 19.1395 99.5633 19.2395C100.063 19.4395 100.463 19.6395 100.863 19.8395C101.463 20.1395 101.963 20.5395 102.463 21.0395C102.863 21.4395 103.163 21.9395 103.363 22.6395C103.563 23.1395 103.563 23.7395 103.563 24.3395C103.463 24.9395 103.263 25.5395 102.963 26.1395C102.663 26.6395 102.363 27.0395 101.963 27.4395C101.563 27.7395 101.263 27.9395 100.763 28.1395C100.363 28.3395 99.9633 28.4395 99.5633 28.4395L98.4634 28.5395C98.1634 28.5395 97.8634 28.6395 97.4634 28.7395C97.1634 28.8395 96.9634 28.9395 96.7634 29.1395L95.6633 30.6395L93.7634 29.6395L94.5633 27.7395C94.6633 27.4395 94.9633 27.1395 95.1633 26.9395C95.4633 26.7395 95.7633 26.6395 96.0633 26.5395C96.4633 26.4395 96.7633 26.4395 97.1633 26.3395C97.5633 26.3395 97.9634 26.2395 98.3634 26.1395C98.7634 26.0395 99.0634 25.9395 99.4634 25.7395C99.8634 25.5395 100.063 25.2395 100.263 24.8395C100.363 24.6395 100.463 24.3395 100.563 24.0395C100.563 23.7395 100.563 23.5395 100.463 23.3395C100.363 23.0395 100.263 22.8395 100.063 22.6395C99.8633 22.4395 99.6634 22.2395 99.3634 22.0395C99.0634 21.8395 98.6634 21.6395 98.2634 21.5395C97.9634 21.4395 97.6634 21.4395 97.3634 21.4395C97.0634 21.4395 96.8633 21.4395 96.6633 21.4395C96.5633 21.4395 96.3634 21.4395 96.2634 21.3395C96.0634 21.2395 95.8634 20.9395 95.8634 20.7395L95.9634 19.0395ZM90.4634 33.1395C90.5634 32.9395 90.7634 32.7395 90.9634 32.5395C91.1634 32.4395 91.3633 32.2395 91.5633 32.2395C92.0633 32.1395 92.5633 32.1395 93.0633 32.4395C93.2634 32.5395 93.4633 32.7395 93.6633 32.9395C93.7633 33.1395 93.8634 33.3395 93.9634 33.5395C94.2634 34.5395 93.6633 35.6395 92.6633 35.9395C92.1633 36.0395 91.6633 35.9395 91.1633 35.7395C90.9633 35.6395 90.7633 35.4395 90.5633 35.2395C90.4633 35.0395 90.2634 34.8395 90.2634 34.6395C90.1634 34.4395 90.1634 34.1395 90.2634 33.9395C90.2634 33.5395 90.3634 33.3395 90.4634 33.1395Z" fill="#D6DCE8"/>
<path d="M24.4634 14.7395L40.7634 31.6395C41.2634 32.2395 41.2634 33.1395 40.6634 33.7395L24.0634 49.3395C23.4634 49.8395 22.5634 49.8395 21.9634 49.2395L1.36335 27.3395C0.863353 26.7395 0.863353 25.8395 1.46335 25.2395L13.4634 13.9395L24.4634 14.7395Z" fill="white" stroke="#D6DCE8" stroke-width="2" stroke-miterlimit="10"/>
<path d="M13.4634 13.8395L17.9634 18.5395C18.5634 19.1395 19.6634 19.1395 20.3634 18.5395L24.4634 14.6395" fill="#D6DCE8"/>
<path d="M14.6633 28.3396C14.6633 28.0396 14.7633 27.7396 14.8633 27.4396C14.9633 27.1396 15.0633 26.8396 15.1633 26.5396C15.2633 26.2396 15.4633 25.9396 15.6633 25.6396C15.8633 25.3396 16.1633 25.0396 16.4633 24.7396C16.8633 24.3396 17.2633 24.0396 17.7633 23.8396C18.1633 23.6396 18.6633 23.5396 19.0633 23.5396C19.4633 23.5396 19.9633 23.6396 20.3633 23.7396C20.7633 23.9396 21.1633 24.2396 21.5633 24.5396C21.8633 24.8396 22.1633 25.2396 22.2633 25.6396C22.3633 25.9396 22.4633 26.3396 22.5633 26.7396C22.5633 27.0396 22.5633 27.4396 22.5633 27.7396C22.4633 28.0396 22.4633 28.3396 22.3633 28.6396C22.3633 28.9396 22.2633 29.1396 22.2633 29.4396C22.2633 29.6396 22.2633 29.8396 22.4633 30.0396L23.2633 31.2396L22.0633 32.3396L20.8633 31.2396C20.6633 31.0396 20.4633 30.8396 20.3633 30.5396C20.2633 30.2396 20.2633 30.0396 20.2633 29.7396C20.2633 29.4396 20.3633 29.1396 20.3633 28.8396C20.4633 28.5396 20.4633 28.2396 20.4633 27.9396C20.4633 27.6396 20.4633 27.3396 20.3633 27.0396C20.2633 26.7396 20.0633 26.4396 19.8633 26.1396C19.7633 25.9396 19.5633 25.8396 19.3633 25.7396C19.1633 25.6396 18.9633 25.6396 18.7633 25.6396C18.5633 25.6396 18.3633 25.7396 18.1633 25.8396C17.9633 25.9396 17.7633 26.0396 17.5633 26.2396C17.3633 26.4396 17.1633 26.7396 16.9633 26.9396C16.8633 27.1396 16.7633 27.3396 16.6633 27.6396C16.5633 27.8396 16.5633 28.0396 16.5633 28.1396C16.5633 28.2396 16.4633 28.3396 16.3633 28.4396C16.2633 28.6396 15.9633 28.6396 15.7633 28.5396L14.6633 28.3396ZM24.4633 35.8396C24.3633 35.7395 24.2633 35.5395 24.1633 35.3396C24.0633 35.1396 24.0633 34.9396 24.0633 34.7396C24.0633 34.3396 24.2633 33.9396 24.5633 33.6396C24.6633 33.5396 24.8633 33.4396 25.0633 33.3396C25.2633 33.2395 25.4633 33.2396 25.6633 33.2396C26.2633 33.2396 26.8633 33.6396 27.1633 34.2396C27.2633 34.4396 27.2633 34.6396 27.2633 34.8396C27.2633 35.0395 27.1633 35.2396 27.1633 35.4396C27.0633 35.6396 26.9633 35.7396 26.7633 35.9396C26.6633 36.0396 26.4633 36.2396 26.2633 36.2396C25.8633 36.3396 25.4633 36.3396 25.1633 36.2396C24.7633 36.1396 24.5633 36.0395 24.4633 35.8396Z" fill="#D6DCE8"/>
<path d="M66.6634 41.3395L60.3634 63.8395C60.1634 64.5395 59.3634 65.0395 58.5634 64.7395L36.6634 58.3395C35.9634 58.1395 35.4634 57.3395 35.7634 56.5395L44.2634 27.6395C44.4634 26.9395 45.2634 26.4395 46.0634 26.7395L61.9634 31.3395L66.6634 41.3395Z" fill="white" stroke="#D6DCE8" stroke-width="2" stroke-miterlimit="10"/>
<path opacity="0.1" d="M94.8634 48.6396V84.5396C94.8634 86.7396 93.0634 88.5396 90.8634 88.5396H33.9634C31.7634 88.5396 29.9634 86.7396 29.9634 84.5396V56.8396H53.2634C55.5634 56.8396 57.8634 56.0396 59.5634 54.5396L65.8634 49.3396C67.6634 47.9396 69.8634 47.0396 72.1634 47.0396H94.5634C94.7634 47.5396 94.8634 48.0396 94.8634 48.6396Z" fill="#AAB3C5"/>
<path d="M61.9634 31.4395L60.0634 37.7395C59.8634 38.5395 60.3634 39.5395 61.1634 39.8395L66.6634 41.5395" fill="#D6DCE8"/>
<path d="M50.0633 39.8395C50.3633 39.7395 50.6633 39.6395 50.9633 39.5395C51.2633 39.4395 51.5633 39.3395 51.9633 39.3395C52.3633 39.3395 52.6633 39.3395 53.0633 39.3395C53.4633 39.3395 53.8633 39.4395 54.2633 39.5395C54.7633 39.6395 55.2633 39.9395 55.7633 40.2395C56.1633 40.5395 56.4633 40.8395 56.7633 41.2395C56.9633 41.6395 57.1633 42.0395 57.2633 42.4395C57.3633 42.9395 57.2633 43.4395 57.1633 43.9395C57.0633 44.3395 56.8633 44.7395 56.5633 45.1395C56.3633 45.4395 56.0633 45.7395 55.7633 45.9395C55.4633 46.1395 55.1633 46.3395 54.8633 46.4395L53.9633 46.9395C53.7633 47.0395 53.4633 47.1395 53.2633 47.2395C53.0633 47.3395 52.8633 47.5395 52.8633 47.7395L52.2633 49.0395L50.5633 48.5395L50.8633 46.8395C50.8633 46.5395 51.0633 46.3395 51.2633 46.1395C51.4633 45.9395 51.6633 45.7395 51.9633 45.6395C52.2633 45.5395 52.5633 45.4395 52.7633 45.3395C53.0633 45.2395 53.3633 45.1395 53.6633 44.9395C53.9633 44.8395 54.1633 44.6395 54.4633 44.4395C54.6633 44.2395 54.8633 43.9395 54.9633 43.5395C55.0633 43.3395 55.0633 43.1395 55.0633 42.9395C55.0633 42.7395 54.9633 42.5395 54.8633 42.3395C54.7633 42.1395 54.5633 42.0395 54.3633 41.8395C54.1633 41.7395 53.9633 41.6395 53.6633 41.5395C53.3633 41.4395 53.0633 41.4395 52.6633 41.4395C52.4633 41.4395 52.1633 41.4395 51.9633 41.5395C51.7633 41.5395 51.5633 41.6395 51.4633 41.6395C51.3633 41.6395 51.2633 41.7395 51.0633 41.6395C50.8633 41.6395 50.6633 41.4395 50.6633 41.2395L50.0633 39.8395ZM48.4633 52.1395C48.5633 51.9395 48.5633 51.7395 48.7633 51.6395C48.8633 51.4395 49.0633 51.3395 49.1633 51.2395C49.5633 51.0395 49.9633 51.0395 50.2633 51.1395C50.4633 51.2395 50.6633 51.3395 50.7633 51.4395C50.8633 51.5395 51.0633 51.7395 51.1633 51.8395C51.5633 52.5395 51.2633 53.5395 50.5633 53.9395C50.1633 54.1395 49.7633 54.1395 49.4633 54.0395C49.2633 53.9395 49.0633 53.9395 48.9633 53.7395C48.7633 53.6395 48.6633 53.4395 48.5633 53.3395C48.4633 53.1395 48.4633 53.0395 48.3633 52.8395C48.3633 52.5395 48.3633 52.3395 48.4633 52.1395Z" fill="#D6DCE8"/>
<path d="M117.963 79.7395L97.3633 90.9395C96.6633 91.3395 95.7633 91.0395 95.4633 90.3395L85.0633 70.2395C84.7633 69.5395 84.9633 68.6395 85.6633 68.3395L112.463 54.1395C113.163 53.7395 114.063 54.0395 114.363 54.7395L121.863 69.3395L117.963 79.7395Z" fill="white" stroke="#D6DCE8" stroke-width="2" stroke-miterlimit="10"/>
<path d="M121.863 69.4395L116.063 72.4395C115.363 72.8395 114.963 73.9395 115.363 74.7395L117.963 79.8395" fill="#D6DCE8"/>
<path d="M107.563 66.7395C107.863 66.8395 108.163 67.0395 108.463 67.1395C108.763 67.2395 109.063 67.4395 109.363 67.7395C109.663 68.0395 109.863 68.2395 110.163 68.5395C110.463 68.8395 110.663 69.2395 110.863 69.5395C111.163 69.9395 111.263 70.5395 111.363 71.0395C111.463 71.5395 111.363 72.0395 111.363 72.5395C111.163 72.9395 111.063 73.4395 110.863 73.7395C110.563 74.1395 110.063 74.4395 109.763 74.6395C109.363 74.8395 108.963 75.0395 108.463 75.0395C108.063 75.1395 107.663 75.1395 107.263 75.0395C106.863 74.9395 106.563 74.8395 106.263 74.7395L105.363 74.3395C105.163 74.2395 104.863 74.1395 104.663 74.0395C104.463 73.9395 104.163 73.9395 103.963 74.1395L102.563 74.6395L101.763 73.1395L103.163 72.2395C103.363 72.0395 103.663 72.0395 103.963 72.0395C104.263 72.0395 104.563 72.0395 104.863 72.2395C105.163 72.3395 105.463 72.5395 105.663 72.6395C105.963 72.7395 106.263 72.9395 106.563 73.0395C106.863 73.1395 107.163 73.2395 107.463 73.2395C107.763 73.2395 108.163 73.1395 108.463 72.9395C108.863 72.7395 109.163 72.3395 109.263 71.9395C109.363 71.7395 109.263 71.5395 109.263 71.2395C109.163 71.0395 109.163 70.8395 108.963 70.5395C108.863 70.2395 108.563 70.0395 108.363 69.6395C108.263 69.5395 107.963 69.2395 107.763 69.2395C107.663 69.1395 107.363 69.0395 107.363 68.9395C107.263 68.8395 107.163 68.8395 107.063 68.6395C106.963 68.5395 106.963 68.2395 107.063 68.0395L107.563 66.7395ZM97.6634 74.1395C97.8634 74.0395 98.0634 73.9395 98.2634 74.0395C98.4634 73.9395 98.6634 74.0395 98.8634 74.0395C99.2634 74.2395 99.5634 74.4395 99.7634 74.7395C99.8634 74.9395 99.8634 75.1395 99.8634 75.3395C99.8634 75.4395 99.8634 75.7395 99.8634 75.9395C99.7634 76.3395 99.3634 76.6395 99.0634 76.8395C98.8634 76.9395 98.6634 76.9395 98.4634 76.9395C98.3634 76.9395 98.0634 76.9395 97.8634 76.9395C97.4634 76.7395 97.1634 76.5395 96.9634 76.2395C96.9634 75.9395 96.9634 75.7395 96.9634 75.5395C96.8634 75.3395 96.9634 75.1395 96.9634 74.9395C97.0634 74.7395 97.1634 74.5395 97.1634 74.4395C97.3634 74.3395 97.5634 74.2395 97.6634 74.1395Z" fill="#D6DCE8"/>
<path d="M95.9633 67.6395V85.3395C95.9633 87.6395 94.0633 89.4395 91.8633 89.4395H33.3633C31.0633 89.4395 29.2633 87.5395 29.2633 85.3395V66.2395" stroke="#1676EE" stroke-width="3" stroke-linecap="round" stroke-linejoin="round"/>
<path d="M93.6633 56.3395H73.6633C71.7633 56.3395 69.8633 57.0395 68.3633 58.2395L63.0633 62.5395C61.5633 63.7395 59.6633 64.4395 57.7633 64.4395H34.9633C32.6633 64.4395 30.7633 66.2395 30.7633 68.5395C30.7633 68.7395 30.7633 68.9395 30.8633 69.1395L34.9633 91.0395C35.2633 93.1395 37.0633 94.6395 39.1633 94.6395H87.7633C89.8633 94.6395 91.5633 93.1395 91.9633 91.1395L97.7633 61.1395C98.0633 58.9395 96.6633 56.7395 94.2633 56.4395C94.0633 56.3395 93.8633 56.3395 93.6633 56.3395Z" fill="white"/>
<path d="M99.2634 52.3395H75.2634C72.9634 52.3395 70.6634 53.1395 68.9634 54.6395L62.6634 59.7395C60.8634 61.2395 58.6634 62.0395 56.3634 62.0395H29.0634C26.3634 62.0395 24.0634 64.2395 24.0634 67.0395C24.0634 67.2395 24.0634 67.5395 24.1634 67.7395L29.1634 94.2395C29.5634 96.7395 31.6634 98.6395 34.1634 98.6395H92.1634C94.6634 98.6395 96.7634 96.8395 97.1634 94.4395L104.063 58.1395C104.463 55.4395 102.763 52.8395 99.9634 52.4395C99.7634 52.3395 99.4634 52.3395 99.2634 52.3395Z" fill="white" stroke="#D6DCE8" stroke-width="2" stroke-miterlimit="10"/>
<path d="M73.1634 79.7395C74.5634 79.7395 75.7634 78.5395 75.7634 77.1395C75.7634 75.7395 74.5634 74.5396 73.1634 74.5396C71.7634 74.5396 70.5634 75.7395 70.5634 77.1395C70.5634 78.6395 71.6634 79.7395 73.1634 79.7395Z" fill="#AAB2C5"/>
<path d="M68.5634 84.1396H67.2634C66.1634 81.7396 63.2634 80.8396 60.9634 82.0396C60.0634 82.4396 59.2634 83.2396 58.8634 84.1396H57.5634C58.6634 81.0396 62.2634 79.4396 65.2634 80.6396C66.6634 81.2396 67.9634 82.4396 68.5634 84.1396Z" fill="#AAB2C5"/>
<path d="M105.963 107.239C104.763 107.239 105.163 107.339 96.1633 98.3395C87.3633 104.839 75.3633 98.5395 75.3633 87.9395C75.3633 80.7395 81.1633 74.9395 88.3633 74.9395C98.7633 74.9395 105.063 86.5395 99.0633 95.3395L107.463 103.739C108.663 105.039 107.763 107.239 105.963 107.239ZM88.3633 79.0395C83.4633 79.0395 79.4633 83.0395 79.4633 87.9395C79.4633 92.8395 83.4633 96.8395 88.3633 96.8395C88.8633 96.8395 89.4633 96.8395 89.9633 96.7395C90.4633 96.6395 90.9633 96.5395 91.4633 96.3395C91.9633 96.1395 92.4633 95.9395 92.8633 95.6395C93.3633 95.3395 93.8633 94.9395 94.2633 94.5395C94.6633 94.2395 94.9633 93.8395 95.2633 93.4395C95.5633 93.0395 95.8633 92.5395 96.1633 92.1395C96.3633 91.6395 96.6633 91.1395 96.7633 90.6395C96.9633 90.1395 97.0633 89.6395 97.0633 89.1395C97.1633 88.7395 97.1633 88.3395 97.1633 87.9395C97.2633 83.0395 93.2633 79.0395 88.3633 79.0395Z" fill="#D6DCE8" stroke="#AAB2C5" stroke-width="2" stroke-miterlimit="10"/>
<path d="M53.1634 79.7395C54.5634 79.7395 55.7634 78.5395 55.7634 77.1395C55.7634 75.7395 54.5634 74.5396 53.1634 74.5396C51.7634 74.5396 50.5634 75.7395 50.5634 77.1395C50.6634 78.6395 51.7634 79.7395 53.1634 79.7395Z" fill="#AAB2C5"/>
</svg>
