<svg width="125" height="105" viewBox="0 0 125 105" fill="none" xmlns="http://www.w3.org/2000/svg">
<path d="M58.9943 103.441C86.9943 103.441 109.694 80.7408 109.694 52.6408C109.694 24.5408 86.9943 1.84082 58.9943 1.84082C30.9943 1.84082 8.29431 24.5408 8.29431 52.6408C8.29431 80.7408 30.9943 103.441 58.9943 103.441Z" fill="#F1F3F9" stroke="#D6DCE8" stroke-width="2" stroke-miterlimit="10"/>
<path d="M115.494 31.7405C117.759 31.7405 119.594 29.9049 119.594 27.6405C119.594 25.3762 117.759 23.5405 115.494 23.5405C113.23 23.5405 111.394 25.3762 111.394 27.6405C111.394 29.9049 113.23 31.7405 115.494 31.7405Z" fill="#F1F3F9"/>
<path d="M121.495 15.6405C123.041 15.6405 124.295 14.3869 124.295 12.8405C124.295 11.2941 123.041 10.0405 121.495 10.0405C119.948 10.0405 118.695 11.2941 118.695 12.8405C118.695 14.3869 119.948 15.6405 121.495 15.6405Z" fill="#F1F3F9"/>
<path d="M4.79451 34.6405C6.3409 34.6405 7.59451 33.3869 7.59451 31.8405C7.59451 30.2941 6.3409 29.0405 4.79451 29.0405C3.24811 29.0405 1.99451 30.2941 1.99451 31.8405C1.99451 33.3869 3.24811 34.6405 4.79451 34.6405Z" fill="#EAEEF9"/>
<path d="M9.99431 95.5406C12.8662 95.5406 15.1943 93.2125 15.1943 90.3406C15.1943 87.4687 12.8662 85.1406 9.99431 85.1406C7.12243 85.1406 4.79431 87.4687 4.79431 90.3406C4.79431 93.2125 7.12243 95.5406 9.99431 95.5406Z" fill="#F1F3F9"/>
<path d="M105.994 32.3405H19.2944C17.3944 32.3405 15.8944 30.8405 15.8944 28.9405V9.44053C15.8944 7.54053 17.3944 6.04053 19.2944 6.04053H105.894C107.794 6.04053 109.294 7.54053 109.294 9.44053V28.9405C109.394 30.8405 107.794 32.3405 105.994 32.3405Z" fill="white" stroke="#D6DCE8" stroke-width="2" stroke-miterlimit="10"/>
<path d="M36.8944 19.1405C36.8944 21.3405 35.8944 23.3405 34.3944 24.7405C33.0944 25.9405 31.2944 26.6405 29.3944 26.6405C27.4944 26.6405 25.6944 25.9405 24.3944 24.7405C22.7944 23.3405 21.8944 21.3405 21.8944 19.1405C21.8944 15.0405 25.2944 11.6405 29.3944 11.6405C33.4944 11.6405 36.8944 15.0405 36.8944 19.1405Z" fill="#D6DCE8"/>
<path d="M34.3944 24.7405C33.0944 25.9405 31.2944 26.6405 29.3944 26.6405C27.4944 26.6405 25.6944 25.9405 24.3944 24.7405C24.9944 24.5405 25.6944 24.2405 26.5944 23.8405C26.7944 23.7405 26.9944 23.5405 27.0944 23.3405C27.1944 23.2405 27.1944 23.0405 27.1944 22.9405V21.0405L27.0944 20.9405C26.8944 20.7405 26.7944 20.4405 26.7944 20.1405L26.5944 20.0405C26.0944 20.1405 26.1944 19.6405 25.9944 18.6405C25.9944 18.2405 25.9944 18.1405 26.1944 18.0405L26.3944 17.8405C25.4944 15.7405 25.8944 14.4405 26.8944 13.9405C26.5944 13.2405 26.5944 13.0405 26.5944 13.0405C26.5944 13.0405 28.5944 13.3405 29.1944 13.2405C30.0944 13.0405 31.3944 13.2405 31.8944 14.4405C32.6944 14.7405 32.9944 15.2405 33.0944 15.8405C33.1944 16.7405 32.6944 17.7405 32.5944 18.0405C32.6944 18.1405 32.7944 18.2405 32.6944 18.5405C32.5944 19.4405 32.5944 20.0405 32.0944 19.9405L31.6944 20.8405C31.6944 20.9405 31.6944 20.9405 31.6944 21.0405C31.6944 21.1405 31.6944 21.4405 31.6944 23.0405C31.6944 23.2405 31.7944 23.4405 31.7944 23.5405C31.8944 23.7405 32.0944 23.8405 32.1944 23.9405C33.0944 24.2405 33.7944 24.5405 34.3944 24.7405Z" fill="white"/>
<path d="M32.6207 18.1405C32.6207 17.9324 32.5166 17.6201 32.4126 17.412V17.3079C31.9962 16.4752 31.1636 16.163 30.3309 16.163C28.2493 16.0589 28.0411 16.4752 27.3126 15.8507C27.5207 16.163 27.5207 16.6834 27.2085 17.3079C27.0003 17.7242 26.584 17.9324 26.1677 18.0365C25.2309 15.8507 25.6472 14.4977 26.6881 13.9773C26.3758 13.2487 26.3758 13.0405 26.3758 13.0405C26.3758 13.0405 28.4575 13.3528 29.0819 13.2487C30.0187 13.0405 31.3717 13.2487 31.8922 14.4977C32.7248 14.8099 33.0371 15.3303 33.1411 15.9548C33.2452 16.6834 32.7248 17.7242 32.6207 18.1405Z" fill="#AAB2C5"/>
<path d="M31.7944 23.5406V23.9406H27.0944V23.4406C27.1944 23.3406 27.1944 23.1406 27.1944 23.0406V21.1406L27.0944 21.0406V20.9406C27.1944 21.1406 27.2944 21.2406 27.4944 21.4406L28.9944 22.4406C29.2944 22.7406 29.7944 22.7406 30.1944 22.4406L31.5944 21.2406L31.6944 21.1406C31.6944 21.2406 31.6944 21.5406 31.6944 23.1406C31.5944 23.2406 31.6944 23.3406 31.7944 23.5406Z" fill="url(#paint0_linear_30_3749)"/>
<path d="M61.4944 16.9405H42.2944C41.7944 16.9405 41.4944 16.5405 41.4944 16.1405V13.6405C41.4944 13.1405 41.8944 12.8405 42.2944 12.8405H61.4944C61.9944 12.8405 62.2944 13.2405 62.2944 13.6405V16.1405C62.2944 16.6405 61.9944 16.9405 61.4944 16.9405Z" fill="#D6DCE8"/>
<path d="M84.2944 25.4405H42.2944C41.7944 25.4405 41.4944 25.0405 41.4944 24.6405V22.1405C41.4944 21.6405 41.8944 21.3405 42.2944 21.3405H84.2944C84.7944 21.3405 85.0944 21.7405 85.0944 22.1405V24.6405C85.0944 25.1405 84.6944 25.4405 84.2944 25.4405Z" fill="#D6DCE8"/>
<path d="M105.994 97.9406H19.2944C17.3944 97.9406 15.8944 96.4406 15.8944 94.5406V75.0406C15.8944 73.1406 17.3944 71.6406 19.2944 71.6406H105.894C107.794 71.6406 109.294 73.1406 109.294 75.0406V94.5406C109.394 96.4406 107.794 97.9406 105.994 97.9406Z" fill="white" stroke="#D6DCE8" stroke-width="2" stroke-miterlimit="10"/>
<path d="M36.8944 84.7406C36.8944 86.9406 35.8944 88.9406 34.3944 90.3406C33.0944 91.5406 31.2944 92.2406 29.3944 92.2406C27.4944 92.2406 25.6944 91.5406 24.3944 90.3406C22.7944 88.9406 21.8944 86.9406 21.8944 84.7406C21.8944 80.6406 25.2944 77.2406 29.3944 77.2406C33.4944 77.2406 36.8944 80.6406 36.8944 84.7406Z" fill="#D6DCE8"/>
<path d="M34.3944 90.3406C33.0944 91.5406 31.2944 92.2406 29.3944 92.2406C27.4944 92.2406 25.6944 91.5406 24.3944 90.3406C24.9944 90.1406 25.6944 89.8406 26.5944 89.4406C26.7944 89.3406 26.9944 89.1406 27.0944 88.9406C27.1944 88.8406 27.1944 88.6406 27.1944 88.5406V86.6406L27.0944 86.5406C26.8944 86.3406 26.7944 86.0406 26.7944 85.7406L26.5944 85.6406C26.0944 85.7406 26.1944 85.2406 25.9944 84.2406C25.9944 83.8406 25.9944 83.7406 26.1944 83.6406L26.3944 83.4406C25.4944 81.3406 25.8944 80.0406 26.8944 79.5406C26.5944 78.8406 26.5944 78.6406 26.5944 78.6406C26.5944 78.6406 28.5944 78.9406 29.1944 78.8406C30.0944 78.6406 31.3944 78.8406 31.8944 80.0406C32.6944 80.3406 32.9944 80.8406 33.0944 81.4406C33.1944 82.3406 32.6944 83.3406 32.5944 83.6406C32.6944 83.7406 32.7944 83.8406 32.6944 84.1406C32.5944 85.0406 32.5944 85.6406 32.0944 85.5406L31.6944 86.3406C31.6944 86.4406 31.6944 86.4406 31.6944 86.5406C31.6944 86.6406 31.6944 86.9406 31.6944 88.5406C31.6944 88.7406 31.7944 88.9406 31.7944 89.0406C31.8944 89.2406 32.0944 89.3406 32.1944 89.4406C33.0944 89.9406 33.7944 90.1406 34.3944 90.3406Z" fill="white"/>
<path d="M32.6207 83.7406C32.6207 83.5325 32.5166 83.2202 32.4126 83.0121V82.908C31.9962 82.0753 31.1636 81.7631 30.3309 81.7631C28.2493 81.659 28.0411 82.0753 27.3126 81.4508C27.5207 81.7631 27.5207 82.2835 27.2085 82.908C27.0003 83.3243 26.584 83.5325 26.1677 83.6366C25.2309 81.4508 25.6472 80.0978 26.6881 79.5774C26.3758 78.8488 26.3758 78.6406 26.3758 78.6406C26.3758 78.6406 28.4575 78.9529 29.0819 78.8488C30.0187 78.6406 31.3717 78.8488 31.8922 80.0978C32.7248 80.41 33.0371 80.9304 33.1411 81.5549C33.2452 82.3876 32.7248 83.3243 32.6207 83.7406Z" fill="#AAB2C5"/>
<path d="M31.7944 89.1407V89.5406H27.0944V89.0406C27.1944 88.9406 27.1944 88.7407 27.1944 88.6407V86.7407L27.0944 86.6407V86.5406C27.1944 86.7406 27.2944 86.8406 27.4944 87.0406L28.9944 88.0406C29.2944 88.3406 29.7944 88.3406 30.1944 88.0406L31.5944 86.8407L31.6944 86.7407C31.6944 86.8407 31.6944 87.1407 31.6944 88.7407C31.5944 88.8407 31.6944 89.0407 31.7944 89.1407Z" fill="url(#paint1_linear_30_3749)"/>
<path d="M61.4944 82.6407H42.2944C41.7944 82.6407 41.4944 82.2407 41.4944 81.8407V79.3407C41.4944 78.8407 41.8944 78.5406 42.2944 78.5406H61.4944C61.9944 78.5406 62.2944 78.9407 62.2944 79.3407V81.8407C62.2944 82.2407 61.9944 82.6407 61.4944 82.6407Z" fill="#D6DCE8"/>
<path d="M84.2944 91.1407H42.2944C41.7944 91.1407 41.4944 90.7407 41.4944 90.3407V87.8407C41.4944 87.3407 41.8944 87.0406 42.2944 87.0406H84.2944C84.7944 87.0406 85.0944 87.4407 85.0944 87.8407V90.3407C85.0944 90.7407 84.6944 91.1407 84.2944 91.1407Z" fill="#D6DCE8"/>
<path d="M91.2943 65.1408H4.69431C2.79431 65.1408 1.29431 63.6408 1.29431 61.7408V42.2408C1.29431 40.3408 2.79431 38.8408 4.69431 38.8408H91.2943C93.1943 38.8408 94.6943 40.3408 94.6943 42.2408V61.7408C94.7943 63.6408 93.1943 65.1408 91.2943 65.1408Z" fill="white" stroke="#D6DCE8" stroke-width="2" stroke-miterlimit="10"/>
<path d="M46.8943 49.7408H27.6943C27.1943 49.7408 26.8943 49.3408 26.8943 48.9408V46.4408C26.8943 45.9408 27.2943 45.6408 27.6943 45.6408H46.8943C47.3943 45.6408 47.6943 46.0408 47.6943 46.4408V48.9408C47.6943 49.4408 47.3943 49.7408 46.8943 49.7408Z" fill="#D6DCE8"/>
<path d="M69.6943 58.3408H27.6943C27.1943 58.3408 26.8943 57.9408 26.8943 57.5408V55.0408C26.8943 54.5408 27.2943 54.2408 27.6943 54.2408H69.5943C70.0943 54.2408 70.3943 54.6408 70.3943 55.0408V57.5408C70.4943 57.9408 70.0943 58.3408 69.6943 58.3408Z" fill="#D6DCE8"/>
<path d="M22.3943 51.9408C22.3943 54.0408 21.4943 55.9408 20.0943 57.3408C19.9943 57.4408 19.9943 57.4408 19.8943 57.5408C18.5943 58.7408 16.7943 59.4408 14.8943 59.4408C12.9943 59.4408 11.2943 58.7408 9.99431 57.6408C9.99431 57.6408 9.99431 57.6408 9.89431 57.6408C8.29431 56.2408 7.29431 54.2408 7.29431 51.9408C7.29431 47.8408 10.6943 44.4408 14.7943 44.4408C18.9943 44.4408 22.3943 47.8408 22.3943 51.9408Z" fill="#D6DCE8"/>
<path d="M20.065 57.493C19.7607 56.7832 19.2537 56.1747 18.4424 55.7691C18.0368 55.5662 17.7325 55.4648 17.2255 55.4648H16.9213C16.2114 55.4648 16.11 55.3634 16.11 55.3634V54.1465C16.9213 53.538 17.5297 52.7268 17.7325 51.8141C18.2396 51.7127 18.5438 51.307 18.4424 50.8C18.4424 50.5972 18.2396 50.3943 18.2396 50.1915C18.2396 50.0901 18.2396 49.9887 18.2396 49.8873C18.2396 49.7859 18.2396 49.7859 18.2396 49.6845C18.2396 49.5831 18.2396 49.5831 18.2396 49.4817C18.2396 49.076 18.1382 48.7718 17.8339 48.3661C17.2255 47.2506 16.0086 46.5408 14.6902 46.5408C14.386 46.5408 14.1832 46.5408 13.879 46.6422C13.3719 46.7436 12.9663 46.9464 12.5606 47.2506C12.4592 47.3521 12.4592 47.352 12.3578 47.4535C12.3578 47.4535 12.3578 47.4535 12.2564 47.5549C11.8508 47.9605 11.5465 48.4676 11.3437 48.9746C11.1409 49.4817 11.1409 50.0901 11.1409 50.6986C11.1409 50.6986 11.1409 50.6986 11.1409 50.8C11.1409 50.9014 11.1409 50.9014 11.1409 51.0028C11.1409 51.0028 11.1409 51.1042 11.0395 51.1042C11.2423 50.9014 11.1409 51.2056 11.2423 51.4084C11.4451 51.9155 11.7494 51.8141 12.155 52.1183C12.155 52.1183 12.155 52.1183 12.0536 52.1183L11.6479 52.2197C9.41693 52.9296 9.21411 55.262 11.4451 55.7691C11.2423 55.8705 11.1409 55.9719 11.0395 55.9719C10.431 56.4789 10.0254 57.0874 9.82257 57.6958C11.1409 58.8114 12.8649 59.5212 14.7916 59.5212C16.7184 59.5212 18.5438 58.8114 19.8621 57.5944C19.9635 57.6958 20.065 57.5944 20.065 57.493C20.1664 57.493 20.1664 57.493 20.065 57.493ZM13.7776 55.0592C13.6761 54.9578 13.5747 54.8564 13.5747 54.8564C13.4733 54.755 13.3719 54.755 13.2705 54.6536C13.2705 54.6536 13.1691 54.6536 13.1691 54.5521C12.8649 54.3493 12.5606 54.1465 12.4592 53.8423C12.4592 53.7409 12.5606 53.538 12.7635 53.3352C12.8649 53.4366 12.9663 53.538 13.0677 53.7409C13.1691 53.8423 13.2705 53.9437 13.3719 54.0451C13.4733 54.0451 13.5747 54.1465 13.5747 54.2479C13.5747 54.2479 13.5747 54.2479 13.6761 54.2479C13.6761 54.2479 13.6761 54.2479 13.7776 54.2479V55.0592Z" fill="white"/>
<path d="M17.0443 55.4069C16.9443 55.8069 16.7443 56.1069 16.7443 56.1069L12.9443 55.5069L13.1443 54.5069C13.1443 54.5069 13.2443 54.5069 13.2443 54.6069C13.3443 54.7069 13.4443 54.7069 13.5443 54.8069C13.6443 54.8069 13.6443 54.9069 13.7443 55.0069V54.3069C13.7443 54.3069 13.7443 54.3069 13.6443 54.3069C14.2443 54.6069 15.0443 54.8069 16.1443 54.1069V55.3069C16.2443 55.3069 16.3443 55.4069 17.0443 55.4069Z" fill="url(#paint2_linear_30_3749)"/>
<path d="M16.2541 49.8293C16.9675 49.8293 17.6809 49.7274 18.2924 49.5236C18.2924 49.5236 18.2924 49.4217 18.3943 49.3197C18.2924 49.014 18.1905 48.6063 17.9866 48.1987C17.3751 47.0776 16.1522 46.3642 14.8273 46.3642C14.5215 46.3642 14.2282 46.386 13.8193 46.4879C13.2751 46.6542 13.0224 46.8004 12.8935 46.8785C12.8935 46.8785 12.5956 47.0789 12.3813 47.2814C12.167 47.484 11.6679 48.1987 11.4641 48.7082C11.2602 49.3197 11.0958 49.8395 11.1977 50.451C11.2996 50.451 11.4641 50.3389 11.566 50.3389C12.3813 49.9312 12.9928 49.4216 13.2985 48.6063C14.1139 49.3197 15.133 49.7274 16.2541 49.8293Z" fill="#AAB2C5"/>
<path d="M12.7943 53.4408C12.8943 53.5408 12.9943 53.6408 13.0943 53.7408C12.9943 53.6408 12.8943 53.5408 12.7943 53.4408Z" fill="#3973F4"/>
<path d="M14.1943 57.1408C13.8943 57.5408 13.3943 57.5408 12.8943 57.5408C13.3943 57.0408 13.0943 55.5408 11.4943 55.7408C9.1943 55.3408 9.4943 52.9408 11.6943 52.2408L12.0943 52.1408C12.0943 52.1408 12.0943 52.1408 12.1943 52.2408C12.3943 52.7408 12.5943 53.0408 12.8943 53.4408C11.9943 54.2408 13.2943 54.4408 13.8943 55.0408C14.2943 55.2408 14.6943 56.5408 14.1943 57.1408Z" fill="#AAB2C5"/>
<defs>
<linearGradient id="paint0_linear_30_3749" x1="29.4458" y1="23.9588" x2="29.4458" y2="22.3061" gradientUnits="userSpaceOnUse">
<stop stop-color="white"/>
<stop offset="1" stop-color="#E2E5EC"/>
</linearGradient>
<linearGradient id="paint1_linear_30_3749" x1="29.4458" y1="89.5589" x2="29.4458" y2="87.9062" gradientUnits="userSpaceOnUse">
<stop stop-color="white"/>
<stop offset="1" stop-color="#E2E5EC"/>
</linearGradient>
<linearGradient id="paint2_linear_30_3749" x1="14.9955" y1="56.119" x2="14.9955" y2="55.0173" gradientUnits="userSpaceOnUse">
<stop stop-color="white"/>
<stop offset="1" stop-color="#E2E5EC"/>
</linearGradient>
</defs>
</svg>
