<svg width="187" height="187" viewBox="0 0 187 187" fill="none" xmlns="http://www.w3.org/2000/svg">
<path fill-rule="evenodd" clip-rule="evenodd" d="M9.47086 30.2339V51.1791C9.47086 53.7943 7.35066 55.9145 4.73543 55.9145C2.1202 55.9145 0 53.7943 0 51.1791V30.2339C0 13.5628 13.563 0 30.2339 0H51.1791C53.7943 0 55.9145 2.1202 55.9145 4.73543C55.9145 7.35066 53.7943 9.47086 51.1791 9.47086H30.2339C18.7853 9.47086 9.47086 18.7851 9.47086 30.2339ZM55.9145 181.768C55.9145 179.152 53.7943 177.032 51.1791 177.032H30.2339C18.7853 177.032 9.47086 167.718 9.47086 156.269V135.324C9.47086 132.709 7.35066 130.589 4.73543 130.589C2.1202 130.589 0 132.709 0 135.324V156.269C0 172.94 13.563 186.503 30.2339 186.503H51.1791C53.7943 186.503 55.9145 184.383 55.9145 181.768ZM186.503 156.269V135.324C186.503 132.709 184.383 130.589 181.768 130.589C179.152 130.589 177.032 132.709 177.032 135.324V156.269C177.032 167.718 167.718 177.032 156.269 177.032H135.324C132.709 177.032 130.589 179.152 130.589 181.768C130.589 184.383 132.709 186.503 135.324 186.503H156.269C172.94 186.503 186.503 172.94 186.503 156.269ZM186.503 51.1791V30.2339C186.503 13.5628 172.94 0 156.269 0H135.324C132.709 0 130.589 2.1202 130.589 4.73543C130.589 7.35066 132.709 9.47086 135.324 9.47086H156.269C167.718 9.47086 177.032 18.7851 177.032 30.2339V51.1791C177.032 53.7943 179.152 55.9145 181.768 55.9145C184.383 55.9145 186.503 53.7943 186.503 51.1791ZM126.206 130.895C128.049 132.89 127.926 136.001 125.931 137.844C117.009 146.084 105.403 150.623 93.2511 150.623C81.0987 150.623 69.4931 146.084 60.5713 137.844C58.5763 136.001 58.453 132.89 60.2958 130.895C62.1388 128.9 65.2494 128.776 67.2448 130.619C74.3438 137.176 83.5797 140.788 93.2511 140.788C102.922 140.788 112.158 137.176 119.257 130.619C121.252 128.776 124.363 128.899 126.206 130.895ZM136.963 84.0539V70.0297C136.963 67.4648 134.884 65.3854 132.319 65.3854C129.754 65.3854 127.674 67.4648 127.674 70.0297V84.0539C127.674 86.6188 129.754 88.6982 132.319 88.6982C134.884 88.6982 136.963 86.6188 136.963 84.0539ZM50.6327 84.0539C50.6327 86.6188 52.7121 88.6982 55.277 88.6982C57.842 88.6982 59.9214 86.6188 59.9214 84.0539V70.0297C59.9214 67.4648 57.842 65.3854 55.277 65.3854C52.7121 65.3854 50.6327 67.4648 50.6327 70.0297V84.0539Z" fill="white"/>
</svg>
