<svg width="140" height="156" viewBox="0 0 140 156" fill="none" xmlns="http://www.w3.org/2000/svg">
<path d="M115.112 19.1943C114.491 19.1943 113.869 19.0389 113.325 18.728C98.4049 11.0348 85.5051 7.77096 70.0409 7.77096C54.6544 7.77096 40.045 11.4233 26.7567 18.728C24.8916 19.7382 22.5603 19.0389 21.4724 17.1738C20.4622 15.3088 21.1616 12.8998 23.0266 11.8896C37.4806 4.0409 53.3333 0 70.0409 0C86.5931 0 101.047 3.65235 116.9 11.8119C118.843 12.8221 119.542 15.1534 118.532 17.0184C117.832 18.4172 116.511 19.1943 115.112 19.1943ZM3.91003 59.9918C3.13293 59.9918 2.35584 59.7587 1.65645 59.2924C-0.130872 58.0491 -0.519421 55.6401 0.723933 53.8528C8.41718 42.9734 18.2086 34.4254 29.865 28.4417C54.2659 15.8528 85.5051 15.7751 109.984 28.364C121.64 34.3477 131.432 42.818 139.125 53.6196C140.368 55.3292 139.98 57.816 138.192 59.0593C136.405 60.3027 133.996 59.9141 132.753 58.1268C125.759 48.3354 116.9 40.6421 106.409 35.2802C84.1064 23.8569 55.5869 23.8569 33.362 35.3579C22.7935 40.7976 13.9346 48.5685 6.9407 58.3599C6.31903 59.4479 5.15338 59.9918 3.91003 59.9918ZM52.4785 153.787C51.4683 153.787 50.4581 153.399 49.7587 152.622C42.998 145.861 39.3456 141.509 34.1391 132.106C28.7771 122.548 25.9796 110.892 25.9796 98.3804C25.9796 75.3006 45.7178 56.4949 69.9632 56.4949C94.2086 56.4949 113.947 75.3006 113.947 98.3804C113.947 100.556 112.237 102.266 110.061 102.266C107.885 102.266 106.176 100.556 106.176 98.3804C106.176 79.5746 89.9346 64.2659 69.9632 64.2659C49.9918 64.2659 33.7505 79.5746 33.7505 98.3804C33.7505 109.571 36.2372 119.906 40.9775 128.299C45.9509 137.235 49.3702 141.043 55.3538 147.104C56.8303 148.659 56.8303 151.067 55.3538 152.622C54.499 153.399 53.4888 153.787 52.4785 153.787ZM108.196 139.411C98.9489 139.411 90.7894 137.08 84.1063 132.495C72.5276 124.646 65.6115 111.902 65.6115 98.3804C65.6115 96.2045 67.3211 94.4949 69.4969 94.4949C71.6728 94.4949 73.3824 96.2045 73.3824 98.3804C73.3824 109.337 78.9775 119.673 88.4581 126.045C93.9755 129.775 100.425 131.562 108.196 131.562C110.061 131.562 113.17 131.329 116.278 130.785C118.376 130.397 120.397 131.796 120.785 133.971C121.174 136.07 119.775 138.09 117.599 138.479C113.17 139.333 109.284 139.411 108.196 139.411ZM92.5767 155.419C92.2659 155.419 91.8773 155.342 91.5665 155.264C79.2106 151.845 71.1288 147.26 62.6585 138.945C51.7792 128.143 45.7955 113.767 45.7955 98.3804C45.7955 85.7914 56.5194 75.5338 69.7301 75.5338C82.9407 75.5338 93.6646 85.7914 93.6646 98.3804C93.6646 106.695 100.892 113.456 109.828 113.456C118.765 113.456 125.992 106.695 125.992 98.3804C125.992 69.0838 100.736 45.3047 69.6524 45.3047C47.5828 45.3047 27.3783 57.5828 18.2863 76.6217C15.2556 82.9162 13.7014 90.2986 13.7014 98.3804C13.7014 104.442 14.2454 114 18.908 126.434C19.6851 128.454 18.6749 130.708 16.6544 131.407C14.634 132.184 12.3804 131.096 11.681 129.153C7.87322 118.973 6.00819 108.871 6.00819 98.3804C6.00819 89.0552 7.79551 80.5849 11.2924 73.2025C21.6278 51.5215 44.5522 37.456 69.6524 37.456C105.01 37.456 133.763 64.7321 133.763 98.3027C133.763 110.892 123.039 121.149 109.828 121.149C96.6176 121.149 85.8937 110.892 85.8937 98.3027C85.8937 89.9877 78.6667 83.227 69.7301 83.227C60.7935 83.227 53.5665 89.9877 53.5665 98.3027C53.5665 111.591 58.6953 124.025 68.0982 133.35C75.4806 140.654 82.5522 144.695 93.5092 147.726C95.6074 148.27 96.773 150.446 96.229 152.466C95.8405 154.254 94.2086 155.419 92.5767 155.419Z" fill="#F2F2F2"/>
</svg>
