<svg width="20" height="20" viewBox="0 0 20 20" fill="none" xmlns="http://www.w3.org/2000/svg">
<path d="M17.6385 8.02571L17.6453 8.03281C18.1633 8.57266 18.75 9.18438 18.75 10C18.75 10.8156 18.1633 11.4281 17.6453 11.9672L17.6428 11.9699C17.349 12.2768 17.0458 12.5938 16.9313 12.8711C16.8252 13.1261 16.8188 13.5483 16.8125 13.9577L16.8125 13.9602L16.8125 13.9632C16.8007 14.7249 16.7875 15.5875 16.1875 16.1875C15.5875 16.7875 14.7249 16.8007 13.9632 16.8125L13.9602 16.8125L13.9577 16.8125C13.5483 16.8188 13.1261 16.8252 12.8711 16.9313C12.5943 17.0452 12.2799 17.3461 11.9743 17.6385L11.9672 17.6453C11.4273 18.1633 10.8156 18.75 10 18.75C9.18438 18.75 8.57188 18.1633 8.03281 17.6453L8.03015 17.6428C7.72316 17.349 7.40623 17.0458 7.12891 16.9313C7.05425 16.6985 6.37176 16.7551 6.03984 16.8125L6.03684 16.8125C5.27507 16.8007 4.41249 16.7875 3.8125 16.1875C3.21251 15.5875 3.19925 14.7249 3.18755 13.9632L3.1875 13.9602L3.18746 13.9577C3.18123 13.5483 3.17479 13.1261 3.06875 12.8711C2.95479 12.5943 2.65388 12.2799 2.36147 11.9743L2.35469 11.9672C1.83672 11.4273 1.25 10.8156 1.25 10C1.25 9.18438 1.83672 8.57188 2.35469 8.03281L2.35723 8.03015C2.65097 7.72317 2.95424 7.40623 3.06875 7.12891C3.17479 6.87394 3.18123 6.45167 3.18746 6.04227L3.1875 6.03984C3.20313 5.27734 3.21172 4.41328 3.8125 3.8125C4.41249 3.21251 5.27507 3.19925 6.03684 3.18755L6.03984 3.1875L6.04255 3.18746C6.45187 3.18122 6.87556 3.17477 7.12891 3.06875C7.40567 2.95479 7.72013 2.65389 8.02572 2.36147L8.03281 2.35469C8.57266 1.83672 9.18438 1.25 10 1.25C10.8156 1.25 11.4281 1.83672 11.9672 2.35469L11.9698 2.35723C12.2768 2.65097 12.5938 2.95424 12.8711 3.06875C13.1261 3.17479 13.5483 3.18123 13.9577 3.18746L13.9602 3.1875L13.9632 3.18755C14.7249 3.19925 15.5875 3.21251 16.1875 3.8125C16.7875 4.41249 16.8007 5.27507 16.8125 6.03684L16.8125 6.03984L16.8125 6.04227C16.8188 6.45167 16.8252 6.87394 16.9313 7.12891C17.0452 7.40567 17.3461 7.72013 17.6385 8.02571Z" fill="white"/>
<path d="M17.6453 8.03281C17.3508 7.725 17.0461 7.40781 16.9312 7.12891C16.825 6.87344 16.8187 6.45 16.8125 6.03984C16.8008 5.27734 16.7883 4.41328 16.1875 3.8125C15.5867 3.21172 14.7227 3.19922 13.9602 3.1875C13.55 3.18125 13.1266 3.175 12.8711 3.06875C12.593 2.95391 12.275 2.64922 11.9672 2.35469C11.4281 1.83672 10.8156 1.25 10 1.25C9.18437 1.25 8.57266 1.83672 8.03281 2.35469C7.725 2.64922 7.40781 2.95391 7.12891 3.06875C6.875 3.175 6.45 3.18125 6.03984 3.1875C5.27734 3.19922 4.41328 3.21172 3.8125 3.8125C3.21172 4.41328 3.20312 5.27734 3.1875 6.03984C3.18125 6.45 3.175 6.87344 3.06875 7.12891C2.95391 7.40703 2.64922 7.725 2.35469 8.03281C1.83672 8.57188 1.25 9.18437 1.25 10C1.25 10.8156 1.83672 11.4273 2.35469 11.9672C2.64922 12.275 2.95391 12.5922 3.06875 12.8711C3.175 13.1266 3.18125 13.55 3.1875 13.9602C3.19922 14.7227 3.21172 15.5867 3.8125 16.1875C4.41328 16.7883 5.27734 16.8008 6.03984 16.8125C6.45 16.8187 6.87344 16.825 7.12891 16.9312C7.40703 17.0461 7.725 17.3508 8.03281 17.6453C8.57188 18.1633 9.18437 18.75 10 18.75C10.8156 18.75 11.4273 18.1633 11.9672 17.6453C12.275 17.3508 12.5922 17.0461 12.8711 16.9312C13.1266 16.825 13.55 16.8187 13.9602 16.8125C14.7227 16.8008 15.5867 16.7883 16.1875 16.1875C16.7883 15.5867 16.8008 14.7227 16.8125 13.9602C16.8187 13.55 16.825 13.1266 16.9312 12.8711C17.0461 12.593 17.3508 12.275 17.6453 11.9672C18.1633 11.4281 18.75 10.8156 18.75 10C18.75 9.18437 18.1633 8.57266 17.6453 8.03281ZM13.5672 8.56719L9.19219 12.9422C9.13414 13.0003 9.06521 13.0464 8.98934 13.0779C8.91346 13.1093 8.83213 13.1255 8.75 13.1255C8.66787 13.1255 8.58654 13.1093 8.51066 13.0779C8.43479 13.0464 8.36586 13.0003 8.30781 12.9422L6.43281 11.0672C6.31554 10.9499 6.24965 10.7909 6.24965 10.625C6.24965 10.4591 6.31554 10.3001 6.43281 10.1828C6.55009 10.0655 6.70915 9.99965 6.875 9.99965C7.04085 9.99965 7.19991 10.0655 7.31719 10.1828L8.75 11.6164L12.6828 7.68281C12.7409 7.62474 12.8098 7.57868 12.8857 7.54725C12.9616 7.51583 13.0429 7.49965 13.125 7.49965C13.2071 7.49965 13.2884 7.51583 13.3643 7.54725C13.4402 7.57868 13.5091 7.62474 13.5672 7.68281C13.6253 7.74088 13.6713 7.80982 13.7027 7.88569C13.7342 7.96156 13.7503 8.04288 13.7503 8.125C13.7503 8.20712 13.7342 8.28844 13.7027 8.36431C13.6713 8.44018 13.6253 8.50912 13.5672 8.56719Z" fill="#AE78E7"/>
</svg>
