<svg width="105" height="27" viewBox="0 0 105 27" fill="none" xmlns="http://www.w3.org/2000/svg">
<path d="M20.2426 10.7606V12.1183C20.2426 17.5209 16.3391 21.3677 10.5406 21.3677C4.37429 21.3677 -0.00999997 16.7854 -0.00999997 11.1C-0.00999997 5.41457 4.43086 0.832283 10.3709 0.832283C14.1329 0.832283 17.3291 2.72743 18.998 5.52771L16.1977 7.14C15.1794 5.30143 12.9731 4.00028 10.3709 4.00028C6.18457 4.00028 3.24286 7.08343 3.24286 11.1283C3.24286 15.1166 6.128 18.1997 10.5689 18.1997C14.1611 18.1997 16.3674 16.3329 16.9614 13.674H10.3426V10.7606H20.2426ZM23.0183 21V0.351427H26.0732V21H23.0183ZM31.1476 4.73571C30.0727 4.73571 29.1959 3.83057 29.1959 2.784C29.1959 1.70914 30.0727 0.832283 31.1476 0.832283C32.2225 0.832283 33.0993 1.70914 33.0993 2.784C33.0993 3.83057 32.2225 4.73571 31.1476 4.73571ZM29.6202 21V6.85714H32.675V21H29.6202ZM51.666 6.48943C54.8623 6.48943 57.012 8.69571 57.012 12.2314V21H53.9572V12.4294C53.9572 10.4494 52.8823 9.34628 51.2134 9.34628C49.4032 9.34628 48.1303 10.506 48.1303 13.08V21H45.0754V12.4294C45.0754 10.4494 44.0854 9.34628 42.4166 9.34628C40.6912 9.34628 39.2769 10.506 39.2769 13.08V21H36.222V6.85714H39.2769V8.55428C40.182 7.16828 41.568 6.48943 43.3217 6.48943C45.1603 6.48943 46.518 7.30971 47.3383 8.724C48.2717 7.25314 49.7709 6.48943 51.666 6.48943ZM68.2863 6.48943C72.1332 6.48943 75.3294 9.74228 75.3294 13.9286C75.3294 18.1431 72.1332 21.3677 68.2863 21.3677C66.08 21.3677 64.4112 20.4626 63.3363 18.9917V26.6571H60.2814V6.85714H63.3363V8.89371C64.4112 7.39457 66.08 6.48943 68.2863 6.48943ZM67.8054 18.4543C70.3512 18.4543 72.2746 16.5591 72.2746 13.9286C72.2746 11.298 70.3512 9.40286 67.8054 9.40286C65.2597 9.40286 63.3363 11.298 63.3363 13.9286C63.3363 16.5591 65.2597 18.4543 67.8054 18.4543ZM80.5656 10.7606C80.5656 13.3346 88.1745 11.7789 88.1745 17.0117C88.1745 19.8403 85.7136 21.3677 82.6588 21.3677C79.8302 21.3677 77.7936 20.0949 76.8885 18.0583L79.519 16.5309C79.9716 17.8037 81.103 18.5674 82.6588 18.5674C84.0165 18.5674 85.063 18.1149 85.063 16.9834C85.063 14.466 77.4542 15.8803 77.4542 10.8171C77.4542 8.15828 79.7453 6.48943 82.6305 6.48943C84.9499 6.48943 86.8733 7.56428 87.8633 9.43114L85.2893 10.8737C84.7802 9.77057 83.7902 9.26143 82.6305 9.26143C81.5273 9.26143 80.5656 9.74228 80.5656 10.7606ZM92.905 15.2297C93.3859 17.436 95.1679 18.5674 97.4308 18.5674C99.1279 18.5674 100.401 17.8037 101.08 16.8137L103.597 18.2846C102.296 20.208 100.174 21.3677 97.4025 21.3677C92.7353 21.3677 89.7088 18.1714 89.7088 13.9286C89.7088 9.74228 92.7353 6.48943 97.1762 6.48943C101.391 6.48943 104.276 9.88371 104.276 13.9569C104.276 14.3811 104.219 14.8337 104.163 15.2297H92.905ZM92.8768 12.7406H101.193C100.768 10.308 98.9865 9.26143 97.1479 9.26143C94.8568 9.26143 93.301 10.6191 92.8768 12.7406Z" fill="white"/>
</svg>
