<svg width="76" height="72" viewBox="0 0 76 72" fill="none" xmlns="http://www.w3.org/2000/svg">
<path d="M0 23.8236L6.12932 19.9809C25.6196 7.7617 50.3804 7.7617 69.8707 19.9809L76 23.8236V78.5H0V23.8236Z" fill="#AE78E7"/>
<rect x="8.41211" y="6" width="59.6471" height="68" rx="4" fill="white"/>
<rect width="62" height="68" rx="4" transform="matrix(1 0 0 -1 7.5 73)" fill="url(#paint0_linear_393_1392)"/>
<rect x="23" y="13" width="30" height="10" rx="5" fill="#EFF0F7"/>
<path d="M29.0599 19.8755L28.4389 19.4259L29.3596 18.2054L28 17.7451L28.2355 17.0171L29.6059 17.4667V16H30.3767V17.4667L31.7471 17.0171L31.9826 17.7451L30.6229 18.2054L31.5436 19.4259L30.9227 19.8755L29.9913 18.6551L29.0599 19.8755Z" fill="#C7C9D3"/>
<path d="M34.5721 19.8755L33.9511 19.4259L34.8719 18.2054L33.5122 17.7451L33.7477 17.0171L35.1181 17.4667V16H35.8889V17.4667L37.2593 17.0171L37.4948 17.7451L36.1351 18.2054L37.0559 19.4259L36.4349 19.8755L35.5035 18.6551L34.5721 19.8755Z" fill="#C7C9D3"/>
<path d="M40.0838 19.8755L39.4629 19.4259L40.3836 18.2054L39.0239 17.7451L39.2595 17.0171L40.6298 17.4667V16H41.4006V17.4667L42.771 17.0171L43.0065 17.7451L41.6469 18.2054L42.5676 19.4259L41.9466 19.8755L41.0152 18.6551L40.0838 19.8755Z" fill="#C7C9D3"/>
<path d="M45.596 19.8755L44.9751 19.4259L45.8958 18.2054L44.5361 17.7451L44.7717 17.0171L46.142 17.4667V16H46.9128V17.4667L48.2832 17.0171L48.5187 17.7451L47.1591 18.2054L48.0798 19.4259L47.4588 19.8755L46.5274 18.6551L45.596 19.8755Z" fill="#C7C9D3"/>
<path d="M76 78.5002H0L76 23.8237V78.5002Z" fill="url(#paint1_linear_393_1392)"/>
<path d="M0 78.5002H76L0 23.8237V78.5002Z" fill="url(#paint2_linear_393_1392)"/>
<defs>
<linearGradient id="paint0_linear_393_1392" x1="31" y1="0" x2="31" y2="68" gradientUnits="userSpaceOnUse">
<stop offset="0.264903" stop-color="#DBDDE9"/>
<stop offset="0.812458" stop-color="#EFF0F7" stop-opacity="0"/>
</linearGradient>
<linearGradient id="paint1_linear_393_1392" x1="53.2" y1="14.2649" x2="16.3374" y2="100.13" gradientUnits="userSpaceOnUse">
<stop offset="0.239398" stop-color="#EAE0F5"/>
<stop offset="0.800538" stop-color="#A78FC2"/>
</linearGradient>
<linearGradient id="paint2_linear_393_1392" x1="22.8" y1="14.2649" x2="59.6626" y2="100.13" gradientUnits="userSpaceOnUse">
<stop offset="0.244173" stop-color="#EAE0F5"/>
<stop offset="0.657003" stop-color="#A78FC2"/>
</linearGradient>
</defs>
</svg>
