<svg width="68" height="20" viewBox="0 0 68 20" fill="none" xmlns="http://www.w3.org/2000/svg">
<path d="M0.685425 18.9724V0.165283H3.94003V6.79872C4.32098 6.25214 4.82614 5.84635 5.45553 5.58134C6.08492 5.29977 6.78885 5.15899 7.5673 5.15899C8.56107 5.15899 9.43891 5.37431 10.2008 5.80494C10.9793 6.23558 11.5838 6.84012 12.0144 7.61858C12.4451 8.38047 12.6604 9.26658 12.6604 10.2769V18.9724H9.40578V11.0471C9.40578 10.1527 9.14906 9.44878 8.63561 8.93533C8.12216 8.40531 7.46792 8.14031 6.67291 8.14031C5.87789 8.14031 5.22365 8.40531 4.7102 8.93533C4.19675 9.46534 3.94003 10.1693 3.94003 11.0471V18.9724H0.685425Z" fill="white"/>
<path d="M21.8223 19.2706C20.431 19.2706 19.2137 18.9559 18.1702 18.3265C17.1267 17.6971 16.3152 16.8441 15.7354 15.7675C15.1557 14.6909 14.8659 13.4984 14.8659 12.1899C14.8659 10.8318 15.1557 9.63097 15.7354 8.58751C16.3317 7.52748 17.135 6.69106 18.1453 6.07823C19.1722 5.4654 20.3151 5.15899 21.5739 5.15899C22.9817 5.15899 24.1742 5.4654 25.1514 6.07823C26.1287 6.67449 26.874 7.46951 27.3874 8.46328C27.9009 9.45706 28.1576 10.5585 28.1576 11.7676C28.1576 12.016 28.141 12.2645 28.1079 12.5129C28.0914 12.7448 28.05 12.9518 27.9837 13.134H18.2447C18.3441 14.1278 18.725 14.9228 19.3876 15.5191C20.0501 16.1153 20.8699 16.4135 21.8472 16.4135C22.5925 16.4135 23.2219 16.2561 23.7353 15.9414C24.2653 15.6102 24.6794 15.1878 24.9775 14.6744L27.611 15.9663C27.197 16.9269 26.4682 17.7219 25.4247 18.3513C24.3978 18.9641 23.197 19.2706 21.8223 19.2706ZM21.5739 7.84218C20.7623 7.84218 20.0584 8.09062 19.4621 8.58751C18.8824 9.06783 18.5015 9.75519 18.3193 10.6496H24.6794C24.6132 9.82144 24.2902 9.15064 23.7105 8.6372C23.1473 8.10718 22.4351 7.84218 21.5739 7.84218Z" fill="white"/>
<path d="M34.6513 19.2706C33.2434 19.2706 32.1172 18.9227 31.2725 18.2271C30.4278 17.5315 30.0054 16.5874 30.0054 15.3948C30.0054 14.2686 30.3864 13.3328 31.1482 12.5874C31.9101 11.8421 33.0861 11.3369 34.6761 11.0719L38.7009 10.426V9.97879C38.7009 9.39909 38.469 8.91876 38.0053 8.53782C37.5581 8.14031 36.9618 7.94155 36.2165 7.94155C35.5043 7.94155 34.8832 8.13203 34.3532 8.51297C33.8232 8.87736 33.4339 9.36596 33.1855 9.97879L30.5271 8.68688C30.9246 7.62686 31.6534 6.77387 32.7134 6.12792C33.7735 5.48197 34.9825 5.15899 36.3407 5.15899C37.4504 5.15899 38.4193 5.36603 39.2475 5.7801C40.0922 6.17761 40.7547 6.74075 41.235 7.46951C41.7154 8.19828 41.9555 9.0347 41.9555 9.97879V18.9724H38.8748V17.5315C37.8148 18.6909 36.407 19.2706 34.6513 19.2706ZM33.3842 15.2706C33.3842 15.7344 33.5581 16.1071 33.906 16.3886C34.2538 16.6536 34.701 16.7861 35.2476 16.7861C36.2745 16.7861 37.1026 16.4632 37.732 15.8172C38.3779 15.1712 38.7009 14.3845 38.7009 13.457V12.9104L35.2972 13.4818C34.0219 13.7303 33.3842 14.3265 33.3842 15.2706Z" fill="white"/>
<path d="M51.4728 19.2706C50.1312 19.2706 48.9221 18.9641 47.8456 18.3513C46.7855 17.7219 45.9491 16.8772 45.3363 15.8172C44.7235 14.7406 44.417 13.5315 44.417 12.1899C44.417 10.8483 44.7235 9.64753 45.3363 8.58751C45.9491 7.52748 46.7855 6.69106 47.8456 6.07823C48.9221 5.4654 50.1312 5.15899 51.4728 5.15899C52.4335 5.15899 53.3279 5.32462 54.156 5.65588C54.9842 5.98713 55.6964 6.45918 56.2926 7.072C56.8889 7.66827 57.3278 8.36391 57.6094 9.15893L54.7523 10.4011C54.4873 9.72206 54.0649 9.17549 53.4852 8.76142C52.9221 8.34734 52.2513 8.14031 51.4728 8.14031C50.7606 8.14031 50.123 8.31422 49.5598 8.66204C49.0132 9.00986 48.5826 9.49018 48.2679 10.103C47.9532 10.7158 47.7959 11.4198 47.7959 12.2148C47.7959 12.9932 47.9532 13.6972 48.2679 14.3265C48.5826 14.9394 49.0132 15.4197 49.5598 15.7675C50.123 16.1153 50.7606 16.2892 51.4728 16.2892C52.2513 16.2892 52.9221 16.0905 53.4852 15.693C54.0649 15.2789 54.4873 14.7158 54.7523 14.0036L57.6094 15.2955C57.3444 16.0574 56.9137 16.7447 56.3175 17.3575C55.7212 17.9538 55.009 18.4259 54.1809 18.7737C53.3527 19.1049 52.45 19.2706 51.4728 19.2706Z" fill="white"/>
<path d="M66.2403 19.1215C64.7165 19.1215 63.5322 18.6991 62.6875 17.8544C61.8594 17.0097 61.4453 15.8338 61.4453 14.3265V8.36391H59.1099V5.45712H59.3584C60.0209 5.45712 60.5343 5.28321 60.8987 4.93539C61.2631 4.58757 61.4453 4.0824 61.4453 3.41989V2.37643H64.6999V5.45712H67.8054V8.36391H64.6999V14.1526C64.6999 14.8317 64.8821 15.3534 65.2465 15.7178C65.6109 16.0822 66.1906 16.2644 66.9856 16.2644C67.2506 16.2644 67.5404 16.2396 67.8551 16.1899V18.9724C67.6233 19.0056 67.3582 19.0387 67.0601 19.0718C66.762 19.1049 66.4887 19.1215 66.2403 19.1215Z" fill="white"/>
</svg>
