<svg width="48" height="48" viewBox="0 0 48 48" fill="none" xmlns="http://www.w3.org/2000/svg">
<circle cx="24" cy="24" r="24" fill="#F8F8F8"/>
<path d="M27.75 16.5C30.2814 16.5 32.3334 18.5833 32.3334 21.5C32.3334 27.3333 26.0834 30.6667 24 31.9167C22.3522 30.9279 18.0975 28.6358 16.3908 24.8342L14.8334 24.8333V23.1667L15.8421 23.1674C15.7286 22.6361 15.6667 22.0804 15.6667 21.5C15.6667 18.5833 17.75 16.5 20.25 16.5C21.8 16.5 23.1667 17.3333 24 18.1667C24.8334 17.3333 26.2 16.5 27.75 16.5ZM27.75 18.1667C26.8535 18.1667 25.8828 18.6409 25.1785 19.3452L24 20.5237L22.8215 19.3452C22.1173 18.6409 21.1466 18.1667 20.25 18.1667C18.6326 18.1667 17.3334 19.5471 17.3334 21.5C17.3334 22.0712 17.4087 22.6263 17.5555 23.167L19.3615 23.1667L21.0834 20.297L23.5834 24.4636L24.3615 23.1667H28.1667V24.8333H25.3052L23.5834 27.7031L21.0834 23.5364L20.3052 24.8333L18.2566 24.8338C18.9144 25.9781 19.9109 27.0568 21.2043 28.0858C21.825 28.5796 22.4871 29.0404 23.2218 29.5032C23.4705 29.6599 23.7176 29.8108 24 29.9793C24.2825 29.8108 24.5295 29.6599 24.7783 29.5032C25.513 29.0404 26.175 28.5796 26.7958 28.0858C29.2781 26.1108 30.6667 23.9529 30.6667 21.5C30.6667 19.534 29.3859 18.1667 27.75 18.1667Z" fill="#AE78E7"/>
</svg>
