<svg width="20" height="20" viewBox="0 0 20 20" fill="none" xmlns="http://www.w3.org/2000/svg">
<path d="M13.75 2.5C16.2814 2.5 18.3334 4.58333 18.3334 7.5C18.3334 13.3333 12.0834 16.6667 10 17.9167C8.35221 16.9279 4.09753 14.6358 2.39082 10.8342L0.833374 10.8333V9.16667L1.84208 9.16742C1.72858 8.63608 1.66671 8.08043 1.66671 7.5C1.66671 4.58333 3.75004 2.5 6.25004 2.5C7.80002 2.5 9.16671 3.33333 10 4.16667C10.8334 3.33333 12.2 2.5 13.75 2.5ZM13.75 4.16667C12.8535 4.16667 11.8828 4.64092 11.1785 5.34518L10 6.52369L8.82154 5.34518C8.11727 4.64092 7.14662 4.16667 6.25004 4.16667C4.63259 4.16667 3.33337 5.54708 3.33337 7.5C3.33337 8.07118 3.40867 8.62633 3.55552 9.167L5.36155 9.16667L7.08337 6.29696L9.58337 10.4636L10.3615 9.16667H14.1667V10.8333H11.3052L9.58337 13.7031L7.08337 9.53642L6.3052 10.8333L4.25662 10.8338C4.91443 11.9781 5.91091 13.0568 7.20432 14.0858C7.82505 14.5796 8.48712 15.0404 9.22179 15.5032C9.47054 15.6599 9.71762 15.8108 10 15.9793C10.2825 15.8108 10.5295 15.6599 10.7783 15.5032C11.513 15.0404 12.175 14.5796 12.7958 14.0858C15.2781 12.1108 16.6667 9.95292 16.6667 7.5C16.6667 5.53397 15.3859 4.16667 13.75 4.16667Z" fill="#AE78E7"/>
</svg>
