<svg width="123" height="118" viewBox="0 0 123 118" fill="none" xmlns="http://www.w3.org/2000/svg">
<path d="M57.0555 116.744C85.0555 116.744 107.756 94.0436 107.756 65.9436C107.756 37.8436 85.0555 15.1436 57.0555 15.1436C29.0555 15.1436 6.35553 37.8436 6.35553 65.9436C6.35553 94.0436 29.0555 116.744 57.0555 116.744Z" fill="#F1F3F9" stroke="#D6DCE8" stroke-width="2" stroke-miterlimit="10"/>
<path d="M113.556 45.0435C115.82 45.0435 117.656 43.2079 117.656 40.9435C117.656 38.6791 115.82 36.8435 113.556 36.8435C111.291 36.8435 109.456 38.6791 109.456 40.9435C109.456 43.2079 111.291 45.0435 113.556 45.0435Z" fill="#F1F3F9"/>
<path d="M119.556 28.9435C121.102 28.9435 122.356 27.6899 122.356 26.1435C122.356 24.5971 121.102 23.3435 119.556 23.3435C118.009 23.3435 116.756 24.5971 116.756 26.1435C116.756 27.6899 118.009 28.9435 119.556 28.9435Z" fill="#F1F3F9"/>
<path d="M2.85554 47.9435C4.40194 47.9435 5.65554 46.6899 5.65554 45.1435C5.65554 43.5971 4.40194 42.3435 2.85554 42.3435C1.30914 42.3435 0.055542 43.5971 0.055542 45.1435C0.055542 46.6899 1.30914 47.9435 2.85554 47.9435Z" fill="#F1F3F9"/>
<path d="M106.781 105.459L82.7403 96.278L56.3614 106.844L27.7173 96.2051L5.79576 104.585C3.82282 105.313 1.77681 103.492 2.36138 101.451L16.0258 54.3071C16.4642 52.7769 17.5603 51.4653 19.0217 50.8095L40.9433 40.5354L56.3614 51.611L71.4142 42.0656L95.674 52.704C97.2815 53.4327 98.4507 54.8172 98.8161 56.4931L110.215 102.472C110.727 104.439 108.754 106.188 106.781 105.459Z" fill="white" stroke="#D6DCE8" stroke-width="2" stroke-miterlimit="10"/>
<path d="M40.9433 40.6083L27.7173 96.2051L5.79576 104.585C3.82282 105.313 1.77681 103.492 2.36138 101.451L16.0258 54.3071C16.4642 52.7769 17.5603 51.4653 19.0217 50.8095L40.9433 40.6083Z" fill="#F1F3F9" stroke="#D6DCE8" stroke-width="2" stroke-miterlimit="10"/>
<path d="M82.8134 96.2779L56.3614 106.843V51.611L71.4142 42.0656L82.8134 96.2779Z" fill="#F1F3F9" stroke="#D6DCE8" stroke-width="2" stroke-miterlimit="10" stroke-linejoin="round"/>
<path d="M32.7592 83.5992C32.6861 83.5992 32.6131 83.5992 32.4669 83.5992C32.1746 83.5264 31.9554 83.5264 31.6631 83.4535C30.8594 83.2349 30.4209 82.5062 30.5671 81.7047C30.7132 80.9032 31.517 80.466 32.3208 80.6117C32.54 80.6846 32.7592 80.6846 32.9784 80.7574C33.7822 80.9032 34.2937 81.6318 34.1476 82.4334C34.0745 83.162 33.4899 83.5992 32.7592 83.5992ZM37.8742 83.4535C37.2166 83.4535 36.632 83.0163 36.4859 82.3605C36.2667 81.559 36.7782 80.7574 37.582 80.6117C37.8012 80.5388 38.0204 80.466 38.2396 80.466C39.0434 80.2474 39.8472 80.6846 40.0664 81.4132C40.2856 82.2148 39.8472 83.0163 39.1165 83.2349C38.8242 83.3078 38.605 83.3806 38.3127 83.4535C38.0935 83.4535 37.9473 83.4535 37.8742 83.4535ZM27.425 81.4132C27.1327 81.4132 26.8404 81.3404 26.6212 81.1946C26.402 81.0489 26.1828 80.9032 25.9635 80.7574C25.3059 80.3202 25.1598 79.373 25.5982 78.7172C26.0366 78.0614 26.9866 77.9157 27.6442 78.3529C27.8634 78.4986 28.0096 78.6443 28.2288 78.7172C28.8864 79.1544 29.1056 80.0288 28.6672 80.7574C28.3749 81.1946 27.9365 81.4132 27.425 81.4132ZM43.1354 81.0489C42.697 81.0489 42.1855 80.8303 41.8932 80.3931C41.4548 79.7373 41.6009 78.7901 42.3316 78.3529C42.5508 78.2071 42.697 78.1343 42.9162 77.9885C43.5738 77.5513 44.5238 77.6971 44.9622 78.3529C45.4006 79.0087 45.2545 79.9559 44.5968 80.3931C44.3776 80.5388 44.1584 80.6846 43.9392 80.8303C43.72 80.9032 43.4277 81.0489 43.1354 81.0489ZM79.9636 79.3001C79.2328 79.3001 78.5752 78.7172 78.5021 77.9157C78.429 77.1141 79.0867 76.3855 79.8905 76.3855C80.0366 76.3855 80.2558 76.3855 80.4751 76.3126C81.2788 76.1669 82.0096 76.6769 82.1557 77.4785C82.3018 78.28 81.7903 79.0087 80.9865 79.1544C80.6943 79.2273 80.402 79.2273 80.1097 79.3001C80.0366 79.3001 80.0366 79.3001 79.9636 79.3001ZM22.9676 77.6242C22.6022 77.6242 22.1638 77.4785 21.9446 77.187C21.7985 77.0413 21.5792 76.8227 21.4331 76.6041C20.8485 76.0211 20.9216 75.0739 21.5062 74.5638C22.0907 74.0538 23.0407 74.0538 23.5522 74.6367C23.6983 74.7824 23.8445 75.001 24.0637 75.1468C24.6483 75.7297 24.5752 76.6769 23.9906 77.187C23.6983 77.4785 23.333 77.6242 22.9676 77.6242ZM75.287 77.6242C74.9947 77.6242 74.6293 77.5513 74.4101 77.3327C74.1909 77.187 73.9717 77.0413 73.8255 76.8227C73.241 76.3126 73.1679 75.3654 73.6794 74.7824C74.1909 74.1995 75.1408 74.1266 75.7254 74.6367C75.8715 74.7824 76.0907 74.9282 76.2369 75.0739C76.8945 75.584 76.9676 76.4583 76.4561 77.1141C76.1638 77.4056 75.7254 77.6242 75.287 77.6242ZM47.7389 77.4056C47.3005 77.4056 46.9351 77.2599 46.6428 76.8955C46.1313 76.3126 46.2044 75.3654 46.789 74.8553C47.0082 74.7096 47.1543 74.5638 47.3005 74.4181C47.8851 73.908 48.835 73.9809 49.3465 74.5638C49.858 75.1468 49.7849 76.094 49.2004 76.6041C48.9811 76.7498 48.835 76.8955 48.6158 77.1141C48.3966 77.3327 48.1043 77.4056 47.7389 77.4056ZM85.3709 77.187C84.8594 77.187 84.4209 76.9684 84.1286 76.5312C83.6902 75.8754 83.9094 74.9282 84.5671 74.491C84.7863 74.3452 84.9324 74.2724 85.1516 74.1266C85.8093 73.6894 86.7592 73.8352 87.1976 74.491C87.6361 75.1468 87.4899 76.094 86.8323 76.5312C86.6131 76.6769 86.3939 76.8227 86.1746 76.9684C85.8824 77.1141 85.5901 77.187 85.3709 77.187ZM71.0488 73.6166C70.6834 73.6166 70.3181 73.4708 70.0258 73.1794C69.8797 73.0336 69.6604 72.8879 69.5143 72.6693C68.9297 72.1592 68.8566 71.212 69.4412 70.6291C69.9527 70.0461 70.9027 69.9733 71.4872 70.5562C71.7064 70.7019 71.8526 70.9205 72.0718 71.0663C72.6564 71.6492 72.6564 72.5236 72.1449 73.1065C71.7795 73.4708 71.4142 73.6166 71.0488 73.6166ZM89.9744 73.6166C89.5359 73.6166 89.1706 73.4708 88.8783 73.1065C88.3668 72.5236 88.4399 71.5763 89.0244 71.0663C89.1706 70.9205 89.3898 70.7748 89.5359 70.6291C90.1205 70.119 91.0704 70.1919 91.582 70.7748C92.0935 71.3577 92.0204 72.305 91.4358 72.815C91.2166 72.9608 91.0704 73.1065 90.8512 73.3251C90.7051 73.5437 90.3397 73.6166 89.9744 73.6166ZM51.9771 73.4708C51.6117 73.4708 51.2464 73.3251 50.9541 73.0336C50.3695 72.4507 50.3695 71.5763 50.9541 70.9934L51.4656 70.4833C52.0502 69.9004 52.927 69.9004 53.5116 70.4105C54.0962 70.9934 54.0962 71.8678 53.5847 72.4507L53.0732 72.9608C52.7809 73.3251 52.4155 73.4708 51.9771 73.4708ZM19.2409 73.1794C18.8025 73.1794 18.3641 72.9608 18.0718 72.5964C17.9257 72.3778 17.7795 72.2321 17.6334 72.0135C17.1219 71.3577 17.268 70.4833 17.9257 69.9733C18.5833 69.4632 19.4602 69.6089 19.9717 70.2647L20.4101 70.8477C20.9216 71.5035 20.7755 72.3778 20.1178 72.8879C19.8255 73.0336 19.5332 73.1794 19.2409 73.1794ZM66.5914 69.9004C66.2991 69.9004 66.0069 69.8275 65.7146 69.6089C65.4953 69.4632 65.3492 69.3175 65.13 69.1717C64.4723 68.7345 64.3262 67.7873 64.8377 67.1315C65.2761 66.4757 66.2261 66.33 66.8837 66.84C67.1029 66.9858 67.2491 67.1315 67.4683 67.2772C68.1259 67.7873 68.2721 68.6617 67.7606 69.3175C67.4683 69.6818 67.0299 69.9004 66.5914 69.9004ZM94.3587 69.7547C93.9933 69.7547 93.5549 69.6089 93.2626 69.3175C92.678 68.7345 92.7511 67.7873 93.3357 67.2772L93.8472 66.7672C94.4318 66.1842 95.3817 66.2571 95.8932 66.84C96.4778 67.423 96.4047 68.3702 95.8201 68.8803L95.3086 69.3903C95.0894 69.6089 94.724 69.7547 94.3587 69.7547ZM55.996 69.1717C55.6307 69.1717 55.2653 69.026 54.973 68.8074C54.3884 68.2245 54.3154 67.3501 54.9 66.7672C55.0461 66.5486 55.2653 66.4028 55.4114 66.1842C55.996 65.6013 56.8729 65.6013 57.4575 66.1842C58.042 66.7672 58.042 67.6416 57.4575 68.2245C57.3113 68.3702 57.1652 68.5888 56.946 68.7345C56.7267 69.026 56.3614 69.1717 55.996 69.1717ZM15.8796 68.3702C15.3681 68.3702 14.9297 68.1516 14.6374 67.7144L14.199 67.1315C13.7606 66.4757 13.9798 65.5284 14.6374 65.0912C15.2951 64.654 16.245 64.8726 16.6834 65.5284L17.0488 66.1114C17.4872 66.7672 17.3411 67.7144 16.6104 68.1516C16.4642 68.2973 16.1719 68.3702 15.8796 68.3702ZM61.6225 66.84C61.4764 66.84 61.2572 66.84 61.111 66.7672C60.8918 66.6943 60.7457 66.6943 60.5995 66.6214C59.7958 66.4757 59.2843 65.6742 59.5035 64.8726C59.7227 64.0711 60.4534 63.5611 61.2572 63.7797C61.5495 63.8525 61.8418 63.9254 62.134 64.0711C62.8648 64.3626 63.3032 65.1641 63.0109 65.9656C62.7186 66.4757 62.2071 66.84 61.6225 66.84Z" fill="#D6DCE8"/>
<path d="M56.3614 1.84351C69.7335 1.84351 80.5481 12.6277 80.5481 25.9622C80.5481 36.6006 65.2031 57.6589 58.9189 65.8199C57.6036 67.5687 54.973 67.5687 53.6577 65.8199C47.3736 57.6589 32.0285 36.6006 32.0285 25.9622C32.1746 12.6277 42.9893 1.84351 56.3614 1.84351Z" fill="#D6DCE8" stroke="#AAB2C5" stroke-width="2" stroke-miterlimit="10"/>
<path d="M56.3614 35.4348C61.6481 35.4348 65.9338 31.1611 65.9338 25.8893C65.9338 20.6175 61.6481 16.3439 56.3614 16.3439C51.0747 16.3439 46.789 20.6175 46.789 25.8893C46.789 31.1611 51.0747 35.4348 56.3614 35.4348Z" fill="#AAB2C5"/>
</svg>
