<svg width="768" height="93" viewBox="0 0 768 93" fill="none" xmlns="http://www.w3.org/2000/svg">
<path d="M67.9251 18.5271L49.2931 91.0001H19.7011L0.24707 0.580078H18.3311L34.2231 75.3821H36.2781L55.4581 0.580078H82.3101L101.764 75.7931H103.682L119.711 0.580078H137.521L118.067 91.0001H88.3381L69.8431 18.5271H67.9251Z" fill="black"/>
<path d="M172.775 92.3701C146.197 92.3701 135.374 75.6561 135.374 56.2021C135.374 35.7891 147.293 19.8971 172.775 19.8971C197.983 19.8971 208.532 35.2411 208.532 54.9691C208.532 56.8871 208.532 58.5311 208.258 59.9011H152.636C153.458 74.5601 160.856 80.7251 173.186 80.7251C183.872 80.7251 189.489 75.9301 191.544 69.0801H208.395C206.34 80.9991 196.613 92.3701 172.775 92.3701ZM152.773 49.6261H191.818C191.133 37.7071 184.283 31.4051 173.049 31.4051C161.404 31.4051 154.417 37.5701 152.773 49.6261Z" fill="black"/>
<path d="M274.968 56.7501C274.968 42.5021 267.57 33.4601 254.144 33.4601C240.307 33.4601 233.183 41.5431 233.183 56.7501C233.183 71.5461 240.307 79.6291 254.144 79.6291C267.57 79.6291 274.968 70.7241 274.968 56.7501ZM215.647 56.6131C215.647 36.0631 226.196 20.3081 248.664 20.3081C259.761 20.3081 268.118 24.1441 273.187 31.2681H274.968V0.580078H292.504V91.0001H274.968V82.0951H273.187C268.118 88.9451 259.761 92.9181 248.664 92.9181C226.196 92.9181 215.647 77.0261 215.647 56.6131Z" fill="black"/>
<path d="M299.533 56.2021C299.533 36.4741 311.589 19.8971 338.03 19.8971C361.594 19.8971 373.376 32.6381 374.472 49.0781H357.347C355.977 38.2551 348.99 33.1861 338.304 33.1861C325.289 33.1861 317.206 39.6251 317.206 56.2021C317.206 72.5051 325.015 79.2181 337.756 79.2181C349.949 79.2181 356.388 73.0531 357.484 62.5041H374.609C373.787 78.9441 362.005 92.5071 338.03 92.5071C311.452 92.5071 299.533 75.9301 299.533 56.2021Z" fill="black"/>
<path d="M420.454 92.3701C393.054 92.3701 381.546 75.7931 381.546 56.4761C381.546 36.6111 393.054 19.8971 420.454 19.8971C447.717 19.8971 459.225 36.7481 459.225 56.4761C459.225 75.6561 447.717 92.3701 420.454 92.3701ZM399.219 56.4761C399.219 71.2721 406.617 79.0811 420.454 79.0811C434.291 79.0811 441.689 71.2721 441.689 56.4761C441.689 41.2691 434.291 33.1861 420.454 33.1861C406.617 33.1861 399.219 41.2691 399.219 56.4761Z" fill="black"/>
<path d="M485.414 31.2681C490.209 24.1441 498.155 19.7601 508.567 19.7601C526.24 19.7601 536.241 29.7611 536.241 48.2561V91.0001H518.842V51.1331C518.842 39.4881 512.54 33.5971 502.265 33.5971C491.168 33.5971 483.77 40.4471 483.77 54.5581V91.0001H466.234V21.5411H483.77V31.2681H485.414Z" fill="black"/>
<path d="M562.343 31.2681C567.138 24.1441 575.084 19.7601 585.496 19.7601C603.169 19.7601 613.17 29.7611 613.17 48.2561V91.0001H595.771V51.1331C595.771 39.4881 589.469 33.5971 579.194 33.5971C568.097 33.5971 560.699 40.4471 560.699 54.5581V91.0001H543.163V21.5411H560.699V31.2681H562.343Z" fill="black"/>
<path d="M656.958 92.3701C630.38 92.3701 619.557 75.6561 619.557 56.2021C619.557 35.7891 631.476 19.8971 656.958 19.8971C682.166 19.8971 692.715 35.2411 692.715 54.9691C692.715 56.8871 692.715 58.5311 692.441 59.9011H636.819C637.641 74.5601 645.039 80.7251 657.369 80.7251C668.055 80.7251 673.672 75.9301 675.727 69.0801H692.578C690.523 80.9991 680.796 92.3701 656.958 92.3701ZM636.956 49.6261H676.001C675.316 37.7071 668.466 31.4051 657.232 31.4051C645.587 31.4051 638.6 37.5701 636.956 49.6261Z" fill="black"/>
<path d="M718.652 55.7911L692.348 21.5411H712.213L729.475 45.3791L746.6 21.5411H766.328L740.572 55.9281L767.835 91.0001H747.696L729.885 66.6141L712.213 91.0001H692.348L718.652 55.7911Z" fill="black"/>
</svg>
