<svg width="924" height="98" viewBox="0 0 924 98" fill="none" xmlns="http://www.w3.org/2000/svg">
<path d="M122.013 1.10007H150.646L121.602 70.9701C112.834 92.0681 107.08 97.0001 84.7492 97.0001H59.1302V74.8061C53.1022 88.6431 45.1562 97.0001 25.9762 97.0001H0.220215V1.10007H25.9762V73.4361C31.7302 72.7511 34.8812 68.6411 39.6762 56.5851L62.2812 1.10007H84.8862V73.4361C90.7772 72.7511 94.6132 68.6411 99.5452 56.5851L122.013 1.10007Z" fill="white"/>
<path d="M188.483 22.8831C185.195 22.8831 184.51 23.9791 184.51 26.9931V38.0901H224.103V60.0101H184.51V71.1071C184.51 74.2581 185.195 75.2171 188.483 75.2171H230.953V97.0001H174.235C162.316 97.0001 158.48 91.3831 158.48 80.2861V17.9511C158.48 6.71707 162.316 1.10007 174.235 1.10007H230.953V22.8831H188.483Z" fill="white"/>
<path d="M283.965 1.10007C321.503 1.10007 328.627 18.4991 328.627 49.0501C328.627 79.6011 321.503 97.0001 283.965 97.0001H244.783V1.10007H283.965ZM285.335 75.2171C293.966 75.2171 302.597 71.5181 302.597 49.0501C302.597 26.5821 293.966 22.8831 285.335 22.8831H270.813V75.2171H285.335Z" fill="white"/>
<path d="M386.847 76.0391C394.108 76.0391 401.232 73.5731 403.424 60.0101H428.221C426.44 80.8341 418.631 97.8221 385.614 97.8221H383.696C346.295 97.8221 339.171 76.1761 339.171 49.0501C339.171 21.9241 346.295 0.278076 383.696 0.278076H385.614C418.631 0.278076 426.44 17.2661 428.221 38.0901H403.424C401.232 24.5271 394.108 22.0611 386.847 22.0611H382.463C373.832 22.0611 365.201 26.5821 365.201 49.0501C365.201 71.5181 373.832 76.0391 382.463 76.0391H386.847Z" fill="white"/>
<path d="M484.484 0.278076C521.885 0.278076 529.009 21.9241 529.009 49.0501C529.009 76.1761 521.885 97.8221 484.484 97.8221H482.566C445.165 97.8221 438.041 76.1761 438.041 49.0501C438.041 21.9241 445.165 0.278076 482.566 0.278076H484.484ZM485.717 76.0391C494.485 76.0391 502.979 71.5181 502.979 49.0501C502.979 26.5821 494.485 22.0611 485.717 22.0611H481.333C472.702 22.0611 464.071 26.5821 464.071 49.0501C464.071 71.5181 472.702 76.0391 481.333 76.0391H485.717Z" fill="white"/>
<path d="M603.84 1.10007H629.87V97.0001H611.512C599.456 97.0001 594.113 94.2601 588.633 83.1631L568.494 43.0221V97.0001H542.464V1.10007H560.411C573.974 1.10007 578.358 5.07308 583.427 15.3481L603.84 56.1741V1.10007Z" fill="white"/>
<path d="M707.393 1.10007H733.423V97.0001H715.065C703.009 97.0001 697.666 94.2601 692.186 83.1631L672.047 43.0221V97.0001H646.017V1.10007H663.964C677.527 1.10007 681.911 5.07308 686.98 15.3481L707.393 56.1741V1.10007Z" fill="white"/>
<path d="M779.162 22.8831C775.874 22.8831 775.189 23.9791 775.189 26.9931V38.0901H814.782V60.0101H775.189V71.1071C775.189 74.1211 775.874 75.2171 779.162 75.2171H821.632V97.0001H764.914C752.995 97.0001 749.159 91.3831 749.159 80.2861V17.9511C749.159 6.71707 752.995 1.10007 764.914 1.10007H821.632V22.8831H779.162Z" fill="white"/>
<path d="M923.416 1.10007L896.016 49.0501L923.416 97.0001H894.92L876.151 61.9281L857.382 97.0001H828.749L856.149 49.0501L828.749 1.10007H857.382L876.151 36.1721L894.92 1.10007H923.416Z" fill="white"/>
</svg>
