<svg width="25" height="45" viewBox="0 0 25 45" fill="none" xmlns="http://www.w3.org/2000/svg">
<path d="M25 40.5625C25 40.5625 24.7457 39.8637 24.4351 39.0649C24.2793 38.6661 24.1098 38.2439 23.942 37.8547C23.7735 37.4698 23.6052 37.135 23.4363 36.9253C23.3653 36.8321 23.2462 36.7078 23.0963 36.564C22.9467 36.4181 22.7646 36.2633 22.5732 36.0704C22.1863 35.7027 21.7522 35.2675 21.376 34.8334C21.1879 34.6146 21.0083 34.4126 20.8551 34.2051C20.7005 34.0018 20.5596 33.8306 20.451 33.6643C20.3425 33.5063 20.2532 33.3762 20.1909 33.2857C20.1294 33.1984 20.0977 33.1437 20.0977 33.1437C20.0977 33.1437 20.0964 33.2115 20.0939 33.3319C20.0931 33.4501 20.0934 33.6206 20.0983 33.8295C20.1032 34.0385 20.113 34.2862 20.1309 34.559C20.1478 34.8345 20.1766 35.1246 20.2159 35.4226C20.2548 35.7218 20.3036 36.0305 20.3612 36.3331C20.4186 36.6363 20.4896 36.9173 20.5628 37.1844C20.6364 37.4495 20.7148 37.6919 20.7918 37.8946C20.8697 38.0939 20.9471 38.2483 21.0148 38.3505C21.1751 38.5893 21.4815 38.8826 21.8732 39.1475C22.2609 39.4304 22.7339 39.6754 23.1944 39.9004C23.4621 40.0178 23.725 40.1286 23.965 40.221C23.8496 40.2124 23.7066 40.2019 23.5337 40.1891C23.331 40.1739 23.0891 40.161 22.8141 40.1211C22.5391 40.0829 22.226 40.058 21.8861 39.9899C21.7155 39.9597 21.5369 39.9282 21.3504 39.8952C21.1641 39.8612 20.9731 39.811 20.773 39.767C20.5409 39.7196 20.3015 39.655 20.0548 39.5853C20.0271 39.2851 19.984 38.8321 19.9321 38.3432C19.8853 37.9151 19.8384 37.4404 19.7757 37.0258C19.7131 36.6093 19.6373 36.2442 19.5336 35.9852C19.4447 35.7688 19.1964 35.3991 18.9223 34.9364C18.7805 34.7151 18.6384 34.4579 18.4949 34.2036C18.3478 33.9559 18.2158 33.6795 18.0861 33.4262C17.8311 32.9095 17.6266 32.4155 17.4928 32.0496C17.4588 31.9587 17.4263 31.8794 17.4013 31.8053C17.3772 31.7309 17.3561 31.6663 17.339 31.6133C17.3052 31.5089 17.2861 31.45 17.2861 31.45C17.2861 31.45 17.2088 31.7067 17.107 32.1182C17.0056 32.5287 16.8962 33.0797 16.8108 33.6886C16.7676 33.9932 16.7411 34.2952 16.7195 34.6012C16.6995 34.9045 16.6874 35.2078 16.6898 35.4835C16.6981 36.0285 16.7486 36.4917 16.8243 36.7287C16.8701 36.8667 16.951 37.02 17.056 37.1905C17.1627 37.3576 17.2893 37.5507 17.4436 37.7304C17.5969 37.9121 17.7683 38.1008 17.9488 38.2895C18.1319 38.4715 18.3275 38.6452 18.5201 38.8165C18.7113 38.992 18.9105 39.1349 19.0929 39.276C19.1079 39.2871 19.1221 39.2979 19.1368 39.3089C18.3462 39.0415 17.4961 38.6992 16.6213 38.2543C16.2758 38.0789 15.9266 37.8863 15.5762 37.6786C15.5831 37.6384 15.5903 37.5965 15.5981 37.5506C15.6463 37.2598 15.7123 36.8611 15.784 36.4287C15.8535 35.9969 15.9243 35.5367 15.9697 35.1217C16.0196 34.6989 16.046 34.3181 16.0067 34.0489C15.9897 33.9353 15.9444 33.7734 15.8901 33.5683C15.835 33.3644 15.7587 33.1332 15.6835 32.8759C15.6133 32.6125 15.5302 32.3396 15.4581 32.0542C15.4244 31.9115 15.3902 31.7668 15.356 31.6215C15.3221 31.4787 15.2877 31.3387 15.2633 31.1932C15.1491 30.6261 15.0794 30.0935 15.0413 29.7073C15.0261 29.5145 15.0135 29.3559 15.0048 29.2453C15.0006 29.1913 14.9972 29.149 14.995 29.1203C14.9923 29.0921 14.9927 29.0758 14.9927 29.0758C14.9927 29.0758 14.9585 29.1334 14.8979 29.2356C14.8385 29.3379 14.754 29.4858 14.6542 29.6696C14.4553 30.0362 14.191 30.5542 13.9656 31.1092C13.8501 31.3884 13.7384 31.6809 13.6374 31.9725C13.542 32.2589 13.4583 32.5431 13.3894 32.8106C13.3218 33.0768 13.2646 33.3306 13.2349 33.5403C13.2046 33.7503 13.1923 33.9258 13.2 34.0485C13.2089 34.1935 13.2435 34.3676 13.2983 34.5628C13.3588 34.7519 13.4412 34.9603 13.5386 35.1808C13.6332 35.4049 13.7542 35.627 13.8838 35.8517C14.0125 36.0775 14.1488 36.3071 14.2972 36.514C14.4439 36.7233 14.5863 36.9326 14.729 37.1124C14.7485 37.1365 14.7672 37.1597 14.7862 37.1832C14.3741 36.91 13.9627 36.6147 13.5561 36.2943C12.9342 35.8046 12.3235 35.259 11.738 34.6607C11.8639 34.3878 12.0601 33.9587 12.2678 33.4898C12.4395 33.0967 12.6328 32.6644 12.7868 32.272C12.9425 31.8773 13.0537 31.5264 13.0937 31.2487C13.1264 31.0144 13.0919 30.57 13.0855 30.029C13.083 29.8944 13.0748 29.7588 13.0752 29.6151C13.0764 29.4728 13.0778 29.3263 13.079 29.1775C13.0754 28.8878 13.0957 28.5836 13.1112 28.2976C13.1467 27.7218 13.2152 27.1918 13.2827 26.8085C13.298 26.7141 13.3121 26.628 13.3244 26.552C13.3407 26.4757 13.3547 26.4095 13.3663 26.3552C13.3895 26.248 13.4025 26.1876 13.4025 26.1876C13.4025 26.1876 13.2074 26.37 12.9137 26.6739C12.6258 26.9751 12.2531 27.3975 11.8767 27.8804C11.5126 28.3559 11.1536 28.8891 10.882 29.3706C10.618 29.8465 10.4311 30.2735 10.379 30.5169C10.3527 30.6578 10.3443 30.833 10.3509 31.0336C10.36 31.2324 10.3727 31.4642 10.4188 31.6968C10.4608 31.9321 10.5148 32.1826 10.5767 32.4375C10.6481 32.6854 10.7274 32.9377 10.8093 33.1833C10.889 33.4305 10.9902 33.6553 11.0765 33.8709C11.0974 33.9206 11.1179 33.9689 11.1379 34.0163C10.9794 33.8386 10.8223 33.6582 10.6688 33.4724C9.98434 32.6342 9.35607 31.7156 8.80443 30.7352C8.83696 30.6961 8.8721 30.6537 8.91108 30.6068C9.09699 30.3798 9.35164 30.0684 9.62805 29.7307C9.90292 29.3922 10.1932 29.0297 10.439 28.6935C10.6889 28.3548 10.9044 28.0375 11.004 27.7852C11.0818 27.5739 11.1921 27.1253 11.3068 26.6101C11.3734 26.355 11.4463 26.076 11.5215 25.7882C11.6104 25.5032 11.6921 25.2205 11.7831 24.9486C11.8845 24.6739 11.9719 24.4162 12.0676 24.1804C12.166 23.9498 12.2565 23.7378 12.3335 23.5577C12.5032 23.2117 12.6128 22.988 12.6128 22.988C12.6128 22.988 12.3797 23.1126 12.0211 23.3282C11.843 23.436 11.6291 23.5679 11.4056 23.718C11.1852 23.8675 10.948 24.0364 10.7072 24.2188C10.2182 24.5842 9.74678 25.0005 9.35893 25.3933C8.96392 25.7869 8.69217 26.1441 8.57835 26.3652C8.30505 26.8832 8.21991 28.0195 8.30037 29.0516C8.32369 29.3066 8.33935 29.5616 8.37701 29.7876C8.38813 29.8594 8.39926 29.9286 8.41026 29.9963C8.38622 29.949 8.36111 29.9025 8.33756 29.8548C8.2504 29.6933 8.17951 29.5236 8.10264 29.3562C8.02696 29.1884 7.95127 29.0204 7.87547 28.8521L7.67198 28.3362C7.60396 28.164 7.53354 27.9926 7.47759 27.8156C7.35911 27.4642 7.23321 27.1143 7.13876 26.7543C7.08855 26.5753 7.03499 26.3971 6.98752 26.2172L6.97748 26.174C7.02375 26.1416 7.07527 26.1056 7.1323 26.0659C7.37117 25.8958 7.69841 25.6626 8.05361 25.4095C8.22637 25.2828 8.40582 25.151 8.58492 25.0197C8.76151 24.8876 8.94312 24.7534 9.10763 24.6231C9.43952 24.3617 9.71964 24.1144 9.88116 23.8972C9.95326 23.8044 10.0423 23.6572 10.1428 23.4749C10.2438 23.2924 10.3498 23.0758 10.4866 22.8398C10.7414 22.3691 11.0534 21.8327 11.3732 21.3505C11.5369 21.1091 11.6841 20.8789 11.8446 20.676C12.0011 20.4726 12.1293 20.2897 12.2613 20.1417C12.3853 19.9955 12.4874 19.8751 12.5585 19.7913C12.6265 19.7089 12.6714 19.6643 12.6714 19.6643C12.6714 19.6643 12.606 19.6802 12.4897 19.7082C12.3762 19.7374 12.213 19.7808 12.0139 19.8385C11.6194 19.954 11.0643 20.1276 10.5171 20.3574C10.24 20.4714 9.95624 20.5976 9.68078 20.7306C9.40652 20.8636 9.15306 21.005 8.91562 21.1442C8.67985 21.2835 8.46705 21.4215 8.29189 21.548C8.12212 21.6743 7.99192 21.789 7.91122 21.8809C7.72279 22.0977 7.51358 22.4715 7.35349 22.921C7.1744 23.3715 7.05088 23.8957 6.94304 24.4039C6.88374 24.7594 6.83103 25.1062 6.79934 25.4053C6.74196 25.131 6.69927 24.8538 6.64679 24.5788C6.60937 24.3966 6.59346 24.2112 6.56739 24.0274L6.49626 23.4758C6.48168 23.2911 6.46721 23.1066 6.45274 22.9225C6.44043 22.7382 6.41795 22.5547 6.41712 22.3702C6.41186 22.186 6.40659 22.0021 6.40133 21.8186L6.39428 21.5435L6.39966 21.2818C6.67524 21.1819 7.14139 21.0109 7.64712 20.8176C8.04416 20.6636 8.48856 20.4981 8.86983 20.3317C9.25385 20.1651 9.58383 19.998 9.80584 19.8314C9.99032 19.6897 10.2832 19.3533 10.6564 18.9689C11.0195 18.5815 11.4641 18.1497 11.8913 17.7694C12.1049 17.5786 12.3277 17.4024 12.5185 17.2417C12.72 17.0882 12.9054 16.9472 13.0628 16.8274C13.2203 16.7115 13.3578 16.6208 13.4477 16.5572C13.5385 16.4943 13.5897 16.4588 13.5897 16.4588C13.5897 16.4588 13.3245 16.4529 12.9056 16.4638C12.4815 16.4735 11.922 16.5086 11.3222 16.5848C11.1723 16.6037 11.0195 16.6248 10.8671 16.6486C10.7182 16.6731 10.5689 16.7 10.4211 16.729C10.1254 16.7869 9.83609 16.8536 9.56924 16.9253C9.04486 17.0703 8.61924 17.2383 8.41085 17.3722C8.28532 17.4507 8.16205 17.5692 8.02504 17.7148C7.89149 17.8612 7.74181 18.0343 7.60539 18.2299C7.47029 18.4256 7.33304 18.6407 7.19818 18.8646C7.06918 19.0894 6.95273 19.3246 6.83711 19.5562C6.71732 19.7872 6.63112 20.0181 6.54133 20.2319C6.5008 20.3326 6.46159 20.4293 6.42573 20.5216C6.48646 19.3177 6.65311 18.1387 6.92618 17.0186C6.97723 16.8098 7.03259 16.604 7.08986 16.3995C7.1537 16.3941 7.22687 16.3879 7.3102 16.3808C7.60169 16.3543 8.00113 16.3181 8.43453 16.2789C8.8672 16.2376 9.31638 16.187 9.73591 16.1282C10.1536 16.0683 10.5222 15.9947 10.769 15.8856C10.875 15.8398 11.0275 15.7557 11.2049 15.6453C11.294 15.5903 11.3899 15.5288 11.4908 15.4628C11.5913 15.3966 11.7068 15.3285 11.8207 15.2558C11.9341 15.1841 12.0528 15.1089 12.1751 15.0315C12.2963 14.9549 12.4289 14.8794 12.5565 14.802C12.6863 14.7254 12.8125 14.6471 12.9445 14.5719C13.0769 14.4982 13.2098 14.4244 13.3413 14.3512C13.8621 14.0626 14.3703 13.8139 14.7457 13.6386C14.9286 13.5492 15.0903 13.4816 15.198 13.4334C15.3062 13.3855 15.3672 13.3586 15.3672 13.3586C15.3672 13.3586 15.1027 13.3018 14.6832 13.229C14.2602 13.1547 13.7025 13.0755 13.0891 13.0195C12.7825 12.991 12.4782 12.9741 12.1715 12.9634C11.8681 12.9539 11.563 12.9504 11.2913 12.9614C10.7472 12.9827 10.282 13.0392 10.0523 13.1221C9.91715 13.1714 9.7616 13.2536 9.59183 13.3615C9.50695 13.4155 9.41847 13.4757 9.32725 13.5415C9.2389 13.6085 9.14995 13.6818 9.05813 13.7591C8.68559 14.0657 8.31186 14.4563 7.97315 14.8455C7.81032 15.0424 7.65429 15.2379 7.51178 15.4206C7.4312 15.5281 7.35863 15.6312 7.29132 15.7285C7.56929 14.8564 7.89843 14.0261 8.26355 13.2492C8.4931 12.7603 8.73652 12.2933 8.98794 11.8461C9.05621 11.8574 9.13633 11.8705 9.2291 11.8857C9.51795 11.9293 9.9138 11.9891 10.3434 12.0539C10.7732 12.115 11.2328 12.1745 11.6488 12.2069C12.0716 12.242 12.4531 12.2505 12.7242 12.195C12.8373 12.1708 13.0048 12.1171 13.2094 12.044C13.4158 11.9717 13.6442 11.8737 13.9121 11.7746C14.1784 11.6746 14.4533 11.56 14.7526 11.4528C14.8987 11.3985 15.047 11.3434 15.1957 11.2881C15.3436 11.2336 15.4974 11.1823 15.6445 11.1303C15.7934 11.0792 15.9359 11.0273 16.0801 10.9799C16.2239 10.9333 16.3642 10.8877 16.499 10.844C16.7635 10.7556 17.016 10.6821 17.2253 10.6186C17.4341 10.5548 17.606 10.5041 17.7292 10.4708C17.8504 10.4368 17.9188 10.4174 17.9188 10.4174C17.9188 10.4174 17.6599 10.3226 17.2492 10.187C16.8425 10.0532 16.2866 9.88336 15.6858 9.7281C15.0962 9.5784 14.4517 9.43811 13.9066 9.36024C13.36 9.28068 12.8891 9.24676 12.6481 9.286C12.0671 9.36652 11.0617 9.92633 10.2329 10.5436C9.87949 10.8014 9.56158 11.0672 9.31159 11.2886C9.55214 10.8881 9.79807 10.5055 10.0458 10.1427C10.6316 9.28466 11.2253 8.53386 11.7814 7.88194C11.9766 7.99578 12.3119 8.18556 12.6876 8.37317C12.9839 8.52118 13.3036 8.66739 13.6014 8.77411C13.9013 8.88204 14.1779 8.94941 14.386 8.93323C14.733 8.89882 15.7599 8.48244 16.706 8.13462C17.1768 7.95679 17.6366 7.7973 17.9705 7.67766C18.3078 7.5614 18.5263 7.48595 18.5263 7.48595C18.5263 7.48595 17.793 7.07753 16.9466 6.69036C16.1077 6.30463 15.1472 5.94606 14.7819 5.96309C14.565 5.97033 14.2513 6.07476 13.9105 6.23991C13.5644 6.39988 13.1947 6.62395 12.8486 6.84706C12.7116 6.93833 12.5793 7.02983 12.455 7.11821C12.5512 7.01281 12.6459 6.90911 12.7371 6.80927C13.0085 6.52991 13.2506 6.26612 13.4833 6.04205C13.4987 6.02648 13.5133 6.01211 13.5286 5.99689C13.5813 5.97866 13.6382 5.9591 13.7013 5.93737C14.0011 5.82751 14.4195 5.68819 14.8572 5.52605C15.7413 5.20685 16.7363 4.84539 17.1929 4.47801C17.2892 4.39954 17.4185 4.27134 17.5682 4.1028C17.7172 3.93318 17.8913 3.72842 18.0815 3.50133C18.4609 3.041 18.9082 2.49845 19.3361 1.9792C19.5543 1.71927 19.7676 1.46539 19.9647 1.23057C20.165 0.996605 20.349 0.781591 20.5052 0.599172C20.8217 0.235058 21.026 0 21.026 0C21.026 0 20.7268 0.0846256 20.2631 0.215856C20.0319 0.286965 19.7597 0.370628 19.4632 0.461777C19.1682 0.558359 18.8479 0.664237 18.5217 0.779291C17.871 1.01205 17.1908 1.27512 16.6267 1.53456C16.3431 1.66181 16.0877 1.78628 15.8788 1.90218C15.6692 2.01699 15.5021 2.11732 15.3988 2.20146C14.9072 2.59648 14.3116 3.56967 13.8893 4.44881C13.6801 4.8926 13.5028 5.30247 13.3881 5.61093C13.3636 5.67467 13.342 5.73213 13.322 5.78525C13.3085 5.79853 13.2957 5.81098 13.2821 5.8245C13.0467 6.04809 12.801 6.31127 12.5261 6.59051C12.4286 6.69277 12.3292 6.80118 12.228 6.91128C12.3078 6.77739 12.3917 6.63542 12.477 6.48813C12.9012 5.76666 13.3759 4.94668 13.4414 4.50108C13.4896 4.12006 13.2655 3.10523 13.0565 2.15933C12.8426 1.21717 12.648 0.36037 12.648 0.36037C12.648 0.36037 12.4955 0.601823 12.2604 0.974147C12.0315 1.35239 11.7264 1.85919 11.4362 2.40549C10.8481 3.49264 10.3215 4.69907 10.2933 5.09965C10.2721 5.33362 10.3449 5.62349 10.4681 5.92446C10.5926 6.22725 10.7686 6.54258 10.9471 6.82592C11.1743 7.18642 11.4057 7.49693 11.5447 7.67573C10.9826 8.32525 10.381 9.07291 9.78707 9.93019C9.52979 10.3006 9.27369 10.6921 9.02274 11.1023C9.10595 10.7732 9.21296 10.3637 9.33563 9.92705C9.61647 8.88759 9.98841 7.69637 10.0099 7.06147C10.0132 6.78887 9.93998 6.30886 9.83238 5.71826C9.72465 5.1273 9.5984 4.43576 9.47801 3.77551C9.36323 3.11621 9.25827 2.47721 9.1851 2.00444C9.11468 1.53348 9.06925 1.23009 9.06925 1.23009C9.06925 1.23009 9.028 1.31846 8.95495 1.47517C8.88166 1.63006 8.77992 1.85799 8.66096 2.13638C8.54176 2.41418 8.40224 2.73616 8.26307 3.09823C8.19385 3.27714 8.12199 3.46342 8.04823 3.65417C7.97613 3.84504 7.90728 4.04606 7.83746 4.24514C7.76859 4.44579 7.69817 4.64438 7.63385 4.84817C7.5718 5.05172 7.50999 5.25479 7.44901 5.45471C7.3279 5.84925 7.23238 6.24704 7.14738 6.59993C7.06094 6.95161 7.00617 7.28457 6.96325 7.5515C6.92141 7.81999 6.90192 8.03477 6.90861 8.17783C6.92152 8.51309 7.03906 8.91754 7.21468 9.32934C7.39545 9.74609 7.63301 10.1684 7.8714 10.5423C8.10777 10.9152 8.35167 11.2448 8.53495 11.4796C8.59258 11.5535 8.64302 11.6168 8.68654 11.6705C8.43344 12.1127 8.18788 12.5749 7.95582 13.059C7.57132 13.859 7.2234 14.717 6.92929 15.6204C6.93001 15.4959 6.93073 15.3617 6.93408 15.2188C6.94245 14.9797 6.95153 14.7194 6.96086 14.45C6.98919 13.9035 7.01932 13.3202 7.04634 12.7976C7.05196 12.6654 7.05495 12.5357 7.05746 12.4116C7.0626 12.2891 7.06548 12.1713 7.06524 12.0596C7.065 11.8364 7.05293 11.6381 7.02471 11.4788C6.97796 11.21 6.81417 10.749 6.59825 10.1803C6.49304 9.8976 6.37897 9.59082 6.26169 9.27573C6.14584 8.96002 6.02149 8.62707 5.91126 8.30811C5.6896 7.6703 5.47788 7.03792 5.33728 6.58C5.19572 6.11605 5.1045 5.81725 5.1045 5.81725C5.1045 5.81725 5.07628 5.91564 5.02607 6.08997C4.97717 6.26491 4.90412 6.51034 4.83011 6.82025C4.6754 7.43186 4.4889 8.26187 4.35535 9.13376C4.32391 9.35059 4.29198 9.56983 4.2603 9.78846C4.23209 10.0072 4.21165 10.229 4.19037 10.4432C4.17088 10.6588 4.14947 10.8664 4.13847 11.0723C4.12807 11.2786 4.12018 11.4773 4.1148 11.6656C4.11049 11.8547 4.10417 12.0307 4.10871 12.1992C4.11289 12.3674 4.11935 12.5227 4.12796 12.6626C4.14553 12.9428 4.16933 13.1604 4.2046 13.2998C4.29127 13.6316 4.49703 14.0062 4.76066 14.3706C5.02225 14.7348 5.36011 15.0962 5.67753 15.4037C5.99866 15.713 6.3045 15.9716 6.53967 16.1555C6.60829 16.2092 6.66879 16.2556 6.72151 16.2954C6.66628 16.4877 6.61295 16.6815 6.56309 16.8776C6.26408 18.042 6.08212 19.2728 6.01218 20.5304C5.98672 20.4235 5.96076 20.3093 5.93159 20.1884C5.87946 19.9573 5.80737 19.7024 5.75799 19.4382C5.70084 19.1712 5.64167 18.8951 5.58321 18.6218C5.53192 18.3477 5.4768 18.0736 5.41834 17.813C5.36119 17.5526 5.31588 17.3086 5.25694 17.0898C5.20158 16.872 5.13487 16.6796 5.07581 16.5327C4.97179 16.2835 4.69166 15.8694 4.35188 15.3641C4.1845 15.1107 4.00301 14.8357 3.81638 14.5533C3.72253 14.4093 3.62748 14.2633 3.53244 14.1174C3.4411 13.9706 3.34964 13.8238 3.25938 13.6787C2.89807 13.0939 2.55889 12.5141 2.32682 12.0866C2.09142 11.6518 1.93983 11.3717 1.93983 11.3717C1.93983 11.3717 1.93229 11.4787 1.9189 11.6683C1.90754 11.8582 1.88602 12.1262 1.87538 12.4548C1.86808 12.7854 1.86008 13.1697 1.86259 13.5839C1.87658 14.0037 1.88662 14.4471 1.92309 14.8996C1.99506 15.8054 2.12585 16.7237 2.30053 17.471C2.46456 18.2181 2.66696 18.794 2.80278 19.0466C2.95964 19.3453 3.2614 19.6549 3.61349 19.939C3.96822 20.2237 4.36397 20.4826 4.75994 20.6966C5.25538 20.9675 5.71328 21.1667 5.98372 21.2768C5.95754 22.6768 6.07793 24.1043 6.36738 25.5025C6.21985 25.2324 6.05557 24.912 5.87062 24.5708C5.37804 23.6115 4.86431 22.453 4.47503 21.9434C4.39002 21.8367 4.25134 21.702 4.07762 21.5442C3.90929 21.3864 3.704 21.2054 3.47625 21.0066C3.25017 20.8077 2.99455 20.5912 2.7436 20.3643C2.49384 20.1375 2.23608 19.9004 1.98418 19.6635C1.47271 19.1904 1.02103 18.7174 0.676464 18.3576C0.505975 18.176 0.365847 18.0267 0.268288 17.9228C0.173719 17.8178 0.120404 17.7586 0.120404 17.7586C0.120404 17.7586 0.134385 17.8657 0.1736 18.0553C0.211021 18.2446 0.265668 18.5151 0.335131 18.8387C0.398496 19.162 0.505967 19.5389 0.613927 19.9408C0.717702 20.3431 0.864161 20.7688 1.0093 21.1947C1.30688 22.0474 1.67489 22.8967 2.03141 23.5718C2.2001 23.9104 2.38207 24.2053 2.5345 24.4421C2.68766 24.6789 2.81773 24.8574 2.91469 24.9619C3.15284 25.2077 3.51976 25.4297 3.92913 25.6134C4.13524 25.7052 4.34795 25.7885 4.57068 25.8602C4.79365 25.9319 5.01781 25.994 5.23373 26.0466C5.66557 26.1521 6.06395 26.22 6.35411 26.2613C6.42393 26.2712 6.48729 26.2796 6.54372 26.2867C6.86174 27.5708 7.30494 28.8245 7.87308 30.0017C7.90871 30.0755 7.94648 30.1478 7.98295 30.221C7.7797 30.0096 7.54836 29.7633 7.30912 29.497C7.21695 29.397 7.12321 29.2954 7.02888 29.1932L6.75474 28.8785C6.57182 28.6682 6.37622 28.4637 6.20813 28.2635C6.03477 28.0653 5.86464 27.8803 5.70431 27.7212C5.54494 27.5618 5.40734 27.4243 5.27702 27.329C5.06325 27.1659 4.60212 26.9529 4.07021 26.6834C3.53172 26.417 2.88253 26.1015 2.28606 25.7712C1.98418 25.6074 1.6878 25.4422 1.41317 25.2854C1.14166 25.1282 0.899196 24.9786 0.689015 24.8496C0.270804 24.5911 0 24.416 0 24.416C0 24.416 0.182572 24.814 0.477878 25.4032C0.636052 25.6964 0.823636 26.0364 1.02963 26.3975C1.24041 26.7578 1.48837 27.1356 1.73394 27.5123C1.98991 27.8868 2.26694 28.2553 2.53008 28.6032C2.80889 28.9465 3.0835 29.2669 3.33553 29.5496C3.86553 30.1059 4.30323 30.5118 4.55765 30.6563C4.85128 30.8307 5.25346 30.9524 5.69893 31.02C6.1487 31.086 6.63148 31.103 7.0724 31.0918C7.29323 31.0861 7.50233 31.0744 7.69506 31.058C7.88934 31.0407 8.06426 31.0204 8.21107 31.0013C8.27288 30.9932 8.32848 30.9853 8.37965 30.978C8.92567 31.9631 9.54796 32.8885 10.2261 33.7367C10.3969 33.9504 10.5728 34.1572 10.7508 34.3605C10.7072 34.3334 10.6628 34.3058 10.6173 34.2775C10.4189 34.1515 10.1894 34.0229 9.96724 33.874C9.74319 33.7265 9.50766 33.5743 9.26986 33.4249C9.04163 33.2683 8.81101 33.1143 8.58731 32.9725C8.35944 32.8334 8.15966 32.6917 7.96443 32.5801C7.7717 32.4669 7.59451 32.3762 7.44279 32.3196C7.19376 32.2189 6.7111 32.1253 6.11296 32.0149C5.52378 31.9009 4.8276 31.7618 4.15318 31.6077C3.49203 31.4487 2.84546 31.2783 2.37237 31.1398C1.90503 30.9991 1.60027 30.9004 1.60027 30.9004C1.60027 30.9004 1.6695 30.9836 1.79204 31.131C1.85362 31.2037 1.92871 31.2922 2.01515 31.3942C2.10577 31.4929 2.20822 31.6046 2.32072 31.7272C2.76512 32.2161 3.39184 32.8434 4.07834 33.4299C4.42386 33.7224 4.77105 34.0133 5.1302 34.2695C5.3069 34.3995 5.4805 34.5246 5.64896 34.6432C5.81825 34.7613 5.99113 34.8669 6.15134 34.9684C6.7893 35.3771 7.34034 35.6342 7.61078 35.7164C7.92987 35.8147 8.36411 35.8134 8.80934 35.7632C9.2572 35.7116 9.72095 35.6071 10.1503 35.4744C10.6558 35.321 11.0926 35.1468 11.3658 35.0298C11.9435 35.628 12.5469 36.176 13.1606 36.6713C13.6024 37.0272 14.0502 37.3538 14.4994 37.6554C14.4632 37.6452 14.4273 37.6352 14.3899 37.6248C14.162 37.561 13.9202 37.4782 13.6612 37.401C13.4004 37.3263 13.139 37.2341 12.8747 37.1469C12.6098 37.0608 12.3431 36.9782 12.0969 36.892C11.848 36.8093 11.6082 36.7369 11.3903 36.681C11.1781 36.6189 10.9862 36.5752 10.827 36.5582C10.6922 36.5438 10.5011 36.5472 10.2672 36.5611C10.0329 36.5755 9.76508 36.5907 9.46391 36.6145C9.16095 36.6373 8.83228 36.6619 8.49465 36.6873C8.15978 36.7061 7.81199 36.7235 7.46838 36.7368C6.7765 36.7685 6.123 36.7635 5.63019 36.7555C5.38294 36.7498 5.17969 36.7452 5.03825 36.742C4.89658 36.737 4.81684 36.7342 4.81684 36.7342C4.81684 36.7342 4.90519 36.7968 5.06432 36.9031C5.22321 37.0096 5.4511 37.1609 5.72655 37.339C6.28405 37.69 7.04754 38.1311 7.85981 38.5174C8.05888 38.6181 8.26822 38.7084 8.47529 38.7966C8.68212 38.8852 8.88752 38.9711 9.08873 39.0529C9.49511 39.2125 9.89611 39.344 10.2536 39.4605C10.6162 39.571 10.9496 39.6502 11.2212 39.7101C11.492 39.7711 11.7131 39.7977 11.8573 39.7981C12.1975 39.8002 12.6077 39.6985 13.0243 39.5343C13.4465 39.3631 13.8727 39.1331 14.2488 38.8997C14.437 38.7831 14.6129 38.6659 14.7706 38.5555C14.9292 38.4437 15.0713 38.3364 15.1885 38.2457C15.2272 38.2157 15.2623 38.1882 15.2957 38.1617C15.6315 38.3639 15.9664 38.553 16.2981 38.7261C17.2134 39.2032 18.1035 39.5751 18.9332 39.8606C18.9215 39.8605 18.9105 39.8601 18.8986 39.86C18.6638 39.8531 18.4014 39.8587 18.1359 39.8402C17.8654 39.8287 17.5858 39.8169 17.3092 39.8052C17.0337 39.7857 16.7575 39.7701 16.493 39.7611C16.2277 39.7542 15.984 39.7337 15.7594 39.7364C15.5366 39.7356 15.3369 39.7493 15.179 39.7743C14.9136 39.8132 14.4491 39.9773 13.8763 40.185C13.3121 40.3813 12.6373 40.6191 11.9801 40.8239C11.3297 41.0214 10.6837 41.2055 10.209 41.3225C9.73494 41.4387 9.42254 41.5088 9.42254 41.5088C9.42254 41.5088 9.52356 41.5452 9.70278 41.6099C9.79197 41.6414 9.90064 41.6797 10.0259 41.7239C10.1515 41.7666 10.2973 41.809 10.4544 41.8573C11.0813 42.0536 11.9337 42.2785 12.8186 42.4391C13.2639 42.5153 13.7071 42.594 14.146 42.6331C14.5813 42.679 14.9951 42.7167 15.3778 42.7211C16.1344 42.7505 16.7384 42.6972 17.0145 42.6286C17.3403 42.5508 17.7137 42.3352 18.0754 42.0623C18.4381 41.7879 18.7865 41.4652 19.0911 41.1338C19.4374 40.7593 19.7199 40.3998 19.8994 40.1589C19.9128 40.1629 19.9268 40.1668 19.9402 40.1708C20.0499 40.2017 20.1569 40.2356 20.2636 40.2625C20.3709 40.2879 20.4762 40.3129 20.5797 40.3374C20.7869 40.3858 20.9865 40.4325 21.1782 40.4773C21.3719 40.5129 21.5577 40.5471 21.7351 40.5797C22.089 40.652 22.4146 40.6859 22.7025 40.7254C22.8467 40.743 22.9812 40.7651 23.1073 40.7753C23.2334 40.7855 23.3501 40.7948 23.457 40.8034C23.6425 40.8181 23.7964 40.8303 23.9209 40.8402C23.6673 40.9005 23.3842 40.9644 23.0849 41.0373C22.0424 41.2694 20.805 41.4731 20.2178 41.7256C20.0942 41.7816 19.9298 41.885 19.7351 42.0134C19.5411 42.1385 19.3155 42.2936 19.067 42.4663C18.8191 42.6368 18.5455 42.8336 18.2649 43.0198C17.9841 43.2067 17.6914 43.3988 17.4002 43.5852C16.8161 43.9656 16.2495 44.2862 15.8172 44.5325C15.5999 44.6531 15.4214 44.7524 15.2972 44.8213C15.1726 44.8875 15.1025 44.9246 15.1025 44.9246C15.1025 44.9246 15.2086 44.9375 15.4004 44.9473C15.5913 44.9587 15.8646 44.9738 16.1925 44.9877C16.5181 45.0073 16.9081 44.9986 17.3218 44.9943C17.7342 44.9943 18.1823 44.9607 18.6299 44.9252C19.5269 44.8518 20.4371 44.7009 21.1739 44.5218C21.5416 44.4418 21.8698 44.3343 22.1346 44.2457C22.3997 44.1549 22.6032 44.0727 22.7275 44.0035C23.0223 43.8294 23.3255 43.5308 23.6031 43.1801C23.8811 42.8339 24.1339 42.4187 24.3423 42.028C24.7586 41.2486 25 40.5625 25 40.5625Z" fill="#F6C82F"/>
</svg>
