<svg width="25" height="45" viewBox="0 0 25 45" fill="none" xmlns="http://www.w3.org/2000/svg">
<path d="M24.3113 24.8492C24.1012 24.9782 23.8588 25.1279 23.5873 25.285C23.3126 25.4419 23.0164 25.607 22.7144 25.7708C22.1178 26.101 21.4688 26.4165 20.9303 26.683C20.3986 26.9524 19.9373 27.1653 19.7236 27.3285C19.5933 27.4239 19.4557 27.5613 19.2963 27.7208C19.1359 27.8799 18.9657 28.0648 18.7925 28.2631C18.6243 28.4632 18.4287 28.6679 18.2458 28.878L17.9717 29.1928C17.8775 29.295 17.7836 29.3966 17.6914 29.4965C17.4513 29.7638 17.2192 30.0108 17.0155 30.2228C17.0412 30.1714 17.068 30.1208 17.0932 30.069C17.1813 29.9026 17.253 29.728 17.3306 29.5559C17.4069 29.3833 17.4834 29.2103 17.5599 29.0372C17.6282 28.8605 17.6966 28.6837 17.7651 28.5066C17.8336 28.3296 17.9044 28.1532 17.9605 27.9714C18.0796 27.6102 18.2059 27.2507 18.3003 26.8811C18.3505 26.6973 18.404 26.5144 18.4513 26.3298L18.4612 26.2858C18.5166 26.2788 18.5783 26.2708 18.6464 26.261C18.9366 26.2197 19.3349 26.152 19.7667 26.0463C19.9827 25.9937 20.2068 25.9316 20.4298 25.8599C20.6525 25.7882 20.8652 25.7049 21.0713 25.6132C21.4808 25.4295 21.8475 25.2075 22.0857 24.9616C22.1826 24.8572 22.3127 24.6788 22.4659 24.4419C22.6183 24.205 22.8002 23.9102 22.9689 23.5716C23.3254 22.8965 23.6935 22.0473 23.991 21.1945C24.1361 20.7686 24.2826 20.3431 24.3863 19.9407C24.4943 19.5389 24.6018 19.1619 24.6651 18.8386C24.7346 18.515 24.7892 18.2445 24.8267 18.0552C24.8659 17.8657 24.8799 17.7586 24.8799 17.7586C24.8799 17.7586 24.8265 17.8177 24.732 17.9228C24.6344 18.0266 24.4943 18.1759 24.3238 18.3575C23.9791 18.7171 23.5276 19.1903 23.0162 19.6634C22.7643 19.9002 22.5065 20.1373 22.2568 20.3642C22.0058 20.591 21.7502 20.8076 21.5241 21.0064C21.2964 21.2053 21.0911 21.3864 20.9228 21.544C20.749 21.7018 20.6103 21.8365 20.5253 21.9433C20.136 22.4528 19.6223 23.6114 19.1298 24.5706C18.9476 24.9068 18.7853 25.2227 18.6396 25.4903C18.6958 25.211 18.7374 24.9289 18.7887 24.6491C18.8255 24.4623 18.8407 24.2724 18.866 24.0842C18.889 23.8956 18.9118 23.7073 18.9348 23.5192C18.9484 23.3301 18.9619 23.1413 18.9755 22.9528C18.9869 22.7641 19.0083 22.5762 19.0079 22.3876C19.012 22.1993 19.0161 22.0112 19.0201 21.8235L19.0253 21.5422L19.0181 21.2759C19.2886 21.1657 19.7459 20.9666 20.2406 20.6962C20.6366 20.4823 21.0323 20.2233 21.3869 19.9386C21.739 19.6546 22.0407 19.3449 22.1976 19.0462C22.3334 18.7937 22.5359 18.2178 22.6999 17.4707C22.8746 16.7234 23.0054 15.8051 23.0774 14.8993C23.1138 14.4469 23.1239 14.0034 23.1379 13.5837C23.1404 13.1695 23.1324 12.7853 23.1251 12.4547C23.1144 12.1261 23.0929 11.8582 23.0816 11.6682C23.0682 11.4785 23.0605 11.3715 23.0605 11.3715C23.0605 11.3715 22.9089 11.6516 22.6735 12.0865C22.4415 12.5141 22.1023 13.0937 21.741 13.6785C21.6506 13.8236 21.5593 13.9704 21.468 14.1172C21.3729 14.2632 21.2779 14.4091 21.184 14.5531C20.9975 14.8356 20.8159 15.1105 20.6486 15.3639C20.3089 15.8691 20.0288 16.2832 19.9248 16.5324C19.8657 16.6792 19.799 16.8716 19.7437 17.0895C19.6847 17.3083 19.6395 17.5523 19.5823 17.8127C19.5238 18.0733 19.4687 18.3474 19.4174 18.6215C19.3589 18.8946 19.2998 19.1707 19.2426 19.4379C19.1932 19.702 19.1212 19.957 19.069 20.188C19.0399 20.3093 19.0138 20.4238 18.9882 20.531C18.9189 19.29 18.7392 18.0752 18.45 16.9238C18.3965 16.7118 18.3388 16.5028 18.2791 16.2952C18.332 16.2553 18.3925 16.2091 18.4611 16.1552C18.6963 15.9714 19.0021 15.7128 19.3232 15.4035C19.6407 15.096 19.9786 14.7345 20.24 14.3703C20.5037 14.006 20.7094 13.6314 20.7961 13.2996C20.8313 13.1601 20.8551 12.9425 20.8727 12.6624C20.8813 12.5225 20.8878 12.3673 20.892 12.199C20.8965 12.0306 20.8902 11.8546 20.8859 11.6655C20.8805 11.477 20.8726 11.2785 20.8622 11.0721C20.8512 10.8663 20.8298 10.6587 20.8103 10.443C20.7891 10.2289 20.7686 10.0071 20.7404 9.78834C20.7086 9.56971 20.6768 9.3506 20.6453 9.13366C20.5118 8.26178 20.3253 7.43181 20.1706 6.82022C20.0966 6.51032 20.0235 6.26487 19.9746 6.08994C19.9245 5.91562 19.8962 5.81724 19.8962 5.81724C19.8962 5.81724 19.805 6.11603 19.6633 6.57998C19.5228 7.03788 19.311 7.67036 19.0894 8.30802C18.9791 8.6271 18.8548 8.95994 18.7389 9.27563C18.6218 9.59072 18.5076 9.89749 18.4024 10.1802C18.1866 10.7488 18.0226 11.2099 17.976 11.4786C17.9478 11.638 17.9358 11.8362 17.9354 12.0594C17.9353 12.1711 17.9381 12.2889 17.9433 12.4115C17.9458 12.5354 17.9488 12.6652 17.9544 12.7974C17.9815 13.32 18.0117 13.9032 18.0399 14.4498C18.0494 14.7192 18.0585 14.9795 18.0668 15.2185C18.0702 15.3614 18.0709 15.4954 18.0716 15.6198C17.7813 14.729 17.4388 13.8824 17.0605 13.092C16.8235 12.5962 16.5727 12.1232 16.3139 11.6708C16.3576 11.617 16.4083 11.5535 16.466 11.4793C16.6493 11.2445 16.8933 10.915 17.1295 10.542C17.3679 10.1681 17.6054 9.74585 17.7862 9.32911C17.9619 8.91732 18.0794 8.5129 18.0923 8.17765C18.0991 8.03459 18.0795 7.81982 18.0377 7.55133C17.9947 7.28441 17.94 6.95144 17.8535 6.59977C17.7685 6.24689 17.673 5.84911 17.5519 5.45458C17.4909 5.25466 17.4291 5.05159 17.3671 4.84805C17.3029 4.64427 17.2325 4.4458 17.1636 4.24503C17.0937 4.04596 17.0248 3.84495 16.9528 3.65408C16.8791 3.46322 16.8071 3.27706 16.738 3.09815C16.5988 2.7361 16.4593 2.41413 16.3401 2.13635C16.2212 1.85796 16.1194 1.63002 16.0462 1.47513C15.9731 1.31843 15.9319 1.23006 15.9319 1.23006C15.9319 1.23006 15.8864 1.53345 15.816 2.00439C15.7429 2.47715 15.6378 3.11614 15.5231 3.77541C15.4027 4.43566 15.2765 5.12717 15.1688 5.71812C15.0612 6.3087 14.9881 6.7887 14.9912 7.0613C15.0127 7.69607 15.3847 8.88739 15.6655 9.92683C15.7882 10.3636 15.8952 10.7731 15.9784 11.1022C15.7324 10.6995 15.4814 10.315 15.2288 9.95073C14.629 9.0855 14.0231 8.33036 13.4564 7.67555C13.5952 7.49675 13.8268 7.18626 14.0539 6.82577C14.2323 6.54243 14.4084 6.22722 14.533 5.92432C14.6561 5.62335 14.7289 5.33349 14.7078 5.09952C14.6796 4.69896 14.1529 3.49245 13.5648 2.40544C13.2747 1.85916 12.9696 1.35235 12.7408 0.974123C12.5056 0.601808 12.3532 0.360361 12.3532 0.360361C12.3532 0.360361 12.1587 1.21714 11.9447 2.15928C11.7357 3.10516 11.5115 4.11996 11.5597 4.50097C11.6254 4.94656 12.1 5.76652 12.5242 6.48797C12.6099 6.63598 12.6943 6.77881 12.7745 6.91329C12.6749 6.80585 12.577 6.70009 12.4828 6.59844C12.2069 6.31836 11.9606 6.05397 11.7244 5.82954C11.7089 5.81421 11.6943 5.8001 11.6792 5.78513C11.6592 5.73201 11.6376 5.67453 11.6131 5.61079C11.4984 5.30234 11.3211 4.89248 11.1119 4.4487C10.6895 3.56958 10.0939 2.59642 9.60231 2.20141C9.49902 2.11739 9.33212 2.01706 9.12242 1.90213C8.91345 1.78624 8.65808 1.66177 8.37451 1.53452C7.81034 1.27496 7.1302 1.01203 6.47948 0.779272C6.15322 0.664221 5.83294 0.558345 5.53801 0.461766C5.24164 0.370619 4.96931 0.286958 4.73809 0.215851C4.27447 0.0846236 3.97522 0 3.97522 0C3.97522 0 4.17943 0.234932 4.49588 0.599158C4.65214 0.781693 4.83601 0.996581 5.03638 1.23054C5.23352 1.46535 5.44667 1.71936 5.66486 1.97928C6.09285 2.49852 6.53998 3.04094 6.91944 3.50138C7.10964 3.72846 7.28371 3.93321 7.43267 4.10282C7.58235 4.27148 7.71171 4.39969 7.80795 4.47804C8.26452 4.84528 9.25955 5.20686 10.1435 5.52605C10.5812 5.68819 10.9996 5.8275 11.2995 5.93736C11.3625 5.95909 11.4193 5.97864 11.472 5.99687C11.4856 6.01051 11.4985 6.02319 11.5121 6.03695C11.744 6.26029 11.9854 6.52287 12.2559 6.80138C12.3513 6.90291 12.4485 7.01036 12.5473 7.11949C12.4225 7.03076 12.2896 6.93889 12.1521 6.84726C11.8059 6.62416 11.4363 6.40009 11.0902 6.24013C10.7494 6.07486 10.4357 5.97043 10.2188 5.96331C9.85349 5.94629 8.89312 6.30485 8.05422 6.69056C7.20791 7.07773 6.47458 7.48613 6.47458 7.48613C6.47458 7.48613 6.69324 7.56159 7.0305 7.67784C7.3644 7.7976 7.82432 7.95695 8.295 8.13478C9.24102 8.48258 10.2679 8.89898 10.6149 8.93338C10.8229 8.94956 11.0995 8.88218 11.3994 8.77425C11.6973 8.66753 12.0169 8.52147 12.3131 8.37334C12.6889 8.18561 13.0241 7.99596 13.2192 7.88211C13.7707 8.52859 14.3601 9.272 14.9402 10.1223C15.1926 10.4911 15.4433 10.8805 15.6886 11.2884C15.4387 11.0671 15.1209 10.8014 14.7678 10.5437C13.939 9.92646 12.9336 9.36678 12.3527 9.28614C12.1117 9.2469 11.6408 9.28083 11.0942 9.36038C10.5491 9.43837 9.90465 9.57853 9.31502 9.72823C8.71427 9.88348 8.15835 10.0533 7.75163 10.1871C7.34097 10.3227 7.08214 10.4176 7.08214 10.4176C7.08214 10.4176 7.15052 10.4368 7.27163 10.4709C7.39489 10.5042 7.56681 10.555 7.77555 10.6187C7.98489 10.6821 8.23737 10.7557 8.50182 10.8441C8.63668 10.8879 8.77692 10.9334 8.92062 10.98C9.0648 11.0274 9.2073 11.0793 9.35614 11.1304C9.50319 11.1825 9.65706 11.2337 9.80494 11.2882C9.95367 11.3435 10.1019 11.3986 10.248 11.4529C10.5474 11.5601 10.8221 11.6747 11.0884 11.7746C11.3564 11.8737 11.585 11.9718 11.7912 12.0441C11.9957 12.1171 12.1632 12.1708 12.2763 12.1951C12.5473 12.2504 12.9288 12.242 13.3516 12.2069C13.7676 12.1746 14.2272 12.1151 14.657 12.054C15.0865 11.9892 15.4824 11.9294 15.7712 11.8858C15.8641 11.8705 15.9444 11.8573 16.0128 11.8461C16.2588 12.2831 16.497 12.7392 16.7216 13.2164C17.0925 14.0024 17.4267 14.8432 17.7082 15.7271C17.641 15.6302 17.5687 15.5275 17.4884 15.4205C17.3459 15.2377 17.1899 15.0422 17.0271 14.8454C16.6884 14.4562 16.3147 14.0656 15.9421 13.759C15.8504 13.6817 15.7614 13.6084 15.673 13.5414C15.5818 13.4756 15.4935 13.4154 15.4085 13.3614C15.2387 13.2535 15.083 13.1713 14.9481 13.122C14.7182 13.0391 14.2531 12.9826 13.709 12.9614C13.4374 12.9504 13.1323 12.9539 12.8289 12.9633C12.5222 12.974 12.2179 12.9909 11.9112 13.0194C11.298 13.0754 10.7403 13.1546 10.3173 13.2289C9.89772 13.3017 9.63326 13.3585 9.63326 13.3585C9.63326 13.3585 9.69424 13.3855 9.80243 13.4333C9.91015 13.4816 10.0718 13.5492 10.2547 13.6385C10.63 13.8138 11.1383 14.0625 11.6591 14.3511C11.7905 14.4242 11.9233 14.4981 12.0559 14.5718C12.1879 14.647 12.314 14.7253 12.4438 14.8019C12.5715 14.8792 12.7041 14.9548 12.8253 15.0314C12.9476 15.1088 13.0662 15.184 13.1795 15.2557C13.2935 15.3283 13.4088 15.3964 13.5095 15.4626C13.6104 15.5288 13.7063 15.5901 13.7954 15.6452C13.9729 15.7555 14.1252 15.8397 14.2312 15.8854C14.4781 15.9946 14.8467 16.0682 15.2644 16.1281C15.6838 16.1869 16.1331 16.2375 16.5657 16.2787C16.9991 16.318 17.3985 16.3542 17.69 16.3806C17.7732 16.3876 17.8463 16.3939 17.9101 16.3993C17.9631 16.5889 18.0142 16.7798 18.0619 16.9729C18.3445 18.1058 18.5131 19.3008 18.5742 20.521C18.5383 20.4289 18.4992 20.3323 18.4587 20.2317C18.3689 20.0179 18.2829 19.787 18.1631 19.5561C18.0475 19.3246 17.9309 19.0895 17.802 18.8645C17.667 18.6406 17.5298 18.4255 17.3948 18.2298C17.2584 18.0342 17.1087 17.8611 16.9752 17.7148C16.8381 17.5692 16.7149 17.4506 16.5893 17.3722C16.381 17.2383 15.9554 17.0702 15.4311 16.9252C15.1643 16.8536 14.8749 16.7869 14.5792 16.7289C14.4315 16.7 14.282 16.673 14.1331 16.6485C13.9808 16.6249 13.828 16.6037 13.6781 16.5848C13.0784 16.5086 12.5188 16.4735 12.0947 16.4638C11.6758 16.4528 11.4106 16.4587 11.4106 16.4587C11.4106 16.4587 11.4618 16.4942 11.5527 16.5571C11.6426 16.6208 11.7799 16.7114 11.9375 16.8273C12.095 16.9472 12.2803 17.0882 12.4818 17.2416C12.6726 17.4023 12.8952 17.5786 13.1089 17.7693C13.536 18.1496 13.9807 18.5813 14.3437 18.9688C14.7167 19.3532 15.0096 19.6896 15.1942 19.8313C15.4161 19.9979 15.7462 20.165 16.1302 20.3316C16.5114 20.4979 16.9558 20.6633 17.3529 20.8175C17.8576 21.0104 18.3229 21.1811 18.5987 21.2812C18.6149 22.6455 18.4886 24.0336 18.199 25.3912C18.1671 25.0953 18.1152 24.7537 18.0569 24.4038C17.949 23.8956 17.8256 23.3714 17.6465 22.9209C17.4863 22.4713 17.2772 22.0977 17.0888 21.8808C17.0081 21.789 16.8779 21.6744 16.7081 21.548C16.533 21.4216 16.3202 21.2835 16.0844 21.1442C15.847 21.005 15.5937 20.8636 15.3193 20.7306C15.0438 20.5975 14.76 20.4715 14.483 20.3574C13.9359 20.1276 13.3809 19.954 12.9862 19.8385C12.7872 19.7808 12.624 19.7374 12.5105 19.7082C12.3943 19.6802 12.3288 19.6643 12.3288 19.6643C12.3288 19.6643 12.3736 19.7088 12.4417 19.7913C12.5128 19.8751 12.6148 19.9955 12.7388 20.1417C12.8707 20.2897 12.9989 20.4726 13.1554 20.676C13.3159 20.8788 13.4631 21.1089 13.6269 21.3505C13.9467 21.8327 14.2586 22.3691 14.5135 22.8398C14.6503 23.0759 14.7563 23.2924 14.8573 23.4748C14.9578 23.6571 15.0468 23.8044 15.1189 23.8971C15.2804 24.1143 15.5605 24.3616 15.8923 24.623C16.0569 24.7532 16.2385 24.8875 16.415 25.0196C16.5941 25.151 16.7735 25.2826 16.9463 25.4094C17.3015 25.6624 17.6287 25.8955 17.8675 26.0658C17.923 26.1045 17.973 26.1394 18.0183 26.171C17.6991 27.4234 17.2581 28.6441 16.6958 29.7887C16.6613 29.8588 16.6248 29.9276 16.5894 29.9973C16.6005 29.9292 16.6116 29.8597 16.6227 29.7873C16.6603 29.5612 16.6761 29.3064 16.6994 29.0514C16.7798 28.0193 16.6948 26.8831 16.4214 26.365C16.3076 26.144 16.0359 25.7866 15.6409 25.3932C15.2532 25.0004 14.7816 24.5841 14.2927 24.2187C14.052 24.0363 13.8147 23.8674 13.5943 23.7179C13.3708 23.5679 13.1571 23.4358 12.9788 23.3281C12.6203 23.1125 12.3871 22.9879 12.3871 22.9879C12.3871 22.9879 12.4969 23.2117 12.6664 23.5576C12.7433 23.7377 12.8338 23.9497 12.9323 24.1803C13.0279 24.4161 13.1155 24.6738 13.2167 24.9485C13.3077 25.2203 13.3893 25.5032 13.4783 25.7881C13.5535 26.0759 13.6263 26.3548 13.693 26.61C13.8077 27.125 13.918 27.5737 13.9956 27.785C14.0952 28.0373 14.3107 28.3546 14.5606 28.6933C14.8064 29.0296 15.0966 29.392 15.3715 29.7305C15.6479 30.0683 15.9027 30.3795 16.0885 30.6066C16.1277 30.6538 16.1631 30.6964 16.1957 30.7358C15.6569 31.6921 15.0445 32.5892 14.3786 33.4104C14.2101 33.6177 14.0371 33.8181 13.8619 34.015C13.8819 33.9678 13.9021 33.9199 13.9229 33.8705C14.0092 33.6549 14.1103 33.43 14.1901 33.1828C14.2719 32.9372 14.3512 32.685 14.4225 32.4371C14.4845 32.1822 14.5385 31.9315 14.5804 31.6964C14.6266 31.4638 14.6394 31.232 14.6483 31.0332C14.6548 30.8327 14.6464 30.6574 14.6203 30.5165C14.5681 30.2731 14.3812 29.8461 14.1173 29.3702C13.8457 28.8888 13.4867 28.3555 13.1226 27.8801C12.7463 27.3972 12.3735 26.9748 12.0856 26.6736C11.7919 26.3698 11.5969 26.1873 11.5969 26.1873C11.5969 26.1873 11.6099 26.2478 11.6331 26.3549C11.6446 26.4092 11.6587 26.4754 11.675 26.5517C11.6873 26.6276 11.7013 26.7138 11.7167 26.8082C11.7841 27.1915 11.8526 27.7215 11.8881 28.2972C11.9037 28.5834 11.924 28.8875 11.9203 29.1772C11.9215 29.3259 11.9228 29.4725 11.924 29.6147C11.9245 29.7585 11.9162 29.8941 11.9137 30.0287C11.9074 30.5696 11.8728 31.014 11.9056 31.2483C11.9454 31.526 12.0567 31.8768 12.2125 32.2716C12.3663 32.664 12.5598 33.0963 12.7315 33.4894C12.9391 33.9582 13.1353 34.3873 13.2612 34.6603C12.2944 35.6486 11.2571 36.4885 10.2146 37.1808C10.2333 37.1578 10.2515 37.1354 10.2705 37.1118C10.4131 36.9321 10.5556 36.7227 10.7022 36.5135C10.8507 36.3066 10.987 36.077 11.1156 35.8512C11.2452 35.6266 11.3662 35.4044 11.4607 35.1804C11.5582 34.9598 11.6407 34.7514 11.701 34.5624C11.7559 34.3672 11.7905 34.1931 11.7995 34.0481C11.8072 33.9254 11.7948 33.75 11.7646 33.5398C11.7349 33.3301 11.6777 33.0764 11.6101 32.8102C11.5412 32.5426 11.4575 32.2583 11.3621 31.9721C11.2611 31.6805 11.1494 31.388 11.0339 31.1088C10.8086 30.5539 10.5441 30.0359 10.3452 29.6693C10.2455 29.4854 10.161 29.3375 10.1015 29.2353C10.0408 29.133 10.0067 29.0754 10.0067 29.0754C10.0067 29.0754 10.0071 29.0917 10.0045 29.12C10.0022 29.1487 9.99898 29.191 9.99468 29.2449C9.98595 29.3555 9.97339 29.5141 9.95809 29.7069C9.91995 30.0931 9.85025 30.6258 9.73608 31.1928C9.71157 31.3383 9.67726 31.4784 9.6433 31.6211C9.60899 31.7664 9.5748 31.9111 9.5412 32.0538C9.46912 32.3392 9.38603 32.6121 9.31585 32.8755C9.24065 33.1329 9.16451 33.3639 9.10927 33.5678C9.05488 33.7729 9.00969 33.9348 8.99271 34.0484C8.95338 34.3176 8.97992 34.6984 9.02965 35.1212C9.07496 35.5363 9.14573 35.9964 9.21531 36.4282C9.28692 36.8607 9.35304 37.2592 9.40122 37.55C9.40911 37.5958 9.41628 37.6377 9.42321 37.6778C9.09504 37.8725 8.76795 38.0541 8.44432 38.2194C7.54589 38.6799 6.67387 39.0363 5.86235 39.3084C5.87718 39.2973 5.89152 39.2864 5.90659 39.2752C6.08902 39.1341 6.2882 38.9913 6.47936 38.8157C6.67196 38.6444 6.86767 38.4707 7.05083 38.2886C7.23123 38.1 7.40254 37.9113 7.55593 37.7296C7.71027 37.5498 7.83688 37.3568 7.94352 37.1897C8.04849 37.0192 8.12955 36.8659 8.17521 36.7279C8.25101 36.4909 8.30158 36.0276 8.30971 35.4828C8.3121 35.207 8.30002 34.9039 8.28006 34.6005C8.25842 34.2945 8.23187 33.9925 8.18871 33.688C8.10335 33.0791 7.99385 32.528 7.89259 32.1176C7.79073 31.706 7.7135 31.4494 7.7135 31.4494C7.7135 31.4494 7.69437 31.5083 7.66054 31.6127C7.64332 31.6657 7.62228 31.7302 7.59813 31.8046C7.57315 31.8788 7.54063 31.9581 7.50668 32.049C7.3729 32.4148 7.16822 32.9089 6.91334 33.4255C6.78362 33.6788 6.65164 33.9554 6.5046 34.2028C6.36113 34.4572 6.21898 34.7143 6.07719 34.9356C5.80306 35.3984 5.55488 35.768 5.46593 35.9845C5.36228 36.2435 5.28648 36.6084 5.22383 37.025C5.16119 37.4396 5.11421 37.9143 5.06746 38.3424C5.01558 38.8311 4.97242 39.284 4.9448 39.5843C4.93153 39.5881 4.91754 39.5919 4.90439 39.5957C4.79799 39.6249 4.69422 39.6573 4.59057 39.6827C4.48656 39.7066 4.38433 39.73 4.28391 39.7529C4.08294 39.7985 3.88939 39.8425 3.70337 39.8848C3.51555 39.9179 3.33551 39.9498 3.16347 39.9801C2.82048 40.0482 2.50485 40.0786 2.22606 40.1152C2.08642 40.1313 1.95611 40.1521 1.83381 40.1613C1.71162 40.1703 1.59853 40.1786 1.495 40.1862C1.30993 40.2 1.15727 40.2113 1.03509 40.2202C1.27491 40.1279 1.53781 40.0171 1.80536 39.8997C2.26588 39.6748 2.73881 39.4297 3.12652 39.1468C3.51817 38.8819 3.82459 38.5888 3.98491 38.3498C4.05258 38.2476 4.13005 38.0932 4.20787 37.8939C4.28487 37.6912 4.36317 37.4488 4.43694 37.1838C4.5101 36.9166 4.58112 36.6356 4.63851 36.3324C4.69613 36.0299 4.74502 35.7212 4.78388 35.422C4.82321 35.124 4.85203 34.8339 4.86888 34.5584C4.88682 34.2858 4.89661 34.0379 4.90152 33.829C4.90642 33.62 4.90665 33.4495 4.90594 33.3313C4.90355 33.2108 4.90211 33.1431 4.90211 33.1431C4.90211 33.1431 4.87055 33.1978 4.80886 33.2851C4.74669 33.3756 4.6574 33.5057 4.54884 33.6637C4.44017 33.8302 4.29946 34.0012 4.14476 34.2045C3.99149 34.4121 3.81192 34.6142 3.62386 34.8328C3.24775 35.2669 2.81353 35.7021 2.42666 36.0697C2.23526 36.2626 2.05318 36.4174 1.90362 36.5634C1.75371 36.7071 1.63463 36.8315 1.56362 36.9247C1.39469 37.1344 1.2266 37.4692 1.05792 37.854C0.890065 38.2433 0.720657 38.6654 0.56488 39.0642C0.254284 39.863 0 40.5618 0 40.5618C0 40.5618 0.241374 41.2478 0.658849 42.0281C0.867109 42.4188 1.11997 42.8339 1.39805 43.1802C1.67565 43.5309 1.97883 43.8294 2.27365 44.0035C2.39798 44.0727 2.60134 44.1549 2.8665 44.2457C3.13143 44.3342 3.45949 44.4417 3.82711 44.5218C4.56403 44.7009 5.47405 44.8517 6.37105 44.9252C6.81877 44.9607 7.26673 44.9943 7.67919 44.9943C8.09272 44.9986 8.48281 45.0073 8.80835 44.9876C9.13616 44.9738 9.40934 44.9587 9.60038 44.9473C9.79214 44.9375 9.89831 44.9246 9.89831 44.9246C9.89831 44.9246 9.82813 44.8875 9.70356 44.8213C9.57935 44.7522 9.40086 44.6531 9.18363 44.5325C8.75133 44.2862 8.1849 43.9656 7.60064 43.5852C7.30954 43.3988 7.01675 43.2067 6.73604 43.0198C6.45545 42.8337 6.1818 42.6369 5.93397 42.4663C5.68542 42.2937 5.4597 42.1385 5.26591 42.0135C5.07116 41.885 4.90678 41.7817 4.78304 41.7257C4.19604 41.4731 2.95856 41.2695 1.91619 41.0374C1.61683 40.9645 1.33361 40.9006 1.08004 40.8402C1.1972 40.8309 1.34138 40.8194 1.51413 40.8056C1.72347 40.7886 1.97309 40.7735 2.25691 40.7307C2.54073 40.6896 2.86364 40.6611 3.21441 40.5889C3.39027 40.5566 3.57461 40.5228 3.76685 40.4874C3.95885 40.4509 4.15587 40.3979 4.3621 40.3512C4.60109 40.3005 4.84736 40.2323 5.10129 40.1589C5.28086 40.3998 5.56335 40.7594 5.9097 41.134C6.21443 41.4654 6.56269 41.7881 6.92541 42.0625C7.28705 42.3353 7.66042 42.5511 7.9862 42.6288C8.26236 42.6973 8.86635 42.7506 9.62287 42.7213C10.0056 42.7168 10.4193 42.6792 10.8546 42.6333C11.2935 42.5942 11.7367 42.5154 12.182 42.4393C13.0668 42.2788 13.9192 42.0538 14.546 41.8575C14.7031 41.8092 14.849 41.7668 14.9745 41.7241C15.0998 41.6799 15.2085 41.6417 15.2976 41.6101C15.4768 41.5454 15.5779 41.509 15.5779 41.509C15.5779 41.509 15.2654 41.4389 14.7915 41.3227C14.3167 41.2057 13.6708 41.0216 13.0204 40.8241C12.3632 40.6192 11.6886 40.3814 11.1243 40.1852C10.5517 39.9776 10.0871 39.8134 9.82168 39.7745C9.66363 39.7495 9.46398 39.7359 9.24126 39.7366C9.01674 39.734 8.77296 39.7545 8.50756 39.7614C8.24323 39.7703 7.96696 39.786 7.69139 39.8054C7.41486 39.8171 7.13522 39.829 6.8648 39.8404C6.59927 39.8589 6.33674 39.8534 6.10206 39.8602C6.08914 39.8604 6.0772 39.8607 6.0644 39.861C6.87353 39.5804 7.74184 39.2234 8.63417 38.7618C8.98829 38.5789 9.34622 38.3783 9.70499 38.1622C9.73835 38.1886 9.77326 38.2162 9.81188 38.2461C9.92916 38.3368 10.0713 38.4441 10.2298 38.5559C10.3876 38.6663 10.5635 38.7835 10.7516 38.9001C11.1277 39.1334 11.5539 39.3635 11.976 39.5346C12.3927 39.6988 12.8028 39.8006 13.143 39.7984C13.2871 39.7979 13.5083 39.7715 13.7791 39.7104C14.0506 39.6505 14.384 39.5713 14.7466 39.4609C15.1041 39.3444 15.5051 39.2129 15.9114 39.0533C16.1127 38.9715 16.318 38.8856 16.5248 38.797C16.7319 38.7087 16.9412 38.6185 17.1403 38.5178C17.9524 38.1315 18.7159 37.6904 19.2735 37.3394C19.5489 37.1614 19.7768 37.01 19.9357 36.9036C20.0949 36.7972 20.1831 36.7347 20.1831 36.7347C20.1831 36.7347 20.1034 36.7375 19.9617 36.7424C19.8203 36.7457 19.6171 36.7502 19.3698 36.7559C18.877 36.7639 18.2234 36.769 17.5317 36.7372C17.1881 36.7238 16.8403 36.7066 16.5055 36.6877C16.1679 36.6624 15.8392 36.6376 15.5363 36.6149C15.2351 36.5913 14.9673 36.5759 14.733 36.5616C14.499 36.5477 14.308 36.5443 14.1731 36.5587C14.0139 36.5757 13.822 36.6194 13.6098 36.6814C13.392 36.7373 13.1522 36.8098 12.9033 36.8925C12.6572 36.9787 12.3905 37.0612 12.1256 37.1473C11.8614 37.2345 11.5999 37.3267 11.3392 37.4014C11.0802 37.4786 10.8385 37.5613 10.6105 37.6253C10.5734 37.6356 10.5378 37.6455 10.5018 37.6556C10.9292 37.3685 11.3555 37.0585 11.7765 36.722C12.4126 36.214 13.0363 35.6486 13.6336 35.0299C13.9067 35.1468 14.344 35.3212 14.8499 35.4749C15.2792 35.6076 15.743 35.712 16.1908 35.7637C16.636 35.8139 17.0702 35.8151 17.3893 35.7169C17.6596 35.6346 18.2108 35.3776 18.8487 34.9688C19.0089 34.8674 19.1818 34.7618 19.3511 34.6437C19.5195 34.5251 19.6931 34.3999 19.8698 34.27C20.2288 34.0138 20.5761 33.723 20.9216 33.4305C21.608 32.8439 22.2348 32.2167 22.6791 31.7278C22.7916 31.6052 22.8942 31.4934 22.9847 31.3948C23.0713 31.2928 23.1462 31.2043 23.2078 31.1316C23.3305 30.9842 23.3996 30.901 23.3996 30.901C23.3996 30.901 23.0947 30.9997 22.6275 31.1404C22.1544 31.2788 21.5079 31.4491 20.8468 31.6082C20.1724 31.7624 19.4763 31.9013 18.8872 32.0154C18.2891 32.1259 17.8064 32.2195 17.5574 32.3201C17.4056 32.3769 17.2285 32.4675 17.0358 32.5807C16.8406 32.6922 16.6408 32.8339 16.4129 32.973C16.1891 33.115 15.9586 33.2688 15.7304 33.4254C15.4926 33.5748 15.2571 33.7271 15.0331 33.8745C14.8109 34.0234 14.5814 34.152 14.3831 34.2781C14.3367 34.3069 14.2915 34.3349 14.2473 34.3624C14.4088 34.1788 14.5687 33.9924 14.725 33.8006C15.422 32.9351 16.0601 31.9878 16.6189 30.9783C16.6706 30.9858 16.7268 30.9936 16.7892 31.0018C16.936 31.021 17.1108 31.0413 17.3052 31.0586C17.4979 31.075 17.707 31.0867 17.9278 31.0924C18.3687 31.1036 18.8513 31.0866 19.3012 31.0205C19.7465 30.9531 20.1488 30.8314 20.4424 30.6569C20.6969 30.5124 21.1345 30.1064 21.6645 29.5502C21.9165 29.2675 22.1911 28.9471 22.4699 28.6039C22.7332 28.2559 23.0101 27.8875 23.266 27.513C23.5116 27.1361 23.7595 26.7585 23.9703 26.3982C24.1764 26.0372 24.364 25.6971 24.5222 25.4039C24.8175 24.8147 25 24.4168 25 24.4168C25 24.4168 24.7295 24.5907 24.3113 24.8492Z" fill="#F6C82F"/>
</svg>
