<svg width="20" height="20" viewBox="0 0 20 20" fill="none" xmlns="http://www.w3.org/2000/svg">
<path d="M1.6665 5L7.42736 8.26414C9.55117 9.46751 10.4485 9.46751 12.5723 8.26414L18.3332 5" stroke="#101828" stroke-width="1.5" stroke-linejoin="round"/>
<path d="M1.67964 11.23C1.73412 13.7846 1.76136 15.0619 2.70397 16.0081C3.64657 16.9543 4.95845 16.9873 7.58219 17.0532C9.19926 17.0938 10.8004 17.0938 12.4175 17.0532C15.0412 16.9873 16.3531 16.9543 17.2957 16.0081C18.2383 15.0619 18.2656 13.7846 18.32 11.23C18.3376 10.4086 18.3376 9.59206 18.32 8.77065C18.2656 6.21604 18.2383 4.93874 17.2957 3.99254C16.3531 3.04635 15.0412 3.01339 12.4175 2.94747C10.8004 2.90684 9.19926 2.90683 7.58219 2.94746C4.95844 3.01338 3.64657 3.04634 2.70396 3.99253C1.76136 4.93872 1.73412 6.21603 1.67964 8.77064C1.66212 9.59205 1.66212 10.4086 1.67964 11.23Z" stroke="#101828" stroke-width="1.5" stroke-linejoin="round"/>
</svg>
