<svg width="20" height="20" viewBox="0 0 20 20" fill="none" xmlns="http://www.w3.org/2000/svg">
<path d="M10.0001 12.917C11.8417 12.917 13.3334 11.4253 13.3334 9.58366V5.00033C13.3334 3.15866 11.8417 1.66699 10.0001 1.66699C8.15841 1.66699 6.66675 3.15866 6.66675 5.00033V9.58366C6.66675 11.4253 8.15841 12.917 10.0001 12.917Z" stroke="#201913" stroke-width="1.5" stroke-linecap="round" stroke-linejoin="round"/>
<path d="M3.625 8.04199V9.45866C3.625 12.9753 6.48333 15.8337 10 15.8337C13.5167 15.8337 16.375 12.9753 16.375 9.45866V8.04199" stroke="#201913" stroke-width="1.5" stroke-linecap="round" stroke-linejoin="round"/>
<path d="M8.84155 5.35859C9.59155 5.08359 10.4082 5.08359 11.1582 5.35859" stroke="#201913" stroke-width="1.5" stroke-linecap="round" stroke-linejoin="round"/>
<path d="M9.33325 7.12461C9.77492 7.00794 10.2333 7.00794 10.6749 7.12461" stroke="#201913" stroke-width="1.5" stroke-linecap="round" stroke-linejoin="round"/>
<path d="M10 15.833V18.333" stroke="#201913" stroke-width="1.5" stroke-linecap="round" stroke-linejoin="round"/>
</svg>
