<svg width="20" height="20" viewBox="0 0 20 20" fill="none" xmlns="http://www.w3.org/2000/svg">
<path d="M8.75 6.66699H15.4167M8.75 10.0003H10.8333M15.4167 10.0003H13.3333M8.75 13.3337H10.8333M15.4167 13.3337H13.3333" stroke="#101828" stroke-width="1.5" stroke-linecap="round" stroke-linejoin="round"/>
<path d="M5.83317 6.25H4.99984C3.42849 6.25 2.64281 6.25 2.15466 6.73816C1.6665 7.22631 1.6665 8.01198 1.6665 9.58333V15C1.6665 16.1506 2.59924 17.0833 3.74984 17.0833C4.90043 17.0833 5.83317 16.1506 5.83317 15V6.25Z" stroke="#101828" stroke-width="1.5" stroke-linecap="round" stroke-linejoin="round"/>
<path d="M13.3333 2.91699H9.16667C8.39169 2.91699 8.0042 2.91699 7.68629 3.00218C6.82356 3.23335 6.14969 3.90721 5.91852 4.76994C5.83333 5.08786 5.83333 5.47535 5.83333 6.25033V15.0003C5.83333 16.1509 4.90059 17.0837 3.75 17.0837H13.3333C15.6904 17.0837 16.8689 17.0837 17.6011 16.3514C18.3333 15.6192 18.3333 14.4407 18.3333 12.0837V7.91699C18.3333 5.55997 18.3333 4.38146 17.6011 3.64923C16.8689 2.91699 15.6904 2.91699 13.3333 2.91699Z" stroke="#101828" stroke-width="1.5" stroke-linecap="round" stroke-linejoin="round"/>
</svg>
