<svg width="20" height="20" viewBox="0 0 20 20" fill="none" xmlns="http://www.w3.org/2000/svg">
<path fill-rule="evenodd" clip-rule="evenodd" d="M9.9992 1.04199C8.59815 1.04199 7.45911 1.51528 6.46567 2.02995C6.16546 2.18548 5.88657 2.33933 5.62006 2.48634L5.62006 2.48634C4.96801 2.84604 4.39012 3.16483 3.75548 3.36732C3.38275 3.48624 3.05256 3.59159 2.81845 3.68332C2.5981 3.76967 2.33623 3.88799 2.15043 4.09449C1.98353 4.27998 1.89778 4.48822 1.84093 4.68741C1.78932 4.86822 1.74521 5.11302 1.70289 5.34787C0.671273 11.0693 2.9271 16.4895 8.43581 18.5986C8.97728 18.8059 9.37604 18.9587 10.0019 18.9587C10.6278 18.9587 11.0266 18.8059 11.568 18.5986C17.0766 16.4894 19.3301 11.069 18.2983 5.34783L18.2983 5.3478C18.2559 5.11293 18.2118 4.86809 18.1602 4.68727C18.1033 4.48807 18.0175 4.2798 17.8506 4.09431C17.6648 3.88782 17.4029 3.76953 17.1825 3.68321C16.9484 3.5915 16.6183 3.48622 16.2455 3.36736C15.6105 3.16486 15.0322 2.84599 14.3796 2.48623L14.3796 2.4862C14.113 2.33922 13.834 2.18542 13.5337 2.02994C12.5398 1.51529 11.4003 1.04199 9.9992 1.04199ZM14.0282 8.28608C14.462 8.13243 14.6892 7.65618 14.5355 7.22235C14.3819 6.78851 13.9056 6.56138 13.4718 6.71503C12.74 6.9742 12.0405 7.46848 11.4266 8.00683C10.8041 8.55276 10.2222 9.18657 9.72774 9.77923C9.36166 10.2181 9.03798 10.6411 8.77533 11.0001C8.53469 10.7119 8.29498 10.5012 8.06642 10.3488C7.83775 10.1964 7.54357 10.0006 7.08333 10.0006C6.6231 10.0006 6.25 10.3736 6.25 10.8339C6.25 11.2678 6.58166 11.6243 7.00531 11.6636C7.17535 11.6794 7.63741 12.1388 8.00464 12.8732C8.13896 13.1419 8.40744 13.3174 8.70739 13.3328C9.00727 13.3482 9.29232 13.2008 9.45339 12.9474C9.45339 12.9474 9.74354 12.512 9.88117 12.3171C10.157 11.9262 10.5477 11.3981 11.0076 10.8469C11.469 10.2937 11.99 9.7296 12.5256 9.2599C13.0698 8.78262 13.5835 8.44357 14.0282 8.28608Z" fill="#15B79E"/>
</svg>
