<svg width="20" height="20" viewBox="0 0 20 20" fill="none" xmlns="http://www.w3.org/2000/svg">
<path d="M15.0583 7.09154L7.92498 3.52487C3.13331 1.12487 1.16664 3.09153 3.56664 7.8832L4.29164 9.3332C4.49998 9.7582 4.49998 10.2499 4.29164 10.6749L3.56664 12.1165C1.16664 16.9082 3.12498 18.8749 7.92498 16.4749L15.0583 12.9082C18.2583 11.3082 18.2583 8.69153 15.0583 7.09154ZM12.3666 10.6249H7.86664C7.52498 10.6249 7.24164 10.3415 7.24164 9.99987C7.24164 9.6582 7.52498 9.37487 7.86664 9.37487H12.3666C12.7083 9.37487 12.9916 9.6582 12.9916 9.99987C12.9916 10.3415 12.7083 10.6249 12.3666 10.6249Z" fill="white"/>
</svg>
