<svg width="20" height="20" viewBox="0 0 20 20" fill="none" xmlns="http://www.w3.org/2000/svg">
<path d="M10 10.0003C12.3012 10.0003 14.1667 8.13485 14.1667 5.83366C14.1667 3.53247 12.3012 1.66699 10 1.66699C7.69885 1.66699 5.83337 3.53247 5.83337 5.83366C5.83337 8.13485 7.69885 10.0003 10 10.0003Z" stroke="#AE78E7" stroke-width="1.5" stroke-linecap="round" stroke-linejoin="round"/>
<path d="M16.0083 13.1162L13.0583 16.0662C12.9416 16.1829 12.8333 16.3995 12.8083 16.5579L12.6499 17.6828C12.5916 18.0912 12.875 18.3745 13.2833 18.3162L14.4083 18.1579C14.5666 18.1329 14.7916 18.0245 14.9 17.9079L17.8499 14.9579C18.3583 14.4495 18.5999 13.8579 17.8499 13.1079C17.1083 12.3662 16.5166 12.6079 16.0083 13.1162Z" stroke="#AE78E7" stroke-width="1.5" stroke-miterlimit="10" stroke-linecap="round" stroke-linejoin="round"/>
<path d="M15.5833 13.541C15.8333 14.441 16.5332 15.141 17.4332 15.391" stroke="#AE78E7" stroke-width="1.5" stroke-miterlimit="10" stroke-linecap="round" stroke-linejoin="round"/>
<path d="M2.84167 18.3333C2.84167 15.1083 6.05003 12.5 10 12.5C10.8667 12.5 11.7 12.625 12.475 12.8583" stroke="#AE78E7" stroke-width="1.5" stroke-linecap="round" stroke-linejoin="round"/>
</svg>
