<svg width="20" height="20" viewBox="0 0 20 20" fill="none" xmlns="http://www.w3.org/2000/svg">
<path d="M10.8334 7.5H5.83337" stroke="#AE78E7" stroke-width="1.5" stroke-linecap="round" stroke-linejoin="round"/>
<path d="M18.3333 9.14196V10.8587C18.3333 11.317 17.9667 11.692 17.5 11.7086H15.8667C14.9667 11.7086 14.1417 11.0503 14.0667 10.1503C14.0167 9.62531 14.2167 9.13364 14.5667 8.79197C14.875 8.47531 15.3 8.29199 15.7667 8.29199H17.5C17.9667 8.30866 18.3333 8.68362 18.3333 9.14196Z" stroke="#AE78E7" stroke-width="1.5" stroke-linecap="round" stroke-linejoin="round"/>
<path d="M14.5666 8.79198C14.2166 9.13365 14.0166 9.62532 14.0666 10.1503C14.1416 11.0503 14.9666 11.7086 15.8666 11.7086H17.5V12.917C17.5 15.417 15.8333 17.0837 13.3333 17.0837H5.83329C3.33329 17.0837 1.66663 15.417 1.66663 12.917V7.08366C1.66663 4.81699 3.03329 3.23366 5.15829 2.96699C5.37496 2.93366 5.59996 2.91699 5.83329 2.91699H13.3333C13.55 2.91699 13.7583 2.92532 13.9583 2.95865C16.1083 3.20865 17.5 4.80033 17.5 7.08366V8.292H15.7666C15.2999 8.292 14.8749 8.47532 14.5666 8.79198Z" stroke="#AE78E7" stroke-width="1.5" stroke-linecap="round" stroke-linejoin="round"/>
</svg>
