<svg width="154" height="154" viewBox="0 0 154 154" fill="none" xmlns="http://www.w3.org/2000/svg">
<path d="M17.924 73.2471C16.4093 60.5899 17.0907 47.8797 19.8603 35.3665C20.2627 33.549 21.9284 35.2025 33.6712 32.5725C34.5696 32.3716 35.4603 32.1616 36.3426 31.9446C36.7382 31.2126 37.1766 30.4836 37.6642 29.7661C27.4392 32.1938 19.4149 33.0186 19.129 33.2677C18.6215 33.7092 18.4636 33.8963 18.1087 35.4171C14.6914 50.0659 14.6025 65.5862 17.3475 80.4627C17.4832 78.0963 17.6756 75.6656 17.9232 73.2464L17.924 73.2471Z" fill="white"/>
<path d="M132.49 42.9645C130.482 41.042 127.096 38.9808 125.658 38.4695C123.656 37.7566 105.873 36.0518 80.6981 21.0542C71.291 15.4508 72.463 14.4604 68.9645 16.9632C67.7395 17.8393 66.4571 18.6695 65.1302 19.4552C65.7082 19.5434 66.2815 19.6461 66.8511 19.7641C71.455 16.9126 70.7521 16.3223 71.836 17.1349C82.8038 25.36 102.401 35.0951 121.401 38.9624C123.451 39.3794 124.602 38.796 124.279 40.717C123.801 43.5632 122.676 60.7845 114.425 80.8267C103.635 107.04 81.3604 131.132 60.2802 142.305C58.6804 143.153 57.0676 144.316 54.8837 142.611C49.8981 138.717 46.3742 135.656 41.7696 130.167C33.766 120.628 31.123 115.987 27.6053 107.681C27.0465 107.468 26.4531 107.24 25.7801 106.988C25.7019 106.958 25.6245 106.929 25.5479 106.9C30.9597 118.97 38.3937 129.777 47.498 138.237C49.1998 139.818 61.0882 150.135 63.4583 149.445C70.5758 147.374 90.595 134.023 104.506 116.814C129.635 85.7273 133.904 44.3206 132.489 42.9661L132.49 42.9645ZM131.481 44.007C128.155 84.1865 106.565 123.018 70.2469 144.686C62.3537 149.395 62.8811 148.682 61.2675 147.483C60.8582 147.179 58.5931 145.47 58.5363 145.412C57.848 144.719 57.6126 145.596 63.0996 142.551C81.7383 132.209 97.6426 114.477 108.014 97.3474C116.676 83.0413 120.566 71.0571 123.372 57.1288C127.199 38.1406 124.579 39.2728 127.284 40.7753C128.637 41.5265 129.863 42.4701 131.149 43.3233C131.493 43.5517 131.49 43.5594 131.481 44.007Z" fill="white"/>
<path d="M48.4441 45.8774C74.1833 46.5374 73.8635 49.7347 74.1778 46.7145C75.2027 36.8574 69.7863 31.3199 61.0354 30.814C56.6247 32.9894 52.1426 34.6352 47.9426 35.8901C46.8304 37.4155 45.9942 39.2621 45.3809 41.4046C44.934 42.9668 44.8036 44.1075 44.8067 45.5034C44.8075 46.0054 44.7738 45.7831 48.4441 45.8774Z" fill="white"/>
<path d="M31.5884 46.4292C32.7443 46.4078 32.3718 45.8359 32.4254 45.56C32.6339 44.4876 32.8647 42.0752 33.609 39.124C29.7755 39.7465 27.2941 39.9879 27.0251 40.1888C26.7261 40.4111 26.4655 40.6855 26.385 41.0841C25.8791 43.5738 25.4667 46.0176 25.1401 48.4138C27.0366 47.2403 29.6704 46.4653 31.5884 46.4292Z" fill="white"/>
<path d="M113.677 44.8348C112.703 44.4968 101.186 42.9897 86.1945 35.5366C85.9945 35.4377 85.7982 35.3388 85.6035 35.2415C85.8718 36.0931 86.0903 36.9769 86.2551 37.8922C87.8526 46.7604 85.0631 49.6909 86.3777 50.0504C92.8857 51.8327 96.0401 53.0063 97.2313 60.3368C98.6318 68.9566 95.3234 91.1229 92.2786 103.313C102.149 89.3445 111.899 65.8199 114.494 46.21C114.507 45.2281 114.407 45.0878 113.678 44.8348H113.677Z" fill="white"/>
<path d="M73.9979 114.455C64.9296 114.455 57.8612 115.204 37.3491 110.545C46.5232 125.695 57.3883 133.473 58.9965 132.983C62.9626 131.773 68.4772 127.371 70.7546 125.641C76.7184 121.109 80.5113 117.57 84.0696 113.567C80.8416 114.254 77.0357 114.286 73.9979 114.455Z" fill="white"/>
<path d="M97.2312 60.3367C96.04 53.0062 92.8856 51.8326 86.3776 50.0504C85.063 49.6901 87.8525 46.7604 86.255 37.8921C83.2263 21.0779 62.1578 15.0252 47.1334 21.8145C33.8345 27.8243 33.0335 42.424 32.4248 45.5607C32.3712 45.8367 32.7437 46.4078 31.5878 46.4292C28.7032 46.4836 24.1982 48.2084 23.0216 50.4467C17.6718 60.625 15.6765 92.2359 18.1808 99.8608C18.8868 102.01 18.5472 104.282 25.7796 106.987C29.4721 108.369 30.7737 109.045 37.0257 110.472C57.7877 115.213 64.8821 114.456 73.9979 114.456C79.8604 114.131 88.5861 114.313 90.4932 109.319C93.7817 100.706 98.9161 70.7105 97.2304 60.3375L97.2312 60.3367ZM34.1136 45.9969C34.1596 43.8873 35.8345 36.4541 38.2353 32.2956C40.7189 27.9929 43.2025 25.8941 46.5708 23.99C50.7753 21.6137 58.5818 20.6877 59.5132 20.6693C64.8867 20.5628 70.1437 22.171 74.2969 24.3733C80.2897 27.5506 82.7679 31.3128 83.9829 36.1237C85.0799 40.4678 85.0454 45.655 84.4536 48.8921C84.2298 50.1148 84.4099 49.5215 76.0952 48.3257C75.8008 48.2835 75.7296 48.2084 75.774 47.8765C78.7911 25.3644 51.3494 24.5335 44.9894 37.6446C43.1895 41.3547 43.2777 45.7286 43.2746 45.7493C43.1987 46.1778 39.737 45.8666 39.737 45.9838C33.8759 45.9838 34.1067 46.3349 34.1136 45.9969ZM74.1781 46.7144C73.8638 49.7346 74.1834 46.5373 48.4442 45.8773C44.774 45.783 44.8069 46.0061 44.8062 45.5032C44.8039 44.1073 44.9334 42.9659 45.3803 41.4045C47.3741 34.435 51.7342 30.5885 60.2376 30.7816C69.4553 30.9909 75.2328 36.5614 74.1773 46.7136L74.1781 46.7144ZM90.4051 103.296C88.9157 109.817 88.9977 110.423 82.9841 111.796C79.701 112.546 64.7932 112.906 61.4533 112.481C59.0126 112.171 58.8885 113.413 41.6549 109.829C16.1326 104.523 20.7281 102.426 18.9267 93.8909C17.888 70.8247 22.6889 53.6202 24.1208 51.6525C25.286 50.0519 26.2649 49.8427 27.2261 49.1535C27.5281 48.9374 27.4039 49.0761 28.9393 48.5664C30.0478 48.1984 31.7748 48.1417 31.7932 48.1417C47.6087 46.8424 60.9213 48.1739 76.6441 50.3141C84.4168 51.3719 93.6054 52.1216 95.0297 58.0976C97.3906 68.0045 92.5545 93.8917 90.4058 103.296L90.4051 103.296Z" fill="white"/>
<path d="M46.0265 65.514C43.6211 69.9477 44.4175 75.8509 48.8198 79.6936C49.0061 79.8561 49.0789 80.0378 49.0444 80.2731C48.7026 82.6288 48.1644 88.1763 48.1775 91.1091C48.1997 96.0089 48.4059 98.7179 52.5499 100.468C55.4835 101.707 58.5435 100.559 59.7731 96.7471C60.2874 95.1511 60.3204 93.976 60.9306 88.4438C61.6948 81.5196 61.0969 81.735 61.7899 81.4345C65.0991 79.9995 68.3063 75.8816 68.2251 71.0117C68.6957 60.0339 51.8316 54.8137 46.0258 65.5132L46.0265 65.514ZM52.7392 84.8479C51.2575 98.8382 53.354 100.289 50.9846 98.3944C49.3748 97.1073 49.3051 94.0388 49.3296 91.7967C49.4293 82.7115 51.1011 80.0669 50.0946 79.1846C46.406 75.9544 44.5272 70.669 47.7635 65.4358C48.5171 64.2178 50.2495 62.9184 50.366 62.8081C51.666 61.5793 53.6399 61.4467 52.8818 62.2845C47.9038 67.7914 49.8171 73.8778 53.3954 76.6474C54.0868 77.1824 53.5686 77.0061 52.7377 84.8471L52.7392 84.8479Z" fill="white"/>
<path d="M86.6229 61.0712C86.3791 70.9766 82.8016 110.389 81.1681 105.788C80.7542 104.623 85.5091 62.1107 85.4784 60.3859C85.4133 56.731 84.5133 56.3056 85.0538 56.0112C85.4462 55.7973 85.9 56.442 86.0418 56.8161C86.557 58.176 86.6597 59.6171 86.6237 61.072L86.6229 61.0712Z" fill="white"/>
<path d="M14.4845 131.389C14.0445 131.239 18.1172 127.045 18.0428 126.266C17.9807 125.615 17.2057 125.238 16.6807 125.705C15.9662 126.341 14.6301 127.748 13.5907 128.808C13.1522 129.256 13.3822 125.569 11.866 122.735C11.5049 122.061 10.6203 122.222 10.595 123.041C10.5437 124.711 11.3846 129.138 11.6697 130.474C10.2286 130.109 6.08696 128.968 6.05247 130.474C6.0448 130.81 6.23721 131.009 6.4963 131.137C9.6008 132.666 10.4348 132.317 10.1098 132.75C8.37892 135.053 7.8293 135.658 7.53191 136.544C7.31957 137.175 7.48668 137.878 8.18345 137.883C8.94616 137.889 9.19912 137.258 10.894 135.21C13.1377 132.5 11.951 133.212 13.4381 137.326C13.8084 138.35 13.9011 138.607 14.3825 138.535C15.2135 138.411 14.6616 135.666 14.4883 134.168C14.4048 133.446 18.5878 135.83 19.1842 134.306C19.6817 133.035 17.4526 132.396 14.4845 131.387V131.389Z" fill="white"/>
<path d="M117.781 12.5471C117.185 12.3654 119.246 11.4517 120.74 9.37583C121.17 8.77716 120.63 8.14245 119.161 9.05695C116.133 10.9411 116.095 11.641 116.005 11.1765C115.675 9.49158 115.497 8.20148 114.967 7.25324C114.409 6.25213 112.937 5.95547 113.385 9.13054C113.938 13.0514 114.584 11.5314 111.324 11.6977C109.838 11.7736 109.305 12.6689 109.756 13.2576C110.022 13.6049 110.467 13.6731 111.381 13.8678C113.162 14.2473 112.817 13.5804 109.962 16.3836C109.661 16.6788 109.279 17.3372 109.682 17.7887C110.386 18.576 111.595 17.3702 114.227 15.2974C114.582 15.0176 114.288 15.2898 115.156 17.755C115.447 18.5806 115.628 19.1394 116.229 19.1432C116.735 19.147 117.259 18.6028 117.125 17.6017C116.406 12.2481 115.976 15.8731 120.694 14.3323C122.32 13.8011 119.31 13.0131 117.781 12.5471Z" fill="white"/>
<path d="M116.355 141.027C115.732 143.391 119.428 143.485 119.22 141.428C119.36 139.967 116.88 139.034 116.355 141.027Z" fill="white"/>
<path d="M32.4945 3.83743C31.4404 3.77304 28.3053 4.95889 29.4252 7.29993C30.2906 9.109 32.8049 9.57046 34.2683 7.93464C35.914 6.09492 34.2384 3.71325 32.4945 3.83743ZM32.1211 7.45631C30.4945 7.57129 30.2262 5.68558 30.795 5.49164C31.3239 5.3115 31.8322 5.03784 32.4178 5.07617C34.0873 5.18579 33.5983 7.58432 32.1211 7.45631Z" fill="white"/>
<path d="M147.043 90.5839C145.795 87.7814 141.616 88.8722 140.372 90.2666C137.88 93.0576 141.645 98.4878 145.496 95.1985C146.8 94.0855 147.683 92.0197 147.043 90.5839ZM142.896 94.6413C142.359 94.7148 141.053 93.4554 141.385 91.9744C141.602 91.0017 142.554 90.2459 143.005 90.3271C143.296 90.38 143.602 90.3363 143.9 90.357C146.743 90.554 145.234 94.5332 142.896 94.6413Z" fill="white"/>
</svg>
