<svg width="24" height="24" viewBox="0 0 24 24" fill="none" xmlns="http://www.w3.org/2000/svg">
<g clip-path="url(#clip0_7105_4904)">
<path fill-rule="evenodd" clip-rule="evenodd" d="M18.5951 0.725586C17.3823 0.725586 16.3138 1.06932 15.5493 1.83382C14.7848 2.59829 14.4411 3.66679 14.4411 4.87954C14.4411 6.09229 14.7848 7.16078 15.5493 7.92527C16.3138 8.68974 17.3823 9.03348 18.5951 9.03348C19.8078 9.03348 20.8763 8.68974 21.6407 7.92527C22.4051 7.16078 22.7489 6.09229 22.7489 4.87954C22.7489 3.66679 22.4051 2.59829 21.6407 1.83382C20.8763 1.06932 19.8078 0.725586 18.5951 0.725586ZM5.40774 0.817627C4.19499 0.817627 3.1265 1.16136 2.36201 1.92584C1.59753 2.69033 1.25379 3.75883 1.25379 4.97157C1.25379 6.18432 1.59753 7.25282 2.36201 8.01729C3.1265 8.78178 4.19499 9.12552 5.40774 9.12552C6.62049 9.12552 7.68898 8.78178 8.45346 8.01729C9.21795 7.25282 9.56169 6.18432 9.56169 4.97157C9.56169 3.75883 9.21795 2.69033 8.45346 1.92584C7.68898 1.16136 6.62049 0.817627 5.40774 0.817627ZM9.77672 11.1868C8.16414 10.6996 6.83725 10.427 5.46488 10.4215C4.09216 10.416 2.72848 10.6777 1.03956 11.1866C0.677493 11.2957 0.429689 11.6292 0.429689 12.0073V12.0836V12.0836C0.429634 14.5827 0.429572 17.347 0.970914 19.4908C1.24651 20.5822 1.68259 21.6034 2.40627 22.3592C3.15694 23.1432 4.15785 23.5791 5.40786 23.5791C6.65786 23.5791 7.65879 23.1432 8.40944 22.3592C9.13313 21.6034 9.5692 20.5822 9.84478 19.4908C10.3861 17.347 10.386 14.5828 10.386 12.0838L10.386 12.0073C10.386 11.6294 10.1385 11.2961 9.77672 11.1868ZM22.9284 22.9097C21.2806 23.3316 19.9478 23.5503 18.5933 23.5481C17.2399 23.5457 15.9087 23.3225 14.2653 22.9107C13.884 22.8152 13.6165 22.4725 13.6165 22.0793V22.0064C13.6165 19.5042 13.6164 16.6964 14.1567 14.5094C14.4312 13.398 14.8651 12.3559 15.585 11.5828C16.3328 10.7797 17.3357 10.3259 18.5947 10.3259C19.8535 10.3259 20.8566 10.7797 21.6044 11.5828C22.3242 12.3559 22.7581 13.398 23.0328 14.5094C23.573 16.6964 23.573 19.5042 23.5728 22.0064V22.0793C23.5728 22.4708 23.3076 22.8127 22.9284 22.9097Z" fill="black"/>
</g>
<defs>
<clipPath id="clip0_7105_4904">
<rect width="24.0006" height="24.0006" fill="white" transform="translate(0.000976562 0.00683594)"/>
</clipPath>
</defs>
</svg>
