<svg width="24" height="25" viewBox="0 0 24 25" fill="none" xmlns="http://www.w3.org/2000/svg">
<g clip-path="url(#clip0_7105_3190)">
<path d="M5.40191 8.85458C7.51163 8.85458 8.69835 7.66788 8.69835 5.55816C8.69835 3.44844 7.51163 2.26172 5.40191 2.26172C3.29219 2.26172 2.10547 3.44844 2.10547 5.55816C2.10547 7.66788 3.29219 8.85458 5.40191 8.85458Z" stroke="black" stroke-width="1.71415" stroke-linecap="round" stroke-linejoin="round"/>
<path d="M18.5885 8.85458C20.6981 8.85458 21.8848 7.66788 21.8848 5.55816C21.8848 3.44844 20.6981 2.26172 18.5885 2.26172C16.4787 2.26172 15.292 3.44844 15.292 5.55816C15.292 7.66788 16.4787 8.85458 18.5885 8.85458Z" stroke="black" stroke-width="1.71415" stroke-linecap="round" stroke-linejoin="round"/>
<path d="M5.40182 23.6892C1.28127 23.6892 1.28125 18.0852 1.28125 12.9757C4.57251 11.9841 6.37394 12.0245 9.52233 12.9757C9.52233 18.0852 9.52237 23.6892 5.40182 23.6892Z" stroke="black" stroke-width="1.71415" stroke-linecap="round" stroke-linejoin="round"/>
<path d="M18.5883 12.1514C14.4678 12.1514 14.4678 17.937 14.4678 23.0465C17.6865 23.853 19.4905 23.8705 22.7089 23.0465C22.7089 17.937 22.7089 12.1514 18.5883 12.1514Z" stroke="black" stroke-width="1.71415" stroke-linecap="round" stroke-linejoin="round"/>
</g>
<defs>
<clipPath id="clip0_7105_3190">
<rect width="23.998" height="23.998" fill="white" transform="translate(-0.00390625 0.976562)"/>
</clipPath>
</defs>
</svg>
