<svg width="40" height="40" viewBox="0 0 40 40" fill="none" xmlns="http://www.w3.org/2000/svg">
<rect x="0.5" y="0.5" width="39" height="39" rx="19.5" fill="white"/>
<rect x="0.5" y="0.5" width="39" height="39" rx="19.5" stroke="#EAECF0"/>
<path fill-rule="evenodd" clip-rule="evenodd" d="M20 29.375C24.8325 29.375 28.75 25.4575 28.75 20.625C28.75 15.7925 24.8325 11.875 20 11.875C15.1675 11.875 11.25 15.7925 11.25 20.625C11.25 22.1943 11.6631 23.6671 12.3865 24.9406L11.25 29.375L15.8218 28.3149C17.0634 28.9909 18.4868 29.375 20 29.375ZM20 28.0288C24.089 28.0288 27.4038 24.714 27.4038 20.625C27.4038 16.536 24.089 13.2212 20 13.2212C15.911 13.2212 12.5962 16.536 12.5962 20.625C12.5962 22.2038 13.0903 23.6672 13.9324 24.8689L13.2692 27.3558L15.8 26.7231C16.9934 27.5466 18.4404 28.0288 20 28.0288Z" fill="#BFC8D0"/>
<path d="M27.5 20C27.5 24.1421 24.1421 27.5 20 27.5C18.4201 27.5 16.9543 27.0115 15.7454 26.1773L13.1818 26.8182L13.8536 24.299C13.0006 23.0817 12.5 21.5993 12.5 20C12.5 15.8579 15.8579 12.5 20 12.5C24.1421 12.5 27.5 15.8579 27.5 20Z" fill="url(#paint0_linear_918_2172)"/>
<path fill-rule="evenodd" clip-rule="evenodd" d="M20 28.75C24.8325 28.75 28.75 24.8325 28.75 20C28.75 15.1675 24.8325 11.25 20 11.25C15.1675 11.25 11.25 15.1675 11.25 20C11.25 21.5693 11.6631 23.0421 12.3865 24.3156L11.25 28.75L15.8218 27.6899C17.0634 28.3659 18.4868 28.75 20 28.75ZM20 27.4038C24.089 27.4038 27.4038 24.089 27.4038 20C27.4038 15.911 24.089 12.5962 20 12.5962C15.911 12.5962 12.5962 15.911 12.5962 20C12.5962 21.5788 13.0903 23.0422 13.9324 24.2439L13.2692 26.7308L15.8 26.0981C16.9934 26.9216 18.4404 27.4038 20 27.4038Z" fill="white"/>
<path d="M17.8125 15.9374C17.6045 15.5195 17.2853 15.5565 16.9629 15.5565C16.3867 15.5565 15.4883 16.2467 15.4883 17.5312C15.4883 18.5839 15.9522 19.7362 17.5153 21.46C19.0238 23.1236 21.0059 23.9842 22.6514 23.9549C24.2969 23.9256 24.6354 22.5096 24.6354 22.0314C24.6354 21.8194 24.5039 21.7137 24.4133 21.685C23.8525 21.4158 22.8183 20.9144 22.583 20.8202C22.3477 20.726 22.2248 20.8534 22.1484 20.9227C21.935 21.1261 21.512 21.7254 21.3672 21.8602C21.2224 21.995 21.0064 21.9268 20.9166 21.8758C20.5859 21.7432 19.6893 21.3444 18.9747 20.6516C18.0908 19.7948 18.039 19.5 17.8724 19.2376C17.7392 19.0277 17.837 18.8989 17.8858 18.8426C18.0762 18.6229 18.3391 18.2837 18.457 18.1151C18.575 17.9465 18.4814 17.6906 18.4252 17.5312C18.1836 16.8456 17.9789 16.2717 17.8125 15.9374Z" fill="white"/>
<defs>
<linearGradient id="paint0_linear_918_2172" x1="26.5625" y1="14.375" x2="12.5" y2="27.5" gradientUnits="userSpaceOnUse">
<stop stop-color="#5BD066"/>
<stop offset="1" stop-color="#27B43E"/>
</linearGradient>
</defs>
</svg>
