<svg width="53" height="22" viewBox="0 0 53 22" fill="none" xmlns="http://www.w3.org/2000/svg">
<circle cx="4" cy="11" r="4" fill="#F74141"/>
<path d="M17.9414 17.168C17.12 17.168 16.3967 16.944 15.7714 16.496C15.146 16.0387 14.6607 15.4087 14.3154 14.606C13.97 13.794 13.7974 12.8513 13.7974 11.778C13.7974 10.7047 13.97 9.76667 14.3154 8.964C14.6607 8.152 15.1414 7.522 15.7574 7.074C16.3827 6.626 17.106 6.402 17.9274 6.402C18.758 6.402 19.4814 6.626 20.0974 7.074C20.7227 7.522 21.208 8.152 21.5534 8.964C21.8987 9.76667 22.0714 10.7047 22.0714 11.778C22.0714 12.8513 21.8987 13.794 21.5534 14.606C21.208 15.418 20.7274 16.048 20.1114 16.496C19.4954 16.944 18.772 17.168 17.9414 17.168ZM17.9414 15.894C18.5014 15.894 18.9867 15.726 19.3974 15.39C19.808 15.0447 20.1254 14.564 20.3494 13.948C20.5827 13.332 20.6994 12.6087 20.6994 11.778C20.6994 10.9473 20.5827 10.2287 20.3494 9.622C20.1254 9.006 19.8034 8.53 19.3834 8.194C18.9727 7.84867 18.4874 7.676 17.9274 7.676C17.3767 7.676 16.8914 7.84867 16.4714 8.194C16.0607 8.53 15.7387 9.006 15.5054 9.622C15.2814 10.2287 15.1694 10.9473 15.1694 11.778C15.1694 12.5993 15.2814 13.3227 15.5054 13.948C15.7387 14.564 16.0607 15.0447 16.4714 15.39C16.8914 15.726 17.3814 15.894 17.9414 15.894ZM23.7462 17V16.048L26.6302 12.926C27.1902 12.3193 27.6429 11.82 27.9882 11.428C28.3336 11.036 28.5856 10.686 28.7442 10.378C28.9029 10.07 28.9822 9.74333 28.9822 9.398C28.9822 8.82867 28.8142 8.39 28.4782 8.082C28.1422 7.774 27.6989 7.62 27.1482 7.62C26.5882 7.62 26.1122 7.78333 25.7202 8.11C25.3282 8.42733 25.0576 8.88 24.9082 9.468L23.6622 9.146C23.7836 8.586 24.0076 8.10067 24.3342 7.69C24.6609 7.27933 25.0669 6.962 25.5522 6.738C26.0376 6.514 26.5696 6.402 27.1482 6.402C27.7829 6.402 28.3429 6.528 28.8282 6.78C29.3136 7.02267 29.6916 7.36333 29.9622 7.802C30.2329 8.24067 30.3682 8.74933 30.3682 9.328C30.3682 9.71067 30.2889 10.084 30.1302 10.448C29.9809 10.812 29.7476 11.1993 29.4302 11.61C29.1129 12.0113 28.7116 12.478 28.2262 13.01L25.6502 15.81H30.5922V17H23.7462ZM32.9111 11.134V9.454H34.2691V11.134H32.9111ZM32.9111 17V15.32H34.2691V17H32.9111ZM36.5705 17V16.048L39.4545 12.926C40.0145 12.3193 40.4671 11.82 40.8125 11.428C41.1578 11.036 41.4098 10.686 41.5685 10.378C41.7271 10.07 41.8065 9.74333 41.8065 9.398C41.8065 8.82867 41.6385 8.39 41.3025 8.082C40.9665 7.774 40.5231 7.62 39.9725 7.62C39.4125 7.62 38.9365 7.78333 38.5445 8.11C38.1525 8.42733 37.8818 8.88 37.7325 9.468L36.4865 9.146C36.6078 8.586 36.8318 8.10067 37.1585 7.69C37.4851 7.27933 37.8911 6.962 38.3765 6.738C38.8618 6.514 39.3938 6.402 39.9725 6.402C40.6071 6.402 41.1671 6.528 41.6525 6.78C42.1378 7.02267 42.5158 7.36333 42.7865 7.802C43.0571 8.24067 43.1925 8.74933 43.1925 9.328C43.1925 9.71067 43.1131 10.084 42.9545 10.448C42.8051 10.812 42.5718 11.1993 42.2545 11.61C41.9371 12.0113 41.5358 12.478 41.0505 13.01L38.4745 15.81H43.4165V17H36.5705ZM48.6053 17.168C47.9053 17.168 47.2846 17.028 46.7433 16.748C46.2113 16.468 45.7913 16.09 45.4833 15.614C45.1846 15.1287 45.0353 14.5873 45.0353 13.99C45.0353 13.3927 45.1846 12.8607 45.4833 12.394C45.782 11.9273 46.1973 11.568 46.7293 11.316C46.3466 11.0827 46.0526 10.7747 45.8473 10.392C45.642 10 45.5393 9.58467 45.5393 9.146C45.5393 8.62333 45.67 8.15667 45.9313 7.746C46.202 7.326 46.566 6.99933 47.0233 6.766C47.49 6.52333 48.0173 6.402 48.6053 6.402C49.1933 6.402 49.716 6.51867 50.1733 6.752C50.64 6.98533 51.004 7.312 51.2653 7.732C51.5266 8.14267 51.6573 8.614 51.6573 9.146C51.6573 9.60333 51.55 10.0233 51.3353 10.406C51.1206 10.7793 50.8313 11.0827 50.4673 11.316C51.0086 11.5773 51.4286 11.9413 51.7273 12.408C52.026 12.8747 52.1753 13.402 52.1753 13.99C52.1753 14.5873 52.0213 15.1287 51.7133 15.614C51.4146 16.09 50.9946 16.468 50.4533 16.748C49.9213 17.028 49.3053 17.168 48.6053 17.168ZM48.6053 10.784C49.0813 10.784 49.478 10.6347 49.7953 10.336C50.1126 10.0373 50.2713 9.65 50.2713 9.174C50.2713 8.70733 50.1126 8.32933 49.7953 8.04C49.478 7.74133 49.0813 7.592 48.6053 7.592C48.12 7.592 47.714 7.74133 47.3873 8.04C47.07 8.32933 46.9113 8.70733 46.9113 9.174C46.9113 9.65 47.07 10.0373 47.3873 10.336C47.714 10.6347 48.12 10.784 48.6053 10.784ZM48.6053 15.978C49.2586 15.978 49.786 15.796 50.1873 15.432C50.5886 15.0587 50.7893 14.5733 50.7893 13.976C50.7893 13.3693 50.5886 12.884 50.1873 12.52C49.786 12.156 49.2586 11.974 48.6053 11.974C47.952 11.974 47.4246 12.156 47.0233 12.52C46.622 12.884 46.4213 13.3693 46.4213 13.976C46.4213 14.5733 46.622 15.0587 47.0233 15.432C47.4246 15.796 47.952 15.978 48.6053 15.978Z" fill="white"/>
</svg>
