<svg width="69" height="32" viewBox="0 0 69 32" fill="none" xmlns="http://www.w3.org/2000/svg">
<path d="M0 12C0 5.37258 5.37258 0 12 0H57C63.6274 0 69 5.37258 69 12V20C69 26.6274 63.6274 32 57 32H12C5.37258 32 0 26.6274 0 20V12Z" fill="#16120F" fill-opacity="0.12"/>
<circle cx="12" cy="16" r="4" fill="#F74141"/>
<path d="M25.9414 22.168C25.12 22.168 24.3967 21.944 23.7714 21.496C23.146 21.0387 22.6607 20.4087 22.3154 19.606C21.97 18.794 21.7974 17.8513 21.7974 16.778C21.7974 15.7047 21.97 14.7667 22.3154 13.964C22.6607 13.152 23.1414 12.522 23.7574 12.074C24.3827 11.626 25.106 11.402 25.9274 11.402C26.758 11.402 27.4814 11.626 28.0974 12.074C28.7227 12.522 29.208 13.152 29.5534 13.964C29.8987 14.7667 30.0714 15.7047 30.0714 16.778C30.0714 17.8513 29.8987 18.794 29.5534 19.606C29.208 20.418 28.7274 21.048 28.1114 21.496C27.4954 21.944 26.772 22.168 25.9414 22.168ZM25.9414 20.894C26.5014 20.894 26.9867 20.726 27.3974 20.39C27.808 20.0447 28.1254 19.564 28.3494 18.948C28.5827 18.332 28.6994 17.6087 28.6994 16.778C28.6994 15.9473 28.5827 15.2287 28.3494 14.622C28.1254 14.006 27.8034 13.53 27.3834 13.194C26.9727 12.8487 26.4874 12.676 25.9274 12.676C25.3767 12.676 24.8914 12.8487 24.4714 13.194C24.0607 13.53 23.7387 14.006 23.5054 14.622C23.2814 15.2287 23.1694 15.9473 23.1694 16.778C23.1694 17.5993 23.2814 18.3227 23.5054 18.948C23.7387 19.564 24.0607 20.0447 24.4714 20.39C24.8914 20.726 25.3814 20.894 25.9414 20.894ZM31.7462 22V21.048L34.6302 17.926C35.1902 17.3193 35.6429 16.82 35.9882 16.428C36.3336 16.036 36.5856 15.686 36.7442 15.378C36.9029 15.07 36.9822 14.7433 36.9822 14.398C36.9822 13.8287 36.8142 13.39 36.4782 13.082C36.1422 12.774 35.6989 12.62 35.1482 12.62C34.5882 12.62 34.1122 12.7833 33.7202 13.11C33.3282 13.4273 33.0576 13.88 32.9082 14.468L31.6622 14.146C31.7836 13.586 32.0076 13.1007 32.3342 12.69C32.6609 12.2793 33.0669 11.962 33.5522 11.738C34.0376 11.514 34.5696 11.402 35.1482 11.402C35.7829 11.402 36.3429 11.528 36.8282 11.78C37.3136 12.0227 37.6916 12.3633 37.9622 12.802C38.2329 13.2407 38.3682 13.7493 38.3682 14.328C38.3682 14.7107 38.2889 15.084 38.1302 15.448C37.9809 15.812 37.7476 16.1993 37.4302 16.61C37.1129 17.0113 36.7116 17.478 36.2262 18.01L33.6502 20.81H38.5922V22H31.7462ZM40.9111 16.134V14.454H42.2691V16.134H40.9111ZM40.9111 22V20.32H42.2691V22H40.9111ZM44.5705 22V21.048L47.4545 17.926C48.0145 17.3193 48.4671 16.82 48.8125 16.428C49.1578 16.036 49.4098 15.686 49.5685 15.378C49.7271 15.07 49.8065 14.7433 49.8065 14.398C49.8065 13.8287 49.6385 13.39 49.3025 13.082C48.9665 12.774 48.5231 12.62 47.9725 12.62C47.4125 12.62 46.9365 12.7833 46.5445 13.11C46.1525 13.4273 45.8818 13.88 45.7325 14.468L44.4865 14.146C44.6078 13.586 44.8318 13.1007 45.1585 12.69C45.4851 12.2793 45.8911 11.962 46.3765 11.738C46.8618 11.514 47.3938 11.402 47.9725 11.402C48.6071 11.402 49.1671 11.528 49.6525 11.78C50.1378 12.0227 50.5158 12.3633 50.7865 12.802C51.0571 13.2407 51.1925 13.7493 51.1925 14.328C51.1925 14.7107 51.1131 15.084 50.9545 15.448C50.8051 15.812 50.5718 16.1993 50.2545 16.61C49.9371 17.0113 49.5358 17.478 49.0505 18.01L46.4745 20.81H51.4165V22H44.5705ZM56.6053 22.168C55.9053 22.168 55.2846 22.028 54.7433 21.748C54.2113 21.468 53.7913 21.09 53.4833 20.614C53.1846 20.1287 53.0353 19.5873 53.0353 18.99C53.0353 18.3927 53.1846 17.8607 53.4833 17.394C53.782 16.9273 54.1973 16.568 54.7293 16.316C54.3466 16.0827 54.0526 15.7747 53.8473 15.392C53.642 15 53.5393 14.5847 53.5393 14.146C53.5393 13.6233 53.67 13.1567 53.9313 12.746C54.202 12.326 54.566 11.9993 55.0233 11.766C55.49 11.5233 56.0173 11.402 56.6053 11.402C57.1933 11.402 57.716 11.5187 58.1733 11.752C58.64 11.9853 59.004 12.312 59.2653 12.732C59.5266 13.1427 59.6573 13.614 59.6573 14.146C59.6573 14.6033 59.55 15.0233 59.3353 15.406C59.1206 15.7793 58.8313 16.0827 58.4673 16.316C59.0086 16.5773 59.4286 16.9413 59.7273 17.408C60.026 17.8747 60.1753 18.402 60.1753 18.99C60.1753 19.5873 60.0213 20.1287 59.7133 20.614C59.4146 21.09 58.9946 21.468 58.4533 21.748C57.9213 22.028 57.3053 22.168 56.6053 22.168ZM56.6053 15.784C57.0813 15.784 57.478 15.6347 57.7953 15.336C58.1126 15.0373 58.2713 14.65 58.2713 14.174C58.2713 13.7073 58.1126 13.3293 57.7953 13.04C57.478 12.7413 57.0813 12.592 56.6053 12.592C56.12 12.592 55.714 12.7413 55.3873 13.04C55.07 13.3293 54.9113 13.7073 54.9113 14.174C54.9113 14.65 55.07 15.0373 55.3873 15.336C55.714 15.6347 56.12 15.784 56.6053 15.784ZM56.6053 20.978C57.2586 20.978 57.786 20.796 58.1873 20.432C58.5886 20.0587 58.7893 19.5733 58.7893 18.976C58.7893 18.3693 58.5886 17.884 58.1873 17.52C57.786 17.156 57.2586 16.974 56.6053 16.974C55.952 16.974 55.4246 17.156 55.0233 17.52C54.622 17.884 54.4213 18.3693 54.4213 18.976C54.4213 19.5733 54.622 20.0587 55.0233 20.432C55.4246 20.796 55.952 20.978 56.6053 20.978Z" fill="white"/>
</svg>
