<svg width="20" height="20" viewBox="0 0 20 20" fill="none" xmlns="http://www.w3.org/2000/svg">
<path fill-rule="evenodd" clip-rule="evenodd" d="M9.99984 1.04199C5.05229 1.04199 1.0415 5.05277 1.0415 10.0003C1.0415 14.9479 5.05229 18.9587 9.99984 18.9587C14.9474 18.9587 18.9582 14.9479 18.9582 10.0003C18.9582 5.05277 14.9474 1.04199 9.99984 1.04199ZM9.99287 5.20866C8.4963 5.20866 7.28157 6.42038 7.28157 7.91699C7.28157 9.4136 8.4963 10.6253 9.99287 10.6253C11.4894 10.6253 12.7042 9.4136 12.7042 7.91699C12.7042 6.42038 11.4894 5.20866 9.99287 5.20866ZM14.2006 13.7338C11.9777 11.3338 7.97877 11.4576 5.80302 13.73L5.64676 13.8863C5.5257 14.0073 5.4596 14.1728 5.4639 14.3439C5.4682 14.5151 5.54252 14.677 5.6695 14.7918C6.81458 15.8273 8.33425 16.4587 9.99993 16.4587C11.6656 16.4587 13.1853 15.8273 14.3304 14.7918C14.4573 14.677 14.5317 14.5151 14.536 14.3439C14.5403 14.1728 14.4742 14.0073 14.3531 13.8863L14.2006 13.7338Z" fill="#6172F3"/>
</svg>
