<svg xmlns="http://www.w3.org/2000/svg" width="128" height="128" viewBox="0 0 128 128">
  <title>BALLOON</title>
  <g>
    <path d="M105.4,55.148c6.891-6.878,7.162-18.014.6-24.824a17.462,17.462,0,0,0-23.681-1.356A17.454,17.454,0,0,0,71.247,25a16.567,16.567,0,0,0-1.889-2.345A17.461,17.461,0,0,0,45.68,21.3,17.468,17.468,0,0,0,22,22.656c-6.557,6.808-6.286,17.944.6,24.822L37.464,62.35A11.566,11.566,0,0,0,40.075,64.3a8.686,8.686,0,0,0-3.048,5.687l-.595,5.322a1.751,1.751,0,0,0,2.116,1.9,32.884,32.884,0,0,1,5.208-.713c-.14,3.1,1.073,6.174,1.864,8.173.205.516.4,1,.463,1.246.522,1.95-.2,3.5-1.117,5.466a15.071,15.071,0,0,0-1.785,6.124,20.14,20.14,0,0,0,1.155,6.377c.248.834.481,1.621.667,2.413a19.693,19.693,0,0,1,.411,2.452,1.752,1.752,0,0,0,1.739,1.57c.06,0,.121,0,.182-.008a1.751,1.751,0,0,0,1.561-1.921,22.947,22.947,0,0,0-.485-2.891c-.209-.893-.469-1.767-.72-2.612a17.276,17.276,0,0,1-1.012-5.28,11.936,11.936,0,0,1,1.459-4.745c1.021-2.188,2.178-4.67,1.326-7.851a16.542,16.542,0,0,0-.589-1.629c-.694-1.752-1.768-4.5-1.6-6.9a32.932,32.932,0,0,1,5.541.729,1.752,1.752,0,0,0,2.117-1.9l-.6-5.323A8.68,8.68,0,0,0,51.289,64.3a11.56,11.56,0,0,0,2.608-1.95l6.271-6.275L74.1,70.006a11.633,11.633,0,0,0,2.609,1.963,8.683,8.683,0,0,0-3.046,5.686l-.6,5.321a1.751,1.751,0,0,0,2.117,1.9,33.039,33.039,0,0,1,5.863-.738,14.578,14.578,0,0,1,1.574,12.241c-.25.716-.556,1.423-.88,2.17a25.537,25.537,0,0,0-1.31,3.5,17.01,17.01,0,0,0-.232,7.229,1.75,1.75,0,0,0,1.726,1.472,1.678,1.678,0,0,0,.28-.023,1.748,1.748,0,0,0,1.449-2,13.611,13.611,0,0,1,.155-5.762,22.641,22.641,0,0,1,1.144-3.019c.335-.771.681-1.57.973-2.406a17.677,17.677,0,0,0-.858-13.3,32.94,32.94,0,0,1,4.383.647,1.751,1.751,0,0,0,2.116-1.9l-.595-5.322a8.68,8.68,0,0,0-3.047-5.685,11.693,11.693,0,0,0,2.611-1.962Zm-65.223,18.2.333-2.976a5.208,5.208,0,0,1,10.351,0l.333,2.977A37.185,37.185,0,0,0,40.173,73.351Zm11.25-13.478a8.137,8.137,0,0,1-11.485,0L25.076,45c-5.549-5.54-5.8-14.476-.557-19.916A13.96,13.96,0,0,1,44.442,24.9a1.749,1.749,0,0,0,2.475,0,13.962,13.962,0,0,1,19.925.19c5.345,5.525,4.816,14.549-.559,19.915l0,0ZM76.81,81.02l.333-2.975a5.208,5.208,0,0,1,10.351,0l.333,2.976A37.312,37.312,0,0,0,76.81,81.02Zm5.506-11.1h0a8.054,8.054,0,0,1-5.734-2.383L62.642,53.6l6.115-6.119A18,18,0,0,0,73.078,28.62a13.981,13.981,0,0,1,8,3.947,1.749,1.749,0,0,0,2.475,0,13.959,13.959,0,0,1,19.921.187c5.243,5.442,4.994,14.378-.556,19.919L88.062,67.532A8.07,8.07,0,0,1,82.316,69.915Z"/>
    <path d="M32.806,25.359a11.04,11.04,0,0,0-8.153,10.646,1.75,1.75,0,0,0,3.5,0,7.534,7.534,0,0,1,5.563-7.267,1.75,1.75,0,0,0-.91-3.379Z"/>
  </g>
</svg>
