<svg xmlns="http://www.w3.org/2000/svg" width="128" height="128" viewBox="0 0 128 128">
  <title>BIBLE</title>
  <g>
    <path d="M103.355,19a1.75,1.75,0,0,0-1.75-1.75H35.525A10.888,10.888,0,0,0,24.644,28.12V99.88a10.868,10.868,0,0,0,10.881,10.87h66.08a1.751,1.751,0,0,0,1.42-2.773,13.81,13.81,0,0,1,0-16.194,1.483,1.483,0,0,0,.33-1.023Zm-69.58,1.968v8.975a1.75,1.75,0,1,0,3.5,0V20.75h62.58V89.01H37.275V48.974a1.75,1.75,0,0,0-3.5,0V89.212a11.445,11.445,0,0,0-5.631,2.856V28.12A7.38,7.38,0,0,1,33.775,20.968ZM98.553,107.25H35.525a7.368,7.368,0,0,1-7.38-7.271,7.649,7.649,0,0,1,7.689-7.469H98.553A17.32,17.32,0,0,0,98.553,107.25Z"/>
    <path d="M53.349,52.4h8.9V74.923A1.749,1.749,0,0,0,64,76.673h9.057a1.75,1.75,0,0,0,1.75-1.75V52.4h8.9a1.75,1.75,0,0,0,1.75-1.75V41.591a1.749,1.749,0,0,0-1.75-1.75h-8.9V32.236a1.751,1.751,0,0,0-1.75-1.75H64a1.75,1.75,0,0,0-1.75,1.75v7.605h-8.9a1.749,1.749,0,0,0-1.75,1.75v9.056A1.75,1.75,0,0,0,53.349,52.4Zm1.75-9.056H64a1.75,1.75,0,0,0,1.75-1.75V33.986h5.557v7.605a1.75,1.75,0,0,0,1.75,1.75h8.9V48.9h-8.9a1.75,1.75,0,0,0-1.75,1.75V73.173H65.75V50.647A1.75,1.75,0,0,0,64,48.9H55.1Z"/>
  </g>
</svg>
