<svg xmlns="http://www.w3.org/2000/svg" width="128" height="128" viewBox="0 0 128 128">
  <title>BOUQUET</title>
  <g>
    <path d="M64,44.7a8.325,8.325,0,1,0-8.325-8.325A8.335,8.335,0,0,0,64,44.7Zm0-13.15a4.825,4.825,0,1,1-4.825,4.825A4.83,4.83,0,0,1,64,31.549Z"/>
    <path d="M97.064,50.543A8.017,8.017,0,0,0,98.479,37.17,8.037,8.037,0,0,0,88.105,26.793,8.074,8.074,0,0,0,79.781,24.1a7.981,7.981,0,0,0-1.087.39,8.828,8.828,0,0,0-6.558-1.859,8.84,8.84,0,0,0-16.272,0A8.837,8.837,0,0,0,49.3,24.491a8.24,8.24,0,0,0-1.089-.391A8.076,8.076,0,0,0,39.9,26.793,8.038,8.038,0,0,0,29.521,37.17a8.018,8.018,0,0,0,1.421,13.376A14.2,14.2,0,0,0,27.09,64.432a1.747,1.747,0,0,0,1.237,1.238A14.067,14.067,0,0,0,39.2,64.2c1.872,9.5,5.739,17.647,10.892,22.937a6.061,6.061,0,0,0,1.01,8.466,20.843,20.843,0,0,0-2.778,10.5,4.615,4.615,0,0,0,4.58,4.64H75.1a4.623,4.623,0,0,0,4.58-4.67A20.8,20.8,0,0,0,76.9,95.6a5.98,5.98,0,0,0,2.29-4.741,6.1,6.1,0,0,0-1.277-3.715c5.178-5.319,9.026-13.5,10.9-22.968a14.062,14.062,0,0,0,7.178,1.98,14.317,14.317,0,0,0,3.69-.486,1.747,1.747,0,0,0,1.24-1.243A14.247,14.247,0,0,0,97.064,50.543Zm-11.129-20.7a1.751,1.751,0,0,0,2.533.675,4.537,4.537,0,0,1,6.284,6.293,1.751,1.751,0,0,0,.683,2.538,4.536,4.536,0,0,1-2.308,8.585,1.758,1.758,0,0,0-1.855,1.913,4.525,4.525,0,0,1-3.326,4.595l-.189.051a4.526,4.526,0,0,1-5.072-2.406,1.751,1.751,0,0,0-2.533-.675,4.534,4.534,0,0,1-5.771-.635,8.841,8.841,0,0,0,6.034-3.661,7.582,7.582,0,1,0,1.3-13.406,8.8,8.8,0,0,0-.644-6.3A4.551,4.551,0,0,1,85.935,29.843ZM73.11,93.44H54.89a2.58,2.58,0,0,1,0-5.16H73.11a2.58,2.58,0,0,1,0,5.16ZM75,85.094a6.013,6.013,0,0,0-1.891-.314H70.043a69.514,69.514,0,0,0,2.831-15.932,1.75,1.75,0,1,0-3.489-.276c-.533,6.751-1.639,12.554-3.067,16.208H61.682c-1.429-3.654-2.534-9.457-3.067-16.208a1.75,1.75,0,0,0-3.49.276A69.562,69.562,0,0,0,57.957,84.78H54.89a6.048,6.048,0,0,0-1.9.315C46.2,78.447,42.842,67.616,41.8,58.081a7.974,7.974,0,0,0,5.688-2.943,8.052,8.052,0,0,0,9.311-2.7,8.787,8.787,0,0,0,14.4,0,8.041,8.041,0,0,0,9.312,2.7A7.942,7.942,0,0,0,86.2,58.078C84.981,69.451,80.879,79.346,75,85.094Zm6.236-46.759a4.082,4.082,0,1,1,.612,5.471A8.727,8.727,0,0,0,81.237,38.335ZM56.487,26.347a1.75,1.75,0,0,0,2.279-1.314,5.34,5.34,0,0,1,10.468,0,1.75,1.75,0,0,0,2.279,1.314,5.336,5.336,0,0,1,5.232,9.058,1.75,1.75,0,0,0,0,2.626A5.344,5.344,0,0,1,71.505,47.1a1.751,1.751,0,0,0-2.271,1.316,5.342,5.342,0,0,1-10.468,0A1.752,1.752,0,0,0,56.5,47.1a5.342,5.342,0,0,1-5.236-9.069,1.75,1.75,0,0,0,0-2.626,5.336,5.336,0,0,1,5.232-9.058ZM46.762,38.334a8.7,8.7,0,0,0-.613,5.473,4.074,4.074,0,1,1,.613-5.473Zm-14.2,1.015a1.752,1.752,0,0,0,.683-2.538,4.537,4.537,0,0,1,6.284-6.293,1.75,1.75,0,0,0,2.533-.675,4.55,4.55,0,0,1,4.863-2.43,8.824,8.824,0,0,0-.645,6.3,7.579,7.579,0,1,0,1.3,13.406,8.855,8.855,0,0,0,6.029,3.669,4.536,4.536,0,0,1-5.766.628,1.75,1.75,0,0,0-2.533.675,4.539,4.539,0,0,1-2.2,2.12c-2.705,1.231-6.258-.311-6.391-4.584a1.74,1.74,0,0,0-1.851-1.689,4.536,4.536,0,0,1-2.308-8.585ZM30.251,62.512A10.6,10.6,0,0,1,33.71,52.78,8.057,8.057,0,0,0,38.228,57.5q.138,1.47.338,2.9A10.607,10.607,0,0,1,30.251,62.512ZM75.1,107.25H52.9a1.133,1.133,0,0,1-1.08-1.17A17.165,17.165,0,0,1,54.4,96.9c.163.013.323.039.489.039H73.11c.167,0,.326-.025.489-.038a17.188,17.188,0,0,1,2.581,9.208A1.126,1.126,0,0,1,75.1,107.25ZM97.757,62.51a10.618,10.618,0,0,1-8.313-2.138q.195-1.422.33-2.873a8.074,8.074,0,0,0,4.53-4.743A10.719,10.719,0,0,1,97.757,62.51Z"/>
  </g>
</svg>
