<svg xmlns="http://www.w3.org/2000/svg" width="128" height="128" viewBox="0 0 128 128">
  <title>BOW</title>
  <path d="M110.239,17.765A1.746,1.746,0,0,0,109,17.252h0l-11.816.007h-.017A7.653,7.653,0,0,0,91.136,29.6l-5.154,5.154-.555-.556a34.966,34.966,0,0,0-45.191-3.826l-3.015-3.015a5.906,5.906,0,0,0-8.352,8.353l3.306,3.307A11.675,11.675,0,0,0,33.4,40.067L38.237,82.5l-4.322,4.321-3.991-1.349a3.954,3.954,0,0,0-4.093.955l-7.63,7.63a3.982,3.982,0,0,0,1.543,6.588l5.683,1.917,1.923,5.691a3.981,3.981,0,0,0,6.586,1.542l7.632-7.631a3.958,3.958,0,0,0,.956-4.093l-1.352-3.99L45.5,89.758,87.929,94.6a11.447,11.447,0,0,0,1.048,1.221l3.306,3.307a5.906,5.906,0,0,0,8.353-8.353L97.622,87.76A34.965,34.965,0,0,0,93.8,42.568l-.555-.555,5.153-5.152a7.544,7.544,0,0,0,4.662,1.605h.032a7.621,7.621,0,0,0,7.65-7.648L110.751,19A1.745,1.745,0,0,0,110.239,17.765ZM37.132,41.924a11.264,11.264,0,0,0,9.714-1.759,23.21,23.21,0,0,1,30.229,2.388l.555.555L41.4,79.339ZM20.548,96.982a.462.462,0,0,1,.128-.45L28.305,88.9a.491.491,0,0,1,.5-.116l5.921,2-8.385,8.385-5.474-1.848A.459.459,0,0,1,20.548,96.982ZM39.093,99.69l-7.631,7.631a.482.482,0,0,1-.8-.187l-1.852-5.484L37.2,93.264l2.01,5.931A.485.485,0,0,1,39.093,99.69Zm-.58-11.313-.9-.3,42.491-42.49,2.308,2.309L39.919,90.385s-.231-.684-.309-.911A1.835,1.835,0,0,0,38.513,88.377ZM48.657,86.6,84.888,50.366l.555.555A23.21,23.21,0,0,1,87.83,81.15a11.273,11.273,0,0,0-1.758,9.715Zm45.876-.536a3.008,3.008,0,0,0,.322,3.881l3.306,3.307a2.409,2.409,0,0,1,0,3.4,2.459,2.459,0,0,1-3.4,0l-3.306-3.306a7.784,7.784,0,0,1-.793-10.134,26.694,26.694,0,0,0-2.741-34.766l-8.369-8.368a26.7,26.7,0,0,0-34.764-2.742,7.787,7.787,0,0,1-10.135-.792l-3.306-3.308a2.406,2.406,0,0,1,3.4-3.4l3.305,3.306a3.015,3.015,0,0,0,3.9.31,31.491,31.491,0,0,1,41,3.225l8.369,8.368A31.493,31.493,0,0,1,94.533,86.061ZM88.458,37.23l5.43-5.43a7.717,7.717,0,0,0,1.7.6,7.568,7.568,0,0,0,.606,1.711l-5.43,5.431C90.655,39.428,88.309,37.082,88.458,37.23Zm18.779-6.373a4.124,4.124,0,0,1-4.157,4.109h-.018a4.144,4.144,0,0,1-4.126-4.109,1.75,1.75,0,0,0-1.749-1.791,4.154,4.154,0,0,1-.015-8.307h.009l10.068-.006Z"/>
</svg>
