<svg xmlns="http://www.w3.org/2000/svg" width="128" height="128" viewBox="0 0 128 128">
  <title>BRIDE</title>
  <path d="M84.965,37.449a22.675,22.675,0,0,0-6.791-6.868A8,8,0,0,0,71.9,21.852a9.08,9.08,0,0,0-15.8,0,7.994,7.994,0,0,0-6.275,8.729,22.674,22.674,0,0,0-6.791,6.868C31.909,49.523,25,69.969,25,90.87c0,1.913.064,3.834.193,5.872a1.75,1.75,0,0,0,1.414,1.606c1.4.27,2.685.5,3.908.71-.007.158-.025.314-.025.472V109a1.751,1.751,0,0,0,1.75,1.75H95.76A1.751,1.751,0,0,0,97.51,109V99.53c0-.157-.018-.314-.025-.472,1.223-.206,2.51-.44,3.908-.71a1.75,1.75,0,0,0,1.414-1.606c.129-2.038.193-3.959.193-5.872C103,69.969,96.091,49.523,84.965,37.449ZM63.539,78.243A16.3,16.3,0,0,1,47.21,61.92V53.836c3.037-3.133,6.478-3.536,10.235-3.415,2.578.084,5.5.182,11.174-2.042a15.465,15.465,0,0,0,5.656-4.3c1.056,2.456,2.872,5.766,5.585,7.77V61.92A16.311,16.311,0,0,1,63.539,78.243ZM43.71,54.931V61.92c0,.447.027.9.059,1.356a4.173,4.173,0,0,1-.059-8.345ZM83.3,63.276c.032-.456.059-.909.059-1.356V54.928a4.174,4.174,0,0,1-.059,8.348ZM57.4,25.2a1.75,1.75,0,0,0,1.474-1.057,5.579,5.579,0,0,1,10.262,0A1.75,1.75,0,0,0,70.605,25.2,4.5,4.5,0,0,1,74.624,28.7,22.558,22.558,0,0,0,65.91,26.95H62.09A22.542,22.542,0,0,0,53.377,28.7,4.5,4.5,0,0,1,57.4,25.2Zm-4.752,7.762A18.953,18.953,0,0,1,62.09,30.45h3.82A19.095,19.095,0,0,1,84.98,49.52v2.092a7.8,7.8,0,0,0-1.62-.192v-.51A1.75,1.75,0,0,0,82.5,49.4c-4.006-2.371-5.976-9.348-5.995-9.419a1.75,1.75,0,0,0-3.18-.447c-.725,1.184-3.211,4.5-5.986,5.583-5,1.96-7.321,1.883-9.78,1.8-4.672-.153-9.056.524-12.886,4.5-.7.007-1.067-.02-1.655.039V49.52a18.878,18.878,0,0,1,2.9-10.085A19.146,19.146,0,0,1,52.643,32.957ZM28.5,90.87c0-15.885,4.122-31.43,11.074-42.906-.035.516-.054,1.035-.054,1.556v3.215A7.667,7.667,0,0,0,43.213,66.75a6.552,6.552,0,0,1-1.26,1.389,7.806,7.806,0,0,0-2.931,5.391,7.5,7.5,0,0,0,2.061,5.6,2.1,2.1,0,0,1,.146,3.09A1.75,1.75,0,0,0,43.694,84.7a5.621,5.621,0,0,0,0-7.908,4.035,4.035,0,0,1-1.182-3.007,4.361,4.361,0,0,1,1.681-2.96,10.483,10.483,0,0,0,1.135-1.1,19.728,19.728,0,0,0,8.889,9.691l-.159,1.57A5.01,5.01,0,0,1,50.5,85.3c-16.921,5.065-11.713,3.442-12.7,3.8a11.214,11.214,0,0,0-6.582,6.52c-.835-.141-1.693-.29-2.609-.46C28.536,93.7,28.5,92.28,28.5,90.87Zm14.685,16.38v-1.635a4.651,4.651,0,0,1,4.646-4.646h7.6a8.04,8.04,0,0,1,7.033,4.155,1.75,1.75,0,0,0,3.064,0,8.04,8.04,0,0,1,7.033-4.155h8.513a3.742,3.742,0,0,1,3.737,3.738v2.543Zm50.825,0h-5.7v-2.543a7.246,7.246,0,0,0-7.237-7.238H72.565A11.533,11.533,0,0,0,64,101.283a11.533,11.533,0,0,0-8.565-3.814h-7.6a8.155,8.155,0,0,0-8.146,8.146v1.635H33.99V99.53a7.633,7.633,0,0,1,4.964-7.119L51.5,88.656a8.5,8.5,0,0,0,6.038-7.32l.05-.5a20.166,20.166,0,0,0,12.787-.307l.08.8a8.5,8.5,0,0,0,6.04,7.325l12.548,3.754A7.631,7.631,0,0,1,94.01,99.53Zm5.381-12.084c-.916.17-1.774.319-2.609.46a11.2,11.2,0,0,0-6.68-6.553L77.5,85.3a5.015,5.015,0,0,1-3.562-4.318l-.207-2.069a19.774,19.774,0,0,0,8.107-9.386,10.458,10.458,0,0,0,1.305,1.3,4.363,4.363,0,0,1,1.682,2.961,4.035,4.035,0,0,1-1.182,3.006,5.621,5.621,0,0,0,0,7.908,1.724,1.724,0,0,0,1.218.5,1.755,1.755,0,0,0,1.264-2.971,2.1,2.1,0,0,1,.128-3.107,7.494,7.494,0,0,0,2.062-5.6,7.806,7.806,0,0,0-2.931-5.391,6.541,6.541,0,0,1-1.274-1.409A7.66,7.66,0,0,0,88.48,53.481V49.52c0-.521-.019-1.04-.054-1.556C95.378,59.44,99.5,74.985,99.5,90.87,99.5,92.28,99.464,93.7,99.391,95.166Z"/>
</svg>
