<svg xmlns="http://www.w3.org/2000/svg" width="128" height="128" viewBox="0 0 128 128">
  <title>CAKE</title>
  <path d="M109,77.509h-6.413V60.3a5.531,5.531,0,0,0-5.525-5.523H96.44V37.507a5.529,5.529,0,0,0-5.523-5.524H68.186l3.693-3.692a6.47,6.47,0,0,0-7.918-10.113,6.47,6.47,0,0,0-7.916,10.114l3.692,3.691H37.006a5.53,5.53,0,0,0-5.524,5.524V54.774H30.86A5.529,5.529,0,0,0,25.337,60.3V77.509H19a1.75,1.75,0,0,0-1.75,1.75V82.2a7.136,7.136,0,0,0,7.128,7.128H51.4L49.362,99.779H46.178a7.136,7.136,0,0,0-7.128,7.128V109a1.75,1.75,0,0,0,1.75,1.75H87.2A1.75,1.75,0,0,0,88.95,109v-2.093a7.136,7.136,0,0,0-7.128-7.128H78.637L76.6,89.327h27.025A7.136,7.136,0,0,0,110.75,82.2v-2.94A1.75,1.75,0,0,0,109,77.509ZM58.519,21.621a2.972,2.972,0,0,1,4.2,0,1.75,1.75,0,0,0,2.474,0,2.97,2.97,0,0,1,4.205,4.2l-5.442,5.441-5.442-5.441A2.979,2.979,0,0,1,58.519,21.621ZM85.45,106.907v.343H42.55v-.343a3.633,3.633,0,0,1,3.628-3.628H81.822A3.633,3.633,0,0,1,85.45,106.907Zm-50.468-69.4a2.027,2.027,0,0,1,2.024-2.024H90.917a2.026,2.026,0,0,1,2.023,2.024v2.372a4.4,4.4,0,1,1-8.791,0,1.75,1.75,0,1,0-3.5,0,4.4,4.4,0,1,1-8.792,0,1.75,1.75,0,1,0-3.5,0,4.4,4.4,0,1,1-8.792,0,1.75,1.75,0,1,0-3.5,0,4.4,4.4,0,1,1-8.791,0,1.75,1.75,0,1,0-3.5,0,4.4,4.4,0,1,1-8.792,0Zm0,8.927a7.883,7.883,0,0,0,10.542-1.6,7.886,7.886,0,0,0,12.291,0,7.887,7.887,0,0,0,12.292,0,7.887,7.887,0,0,0,12.292,0,7.882,7.882,0,0,0,10.541,1.6v8.34H34.982ZM28.837,60.3a2.025,2.025,0,0,1,2.023-2.023h66.2A2.026,2.026,0,0,1,99.087,60.3v2.115a4.566,4.566,0,0,1-4.26,4.652,4.458,4.458,0,0,1-3.2-1.239A4.363,4.363,0,0,1,90.3,62.669a1.75,1.75,0,0,0-3.5,0,4.4,4.4,0,0,1-8.792,0,1.75,1.75,0,0,0-3.5,0,4.4,4.4,0,1,1-8.791,0,1.75,1.75,0,0,0-3.5,0,4.4,4.4,0,1,1-8.792,0,1.75,1.75,0,0,0-3.5,0,4.4,4.4,0,0,1-8.792,0,1.75,1.75,0,0,0-3.5,0,4.363,4.363,0,0,1-1.335,3.156,4.455,4.455,0,0,1-3.2,1.239,4.566,4.566,0,0,1-4.259-4.652Zm0,8.863a7.606,7.606,0,0,0,4.153,1.4,7.791,7.791,0,0,0,5.74-2.225,7.91,7.91,0,0,0,.651-.711,7.888,7.888,0,0,0,12.289,0,7.889,7.889,0,0,0,12.292,0,7.888,7.888,0,0,0,12.291,0,7.888,7.888,0,0,0,12.289,0,8.207,8.207,0,0,0,.65.711,7.827,7.827,0,0,0,5.741,2.225,7.6,7.6,0,0,0,4.154-1.4v8.349H28.837Zm46.23,30.6H52.933L54.97,89.327H73.03ZM107.25,82.2a3.633,3.633,0,0,1-3.628,3.628H24.378A3.633,3.633,0,0,1,20.75,82.2v-1.19c.1,0,85.517.088,86.5,0Z"/>
</svg>
