<svg xmlns="http://www.w3.org/2000/svg" width="128" height="128" viewBox="0 0 128 128">
  <title>CALENDAR</title>
  <g>
    <path d="M47.319,82.987,62.866,98.534a1.749,1.749,0,0,0,2.475,0L80.888,82.987A12.744,12.744,0,0,0,64.1,63.877a12.743,12.743,0,0,0-16.783,19.11ZM49.793,67.44a9.2,9.2,0,0,1,13.073,0,1.752,1.752,0,0,0,2.475,0A9.244,9.244,0,0,1,78.413,80.513L64.1,94.822,49.794,80.514A9.2,9.2,0,0,1,49.793,67.44Z"/>
    <path d="M99.58,26.925V23.37a6.125,6.125,0,0,0-12.25,0v3.55H80.14V23.37a6.125,6.125,0,0,0-12.25,0v3.55h-7.2V23.37a6.125,6.125,0,0,0-12.25,0v3.55H41.25V23.37a6.125,6.125,0,0,0-12.25,0v3.55h-.48A11.283,11.283,0,0,0,17.25,38.19V99.48a11.283,11.283,0,0,0,11.27,11.27H99.48a11.283,11.283,0,0,0,11.27-11.27V38.19A11.279,11.279,0,0,0,99.58,26.925ZM90.83,23.37a2.625,2.625,0,0,1,5.25,0v10.6a2.625,2.625,0,1,1-5.25,0Zm-19.44,0a2.625,2.625,0,0,1,5.25,0v10.6a2.625,2.625,0,1,1-5.25,0Zm-19.45,0a2.629,2.629,0,0,1,2.63-2.62,2.62,2.62,0,0,1,2.62,2.62v10.6a2.625,2.625,0,1,1-5.25,0Zm-19.44,0a2.625,2.625,0,0,1,5.25,0v10.6a2.625,2.625,0,1,1-5.25,0ZM20.75,38.19a7.779,7.779,0,0,1,7.77-7.77H29v3.55a6.125,6.125,0,1,0,12.25,0V30.42h7.19v3.55a6.125,6.125,0,1,0,12.25,0V30.42h7.2v3.55a6.125,6.125,0,1,0,12.25,0V30.42h7.19v3.55a6.125,6.125,0,1,0,12.25,0V30.425a7.776,7.776,0,0,1,7.67,7.765v6.07H20.75Zm86.5,61.29a7.778,7.778,0,0,1-7.77,7.77H28.52a7.779,7.779,0,0,1-7.77-7.77V47.76h86.5Z"/>
  </g>
</svg>
