<svg xmlns="http://www.w3.org/2000/svg" width="128" height="128" viewBox="0 0 128 128">
  <title>CAMERA</title>
  <g>
    <path d="M37.1,47.752a6.576,6.576,0,0,0-8.063,10.271l6.826,6.826a1.748,1.748,0,0,0,2.474,0l6.826-6.826A6.576,6.576,0,0,0,37.1,47.752Zm5.588,7.8L37.1,61.137l-5.588-5.588A3.077,3.077,0,0,1,35.86,51.2a1.748,1.748,0,0,0,2.474,0,3.077,3.077,0,0,1,4.351,4.351Z"/>
    <path d="M103.673,39.291h-11.2l-1.829-8.037a4.634,4.634,0,0,0-4.541-3.625H63.818a4.635,4.635,0,0,0-4.541,3.625l-1.829,8.037H45.57v-3.48a4.159,4.159,0,0,0-4.154-4.154H32.778a4.159,4.159,0,0,0-4.154,4.154v3.48h-4.3a7.086,7.086,0,0,0-7.077,7.078V93.293a7.086,7.086,0,0,0,7.077,7.078h79.346a7.086,7.086,0,0,0,7.077-7.078V46.369A7.086,7.086,0,0,0,103.673,39.291ZM62.69,32.03a1.151,1.151,0,0,1,1.128-.9H86.105a1.151,1.151,0,0,1,1.128.9l1.653,7.261H61.038ZM32.124,35.811a.655.655,0,0,1,.654-.654h8.638a.656.656,0,0,1,.654.654v3.48H32.124ZM107.25,93.293a3.582,3.582,0,0,1-3.577,3.578H24.327a3.581,3.581,0,0,1-3.577-3.578V46.369a3.581,3.581,0,0,1,3.577-3.578h79.346a3.582,3.582,0,0,1,3.577,3.578Z"/>
    <path d="M74.962,45.882A23.949,23.949,0,1,0,98.911,69.831,23.976,23.976,0,0,0,74.962,45.882Zm0,44.4A20.449,20.449,0,1,1,95.411,69.831,20.472,20.472,0,0,1,74.962,90.28Z"/>
    <path d="M74.962,54.141a15.69,15.69,0,1,0,15.689,15.69A15.708,15.708,0,0,0,74.962,54.141Zm0,27.879A12.19,12.19,0,1,1,87.151,69.831,12.2,12.2,0,0,1,74.962,82.02Z"/>
  </g>
</svg>
