<svg xmlns="http://www.w3.org/2000/svg" width="128" height="128" viewBox="0 0 128 128">
  <title>CANDLE</title>
  <path d="M104.88,60.864V42.758a1.751,1.751,0,0,0-1.75-1.75H98.219v-2.9a6.488,6.488,0,0,0,4.731-6.234c0-3.163-4.081-6.961-5.332-8.05a1.749,1.749,0,0,0-2.3,0c-1.251,1.089-5.331,4.887-5.331,8.05a6.488,6.488,0,0,0,4.73,6.234v2.9h-4.91a1.751,1.751,0,0,0-1.75,1.75V60.864a8.583,8.583,0,0,0-5.87,8.129v1.579a1.749,1.749,0,0,0,1.75,1.75H94.72V77.07a3.689,3.689,0,0,1-3.69,3.68H76.357A7.961,7.961,0,0,0,65.75,72.67V66H76.531a1.751,1.751,0,0,0,1.75-1.75V62.667a8.582,8.582,0,0,0-5.871-8.129V36.432a1.749,1.749,0,0,0-1.75-1.75H65.75V31.964a6.486,6.486,0,0,0,4.73-6.234c0-3.163-4.08-6.961-5.331-8.05a1.751,1.751,0,0,0-2.3,0c-1.251,1.089-5.331,4.887-5.331,8.05a6.486,6.486,0,0,0,4.73,6.234v2.718H57.34a1.749,1.749,0,0,0-1.75,1.75V54.538a8.582,8.582,0,0,0-5.871,8.129v1.579A1.751,1.751,0,0,0,51.469,66H62.25V72.67a7.962,7.962,0,0,0-10.609,8.08H36.97a3.689,3.689,0,0,1-3.69-3.68V72.322H44.061a1.749,1.749,0,0,0,1.75-1.75V68.993a8.583,8.583,0,0,0-5.87-8.129V42.758a1.751,1.751,0,0,0-1.75-1.75h-4.91v-2.9a6.488,6.488,0,0,0,4.73-6.234c0-3.163-4.08-6.961-5.331-8.05a1.749,1.749,0,0,0-2.3,0c-1.251,1.089-5.332,4.887-5.332,8.05a6.488,6.488,0,0,0,4.731,6.234v2.9H24.87a1.751,1.751,0,0,0-1.75,1.75V60.864a8.583,8.583,0,0,0-5.87,8.129v1.579A1.75,1.75,0,0,0,19,72.322H29.78V77.07a7.193,7.193,0,0,0,7.19,7.18H52.748a8.179,8.179,0,0,0,1.205,1.567l8.3,8.3V97.6H42.971a6.538,6.538,0,0,0-6.53,6.53V109a1.751,1.751,0,0,0,1.75,1.75H89.809a1.751,1.751,0,0,0,1.75-1.75v-4.873a6.538,6.538,0,0,0-6.53-6.53H65.75V94.115l8.308-8.308a8.154,8.154,0,0,0,1.194-1.557H91.03a7.193,7.193,0,0,0,7.19-7.18V72.322H109a1.75,1.75,0,0,0,1.75-1.75V68.993A8.583,8.583,0,0,0,104.88,60.864ZM93.489,31.872c0-.857,1.411-2.738,2.981-4.328,1.57,1.588,2.98,3.467,2.98,4.328a2.981,2.981,0,0,1-5.961,0ZM61.02,25.73c0-.857,1.411-2.736,2.98-4.326,1.569,1.59,2.98,3.469,2.98,4.326a2.98,2.98,0,0,1-5.96,0ZM59.09,38.182h9.82V54.1H59.09Zm-.8,19.414H69.709a5.077,5.077,0,0,1,5.069,4.9H53.222A5.077,5.077,0,0,1,58.291,57.6ZM28.55,31.872c0-.857,1.412-2.738,2.982-4.328,1.569,1.588,2.979,3.467,2.979,4.328a2.981,2.981,0,0,1-5.961,0ZM26.62,44.508h9.821V60.421H26.62Zm-.8,19.413H37.24a5.078,5.078,0,0,1,5.069,4.9H20.753A5.078,5.078,0,0,1,25.821,63.921Zm62.238,40.206v3.123H39.941v-3.123a3.034,3.034,0,0,1,3.03-3.03c42.952.006-1,0,42.058,0A3.034,3.034,0,0,1,88.059,104.127ZM64,90.915l-7.562-7.562a4.476,4.476,0,1,1,6.322-6.338h0a1.748,1.748,0,0,0,2.478,0h0a4.476,4.476,0,0,1,6.333,6.328ZM91.559,44.508h9.821V60.421H91.559ZM85.691,68.822a5.078,5.078,0,0,1,5.069-4.9h11.419a5.078,5.078,0,0,1,5.068,4.9Z"/>
</svg>
