<svg xmlns="http://www.w3.org/2000/svg" width="128" height="128" viewBox="0 0 128 128">
  <title>CHAMPAGNE</title>
  <g>
    <path d="M54.685,73.315a6.269,6.269,0,0,0-12.344,1.548v9.045a1.749,1.749,0,0,0,1.75,1.75h9.045a6.269,6.269,0,0,0,1.549-12.343Zm-1.549,8.843h-7.3v-7.3a2.77,2.77,0,1,1,5.539.006,1.75,1.75,0,0,0,1.75,1.75,2.77,2.77,0,1,1,.006,5.539Z"/>
    <path d="M109.617,30.191,97.809,18.383a3.828,3.828,0,0,0-5.29,0l-4.566,4.566a3.719,3.719,0,0,0-.78,4.138L72.646,41.613a24.718,24.718,0,0,1-13.4,6.93A34.594,34.594,0,0,0,40.656,58.16L18.973,80.8A7.271,7.271,0,0,0,19.087,90.9L37.1,108.913a7.268,7.268,0,0,0,10.107.113L69.329,87.84A34.548,34.548,0,0,0,79.458,68.759a24.946,24.946,0,0,1,6.929-13.406l14.526-14.526a3.721,3.721,0,0,0,4.138-.78l4.566-4.567a3.738,3.738,0,0,0,0-5.289ZM44.784,106.5a3.75,3.75,0,0,1-5.213-.059L21.562,88.43a3.752,3.752,0,0,1-.06-5.213l3.669-3.832,23.444,23.444ZM66.908,85.311v0l-15.764,15.1L27.592,76.857,42.665,61.116a29.833,29.833,0,0,1,4.3-3.73L70.611,81.03A30.835,30.835,0,0,1,66.908,85.311Zm9.1-17.141A30.8,30.8,0,0,1,72.534,78L50,55.467a30.745,30.745,0,0,1,9.831-3.474,28.149,28.149,0,0,0,12.54-5.506v7.395a1.749,1.749,0,0,0,1.75,1.75h7.4A28.062,28.062,0,0,0,76.008,68.17Zm8.651-16.038h-8.79V43.341L89.46,29.749l8.791,8.791Zm22.484-19.126-4.566,4.566a.243.243,0,0,1-.341,0L90.427,25.764a.241.241,0,0,1,0-.34l4.567-4.567a.241.241,0,0,1,.34,0l11.809,11.809A.242.242,0,0,1,107.143,33.006Z"/>
  </g>
</svg>
