<svg xmlns="http://www.w3.org/2000/svg" width="128" height="128" viewBox="0 0 128 128">
  <title>CHURCH</title>
  <g>
    <path d="M62.763,63.848a1.748,1.748,0,0,0,2.474,0l5.592-5.591a5.71,5.71,0,0,0,0-8.066h0A5.72,5.72,0,0,0,64,49.252a5.7,5.7,0,0,0-6.829,9ZM59.645,52.666a2.208,2.208,0,0,1,3.118,0,1.75,1.75,0,0,0,2.474,0,2.2,2.2,0,1,1,3.117,3.116L64,60.136l-4.355-4.354A2.2,2.2,0,0,1,59.645,52.666Z"/>
    <path d="M104.894,98.509H104.2v-29.9a1.749,1.749,0,0,0-1.055-1.606L88.041,60.462V49.6l3.526,2.159A1.751,1.751,0,1,0,93.4,48.777L66.125,32.083v-6.9h2.794a1.75,1.75,0,0,0,0-3.5H66.125V19a1.75,1.75,0,0,0-3.5,0v2.684h-2.8a1.75,1.75,0,0,0,0,3.5h2.8v6.9L35.354,48.777a1.751,1.751,0,0,0,1.829,2.986L40.708,49.6V60.462L25.6,67.005a1.749,1.749,0,0,0-1.055,1.606v29.9H23.106a5.863,5.863,0,0,0-5.856,5.856v.529a5.863,5.863,0,0,0,5.856,5.856h81.788a5.863,5.863,0,0,0,5.856-5.856v-.529A5.863,5.863,0,0,0,104.894,98.509ZM100.7,69.76V98.509H88.041V64.276ZM64.375,35.115,84.541,47.461V98.509h-8.2V77.556a2.369,2.369,0,0,0-2.366-2.366H54.907a2.368,2.368,0,0,0-2.366,2.366V98.509H44.208V47.462ZM62.616,98.509H56.041V78.69h6.575Zm10.222,0H66.263V78.69h6.575ZM28.047,69.76l12.661-5.484V98.509H28.047Zm79.2,35.134a2.359,2.359,0,0,1-2.356,2.356H23.106a2.359,2.359,0,0,1-2.356-2.356v-.529a2.359,2.359,0,0,1,2.356-2.356h81.788a2.359,2.359,0,0,1,2.356,2.356Z"/>
  </g>
</svg>
