<svg xmlns="http://www.w3.org/2000/svg" width="128" height="128" viewBox="0 0 128 128">
  <title>COCKTAIL</title>
  <path d="M100.79,34.962h.017a6.484,6.484,0,0,0,1.575-12.774A6.446,6.446,0,0,0,96.1,17.25h-.017A6.46,6.46,0,0,0,89.6,23.718l-.022,8.742-6.753,6.72H54.342A14.815,14.815,0,1,0,39.549,55.746,13.767,13.767,0,0,0,46.4,61.965l13.919,5.8a7.569,7.569,0,0,1,4.654,6.974V95.61a5.332,5.332,0,0,1-2.892,4.754l-7.43,3.83a3.469,3.469,0,0,0,1.582,6.556h28.6a3.469,3.469,0,0,0,1.582-6.556l-7.428-3.829A5.333,5.333,0,0,1,76.1,95.61V74.74a7.574,7.574,0,0,1,4.653-6.974l13.92-5.8a13.8,13.8,0,0,0,8.517-12.775V40.93a1.75,1.75,0,0,0-1.75-1.75H87.787l4.26-4.24ZM62.759,61.615a1.749,1.749,0,0,0,2.475.006L75.969,50.94H99.532a10.306,10.306,0,0,1-6.21,7.794L79.4,64.535A11.25,11.25,0,0,0,74.62,68.37H66.451a11.23,11.23,0,0,0-4.783-3.835l-13.917-5.8a10.317,10.317,0,0,1-6.207-7.8H71.007l-8.241,8.2A1.75,1.75,0,0,0,62.759,61.615ZM41.385,47.44V42.68H79.308l-4.783,4.76Zm-13.07-6.51a11.313,11.313,0,0,1,22.49-1.75H39.635a1.749,1.749,0,0,0-1.75,1.75v8.26a15.316,15.316,0,0,0,.325,2.96A11.33,11.33,0,0,1,28.315,40.93Zm49.068,62.546,7.452,3.774-28.578.056,7.431-3.831a8.82,8.82,0,0,0,4.787-7.865V74.74a11.015,11.015,0,0,0-.383-2.87h4.885a11.056,11.056,0,0,0-.382,2.87V95.61A8.823,8.823,0,0,0,77.383,103.476Zm22.3-60.8v4.76h-20.2l4.783-4.76ZM93.1,23.728a3,3,0,0,1,2.984-2.978h.007a2.993,2.993,0,0,1,2.976,2.991,1.751,1.751,0,0,0,1.746,1.754,2.984,2.984,0,0,1-.006,5.967H100.8l-7.717-.02Z"/>
</svg>
