<svg xmlns="http://www.w3.org/2000/svg" width="128" height="128" viewBox="0 0 128 128">
  <title>CROWN</title>
  <g>
    <path d="M64,65.478a7.312,7.312,0,0,0-9.1,11.335l7.864,7.863a1.749,1.749,0,0,0,2.475,0L73.1,76.813A7.312,7.312,0,0,0,64,65.478Zm6.626,8.86L64,80.964l-6.626-6.626a3.811,3.811,0,0,1,5.389-5.39,1.748,1.748,0,0,0,2.474,0,3.811,3.811,0,0,1,5.39,5.39Z"/>
    <path d="M107.2,58.049a7.693,7.693,0,0,0,3.552-6.5,7.6,7.6,0,1,0-14.594,3.158l-8.681,6.9a6.3,6.3,0,0,1-9.536-2.061L68.695,41.494a7.6,7.6,0,1,0-12.524-5.78A7.561,7.561,0,0,0,58.844,41.5L49.605,59.546a6.3,6.3,0,0,1-9.536,2.061l-8.345-6.633a7.683,7.683,0,0,0,.568-4.784A7.6,7.6,0,0,0,17.25,51.82a7.3,7.3,0,0,0,2.162,4.987,7.729,7.729,0,0,0,4.464,2.465l2.9,29.941a7.017,7.017,0,0,0,.8,13.989h72.841a7.014,7.014,0,0,0,.345-14.02l2.894-29.857A7.14,7.14,0,0,0,107.2,58.049Zm-3.256,38.135a3.522,3.522,0,0,1-3.518,3.518H27.58a3.519,3.519,0,1,1,0-7.038h72.841A3.523,3.523,0,0,1,103.939,96.184ZM102.4,55.769a1.749,1.749,0,0,0-2.061,1.551L97.251,89.164H30.29L27.21,57.39a1.753,1.753,0,0,0-.635-1.187,1.735,1.735,0,0,0-1.289-.385,3.786,3.786,0,0,1-3.366-1.453,3.864,3.864,0,0,1-1.17-2.58,4.1,4.1,0,1,1,7.305,2.506,1.749,1.749,0,0,0,.28,2.46l9.556,7.6A9.806,9.806,0,0,0,52.72,61.142l9.945-19.427a1.751,1.751,0,0,0-.759-2.355,4.1,4.1,0,1,1,3.729,0,1.749,1.749,0,0,0-.759,2.355l9.945,19.427a9.8,9.8,0,0,0,14.828,3.206l9.844-7.826a1.75,1.75,0,0,0,.332-2.392,4.107,4.107,0,0,1-.671-3.317,4.065,4.065,0,0,1,3.168-3.089h0a4.105,4.105,0,0,1,4.926,3.912,4.275,4.275,0,0,1-2.013,3.512A3.564,3.564,0,0,1,102.4,55.769Z"/>
  </g>
</svg>
