<svg xmlns="http://www.w3.org/2000/svg" width="128" height="128" viewBox="0 0 128 128">
  <title>CUPCAKE</title>
  <path d="M100.005,56.961H98.457a8.137,8.137,0,0,0,1.484-4.687v-.74a8.2,8.2,0,0,0-8.186-8.187H86.717A8.136,8.136,0,0,0,88.2,38.66v-.74a8.2,8.2,0,0,0-8.19-8.19H77.174A8.972,8.972,0,0,0,64,18.419,8.974,8.974,0,0,0,50.831,29.73H47.99a8.2,8.2,0,0,0-8.19,8.19v.74a8.136,8.136,0,0,0,1.483,4.687H36.245a8.2,8.2,0,0,0-8.186,8.187v.74a8.137,8.137,0,0,0,1.484,4.687H28a8.2,8.2,0,0,0-8.187,8.187v.74A8.2,8.2,0,0,0,28,74.075h2.133l6.354,30.99a7.19,7.19,0,0,0,7.019,5.726h41a7.19,7.19,0,0,0,7.019-5.726l6.353-30.99h2.134a8.2,8.2,0,0,0,8.187-8.187v-.74A8.2,8.2,0,0,0,100.005,56.961ZM55.029,21.925a5.469,5.469,0,0,1,7.734,0,1.748,1.748,0,0,0,2.474,0,5.477,5.477,0,1,1,7.745,7.746h0l-6.5,6.5h-4.97l-6.49-6.5A5.46,5.46,0,0,1,55.029,21.925ZM43.3,38.66v-.74a4.7,4.7,0,0,1,4.69-4.69h5.643l2.936,2.94H55.44a1.75,1.75,0,0,0,0,3.5H72.56a1.75,1.75,0,0,0,0-3.5H71.435l2.94-2.94H80.01a4.7,4.7,0,0,1,4.69,4.69v.74a4.694,4.694,0,0,1-4.661,4.687H47.961A4.694,4.694,0,0,1,43.3,38.66ZM31.559,52.274v-.74a4.692,4.692,0,0,1,4.686-4.687c4.331,0,18.7,0,55.51,0a4.692,4.692,0,0,1,4.686,4.687v.74a4.692,4.692,0,0,1-4.686,4.687H36.245A4.692,4.692,0,0,1,31.559,52.274Zm8.351,52.088L33.7,74.075H46.2L49.6,107.291H43.5A3.68,3.68,0,0,1,39.91,104.362Zm22.34,2.929H53.122L49.717,74.075H62.25Zm3.5-33.216H78.283l-3.405,33.216H65.75Zm22.34,30.287a3.68,3.68,0,0,1-3.591,2.929H78.4L81.8,74.075H94.3Zm16.6-38.474a4.692,4.692,0,0,1-4.687,4.687H28a4.692,4.692,0,0,1-4.687-4.687v-.74A4.692,4.692,0,0,1,28,60.461h72.01a4.692,4.692,0,0,1,4.687,4.687Z"/>
</svg>
