<svg xmlns="http://www.w3.org/2000/svg" width="128" height="128" viewBox="0 0 128 128">
  <title>DISCO BALL</title>
  <g>
    <path d="M102.73,72.02A38.747,38.747,0,0,0,75.2,34.954V30.46a4.681,4.681,0,0,0-4.67-4.68H65.75V19a1.75,1.75,0,0,0-3.5,0v6.78H57.47a4.68,4.68,0,0,0-4.67,4.68v4.494A38.726,38.726,0,1,0,102.73,72.02ZM79.715,90a78.33,78.33,0,0,0,1.939-16.23H99.169A35.093,35.093,0,0,1,94.277,90ZM64,107.25c-4.11,0-8.393-5.109-11.16-13.75H75.16C72.392,102.141,68.11,107.25,64,107.25ZM51.854,90a74.232,74.232,0,0,1-2.009-16.23h28.31A74.232,74.232,0,0,1,76.146,90Zm-18.13,0a35.083,35.083,0,0,1-4.893-16.23H46.346A78.263,78.263,0,0,0,48.285,90Zm.009-35.95H48.264a79.064,79.064,0,0,0-1.92,16.22H28.831A34.973,34.973,0,0,1,33.733,54.05ZM60.85,37.759a5.653,5.653,0,0,1,6.306,0c3.222,1.97,6,6.618,7.957,12.787H52.888C54.848,44.38,57.625,39.731,60.85,37.759ZM76.1,54.05a75.084,75.084,0,0,1,2.056,16.22H49.847A75.1,75.1,0,0,1,51.9,54.05Zm18.171,0a34.97,34.97,0,0,1,4.9,16.22H81.656a79.206,79.206,0,0,0-1.919-16.22Zm-2.347-3.5H78.815a34.85,34.85,0,0,0-6.329-12.707A34.9,34.9,0,0,1,91.921,50.55ZM57.47,29.28H70.53a1.176,1.176,0,0,1,1.17,1.18v3.613a39.361,39.361,0,0,0-15.4,0V30.46A1.176,1.176,0,0,1,57.47,29.28Zm-1.954,8.562a34.864,34.864,0,0,0-6.33,12.708H36.079A34.913,34.913,0,0,1,55.516,37.842ZM36.093,93.5h13.12a35.092,35.092,0,0,0,6.38,12.734A34.979,34.979,0,0,1,36.093,93.5Zm36.314,12.734A35.092,35.092,0,0,0,78.787,93.5h13.12A34.976,34.976,0,0,1,72.407,106.234Z"/>
    <path d="M28.437,27.2a1.749,1.749,0,0,0,1.75-1.75V22.527a1.75,1.75,0,0,0-3.5,0V25.45A1.75,1.75,0,0,0,28.437,27.2Z"/>
    <path d="M28.437,37.177a1.749,1.749,0,0,0,1.75-1.75V32.5a1.75,1.75,0,0,0-3.5,0v2.923A1.75,1.75,0,0,0,28.437,37.177Z"/>
    <path d="M31.965,30.728h2.923a1.75,1.75,0,0,0,0-3.5H31.965a1.75,1.75,0,1,0,0,3.5Z"/>
    <path d="M26.66,28.978a1.749,1.749,0,0,0-1.75-1.75H21.987a1.75,1.75,0,0,0,0,3.5H24.91A1.75,1.75,0,0,0,26.66,28.978Z"/>
    <path d="M101.967,98.434v2.393a1.75,1.75,0,0,0,3.5,0V98.434a1.75,1.75,0,0,0-3.5,0Z"/>
    <path d="M103.717,104.855a1.75,1.75,0,0,0-1.75,1.75V109a1.75,1.75,0,0,0,3.5,0v-2.395A1.75,1.75,0,0,0,103.717,104.855Z"/>
    <path d="M109,101.967h-2.395a1.75,1.75,0,0,0,0,3.5H109a1.75,1.75,0,0,0,0-3.5Z"/>
    <path d="M102.577,103.717a1.749,1.749,0,0,0-1.75-1.75H98.434a1.75,1.75,0,0,0,0,3.5h2.393A1.749,1.749,0,0,0,102.577,103.717Z"/>
  </g>
</svg>
