<svg xmlns="http://www.w3.org/2000/svg" width="128" height="128" viewBox="0 0 128 128">
  <title>DISH</title>
  <path d="M106.352,80.676a42.406,42.406,0,0,0-33.7-39.843l1.407-1.406A7.979,7.979,0,0,0,64,27.145,7.978,7.978,0,0,0,53.953,39.436l1.4,1.4a42.407,42.407,0,0,0-33.7,39.843,5.424,5.424,0,0,0-4.4,5.318v1.337a5.425,5.425,0,0,0,5.418,5.418h2.56v.11a9.333,9.333,0,0,0,9.321,9.322h58.9a9.333,9.333,0,0,0,9.321-9.322v-.11h2.56a5.425,5.425,0,0,0,5.418-5.418V85.994A5.424,5.424,0,0,0,106.352,80.676ZM56.428,30.637a4.465,4.465,0,0,1,6.332,0,1.8,1.8,0,0,0,2.48,0,4.476,4.476,0,0,1,6.333,6.328l-3.22,3.219a43.015,43.015,0,0,0-8.707,0l-3.208-3.209A4.465,4.465,0,0,1,56.428,30.637Zm2.784,13.1a38.894,38.894,0,0,1,43.639,36.842h-77.7A38.9,38.9,0,0,1,59.212,43.734Zm40.06,49.125a5.828,5.828,0,0,1-5.821,5.822h-58.9a5.828,5.828,0,0,1-5.821-5.822v-.11H99.272Zm7.978-5.528a1.92,1.92,0,0,1-1.918,1.918H22.668a1.92,1.92,0,0,1-1.918-1.918V85.994a1.92,1.92,0,0,1,1.918-1.918h.663c.01,0,.019,0,.029,0h81.28c.01,0,.019,0,.029,0h.663a1.92,1.92,0,0,1,1.918,1.918Z"/>
</svg>
