<svg xmlns="http://www.w3.org/2000/svg" width="128" height="128" viewBox="0 0 128 128">
  <title>DJ MIXER</title>
  <g>
    <path d="M103.023,25.631H24.977a7.735,7.735,0,0,0-7.727,7.726V94.643a7.735,7.735,0,0,0,7.727,7.726h78.046a7.735,7.735,0,0,0,7.727-7.726V33.357A7.735,7.735,0,0,0,103.023,25.631Zm4.227,69.012a4.232,4.232,0,0,1-4.227,4.226H24.977a4.231,4.231,0,0,1-4.227-4.226V33.357a4.231,4.231,0,0,1,4.227-4.226h78.046a4.232,4.232,0,0,1,4.227,4.226Z"/>
    <path d="M67.551,64A10.292,10.292,0,1,0,57.259,74.291,10.3,10.3,0,0,0,67.551,64ZM57.259,70.791A6.791,6.791,0,1,1,64.051,64,6.8,6.8,0,0,1,57.259,70.791Z"/>
    <path d="M95.081,32.479A6.968,6.968,0,0,0,90.24,44.468l-5.977,9.271a28.492,28.492,0,1,0,1.3,4.443l7.728-11.99a6.974,6.974,0,1,0,1.789-13.713ZM82.652,64a25.392,25.392,0,1,1-.836-6.463L73.147,70.985a3.45,3.45,0,0,0-4.254.487l-5.69,5.69a3.456,3.456,0,0,0,0,4.881l1.974,1.974a3.457,3.457,0,0,0,4.881,0l5.688-5.69a3.448,3.448,0,0,0,0-4.881l-.014-.013,6.888-10.685Q82.651,63.37,82.652,64Zm-9.38,11.852-5.621,5.69L65.712,79.6,71.3,73.946C71.4,74.043,73.373,75.948,73.272,75.852ZM95.081,42.933a3.477,3.477,0,1,1,3.477-3.477A3.481,3.481,0,0,1,95.081,42.933Z"/>
    <path d="M95.081,65.434a5.745,5.745,0,1,0,5.745,5.745A5.751,5.751,0,0,0,95.081,65.434Zm0,7.99a2.245,2.245,0,1,1,2.245-2.245A2.247,2.247,0,0,1,95.081,73.424Z"/>
    <path d="M95.081,81.4a5.746,5.746,0,1,0,5.745,5.745A5.751,5.751,0,0,0,95.081,81.4Zm0,7.991a2.246,2.246,0,1,1,2.245-2.246A2.248,2.248,0,0,1,95.081,89.393Z"/>
  </g>
</svg>
