<svg xmlns="http://www.w3.org/2000/svg" width="128" height="128" viewBox="0 0 128 128">
  <title>DOOR KNOB SIGN</title>
  <g>
    <path d="M64.575,17.256A24.133,24.133,0,0,0,39.894,40.994a8.645,8.645,0,0,0,7.855,8.855,8.457,8.457,0,0,0,6.409-2.214,8.544,8.544,0,0,0,2.759-6.179,6.911,6.911,0,0,1,3.689-6.393,7.359,7.359,0,0,1,7.187.319,7.061,7.061,0,0,1,3.289,5.977v6.148A9.7,9.7,0,0,1,61.391,57.2H47.019a7.136,7.136,0,0,0-7.128,7.128v39.3a7.135,7.135,0,0,0,7.128,7.128H80.981a7.135,7.135,0,0,0,7.128-7.128V41.87C88.109,28.6,77.552,17.561,64.575,17.256Zm20.034,86.366a3.633,3.633,0,0,1-3.628,3.628H47.019a3.633,3.633,0,0,1-3.628-3.628v-39.3A3.633,3.633,0,0,1,47.019,60.7H61.391A13.207,13.207,0,0,0,74.582,47.507V41.359a10.548,10.548,0,0,0-4.907-8.929,10.8,10.8,0,0,0-10.547-.539,10.37,10.37,0,0,0-5.711,9.526,5.012,5.012,0,0,1-5.405,4.941,5.143,5.143,0,0,1-4.618-5.311,20.633,20.633,0,0,1,21.1-20.291c11.092.26,20.116,9.732,20.116,21.114Z"/>
    <path d="M64,71.43A9.2,9.2,0,0,0,52.226,85.48L62.763,96.017a1.75,1.75,0,0,0,2.474,0L75.773,85.48A9.2,9.2,0,0,0,64,71.43Zm9.3,11.576-9.3,9.3-9.3-9.3a5.7,5.7,0,1,1,8.063-8.062,1.8,1.8,0,0,0,2.474,0A5.7,5.7,0,1,1,73.3,83.006Z"/>
  </g>
</svg>
