<svg xmlns="http://www.w3.org/2000/svg" width="128" height="128" viewBox="0 0 128 128">
  <title>DOUBLE BED</title>
  <path d="M109,77.509h-.933V70.962a7.425,7.425,0,0,0-7.3-7.414V46.893a10.211,10.211,0,0,0-10.2-10.2H79.609A9.889,9.889,0,0,0,64,27.613a9.892,9.892,0,0,0-15.612,9.08H37.43a10.212,10.212,0,0,0-10.2,10.2V63.548a7.425,7.425,0,0,0-7.3,7.414v6.547H19a1.751,1.751,0,0,0-1.75,1.75v21.23a1.75,1.75,0,0,0,1.75,1.75h9.5a1.75,1.75,0,0,0,1.735-1.522l.364-2.777A4.425,4.425,0,0,1,34.969,94.1H93.03a4.423,4.423,0,0,1,4.375,3.839l.364,2.777a1.751,1.751,0,0,0,1.736,1.522H109a1.749,1.749,0,0,0,1.75-1.75V79.259A1.75,1.75,0,0,0,109,77.509ZM53.687,31.141a6.425,6.425,0,0,1,9.076,0,1.75,1.75,0,0,0,2.474,0,6.413,6.413,0,0,1,9.075,9.065L64,50.518,53.687,40.206A6.433,6.433,0,0,1,53.687,31.141ZM37.43,40.193H49.414a9.658,9.658,0,0,0,1.8,2.488L62.763,54.23a1.748,1.748,0,0,0,2.474,0l11.55-11.549a9.686,9.686,0,0,0,1.8-2.488H90.57a6.707,6.707,0,0,1,6.7,6.7V63.542h-4.63V60.2a5.774,5.774,0,0,0-5.768-5.767H72.76A5.774,5.774,0,0,0,66.992,60.2v3.34H61.008V60.2a5.774,5.774,0,0,0-5.768-5.767H41.129A5.774,5.774,0,0,0,35.361,60.2v3.34H30.73V46.893A6.708,6.708,0,0,1,37.43,40.193ZM57.508,63.542H38.861V60.2a2.27,2.27,0,0,1,2.268-2.267H55.24A2.27,2.27,0,0,1,57.508,60.2Zm31.631,0H70.492V60.2a2.27,2.27,0,0,1,2.268-2.267H86.871A2.27,2.27,0,0,1,89.139,60.2Zm-65.706,7.42a3.924,3.924,0,0,1,3.919-3.92h73.3a3.924,3.924,0,0,1,3.92,3.92v6.547H23.433ZM107.25,98.739h-6.21l-.164-1.253A7.933,7.933,0,0,0,93.03,90.6H34.969a7.935,7.935,0,0,0-7.846,6.884l-.164,1.254H20.75V81.009h86.5Z"/>
</svg>
