<svg xmlns="http://www.w3.org/2000/svg" width="128" height="128" viewBox="0 0 128 128">
  <title>DRESS</title>
  <path d="M103.525,99.744C102.652,79.3,94.606,59.5,82.487,47.8V42.209l3.576-15.774a7.08,7.08,0,0,0-1.422-6,8.86,8.86,0,0,0-6.91-3.185H73.812a12.229,12.229,0,0,0-9.46,4.281,12.229,12.229,0,0,0-9.461-4.281H50.972a8.859,8.859,0,0,0-6.91,3.186,7.075,7.075,0,0,0-1.421,6l3.575,15.774V47.8C34.1,59.5,26.051,79.3,25.177,99.748a6.525,6.525,0,0,0,6.743,6.543H46.51a6.162,6.162,0,0,0,6.031,4.459H76.162a6.165,6.165,0,0,0,6.033-4.459H96.783a6.525,6.525,0,0,0,6.743-6.543ZM49.716,43.753H78.987V46.77H49.716ZM46.8,22.62a5.332,5.332,0,0,1,4.174-1.87h3.919c3.575,0,6.72,1.941,7.826,4.831a1.75,1.75,0,0,0,3.268,0c1.108-2.89,4.253-4.831,7.827-4.831h3.919a5.33,5.33,0,0,1,4.174,1.87,3.544,3.544,0,0,1,.744,3.042L79.342,40.253H49.361L46.054,25.661A3.546,3.546,0,0,1,46.8,22.62Zm49.985,80.171H82.312c-.5-18.348-3.165-34.657-7.39-44.974a1.749,1.749,0,1,0-3.238,1.326c7.588,18.534,7.208,50.366,7.183,45.748a2.556,2.556,0,0,1-2.7,2.359H52.541a2.536,2.536,0,0,1-2.695-2.707c.267-13.5,2.076-32.951,7.174-45.4a1.75,1.75,0,1,0-3.239-1.326c-4.224,10.315-6.891,26.625-7.39,44.974H31.92a3.041,3.041,0,0,1-3.246-2.9c1-23.333,10.886-40.82,19.991-49.623H80.038c9.105,8.8,18.994,26.291,19.991,49.621A3.052,3.052,0,0,1,96.783,102.791Z"/>
</svg>
