<svg xmlns="http://www.w3.org/2000/svg" width="128" height="128" viewBox="0 0 128 128">
  <title>FIREWORKS</title>
  <g>
    <path d="M76.667,34.067A9.834,9.834,0,0,0,64,19.109a9.835,9.835,0,0,0-12.67,14.958l3.919,3.919,7.088,71.267a1.75,1.75,0,0,0,3.482,0L72.939,37.8ZM53.81,22.636a6.3,6.3,0,0,1,8.931-.02,1.755,1.755,0,0,0,2.5.022,6.332,6.332,0,1,1,8.955,8.955L64,41.785,53.786,31.572A6.3,6.3,0,0,1,53.81,22.636ZM64.081,91.411l-4.925-49.52L62.763,45.5a1.748,1.748,0,0,0,2.474,0l3.8-3.8Z"/>
    <path d="M110.568,46.6A1.749,1.749,0,0,0,109,45.629h0l-6.278.005-3.564-5.168a1.75,1.75,0,0,0-3.1.454l-1.935,5.971L88.1,48.684a1.885,1.885,0,0,0-.941.682L83.166,55.15A60.439,60.439,0,0,0,72.494,87.238l-.825,21.78a1.75,1.75,0,0,0,1.5,1.8,1.776,1.776,0,0,0,.251.018,1.749,1.749,0,0,0,1.694-1.321L80.1,89.8a56.986,56.986,0,0,1,15.3-26.679l4.963-3.614,5.92,2.087A1.75,1.75,0,0,0,108.52,59.4l-1.944-5.968,3.814-4.987A1.748,1.748,0,0,0,110.568,46.6ZM76.7,88.938,75.8,92.521l.2-5.15A56.921,56.921,0,0,1,86.047,57.139l2.975-4.31,3.632,2.634-.137,5.584A60.474,60.474,0,0,0,76.7,88.938Zm26.261-35.3,1.131,3.471L100.65,55.9a1.749,1.749,0,0,0-1.612.235L96.086,58.28l.09-3.651a1.754,1.754,0,0,0-.722-1.46L92.5,51.025,96,49.982a1.748,1.748,0,0,0,1.165-1.137l1.125-3.473,2.073,3.006a1.75,1.75,0,0,0,1.441.757h0l3.653,0-2.219,2.9A1.749,1.749,0,0,0,102.963,53.638Z"/>
    <path d="M44.833,55.15s-2.995-4.337-3.992-5.784a1.765,1.765,0,0,0-.941-.682c-1.5-.445-6.017-1.793-6.017-1.793L31.948,40.92a1.751,1.751,0,0,0-3.106-.454l-3.563,5.168L19,45.629h0a1.75,1.75,0,0,0-1.39,2.813l3.814,4.986L19.479,59.4a1.75,1.75,0,0,0,2.246,2.192l5.92-2.087,4.963,3.612A57,57,0,0,1,47.905,89.8l4.98,19.718a1.75,1.75,0,0,0,1.7,1.321,1.773,1.773,0,0,0,.25-.018,1.75,1.75,0,0,0,1.5-1.8l-.826-21.78A60.422,60.422,0,0,0,44.833,55.15Zm-15.872.981A1.746,1.746,0,0,0,27.35,55.9l-3.444,1.213,1.131-3.471a1.752,1.752,0,0,0-.274-1.606l-2.219-2.9,3.652,0h0a1.751,1.751,0,0,0,1.441-.757l2.072-3.007,1.126,3.474A1.75,1.75,0,0,0,32,49.982l3.5,1.043-2.956,2.144a1.754,1.754,0,0,0-.722,1.46l.09,3.651ZM51.3,88.938A60.485,60.485,0,0,0,35.484,61.047l-.138-5.584,3.632-2.634,2.975,4.31A56.929,56.929,0,0,1,52.008,87.371l.2,5.148Z"/>
    <path d="M35.792,28.274a1.75,1.75,0,0,0,1.75-1.75V24.908a1.75,1.75,0,0,0-3.5,0v1.616A1.75,1.75,0,0,0,35.792,28.274Z"/>
    <path d="M35.792,37.217a1.75,1.75,0,0,0,1.75-1.75V33.851a1.75,1.75,0,0,0-3.5,0v1.616A1.75,1.75,0,0,0,35.792,37.217Z"/>
    <path d="M39.456,31.938h1.616a1.75,1.75,0,0,0,0-3.5H39.456a1.75,1.75,0,0,0,0,3.5Z"/>
    <path d="M30.513,31.938h1.615a1.75,1.75,0,0,0,0-3.5H30.513a1.75,1.75,0,0,0,0,3.5Z"/>
    <path d="M93.353,23.607a1.749,1.749,0,0,0,1.75-1.75V19.913a1.75,1.75,0,1,0-3.5,0v1.944A1.75,1.75,0,0,0,93.353,23.607Z"/>
    <path d="M93.353,34.368a1.749,1.749,0,0,0,1.75-1.75V30.673a1.75,1.75,0,0,0-3.5,0v1.945A1.75,1.75,0,0,0,93.353,34.368Z"/>
    <path d="M97.762,28.016h1.944a1.75,1.75,0,0,0,0-3.5H97.762a1.75,1.75,0,0,0,0,3.5Z"/>
    <path d="M87,28.016h1.945a1.75,1.75,0,0,0,0-3.5H87a1.75,1.75,0,0,0,0,3.5Z"/>
    <path d="M96.664,76.126a1.749,1.749,0,0,0-1.75,1.75v1.616a1.75,1.75,0,0,0,3.5,0V77.876A1.749,1.749,0,0,0,96.664,76.126Z"/>
    <path d="M96.664,85.068a1.75,1.75,0,0,0-1.75,1.75v1.617a1.75,1.75,0,0,0,3.5,0V86.818A1.75,1.75,0,0,0,96.664,85.068Z"/>
    <path d="M101.944,81.405h-1.616a1.75,1.75,0,0,0,0,3.5h1.616a1.75,1.75,0,0,0,0-3.5Z"/>
    <path d="M93,81.405H91.385a1.75,1.75,0,0,0,0,3.5H93a1.75,1.75,0,0,0,0-3.5Z"/>
    <path d="M28.379,85.068a1.751,1.751,0,0,0-1.75,1.75v1.617a1.75,1.75,0,0,0,3.5,0V86.818A1.75,1.75,0,0,0,28.379,85.068Z"/>
    <path d="M28.379,94.012a1.75,1.75,0,0,0-1.75,1.75v1.616a1.75,1.75,0,0,0,3.5,0V95.762A1.749,1.749,0,0,0,28.379,94.012Z"/>
    <path d="M33.659,90.349H32.043a1.75,1.75,0,1,0,0,3.5h1.616a1.75,1.75,0,1,0,0-3.5Z"/>
    <path d="M24.716,90.349H23.1a1.75,1.75,0,0,0,0,3.5h1.616a1.75,1.75,0,0,0,0-3.5Z"/>
  </g>
</svg>
