<svg xmlns="http://www.w3.org/2000/svg" width="128" height="128" viewBox="0 0 128 128">
  <title>GARLAND</title>
  <g>
    <path d="M18.174,27.939c1.2.731,2.434,1.422,3.686,2.095l1.25,17.947a1.751,1.751,0,0,0,2.919,1.177L37.908,38.427l3.78,15.554a1.751,1.751,0,0,0,3.076.67l9.871-12.532,6.084,14.747a1.752,1.752,0,0,0,1.51,1.08l.108,0a1.75,1.75,0,0,0,1.523-.889l7.849-13.889,8.258,13.65a1.75,1.75,0,0,0,3.134-.287l5.662-14.973L99.232,53.67a1.75,1.75,0,0,0,3.042-.81l3.443-17.647c1.328-.515,2.638-1.056,3.919-1.636a1.75,1.75,0,1,0-1.442-3.189c-1.494.676-3.027,1.3-4.586,1.885L87.859,36.465,71.631,37.95l-16.28-1-15.92-3.466-15.1-6.09C22.849,26.617,21.4,25.807,20,24.95a1.75,1.75,0,0,0-1.822,2.989ZM25.5,31.872a91.043,91.043,0,0,0,9.981,4.033l-9.126,8.244ZM44.239,49.66,41.327,37.678a106.854,106.854,0,0,0,10.548,2.29Zm18.344,2.547L57.873,40.79c3.58.393,7.185.615,10.786.665ZM81.1,51.932,74.717,41.381a107.146,107.146,0,0,0,10.739-.97ZM99.527,48.66l-8.04-9.3a91.389,91.389,0,0,0,10.4-2.771Z"/>
    <path d="M108,67.18c-1.4.855-2.85,1.664-4.327,2.438L88.569,75.709l-15.92,3.467-16.28,1L40.141,78.694,24.405,74.506c-1.563-.587-3.1-1.212-4.6-1.89a1.751,1.751,0,1,0-1.444,3.19c1.282.579,2.592,1.121,3.919,1.636L25.726,95.09a1.75,1.75,0,0,0,3.042.809L39.237,83.791,44.9,98.764a1.75,1.75,0,0,0,3.134.287L56.291,85.4,64.14,99.29a1.75,1.75,0,0,0,1.523.889l.107,0a1.754,1.754,0,0,0,1.511-1.08l6.083-14.747,9.872,12.532a1.75,1.75,0,0,0,3.075-.67l3.781-15.555,11.879,10.732a1.751,1.751,0,0,0,2.919-1.177l1.25-17.947c1.252-.673,2.488-1.365,3.686-2.1A1.75,1.75,0,0,0,108,67.18ZM28.473,90.89,26.117,78.819a91.181,91.181,0,0,0,10.4,2.771ZM46.9,94.161,42.543,82.64a107.193,107.193,0,0,0,10.74.971Zm18.517.275L59.341,83.684c3.6-.049,7.206-.271,10.786-.665ZM83.761,91.89,76.126,82.2a107.125,107.125,0,0,0,10.547-2.291Zm17.886-5.511-9.124-8.245A91.124,91.124,0,0,0,102.5,74.1Z"/>
  </g>
</svg>
