<svg xmlns="http://www.w3.org/2000/svg" width="128" height="128" viewBox="0 0 128 128">
  <title>GIFT</title>
  <path d="M103.54,32.79H90.834a9.514,9.514,0,0,0-7.367-15.54A21.013,21.013,0,0,0,64.475,29.366L64,30.389l-.476-1.023A21.013,21.013,0,0,0,44.532,17.25a9.514,9.514,0,0,0-7.367,15.54H24.457A7.216,7.216,0,0,0,17.249,40v4.915a7.213,7.213,0,0,0,4.7,6.75v49.859a9.239,9.239,0,0,0,9.229,9.228H96.817a9.239,9.239,0,0,0,9.229-9.228V51.663a7.214,7.214,0,0,0,4.7-6.75V40A7.216,7.216,0,0,0,103.54,32.79ZM67.648,30.841A17.5,17.5,0,0,1,83.467,20.75a6.02,6.02,0,0,1,0,12.04H66.743ZM64,94.345,49.317,79.663A9.5,9.5,0,1,1,62.763,66.238a1.752,1.752,0,0,0,2.474,0A9.5,9.5,0,1,1,78.683,79.663Zm6.82-34.328A13.01,13.01,0,0,0,64,62.673a13,13,0,0,0-6.82-2.658V52.122H70.82Zm1.45-11.639H55.727V36.29H72.27ZM38.513,26.77a6.026,6.026,0,0,1,6.019-6.02A17.5,17.5,0,0,1,60.35,30.841l.906,1.949H44.532A6.027,6.027,0,0,1,38.513,26.77ZM20.749,44.913V40a3.712,3.712,0,0,1,3.708-3.708h27.77V48.622H24.457A3.713,3.713,0,0,1,20.749,44.913Zm4.7,56.609v-49.4H53.68V60.18a12.982,12.982,0,0,0-6.837,21.957l6.837,6.837V107.25H31.18A5.735,5.735,0,0,1,25.451,101.522ZM57.18,107.25V92.474l5.583,5.583a1.748,1.748,0,0,0,2.474,0l5.583-5.583V107.25Zm45.366-5.728a5.735,5.735,0,0,1-5.729,5.728H74.32V88.974l6.837-6.837A12.982,12.982,0,0,0,74.32,60.18V52.122h28.226Zm4.7-56.609a3.713,3.713,0,0,1-3.709,3.709H75.77V36.29h27.77A3.713,3.713,0,0,1,107.249,40Z"/>
</svg>
