<svg xmlns="http://www.w3.org/2000/svg" width="128" height="128" viewBox="0 0 128 128">
  <title>GRAMAPHONE</title>
  <g>
    <path d="M83.67,47.219,90.2,53.744a1.749,1.749,0,0,0,2.475,0L99.2,47.219a6.364,6.364,0,0,0-7.761-9.966,6.365,6.365,0,0,0-7.764,9.966Zm2.474-6.525a2.872,2.872,0,0,1,4.054,0,1.751,1.751,0,0,0,2.472,0,2.864,2.864,0,1,1,4.051,4.051l-5.288,5.288-5.289-5.288A2.878,2.878,0,0,1,86.144,40.694Z"/>
    <path d="M94.712,27.374l5.913,5.912a1.749,1.749,0,0,0,2.475,0l5.913-5.912h0a5.934,5.934,0,0,0-7.153-9.339,5.932,5.932,0,0,0-7.149,9.339Zm2.474-5.913a2.439,2.439,0,0,1,3.439,0,1.8,1.8,0,0,0,2.476,0,2.485,2.485,0,0,1,3.437,0,2.435,2.435,0,0,1,0,3.438l-4.676,4.675L97.19,24.9A2.442,2.442,0,0,1,97.186,21.461Z"/>
    <path d="M105.421,100.265h-.531V85.422c0-3.573-2.616-6.481-5.83-6.481H98.024V76.806A4.73,4.73,0,0,0,93.3,72.08H50.89a4.731,4.731,0,0,0-4.726,4.726v2.135H45.13a5.7,5.7,0,0,0-4.965,3.09,12.943,12.943,0,0,1,1.4-25.639c1.206,0,16.082-.853,32.983,11.526a3.712,3.712,0,0,0,5.012-.69,3.605,3.605,0,0,0,.646-3.116l-11.17-44.13a3.617,3.617,0,0,0-6.777-.662,62.763,62.763,0,0,1-7.587,12.23A54.579,54.579,0,0,1,44.9,41.116a24.29,24.29,0,0,1-8.652,4.021A24.959,24.959,0,0,0,39.29,94.054v6.211h-.522a5.335,5.335,0,0,0-5.33,5.329V109a1.75,1.75,0,0,0,1.75,1.75H109a1.749,1.749,0,0,0,1.75-1.75v-3.408A5.335,5.335,0,0,0,105.421,100.265ZM49.664,76.806A1.227,1.227,0,0,1,50.89,75.58H93.3a1.226,1.226,0,0,1,1.224,1.226v2.135H49.664ZM45.13,82.441H99.06c1.262,0,2.33,1.366,2.33,2.981v14.84H42.79V85.422C42.79,83.926,43.744,82.441,45.13,82.441ZM21.04,69.291A21.461,21.461,0,0,1,37.128,48.525a27.765,27.765,0,0,0,9.886-4.616A58.119,58.119,0,0,0,57.408,33.733a66.417,66.417,0,0,0,8.015-12.915c.021-.046.026-.069.116-.069s.093.045.105.092L76.811,64.963c.034.131-.061.178-.187.137-11.69-8.563-25.17-12.486-34.83-12.227a16.438,16.438,0,0,0-2.5,32.544v5.1A21.507,21.507,0,0,1,21.04,69.291Zm86.21,37.961H36.938v-1.658a1.831,1.831,0,0,1,1.83-1.829h66.653a1.83,1.83,0,0,1,1.829,1.829Z"/>
    <path d="M72.545,97.486a6.135,6.135,0,1,0-6.135-6.134A6.142,6.142,0,0,0,72.545,97.486Zm0-8.769a2.635,2.635,0,1,1-2.635,2.635A2.637,2.637,0,0,1,72.545,88.717Z"/>
  </g>
</svg>
