<svg xmlns="http://www.w3.org/2000/svg" width="128" height="128" viewBox="0 0 128 128">
  <title>GROOM</title>
  <path d="M91.461,81.149l-13.331-4.7V75.64a3.482,3.482,0,0,0-2.7-3.451c-.309-.066-.617-.1-.925-.138V69.539A19.863,19.863,0,0,0,83.844,55.1,7.75,7.75,0,0,0,89.455,41.88V30.963A13.728,13.728,0,0,0,75.742,17.25H51.5a7.3,7.3,0,0,0-7.082,5.563A8.482,8.482,0,0,0,37.5,31.139v12.1a7.6,7.6,0,0,0-1.208,4.1A7.762,7.762,0,0,0,44.041,55.1h.115A19.844,19.844,0,0,0,53.51,69.55v2.5c-.322.042-.64.076-.977.148A3.49,3.49,0,0,0,49.87,75.64v.811l-13.33,4.7A11.5,11.5,0,0,0,28.86,91.99V109a1.751,1.751,0,0,0,1.75,1.75H97.39A1.751,1.751,0,0,0,99.14,109V91.99A11.5,11.5,0,0,0,91.461,81.149Zm-25.83,26.1H62.369a74.727,74.727,0,0,1-6.916-20.433,10.91,10.91,0,0,0,6.628-2.847h3.838a10.925,10.925,0,0,0,6.628,2.847A74.738,74.738,0,0,1,65.631,107.25ZM64,72.511a20.132,20.132,0,0,0,7-1.264v.944a11.044,11.044,0,0,0-4.684,2.279H61.684a11.11,11.11,0,0,0-4.674-2.275V71.25A20.126,20.126,0,0,0,64,72.511Zm-.86,5.459h1.72v2.5H63.14ZM74.61,83.2a7.239,7.239,0,0,1-6.25-1.727V77.314a7.344,7.344,0,0,1,6.256-1.74C74.612,80.646,74.61,83.358,74.61,83.2Zm9.424-31.6v-8.5a4.253,4.253,0,0,1,0,8.5ZM45.442,26.2a1.752,1.752,0,0,0,2.271-1.672A3.785,3.785,0,0,1,51.5,20.75H75.742A10.225,10.225,0,0,1,85.955,30.963v8.891a7.712,7.712,0,0,0-1.923-.262,6.8,6.8,0,0,0-8.024-6.67A66.687,66.687,0,0,1,64,33.969,66.637,66.637,0,0,1,52,32.922a6.8,6.8,0,0,0-8.026,6.67,7.724,7.724,0,0,0-2.973.62V31.139A4.973,4.973,0,0,1,45.442,26.2ZM39.788,47.342a4.268,4.268,0,0,1,4.179-4.253V51.6A4.258,4.258,0,0,1,39.788,47.342Zm7.679,5.135V39.624a3.3,3.3,0,0,1,3.892-3.26A70.247,70.247,0,0,0,64,37.469a70.25,70.25,0,0,0,12.642-1.105,3.3,3.3,0,0,1,3.892,3.26V52.5A16.52,16.52,0,0,1,71.916,67a16.866,16.866,0,0,1-15.824,0A16.467,16.467,0,0,1,47.467,52.477ZM59.64,77.314V81.47a7.419,7.419,0,0,1-4.487,1.863c-.317.02-1.783-.183-1.783-.183,0-.1-.065-7.64-.064-7.539A7.287,7.287,0,0,1,59.64,77.314ZM32.36,91.99A8,8,0,0,1,37.7,84.451l4.358-1.536a36.074,36.074,0,0,0,10.3,24.335h-20Zm13.183-10.3,4.327-1.527V83.15A3.48,3.48,0,0,0,51.8,86.316a80.019,80.019,0,0,0,6.653,20.934h-.892A32.526,32.526,0,0,1,45.543,81.691Zm24,25.559a80,80,0,0,0,6.651-20.926A3.5,3.5,0,0,0,78.13,83.15V80.164l4.327,1.527A32.524,32.524,0,0,1,70.435,107.25Zm26.1,0h-20a36.075,36.075,0,0,0,10.3-24.335L90.3,84.451a8,8,0,0,1,5.34,7.539Z"/>
</svg>
