<svg xmlns="http://www.w3.org/2000/svg" width="128" height="128" viewBox="0 0 128 128">
  <title>HALL</title>
  <g>
    <path d="M64,64.08A9.035,9.035,0,0,0,52.462,77.892l10.3,10.3a1.748,1.748,0,0,0,2.474,0l10.3-10.3A9.035,9.035,0,0,0,64,64.08Zm9.064,11.337L64,84.48l-9.064-9.063a5.534,5.534,0,0,1,7.827-7.825,1.8,1.8,0,0,0,2.474,0,5.534,5.534,0,0,1,7.827,7.825Z"/>
    <path d="M106.721,55.845V52.728a5.788,5.788,0,0,0,4.029-5.506V46.205a5.787,5.787,0,0,0-5.273-5.754L64.862,17.477a1.748,1.748,0,0,0-1.724,0L22.523,40.451a5.787,5.787,0,0,0-5.273,5.754v1.017A5.785,5.785,0,0,0,21.7,52.841v3a4.394,4.394,0,0,0,3.164,4.2V91.13a4.392,4.392,0,0,0-3.164,4.2v3a5.785,5.785,0,0,0-4.453,5.619v1.017a5.786,5.786,0,0,0,5.779,5.779h81.942a5.786,5.786,0,0,0,5.779-5.779v-1.017a5.79,5.79,0,0,0-4.029-5.507V95.331a4.392,4.392,0,0,0-3.164-4.2V60.047A4.394,4.394,0,0,0,106.721,55.845Zm-4.4,38.587a.9.9,0,0,1,.9.9v2.844H91.184V95.331a.9.9,0,0,1,.9-.9ZM40.74,98.175V95.331a4.392,4.392,0,0,0-3.164-4.2V60.047a4.394,4.394,0,0,0,3.164-4.2V53H87.684v2.844a4.393,4.393,0,0,0,3.163,4.2V91.13a4.391,4.391,0,0,0-3.163,4.2v2.844ZM25.2,95.331a.9.9,0,0,1,.9-.9H36.34a.9.9,0,0,1,.9.9v2.844H25.2Zm.9-38.586a.9.9,0,0,1-.9-.9V53H37.24v2.844a.9.9,0,0,1-.9.9Zm2.264,3.5h5.709V90.932H28.367Zm71.69,30.687h-5.71V60.245h5.71ZM92.083,56.745a.9.9,0,0,1-.9-.9V53h12.037v2.844a.9.9,0,0,1-.9.9ZM64,21.011,98.323,40.426H29.677ZM20.75,47.222V46.205a2.282,2.282,0,0,1,2.279-2.279h81.942a2.282,2.282,0,0,1,2.279,2.279v1.017a2.282,2.282,0,0,1-2.279,2.279H23.029A2.282,2.282,0,0,1,20.75,47.222Zm86.5,57.749a2.282,2.282,0,0,1-2.279,2.279H23.029a2.282,2.282,0,0,1-2.279-2.279v-1.017a2.282,2.282,0,0,1,2.279-2.279h81.942a2.282,2.282,0,0,1,2.279,2.279Z"/>
  </g>
</svg>
