<svg xmlns="http://www.w3.org/2000/svg" width="128" height="128" viewBox="0 0 128 128">
  <title>HAMMOCK</title>
  <path d="M107.063,60.222,97.6,44.072a7.694,7.694,0,0,0-3.553-13.085V23.849a1.75,1.75,0,0,0-3.5,0v7.139A7.692,7.692,0,0,0,87,44.079L77.526,60.223A4.963,4.963,0,0,0,73.842,65V68a4.958,4.958,0,0,0,2.782,4.44C75,78.793,70.51,84.548,64.064,88.522c-6.457-3.982-10.953-9.75-12.57-16.119A4.955,4.955,0,0,0,54.214,68V65a4.963,4.963,0,0,0-3.692-4.782L41.057,44.078A7.69,7.69,0,0,0,37.51,30.987V23.849a1.75,1.75,0,1,0-3.5,0v7.138a7.692,7.692,0,0,0-3.55,13.092L21,60.221A4.963,4.963,0,0,0,17.306,65V68a4.977,4.977,0,0,0,3.047,4.582c.434,9.05,5.174,17.43,13.477,23.723,8.175,6.19,18.912,9.6,30.234,9.6s22.059-3.409,30.234-9.6l0,0c8.313-6.3,13.052-14.694,13.475-23.757A4.97,4.97,0,0,0,110.75,68V65A4.965,4.965,0,0,0,107.063,60.222ZM77.342,68V65a1.471,1.471,0,0,1,1.469-1.47H105.78A1.471,1.471,0,0,1,107.25,65V68a1.471,1.471,0,0,1-1.47,1.47H78.811A1.471,1.471,0,0,1,77.342,68ZM92.3,46.208a7.655,7.655,0,0,0,2.283-.36L102.9,60.033H81.7L90.019,45.85A7.7,7.7,0,0,0,92.3,46.208Zm-.012-11.927h.02a4.209,4.209,0,1,1-2.133,7.846h0l-.005,0a4.209,4.209,0,0,1,2.119-7.842ZM20.806,68V65a1.471,1.471,0,0,1,1.469-1.47H49.244A1.471,1.471,0,0,1,50.714,65V68a1.471,1.471,0,0,1-1.47,1.47H22.275A1.471,1.471,0,0,1,20.806,68ZM35.76,46.208a7.662,7.662,0,0,0,2.279-.358l8.316,14.183H25.164L33.48,45.85A7.684,7.684,0,0,0,35.76,46.208ZM35.75,34.28h.019a4.215,4.215,0,1,1-.019,0ZM64.064,102.4c-10.564,0-20.551-3.157-28.121-8.889-7.281-5.519-11.517-12.759-12.071-20.545H48.023c3.876,16.06,21.138,25,37.587,24.589A48.832,48.832,0,0,1,64.064,102.4ZM92.5,93.265a41.364,41.364,0,0,1-8.117.807,39.536,39.536,0,0,1-16.805-3.661A30.228,30.228,0,0,0,80.1,72.967h24.152C103.71,80.639,99.583,87.778,92.5,93.265Z"/>
</svg>
