<svg xmlns="http://www.w3.org/2000/svg" width="128" height="128" viewBox="0 0 128 128">
  <title>HEART</title>
  <g>
    <path d="M64,42.074A17.183,17.183,0,0,0,40.935,67.5L62.762,89.324a1.748,1.748,0,0,0,2.474,0L87.062,67.5A17.184,17.184,0,0,0,64,42.074Zm20.59,22.949L64,85.612,43.411,65.023a13.683,13.683,0,1,1,19.35-19.351A1.75,1.75,0,0,0,64,46.185h0a1.75,1.75,0,0,0,1.237-.513A13.684,13.684,0,1,1,84.588,65.023Z"/>
    <path d="M64,17.25A46.75,46.75,0,1,0,110.75,64,46.8,46.8,0,0,0,64,17.25Zm0,90A43.25,43.25,0,1,1,107.25,64,43.3,43.3,0,0,1,64,107.25Z"/>
  </g>
</svg>
