<svg xmlns="http://www.w3.org/2000/svg" width="128" height="128" viewBox="0 0 128 128">
  <title>HOME</title>
  <g>
    <path d="M78.711,57.088A11.293,11.293,0,0,0,64,56.018,11.278,11.278,0,0,0,49.289,73.037L62.763,86.511a1.748,1.748,0,0,0,2.474,0L78.711,73.037A11.291,11.291,0,0,0,78.711,57.088ZM76.237,70.563,64,82.8,51.763,70.563a7.778,7.778,0,0,1,11-11,1.748,1.748,0,0,0,2.474,0,7.778,7.778,0,0,1,11,11Z"/>
    <path d="M104.894,98.509H99.46v-41.4l.961.688a6.558,6.558,0,0,0,9.107-1.5l.008-.01a6.558,6.558,0,0,0-1.517-9.118L96.7,39.062V19a1.751,1.751,0,0,0-1.75-1.75H79.28A1.751,1.751,0,0,0,77.53,19v6.335L67.8,18.368a6.521,6.521,0,0,0-7.6,0l-40.22,28.8a6.534,6.534,0,1,0,7.607,10.626l.952-.682v41.4H23.106a5.863,5.863,0,0,0-5.856,5.856v.529a5.863,5.863,0,0,0,5.856,5.856h81.788a5.863,5.863,0,0,0,5.856-5.856v-.529A5.863,5.863,0,0,0,104.894,98.509ZM81.03,20.75H93.2V36.555L81.03,27.841Zm-55.479,34.2a3.034,3.034,0,1,1-3.532-4.934l40.22-28.8a3.025,3.025,0,0,1,3.523,0l40.219,28.8a3.051,3.051,0,0,1,.706,4.238,3.144,3.144,0,0,1-4.239.7L65.019,28.137a1.825,1.825,0,0,0-2.038,0Zm6.489-.338L64,31.713c19.93,14.278,22.1,15.857,31.96,22.9v43.9H32.04Zm75.21,50.285a2.359,2.359,0,0,1-2.356,2.356H23.106a2.359,2.359,0,0,1-2.356-2.356v-.529a2.359,2.359,0,0,1,2.356-2.356h81.788a2.359,2.359,0,0,1,2.356,2.356Z"/>
  </g>
</svg>
