<svg xmlns="http://www.w3.org/2000/svg" width="128" height="128" viewBox="0 0 128 128">
  <title>LIPS</title>
  <path d="M109.278,55.775c-1.648-.413-16.421-3.856-24.357-9.555-8.618-6.184-12.977-3.715-16.479-1.734a8.756,8.756,0,0,1-4.488,1.568,8.7,8.7,0,0,1-4.4-1.568c-3.5-1.981-7.864-4.447-16.479,1.734-6.212,4.46-17,7.826-24.413,9.565a1.756,1.756,0,0,0-1.116,2.7l0,.006c.7,1.035,17.353,25.362,30.229,27.62,4.069.7,8.845-.064,12.825-1.15a12.826,12.826,0,0,1,6.782,0c3.447.941,8.47,1.9,12.834,1.15,12.871-2.257,29.52-26.586,30.224-27.619A1.74,1.74,0,0,0,109.278,55.775ZM45.12,49.064c6.8-4.88,9.542-3.328,12.714-1.532a11.757,11.757,0,0,0,6.12,2.02,11.815,11.815,0,0,0,6.212-2.02c3.174-1.8,5.915-3.348,12.714,1.532,5.337,3.832,13.4,6.689,19.1,8.385C86.183,61.348,71.923,64.541,64,64.541c-5.283,0-14.289-2.068-24.716-4.464-4.138-.95-8.37-1.914-12.63-2.818C32.294,55.547,39.973,52.759,45.12,49.064ZM97.736,69C90.51,77.123,84.244,81.847,79.622,82.657c-3.723.643-8.207-.231-11.315-1.08a16.283,16.283,0,0,0-8.618,0c-3.1.847-7.59,1.724-11.306,1.08C43.756,81.847,37.49,77.123,30.264,69c-2.944-3.309-5.5-6.572-7.257-8.932,5.216,1.061,10.423,2.256,15.494,3.421,10.635,2.444,19.818,4.553,25.5,4.553,8.621,0,23.983-3.509,40.772-7.679C103.02,62.694,100.559,65.825,97.736,69Z"/>
</svg>
