<svg xmlns="http://www.w3.org/2000/svg" width="128" height="128" viewBox="0 0 128 128">
  <title>LOCATION</title>
  <g>
    <path d="M62.763,64.2a1.75,1.75,0,0,0,2.474,0l9.719-9.719A8.623,8.623,0,0,0,64,41.258a8.623,8.623,0,0,0-10.956,13.22ZM55.519,44.76a5.128,5.128,0,0,1,7.244,0,1.75,1.75,0,0,0,2.474,0A5.122,5.122,0,0,1,72.481,52L64,60.484,55.519,52A5.125,5.125,0,0,1,55.519,44.76Z"/>
    <path d="M64,75.733A24.374,24.374,0,1,0,39.627,51.36,24.4,24.4,0,0,0,64,75.733Zm0-45.247A20.874,20.874,0,1,1,43.127,51.36,20.9,20.9,0,0,1,64,30.486Z"/>
    <path d="M100.013,103.416,94.987,92.355A5.18,5.18,0,0,0,90.26,89.3H78.506C87.632,79.45,97.24,65.554,97.24,50.71a33.24,33.24,0,0,0-66.48,0c0,14.828,9.588,28.71,18.737,38.59H37.74a5.177,5.177,0,0,0-4.723,3.046l-5.032,11.073a5.189,5.189,0,0,0,4.725,7.331H95.29a5.189,5.189,0,0,0,4.723-7.334ZM64,20.97A29.773,29.773,0,0,1,93.74,50.71C93.74,68.519,77.861,87,64,98.07,50.427,87.232,34.26,68.641,34.26,50.71A29.773,29.773,0,0,1,64,20.97Zm32.707,85.51a1.66,1.66,0,0,1-1.417.77H32.71a1.688,1.688,0,0,1-1.537-2.386l5.035-11.079A1.675,1.675,0,0,1,37.74,92.8H52.88a107.894,107.894,0,0,0,10.074,8.893,1.749,1.749,0,0,0,2.092,0A108.4,108.4,0,0,0,75.123,92.8H90.26a1.68,1.68,0,0,1,1.537.994l5.028,11.067A1.672,1.672,0,0,1,96.707,106.48Z"/>
  </g>
</svg>
