<svg xmlns="http://www.w3.org/2000/svg" width="128" height="128" viewBox="0 0 128 128">
  <title>LOCK</title>
  <g>
    <path d="M93.437,47.536a22.9,22.9,0,0,0-3.017-1.823V43.67a26.42,26.42,0,0,0-52.84,0v2.076a22.915,22.915,0,0,0-6.691,5c-8.642,9.287-8.2,24.315.984,33.5l22.545,22.545a13.549,13.549,0,0,0,19.164,0L96.127,84.247C106.5,73.873,105.68,56.136,93.437,47.536ZM64,20.75A22.946,22.946,0,0,1,86.92,43.67v.622a23.431,23.431,0,0,0-4.518-.97,18.405,18.405,0,0,0-36.8,0,23.42,23.42,0,0,0-4.518.97V43.67A22.946,22.946,0,0,1,64,20.75ZM78.894,43.155A23.626,23.626,0,0,0,64,48.967a23.611,23.611,0,0,0-14.894-5.811,14.9,14.9,0,0,1,29.788,0ZM93.652,81.773,71.107,104.318a10.05,10.05,0,0,1-14.214,0L34.347,81.773c-7.868-7.869-8.27-20.717-.9-28.642A20.379,20.379,0,0,1,62.763,52.6a1.8,1.8,0,0,0,2.474,0,20.356,20.356,0,0,1,26.177-2.2C101.873,57.735,102.533,72.891,93.652,81.773Z"/>
    <path d="M72.869,69.429a8.87,8.87,0,1,0-14.654,6.716l-1.651,8a3.883,3.883,0,0,0,3.8,4.669h7.265a3.883,3.883,0,0,0,3.8-4.669l-1.651-8A8.826,8.826,0,0,0,72.869,69.429Zm-6.736,6.339,1.876,9.087a.383.383,0,0,1-.376.461H60.368a.383.383,0,0,1-.376-.461l1.875-9.087a1.75,1.75,0,0,0-.766-1.825,5.369,5.369,0,1,1,5.8,0A1.748,1.748,0,0,0,66.133,75.768Z"/>
  </g>
</svg>
