<svg xmlns="http://www.w3.org/2000/svg" width="128" height="128" viewBox="0 0 128 128">
  <title>LOVE</title>
  <g>
    <path d="M87.325,67.418A22.369,22.369,0,0,0,54.2,37.942,22.371,22.371,0,0,0,23.8,70.727l29.16,29.16a1.749,1.749,0,0,0,2.474,0l8.48-8.471c.636.662,13.61,13.621,18.806,18.82a1.748,1.748,0,0,0,2.474,0l18.611-18.61A14.9,14.9,0,0,0,87.325,67.418ZM54.2,96.176,26.277,68.253A18.869,18.869,0,1,1,52.962,41.567a1.751,1.751,0,0,0,1.238.513h0a1.748,1.748,0,0,0,1.237-.513A18.872,18.872,0,0,1,82.172,68.209,14.909,14.909,0,0,0,61.781,88.6Zm47.132-7.023L83.96,106.525C65.711,88.211,66.4,89.113,65.434,87.808A11.413,11.413,0,0,1,81.369,71.856a12.391,12.391,0,0,1,1.355,1.162,1.748,1.748,0,0,0,2.473,0,11.41,11.41,0,0,1,16.136,16.136Z"/>
    <path d="M108.44,19.689h0A8.328,8.328,0,0,0,97.9,18.667a8.33,8.33,0,0,0-10.542,12.8l9.305,9.305a1.749,1.749,0,0,0,2.475,0l9.3-9.3A8.322,8.322,0,0,0,108.44,19.689Zm-2.474,9.305L97.9,37.061l-8.067-8.067a4.83,4.83,0,0,1,6.83-6.83,1.8,1.8,0,0,0,2.475,0,4.826,4.826,0,0,1,6.83,0h0A4.826,4.826,0,0,1,105.966,28.994Z"/>
  </g>
</svg>
