<svg xmlns="http://www.w3.org/2000/svg" width="128" height="128" viewBox="0 0 128 128">
  <title>MAKE UP</title>
  <g>
    <path d="M46.669,58V50.382A3.2,3.2,0,0,0,43.6,47.193V35.458a15.233,15.233,0,0,0-2.981-9.018l-.792-1.067a7.786,7.786,0,0,0-12.5,0L26.53,26.44a15.232,15.232,0,0,0-2.98,9.018V47.193a3.2,3.2,0,0,0-3.072,3.189V58a4.073,4.073,0,0,0-3.228,3.978v4.036a4.054,4.054,0,0,0,2.185,3.582V97.314a8.332,8.332,0,0,0,8.323,8.323H39.39a8.333,8.333,0,0,0,8.323-8.323V69.593A4.053,4.053,0,0,0,49.9,66.011V61.975A4.072,4.072,0,0,0,46.669,58ZM20.75,66.011V61.975a.567.567,0,0,1,.565-.567H45.832a.566.566,0,0,1,.565.567v4.036a.566.566,0,0,1-.565.565H21.315A.566.566,0,0,1,20.75,66.011ZM23.978,50.68H43.169v7.228H23.978ZM27.05,35.458a11.7,11.7,0,0,1,2.291-6.932l.792-1.067a4.286,4.286,0,0,1,6.882,0l.792,1.067A11.711,11.711,0,0,1,40.1,35.458V47.18H27.05ZM44.213,97.314a4.829,4.829,0,0,1-4.823,4.823H27.758a4.829,4.829,0,0,1-4.823-4.823V70.076H44.213Z"/>
    <path d="M109,91.043h-.519a5.275,5.275,0,0,0-4.973-7.12h-.287a28.669,28.669,0,1,0-44.518,0h-.286A5.315,5.315,0,0,0,53.1,89.229a5.255,5.255,0,0,0,.34,1.814h-.518a1.749,1.749,0,0,0-1.75,1.75c0,7.157,5.564,12.979,12.4,12.979H98.347c6.991,0,12.4-5.951,12.4-12.979A1.749,1.749,0,0,0,109,91.043ZM55.793,65.87A25.169,25.169,0,1,1,98.5,83.923H91.189a20.767,20.767,0,1,0-20.455,0H63.426A25.24,25.24,0,0,1,55.793,65.87ZM80.962,83.138A17.267,17.267,0,1,1,98.227,65.872,17.286,17.286,0,0,1,80.962,83.138ZM56.6,89.229a1.814,1.814,0,0,1,1.815-1.806h45.091a1.81,1.81,0,0,1,0,3.62H58.417A1.817,1.817,0,0,1,56.6,89.229Zm41.745,13.043H63.578a9.09,9.09,0,0,1-8.752-7.729H107.1A9.075,9.075,0,0,1,98.347,102.272Z"/>
  </g>
</svg>
