<svg xmlns="http://www.w3.org/2000/svg" width="128" height="128" viewBox="0 0 128 128">
  <title>MICROPHONE</title>
  <g>
    <path d="M110.634,42A24.686,24.686,0,0,0,85.948,17.314h0A24.629,24.629,0,0,0,61.46,39.026a5.927,5.927,0,0,0-3.539,1.686l-1.568,1.567a5.919,5.919,0,0,0-.249,8.077L24.444,85.13a9.328,9.328,0,0,0-1.51,10.408l-3.689,3.689a6.7,6.7,0,0,0,9.476,9.475l3.686-3.686A9.321,9.321,0,0,0,42.815,103.5L77.59,71.843a5.887,5.887,0,0,0,8.078-.249l1.567-1.567h0a5.939,5.939,0,0,0,1.69-3.539A24.632,24.632,0,0,0,110.634,42ZM26.246,106.228a3.28,3.28,0,0,1-4.526,0,3.2,3.2,0,0,1,0-4.527l3.319-3.319,4.526,4.526Zm14.212-5.311a5.862,5.862,0,0,1-8.129-.2l-5.1-5.1a5.864,5.864,0,0,1-.2-8.131L58.555,52.863l16.529,16.53Zm44.3-33.366h0l-1.568,1.567a2.432,2.432,0,0,1-3.433,0L58.829,48.188a2.431,2.431,0,0,1,0-3.434L60.4,43.186A2.445,2.445,0,0,1,63.8,43.16L84.768,64.125A2.438,2.438,0,0,1,84.761,67.551Zm3.515-4.493a6.558,6.558,0,0,0-1.014-1.388l-21-21a6.659,6.659,0,0,0-1.368-1A21.169,21.169,0,0,1,85.943,20.814h0a21.186,21.186,0,0,1,2.329,42.244Z"/>
    <path d="M63.09,66.035l-1.178-1.178a4.662,4.662,0,0,0-6.583,0l-5.086,5.085a4.66,4.66,0,0,0,0,6.583L51.421,77.7A4.659,4.659,0,0,0,58,77.7l5.086-5.086A4.66,4.66,0,0,0,63.09,66.035Zm-2.475,4.109-5.087,5.085a1.188,1.188,0,0,1-1.631,0h0L52.718,74.05a1.16,1.16,0,0,1,0-1.632L57.8,67.332a1.162,1.162,0,0,1,1.633,0l1.178,1.178A1.162,1.162,0,0,1,60.615,70.144Z"/>
  </g>
</svg>
