<svg xmlns="http://www.w3.org/2000/svg" width="128" height="128" viewBox="0 0 128 128">
  <title>MIRROR</title>
  <g>
    <path d="M30.64,34.987l4.9-7.946a6.414,6.414,0,0,0-9.925-7.974,6.418,6.418,0,0,0-5.325,11.572l7.936,4.917A1.752,1.752,0,0,0,30.64,34.987ZM21.191,23.648a2.9,2.9,0,0,1,3.973-.96,1.75,1.75,0,0,0,2.44-.55A2.915,2.915,0,1,1,32.566,25.2l-3.985,6.458L22.1,27.64A2.9,2.9,0,0,1,21.191,23.648Z"/>
    <path d="M108.35,24.551a5.941,5.941,0,0,0-7.131-1.419A5.978,5.978,0,0,0,93.4,32.044l5.571,6.362a1.75,1.75,0,0,0,2.472.161l6.352-5.584A5.967,5.967,0,0,0,108.35,24.551Zm-2.858,5.8-5.039,4.429-4.444-5.074a2.474,2.474,0,0,1,3.715-3.267,1.752,1.752,0,0,0,2.5.194,2.476,2.476,0,1,1,3.27,3.718Z"/>
    <path d="M96.385,44.155H88.863V41.9a24.65,24.65,0,0,0-49.3,0v2.257H32.042a5.772,5.772,0,0,0-.476,11.525v2.281A32.5,32.5,0,0,0,57.477,89.906v8.943H56.053a9.025,9.025,0,0,0-9.016,9.015V109a1.75,1.75,0,0,0,1.75,1.75H79.64A1.75,1.75,0,0,0,81.39,109v-1.137a9.026,9.026,0,0,0-9.016-9.015H70.947V89.915a32.513,32.513,0,0,0,25.92-31.954V55.68a5.772,5.772,0,0,0-.482-11.525ZM43.064,41.9a21.15,21.15,0,0,1,42.3,0V57.961a21.15,21.15,0,0,1-42.3,0Zm-13.3,8.032a2.277,2.277,0,0,1,2.274-2.275h7.522V52.2H32.042A2.276,2.276,0,0,1,29.768,49.93Zm48.088,57.321H50.571a5.523,5.523,0,0,1,5.482-4.9c17.224,0,10.535,0,16.321,0A5.523,5.523,0,0,1,77.856,107.251Zm-16.879-8.4v-8.4a32.757,32.757,0,0,0,6.47,0v8.4Zm7.938-12.116h0a29.22,29.22,0,0,1-9.4-.009h-.006A29.023,29.023,0,0,1,35.066,57.961V55.7h4.5v2.257a24.65,24.65,0,0,0,49.3,0V55.7h4.5v2.257A29.034,29.034,0,0,1,68.915,86.733ZM96.385,52.2H88.863V47.655h7.522a2.275,2.275,0,1,1,0,4.549Z"/>
    <path d="M55.445,47.017a1.738,1.738,0,0,0,.761-.175l14.1-6.831a1.751,1.751,0,0,0-1.526-3.151l-14.1,6.831a1.751,1.751,0,0,0,.764,3.326Z"/>
    <path d="M71.549,57.354l-14.1,6.831a1.75,1.75,0,0,0,1.525,3.151l14.1-6.831a1.75,1.75,0,0,0-1.525-3.151Z"/>
    <path d="M51.991,59.44,77.967,46.858a1.75,1.75,0,1,0-1.525-3.15L50.466,56.29a1.75,1.75,0,1,0,1.525,3.15Z"/>
  </g>
</svg>
