<svg xmlns="http://www.w3.org/2000/svg" width="128" height="128" viewBox="0 0 128 128">
  <title>PASTOR</title>
  <path d="M91.923,84.778,77.23,80.5V75.048a20.639,20.639,0,0,0,9.625-14.325A7.989,7.989,0,0,0,92.2,46.558c.079-.846.133-1.7.133-2.567C92.335,29.165,80.687,17.1,66.37,17.1S40.405,29.165,40.405,43.991c0,.867.055,1.724.134,2.572A7.894,7.894,0,0,0,37.61,52.73,8,8,0,0,0,45.6,60.723h.283A20.665,20.665,0,0,0,55.52,75.064v5.424L40.8,84.78a13.544,13.544,0,0,0-9.7,12.93V109a1.751,1.751,0,0,0,1.75,1.75H99.88a1.751,1.751,0,0,0,1.75-1.75V97.71A13.546,13.546,0,0,0,91.923,84.778ZM59.034,87.133l-3.183-3.095,1.091-.319a33.168,33.168,0,0,0,4.985,1.822,18.979,18.979,0,0,0,8.888,0,32.75,32.75,0,0,0,4.979-1.816l1.085.317-3.17,3.087A10.481,10.481,0,0,1,59.034,87.133Zm14.7-10.365v4.023a24.093,24.093,0,0,1-3.741,1.348,15.47,15.47,0,0,1-7.239,0,23.857,23.857,0,0,1-3.73-1.346V76.775A20.836,20.836,0,0,0,73.73,76.768ZM87.14,57.222V48.229a4.5,4.5,0,0,1,0,8.993ZM66.37,20.6c12.387,0,22.465,10.491,22.465,23.387,0,.313-.018.623-.03.934a7.977,7.977,0,0,0-1.665-.2V41.26a7.006,7.006,0,0,0-8.268-6.9,68.985,68.985,0,0,1-12.5,1.091,69.024,69.024,0,0,1-12.5-1.091,7.022,7.022,0,0,0-8.276,6.9v3.469a7.981,7.981,0,0,0-1.654.193c-.012-.31-.031-.619-.031-.931C43.905,31.1,53.983,20.6,66.37,20.6ZM41.11,52.73a4.516,4.516,0,0,1,4.48-4.5v8.993A4.5,4.5,0,0,1,41.11,52.73ZM49.1,57.342V46.479c0-.017,0-.032,0-.049V41.26A3.521,3.521,0,0,1,53.231,37.8,72.467,72.467,0,0,0,66.37,38.95,72.494,72.494,0,0,0,79.51,37.8a3.506,3.506,0,0,1,4.13,3.459l0,16.082a17.271,17.271,0,0,1-34.541,0ZM34.6,97.71a10.027,10.027,0,0,1,5.91-9.095L39.7,107.25H34.6Zm9.463-10.231,6.667-1.945V107.25H43.2Zm10.167-.136,2.364,2.3a13.988,13.988,0,0,0,8.027,3.875v1.447h-1.8a1.75,1.75,0,1,0,0,3.5h1.8v5.428a1.75,1.75,0,0,0,3.5,0V98.464H69.91a1.75,1.75,0,0,0,0-3.5H68.121V93.516a13.987,13.987,0,0,0,8.03-3.881L78.5,87.348v19.9H54.23ZM82,107.25V85.534l6.666,1.945.866,19.771Zm16.13,0H93.035L92.22,88.616a10.027,10.027,0,0,1,5.91,9.094Z"/>
</svg>
