<svg xmlns="http://www.w3.org/2000/svg" width="128" height="128" viewBox="0 0 128 128">
  <title>WEDDING</title>
  <path d="M79.71,43.29A30.872,30.872,0,0,0,63.979,47.6a31.219,31.219,0,0,0-4-2.017,4.151,4.151,0,0,0-3.152-3.824l7.189-9.023a1.751,1.751,0,0,0,.229-2.043l-4.067-7.167a1.752,1.752,0,0,0-1.523-.886H37.923a1.752,1.752,0,0,0-1.523.886l-4.067,7.167A1.752,1.752,0,0,0,32.54,32.7l7.211,9.05A4.147,4.147,0,0,0,36.6,45.575,31.026,31.026,0,1,0,63.99,101.07,31.031,31.031,0,1,0,79.71,43.29ZM38.941,26.136H57.635l2.977,5.248L52.457,41.62H44.119L35.964,31.384ZM20.75,74.33a27.605,27.605,0,0,1,18.193-25.9A1.75,1.75,0,0,0,40.1,46.78V45.77a.646.646,0,0,1,.64-.65c2.465,0,.722.005,15.09,0a.658.658,0,0,1,.65.65v1.01a1.75,1.75,0,0,0,1.151,1.644,28.026,28.026,0,0,1,3.107,1.359,30.115,30.115,0,0,0-3.395,3.065A23.081,23.081,0,0,0,48.29,51.02a23.353,23.353,0,1,0,18.1,8.664,19.6,19.6,0,0,1,3.438-2.51A27.536,27.536,0,1,1,20.75,74.33ZM54.932,55.663a30.967,30.967,0,0,0-.009,37.331A19.809,19.809,0,1,1,48.29,54.52,19.631,19.631,0,0,1,54.932,55.663ZM64,62.279A19.783,19.783,0,0,1,64,86.37a19.783,19.783,0,0,1,0-24.091Zm9.077-6.622A19.808,19.808,0,1,1,79.71,94.13a19.647,19.647,0,0,1-6.639-1.142,30.973,30.973,0,0,0,.006-37.331ZM79.71,101.87a27.41,27.41,0,0,1-12.458-3A29.7,29.7,0,0,0,70.658,95.8,23.076,23.076,0,0,0,79.71,97.63a23.353,23.353,0,1,0-18.1-8.664,19.551,19.551,0,0,1-3.438,2.51A27.532,27.532,0,1,1,79.71,101.87Z"/>
</svg>
