<svg xmlns="http://www.w3.org/2000/svg" width="128" height="128" viewBox="0 0 128 128">
  <title>RING</title>
  <g>
    <path d="M64,49.5A26.236,26.236,0,1,0,90.236,75.732,26.266,26.266,0,0,0,64,49.5Zm0,48.971A22.736,22.736,0,1,1,86.736,75.732,22.761,22.761,0,0,1,64,98.468Z"/>
    <path d="M77.04,43.234a4.466,4.466,0,0,0-3.774-4.344l8.493-10.66a1.809,1.809,0,0,0,.158-1.953L77.3,18.136a1.749,1.749,0,0,0-1.522-.886H52.225a1.749,1.749,0,0,0-1.522.886l-4.62,8.141a1.812,1.812,0,0,0,.158,1.953l8.493,10.66a4.466,4.466,0,0,0-3.774,4.344,35.02,35.02,0,1,0,26.08,0ZM56.96,28.891l2.758,9.929h-.565l-7.91-9.929Zm3.632,0h6.816L64.65,38.82h-1.3Zm10.448,0h5.717l-7.91,9.929h-.565Zm6.349-3.5H70.953l-1.609-4.64h5.412Zm-11.75-4.64,1.609,4.64h-6.5l1.609-4.64Zm-12.395,0h5.412l-1.609,4.64H50.611ZM64,107.25A31.517,31.517,0,0,1,53.3,46.086,1.748,1.748,0,0,0,54.46,44.44V43.29a.971.971,0,0,1,.97-.97H72.57a.971.971,0,0,1,.97.97v1.15A1.748,1.748,0,0,0,74.7,46.086,31.517,31.517,0,0,1,64,107.25Z"/>
    <path d="M86.924,27.143a1.751,1.751,0,0,0,1.75,1.75h3.613a1.75,1.75,0,0,0,0-3.5H88.674A1.75,1.75,0,0,0,86.924,27.143Z"/>
    <path d="M86.43,22.188a1.745,1.745,0,0,0,.674-.136l3.461-1.447a1.75,1.75,0,0,0-1.35-3.229l-3.461,1.446a1.751,1.751,0,0,0,.676,3.366Z"/>
    <path d="M85.754,35.46l3.461,1.447a1.75,1.75,0,0,0,1.35-3.23L87.1,32.231a1.75,1.75,0,0,0-1.35,3.229Z"/>
    <path d="M35.713,28.893h3.613a1.75,1.75,0,0,0,0-3.5H35.713a1.75,1.75,0,0,0,0,3.5Z"/>
    <path d="M37.435,20.605,40.9,22.052a1.75,1.75,0,0,0,1.35-3.23l-3.461-1.446a1.75,1.75,0,0,0-1.35,3.229Z"/>
    <path d="M40.9,32.231l-3.461,1.446a1.75,1.75,0,0,0,1.35,3.23l3.461-1.447a1.75,1.75,0,0,0-1.35-3.229Z"/>
  </g>
</svg>
