<svg xmlns="http://www.w3.org/2000/svg" width="128" height="128" viewBox="0 0 128 128">
  <title>SHOPPING BAG</title>
  <g>
    <path d="M64,63.3A10.632,10.632,0,0,0,50.2,79.4l12.56,12.56a1.748,1.748,0,0,0,2.474,0L77.8,79.4A10.632,10.632,0,0,0,64,63.3ZM75.322,76.923,64,88.246,52.678,76.923A7.131,7.131,0,0,1,62.763,66.838a1.8,1.8,0,0,0,2.474,0A7.131,7.131,0,0,1,75.322,76.923Z"/>
    <path d="M100.973,101.454,96.3,36.7a1.749,1.749,0,0,0-1.745-1.624H82.26a18.263,18.263,0,0,0-36.52,0H33.448A1.749,1.749,0,0,0,31.7,36.7l-4.676,64.753a8.711,8.711,0,0,0,8.682,9.332H92.291A8.71,8.71,0,0,0,100.973,101.454ZM64,20.648A14.787,14.787,0,0,1,78.76,35.077H49.24A14.787,14.787,0,0,1,64,20.648Zm28.291,86.638H35.709a5.2,5.2,0,0,1-5.191-5.58l4.558-63.129H45.723v7.757a1.75,1.75,0,0,0,3.5,0V38.577H78.777v7.757a1.75,1.75,0,0,0,3.5,0V38.577H92.924l4.558,63.129A5.2,5.2,0,0,1,92.291,107.286Z"/>
  </g>
</svg>
