<svg xmlns="http://www.w3.org/2000/svg" width="128" height="128" viewBox="0 0 128 128">
  <title>SUIT</title>
  <g>
    <path d="M102.288,58.7a1.747,1.747,0,0,0-1.063-.834L93.371,55.7q.42-1.13.856-2.286c2.533-6.743,5.4-14.386,6.425-21.6a1.749,1.749,0,0,0-.805-1.73l-12.88-8.041a4.726,4.726,0,0,0-3.615-4.416A16.861,16.861,0,0,0,79.8,17.25a17.368,17.368,0,0,0-12.02,4.92H60.22A17.368,17.368,0,0,0,48.2,17.25a16.837,16.837,0,0,0-3.547.378,4.726,4.726,0,0,0-3.62,4.417l-12.88,8.041a1.749,1.749,0,0,0-.8,1.73c1.022,7.211,3.892,14.854,6.424,21.6q.435,1.157.857,2.286l-7.854,2.165a1.75,1.75,0,0,0-1.215,2.178c.33,1.127,6.925,23.105,24.256,40.1a73.894,73.894,0,0,0,13.255,10.344,1.705,1.705,0,0,0,1.858,0A87.527,87.527,0,0,0,78.435,99.892c17.144-16.957,23.676-38.729,24-39.85A1.747,1.747,0,0,0,102.288,58.7ZM64,105.079c-14.689-29.8-16.765-45.044-17.674-64.908a16.993,16.993,0,0,0,1.874.109,17.342,17.342,0,0,0,12.021-4.93h7.558A17.342,17.342,0,0,0,79.8,40.28a16.979,16.979,0,0,0,1.874-.109C80.765,60.035,78.689,75.274,64,105.079ZM82.614,21.051a1.26,1.26,0,0,1,.876,1.269V35.2a1.253,1.253,0,0,1-.881,1.28,13.282,13.282,0,0,1-2.809.3,13.877,13.877,0,0,1-9.58-3.909v-8.22a13.9,13.9,0,0,1,9.58-3.9A13.3,13.3,0,0,1,82.614,21.051ZM66.72,31.85H61.28V25.67h5.44ZM44.51,22.32a1.26,1.26,0,0,1,.881-1.27,13.282,13.282,0,0,1,2.809-.3,13.9,13.9,0,0,1,9.58,3.9v8.22A13.877,13.877,0,0,1,48.2,36.78a13.237,13.237,0,0,1-2.818-.3A1.253,1.253,0,0,1,44.51,35.2ZM29.477,60.749l7.917-2.182a1.749,1.749,0,0,0,1.179-2.287c-.486-1.333-1-2.7-1.524-4.1-2.334-6.218-4.964-13.22-6.063-19.74L41.01,26.185V35.2a4.912,4.912,0,0,0,1.762,3.793c.873,20.35,2.657,35.613,16.74,64.868C40.54,89.611,31.671,67.064,29.477,60.749Zm39.01,43.113C82.571,74.606,84.355,59.342,85.228,38.99A4.895,4.895,0,0,0,86.99,35.2V26.185l10.024,6.258c-1.1,6.52-3.729,13.522-6.063,19.74-.524,1.4-1.038,2.764-1.524,4.1a1.749,1.749,0,0,0,1.178,2.287l7.919,2.183C96.335,67.063,87.481,89.6,68.487,103.862Z"/>
    <path d="M64,46.709a5.173,5.173,0,1,0,5.172,5.173A5.179,5.179,0,0,0,64,46.709Zm0,6.845a1.673,1.673,0,1,1,1.672-1.672A1.674,1.674,0,0,1,64,53.554Z"/>
    <path d="M64,66.86a5.173,5.173,0,1,0,5.172,5.173A5.179,5.179,0,0,0,64,66.86Zm0,6.845a1.673,1.673,0,1,1,1.672-1.672A1.674,1.674,0,0,1,64,73.705Z"/>
  </g>
</svg>
