<svg xmlns="http://www.w3.org/2000/svg" width="128" height="128" viewBox="0 0 128 128">
  <title>SUITCASE</title>
  <g>
    <path d="M64,60.914A9.034,9.034,0,0,0,52.462,74.725l10.3,10.3a1.748,1.748,0,0,0,2.474,0l10.3-10.3A9.034,9.034,0,0,0,64,60.914ZM73.064,72.25,64,81.314,54.936,72.25a5.534,5.534,0,0,1,7.827-7.826,1.75,1.75,0,0,0,2.474,0,5.534,5.534,0,0,1,7.827,7.826Z"/>
    <path d="M103.05,40.14H81.68V32.01a8.715,8.715,0,0,0-8.7-8.71H55.02a8.715,8.715,0,0,0-8.7,8.71v8.13H24.95a7.708,7.708,0,0,0-7.7,7.7V97a7.708,7.708,0,0,0,7.7,7.7h78.1a7.708,7.708,0,0,0,7.7-7.7V47.84A7.708,7.708,0,0,0,103.05,40.14ZM95.3,101.2H89.721V43.645H95.3Zm-9.079,0H41.779V43.64H86.221ZM32.7,43.645h5.579V101.2H32.7ZM56.777,33.8l14.4-.032V40.14H56.8ZM49.82,32.01a5.211,5.211,0,0,1,5.2-5.21H72.98a5.211,5.211,0,0,1,5.2,5.21v8.13h-3.5V32.01a1.751,1.751,0,0,0-.514-1.239,1.661,1.661,0,0,0-1.24-.511l-17.91.04a1.75,1.75,0,0,0-1.746,1.757L53.3,40.14H49.82ZM20.75,97V47.84a4.2,4.2,0,0,1,4.2-4.2H29.2V101.2H24.95A4.2,4.2,0,0,1,20.75,97Zm86.5,0a4.2,4.2,0,0,1-4.2,4.2H98.8V43.64h4.25a4.2,4.2,0,0,1,4.2,4.2Z"/>
  </g>
</svg>
