<svg width="128" height="128" viewBox="0 0 128 128" fill="none" xmlns="http://www.w3.org/2000/svg">
<path d="M98.3201 68.9998L111.78 77.3998C112.64 77.9798 113.78 77.7398 114.36 76.8998C114.58 76.5798 114.68 76.2198 114.68 75.8398V52.1398C114.68 51.1198 113.86 50.2798 112.84 50.2598C112.46 50.2598 112.1 50.3598 111.78 50.5798L98.3201 58.9998" stroke="black" stroke-width="4" stroke-linecap="round" stroke-linejoin="round"/>
<path d="M21 40H93V92H21V40Z" stroke="black" stroke-width="4" stroke-linecap="round" stroke-linejoin="round"/>
<path d="M88.72 94L86.64 99.16H28.08L26 94" stroke="black" stroke-width="4" stroke-linecap="round" stroke-linejoin="round"/>
<path d="M53.76 33.7402H72.1C74 33.7402 75.76 34.8002 76.66 36.4802L78.02 39.0402" stroke="black" stroke-width="4" stroke-linecap="round" stroke-linejoin="round"/>
<path d="M58.78 63.1401H77.26V71.1601H58.78V63.1401Z" stroke="black" stroke-width="4" stroke-linecap="round" stroke-linejoin="round"/>
<path d="M93 51.6802H98.32V77.8602H93" stroke="black" stroke-width="4" stroke-linecap="round" stroke-linejoin="round"/>
<circle cx="40" cy="67" r="6" stroke="black" stroke-width="4"/>
</svg>
