<svg xmlns="http://www.w3.org/2000/svg" width="128" height="128" viewBox="0 0 128 128">
  <title>WEDDING ARCH</title>
  <path d="M107.73,100.2v-2.07a4.066,4.066,0,0,0-2.62-3.791V73.6a4,4,0,0,0,2.01-3.471v-1.4a4.013,4.013,0,0,0-2.01-3.471v-3.9a41.189,41.189,0,0,0-29.079-39.3A8.2,8.2,0,0,0,64,18.628a8.313,8.313,0,0,0-5-1.376,8.176,8.176,0,0,0-7.021,4.807A41.174,41.174,0,0,0,22.89,61.36v3.906a4,4,0,0,0-2.01,3.464v1.4a4.009,4.009,0,0,0,2.01,3.477V94.339a4.068,4.068,0,0,0-2.61,3.788V100.2a4.025,4.025,0,0,0-3.03,3.892v2.64a4.025,4.025,0,0,0,4.02,4.02H38.02a4.025,4.025,0,0,0,4.02-4.02v-2.64a4.025,4.025,0,0,0-3.03-3.892V98.127a4.067,4.067,0,0,0-2.62-3.791V73.606a4.014,4.014,0,0,0,2.02-3.476v-1.4a4.012,4.012,0,0,0-1.443-3.075A31.311,31.311,0,0,0,64,44.905a31.31,31.31,0,0,0,27.035,20.75A4.009,4.009,0,0,0,89.59,68.73v1.4a4.026,4.026,0,0,0,2.02,3.483V94.332a4.059,4.059,0,0,0-2.62,3.8v2.07a4.023,4.023,0,0,0-3.025,3.89v2.64a4.025,4.025,0,0,0,4.02,4.02h16.75a4.025,4.025,0,0,0,4.02-4.02v-2.64A4.025,4.025,0,0,0,107.73,100.2Zm-4.57-31.978a.524.524,0,0,1,.46.511v1.4a.532.532,0,0,1-.518.52c-.008,0-.015,0-.022,0H93.56a.534.534,0,0,1-.47-.521v-1.4a.537.537,0,0,1,.52-.52ZM95.11,74.15h6.5V94.057h-6.5ZM92.49,98.127a.528.528,0,0,1,.536-.565c8.761,0,10.279,0,10.634,0a.571.571,0,0,1,.57.57v1.93H92.49Zm-.435-61.781A37.492,37.492,0,0,1,101.61,61.36v3.35h-6.5V61.36A31.33,31.33,0,0,0,73.755,31.83l.6-.6a8.03,8.03,0,0,0,2.35-5.257A37.8,37.8,0,0,1,92.055,36.346Zm-32.876-15.6a4.633,4.633,0,0,1,3.584,1.369,1.748,1.748,0,0,0,2.474,0,4.7,4.7,0,0,1,7.8,1.895,4.742,4.742,0,0,1-1.15,4.741L64,36.646l-7.883-7.893a4.7,4.7,0,0,1-1.133-4.762A4.657,4.657,0,0,1,59.179,20.748ZM26.39,61.36a37.678,37.678,0,0,1,24.9-35.385,8.037,8.037,0,0,0,2.351,5.253l.6.6A31.33,31.33,0,0,0,32.89,61.36v3.35h-6.5Zm8.55,36.2a.571.571,0,0,1,.57.57v1.93H23.78v-1.93a.565.565,0,0,1,.57-.57C24.2,97.557,27.293,97.559,34.94,97.557Zm-.5-29.349a.535.535,0,0,1,.47.522v1.4a.537.537,0,0,1-.52.52l-9.537-.007h0l-.025,0a.506.506,0,0,1-.445-.51v-1.4a.546.546,0,0,1,.52-.52ZM26.39,94.057V74.15h6.5V94.057Zm12.15,12.67a.527.527,0,0,1-.52.52H21.27a.527.527,0,0,1-.52-.52v-2.64a.526.526,0,0,1,.52-.53H38.02a.526.526,0,0,1,.52.53Zm-2.15-44.54V61.36a27.771,27.771,0,0,1,20.683-26.7l4.754,4.759A27.736,27.736,0,0,1,36.39,62.187ZM66.173,39.421l4.753-4.759A27.77,27.77,0,0,1,91.61,61.36v.827A27.736,27.736,0,0,1,66.173,39.421Zm41.082,67.306a.527.527,0,0,1-.52.52H89.985a.527.527,0,0,1-.52-.52v-2.64a.526.526,0,0,1,.52-.53h16.75a.526.526,0,0,1,.52.53Z"/>
</svg>
