<svg xmlns="http://www.w3.org/2000/svg" width="128" height="128" viewBox="0 0 128 128">
  <title>WEDDING CAR</title>
  <g>
    <path d="M107.45,87.353v-1.8a3.2,3.2,0,0,0,1.48-2.693V77.416a3.21,3.21,0,0,0-3.206-3.207h-1.106a20.791,20.791,0,0,0-16.7-10.373l-1.861-7.317a12.057,12.057,0,0,0-11.693-9.091,1.749,1.749,0,0,0-1.75,1.75V63.789H55.192v-4.07a4.345,4.345,0,0,0-4.34-4.34H50.3a5.8,5.8,0,0,0-5.791,5.791v2.978l-1.781.41c.342-3.513.919-10.055.983-14.65l5.392-5.4a5.919,5.919,0,0,0-7.127-9.322,5.922,5.922,0,0,0-7.142,9.318L40.2,49.891c-.056,3.994-.523,9.646-.861,13.258l-9-8.284,2.38-5.966a5.561,5.561,0,0,0-9.555-5.478,5.564,5.564,0,0,0-2.629,10.7l6.782,2.72,9.792,9.012-4.687,1.082A14.719,14.719,0,0,0,20.97,81.329v6.024a4.034,4.034,0,0,0-3.51,3.987v2.9A4.04,4.04,0,0,0,21.5,98.27h6.512a11.584,11.584,0,0,0,20.417,0h27.9a11.584,11.584,0,0,0,20.417,0H106.92a4.04,4.04,0,0,0,4.04-4.031v-2.9A4.033,4.033,0,0,0,107.45,87.353ZM37.313,38.609a2.4,2.4,0,0,1,3.388-.023,1.75,1.75,0,0,0,2.5.028,2.42,2.42,0,1,1,3.425,3.419L41.965,46.7l-4.683-4.694A2.4,2.4,0,0,1,37.313,38.609ZM20.692,48.19a2.048,2.048,0,0,1,2.639-1.158,1.751,1.751,0,0,0,2.311-.962A2.062,2.062,0,0,1,29.473,47.6L27.294,53.06l-5.493-2.2A2.047,2.047,0,0,1,20.692,48.19ZM105.43,82.569H103.3a1.387,1.387,0,0,1-1.39-1.379v-2.1a1.387,1.387,0,0,1,1.39-1.381h2.13ZM76.113,51.107a8.559,8.559,0,0,1,6.551,6.275l1.63,6.407H76.113ZM48.007,61.17A2.293,2.293,0,0,1,50.3,58.879h.554a.841.841,0,0,1,.84.84v4.07H48.007ZM24.47,81.329a11.234,11.234,0,0,1,8.744-10.984l13.245-3.056H86.54a17.322,17.322,0,0,1,14.365,7.572,4.863,4.863,0,0,0-2.5,4.229v2.1a4.89,4.89,0,0,0,4.89,4.879h.65V87.3H96.739a11.575,11.575,0,0,0-20.4,0H48.419a11.576,11.576,0,0,0-20.4,0H24.47ZM49.631,90.8h25.5a11.1,11.1,0,0,0,0,3.97H49.633a11.157,11.157,0,0,0,0-3.97ZM20.96,94.239v-2.9a.535.535,0,0,1,.54-.54h5.31a11.1,11.1,0,0,0,0,3.97H21.5A.531.531,0,0,1,20.96,94.239Zm17.26,6.64a8.09,8.09,0,1,1,8.09-8.09A8.077,8.077,0,0,1,38.22,100.879Zm48.32,0a8.09,8.09,0,1,1,8.09-8.09A8.076,8.076,0,0,1,86.54,100.879Zm20.92-6.64a.53.53,0,0,1-.54.531H97.952a11.126,11.126,0,0,0,0-3.97h8.969a.534.534,0,0,1,.54.54Z"/>
    <path d="M38.22,87.3a5.49,5.49,0,1,0,5.49,5.489A5.482,5.482,0,0,0,38.22,87.3Zm0,7.479a1.99,1.99,0,1,1,1.99-1.99A1.986,1.986,0,0,1,38.22,94.779Z"/>
    <path d="M86.545,87.3a5.49,5.49,0,1,0,5.49,5.489A5.483,5.483,0,0,0,86.545,87.3Zm0,7.479a1.99,1.99,0,1,1,1.99-1.99A1.986,1.986,0,0,1,86.545,94.779Z"/>
    <path d="M46.257,82.138a1.751,1.751,0,0,0,1.75-1.75V71.723a1.75,1.75,0,0,0-3.5,0v8.665A1.75,1.75,0,0,0,46.257,82.138Z"/>
    <path d="M54.666,74.935h1.746a1.75,1.75,0,1,0,0-3.5H54.666a1.75,1.75,0,0,0,0,3.5Z"/>
    <path d="M74.363,84.7a1.75,1.75,0,0,0,1.75-1.75V70.3a1.75,1.75,0,0,0-3.5,0V82.949A1.749,1.749,0,0,0,74.363,84.7Z"/>
  </g>
</svg>
