<svg xmlns="http://www.w3.org/2000/svg" width="128" height="128" viewBox="0 0 128 128">
  <title>WEDDING INVITATION</title>
  <g>
    <path d="M62.763,68.011a1.75,1.75,0,0,0,2.474,0L78.711,54.537A11.278,11.278,0,0,0,64,37.517a11.278,11.278,0,0,0-14.711,17.02Zm-11-26.948a7.786,7.786,0,0,1,11,0,1.75,1.75,0,0,0,2.474,0,7.777,7.777,0,1,1,11,11L64,64.3,51.763,52.062A7.787,7.787,0,0,1,51.763,41.063Z"/>
    <path d="M109.988,55.815,98.35,47.856V23.58a6.338,6.338,0,0,0-6.331-6.33H35.98a6.338,6.338,0,0,0-6.33,6.33V47.857L18.012,55.815a1.837,1.837,0,0,0-.762,1.445v46.3a7.2,7.2,0,0,0,7.19,7.19h79.12a7.2,7.2,0,0,0,7.19-7.19V57.26A1.847,1.847,0,0,0,109.988,55.815ZM105.9,57.26,98.35,62.423V52.1ZM33.15,23.58a2.833,2.833,0,0,1,2.83-2.83H92.019a2.834,2.834,0,0,1,2.831,2.83V64.82L69.961,81.846a10.482,10.482,0,0,1-11.923,0L33.15,64.82ZM29.65,52.1V62.423L22.1,57.26Zm73.91,55.153H24.44a3.694,3.694,0,0,1-3.69-3.69V60.577L56.061,84.734a13.957,13.957,0,0,0,15.877,0L107.25,60.577V103.56A3.694,3.694,0,0,1,103.56,107.25Z"/>
  </g>
</svg>
