<svg xmlns="http://www.w3.org/2000/svg" width="128" height="128" viewBox="0 0 128 128">
  <title>WEDDING BELLS</title>
  <g>
    <path d="M109.683,71.064l-4.559-1.931a26.78,26.78,0,0,1-11.33-9.085l-4.872-6.824a18.009,18.009,0,0,0-9.685-6.842A10.06,10.06,0,0,0,64,34.532,10.071,10.071,0,0,0,48.744,46.383a18,18,0,0,0-9.668,6.845l-4.87,6.819a26.778,26.778,0,0,1-11.329,9.086l-4.56,1.931a1.751,1.751,0,0,0-.335,3.035l9.362,6.688A11.352,11.352,0,0,0,45.6,93.829l9.364,6.69a1.752,1.752,0,0,0,2.752-1.188l.738-5.413a26.973,26.973,0,0,1,4.74-11.906L64,80.883l.807,1.129a26.965,26.965,0,0,1,4.739,11.9l.739,5.42a1.752,1.752,0,0,0,2.752,1.188l9.364-6.69a11.352,11.352,0,0,0,18.255-13.042l9.362-6.688a1.751,1.751,0,0,0-.335-3.035Zm-56.2-33a6.589,6.589,0,0,1,9.284,0,1.8,1.8,0,0,0,2.474,0,6.566,6.566,0,1,1,9.284,9.287L64,57.879,53.476,47.345A6.529,6.529,0,0,1,53.479,38.06ZM42.711,91.766a7.868,7.868,0,0,1-12.48-8.917ZM60.346,79.977a30.5,30.5,0,0,0-5.361,13.462l-.346,2.546C26.077,75.576,32.891,80.448,22.56,73.067l1.683-.712A30.286,30.286,0,0,0,37.054,62.081l4.869-6.817A14.519,14.519,0,0,1,50.7,49.5c.1.108.2.219.3.325l6.622,6.629A18.871,18.871,0,0,0,59.6,74.722l2.253,3.152Zm34.732,12.3a7.874,7.874,0,0,1-9.789-.515l12.48-8.917A7.883,7.883,0,0,1,95.078,92.281Zm-21.717,3.7-.347-2.553a30.5,30.5,0,0,0-5.36-13.455l-5.211-7.291a15.354,15.354,0,0,1-2.1-13.513l2.417,2.419a1.75,1.75,0,0,0,2.474,0L77,49.823c.108-.107.2-.218.3-.326a14.537,14.537,0,0,1,8.78,5.764l4.87,6.821a30.288,30.288,0,0,0,12.812,10.273l1.681.712C105.54,73,94.531,80.859,73.361,95.985Z"/>
    <path d="M85.662,37.471a1.751,1.751,0,0,0,2.049,1.388l3.548-.681a1.75,1.75,0,0,0-.66-3.438l-3.548.682A1.75,1.75,0,0,0,85.662,37.471Z"/>
    <path d="M84.878,32.436,88,30.363a1.75,1.75,0,0,0-1.934-2.916l-3.126,2.074a1.749,1.749,0,1,0,1.934,2.915Z"/>
    <path d="M86.8,42.434a1.75,1.75,0,1,0-.717,3.425l3.672.768a1.75,1.75,0,0,0,.717-3.426Z"/>
    <path d="M36.741,38.178l3.548.681a1.75,1.75,0,1,0,.66-3.437L37.4,34.74a1.75,1.75,0,1,0-.66,3.438Z"/>
    <path d="M40,30.363l3.126,2.073a1.749,1.749,0,1,0,1.934-2.915L41.93,27.447A1.75,1.75,0,0,0,40,30.363Z"/>
    <path d="M41.2,42.434l-3.672.767a1.75,1.75,0,0,0,.717,3.426l3.672-.768a1.75,1.75,0,0,0-.717-3.425Z"/>
  </g>
</svg>
