<svg xmlns="http://www.w3.org/2000/svg" width="128" height="128" viewBox="0 0 128 128">
  <title>WINE</title>
  <g>
    <path d="M71.512,77.285a6.181,6.181,0,0,0-7.5-.96,6.181,6.181,0,0,0-7.5,9.7l6.264,6.264a1.749,1.749,0,0,0,2.475,0l6.264-6.264a6.176,6.176,0,0,0,0-8.739Zm-2.475,6.264L64.01,88.576l-5.027-5.027a2.68,2.68,0,0,1,3.79-3.789,1.8,1.8,0,0,0,2.475,0,2.744,2.744,0,0,1,3.789,0h0A2.678,2.678,0,0,1,69.037,83.549Z"/>
    <path d="M110.676,96.58a8.286,8.286,0,0,0-8.23-5.9l-5.614.192L91.7,73.808A21.016,21.016,0,0,0,100.311,46.7L89.64,23.49a1.75,1.75,0,0,0-2.095-.944L64.01,29.634,40.475,22.546a1.752,1.752,0,0,0-2.095.944L27.709,46.7a21.016,21.016,0,0,0,8.616,27.105L31.188,90.871l-5.615-.192a8.306,8.306,0,0,0-8.229,5.9,1.75,1.75,0,0,0,1.172,2.18l22.236,6.694a1.751,1.751,0,0,0,2.18-1.171,8.3,8.3,0,0,0-3.6-9.464L34.54,91.88l5.13-17.042A21.02,21.02,0,0,0,61.82,56.97l2.19-14.106L66.2,56.971A21.019,21.019,0,0,0,88.35,74.838L93.48,91.88l-4.788,2.939a8.3,8.3,0,0,0-3.6,9.464,1.751,1.751,0,0,0,2.18,1.171L109.5,98.76A1.75,1.75,0,0,0,110.676,96.58ZM87.1,26.336l7.518,16.356H67.529L65.974,32.7ZM62.047,32.7l-1.555,9.994H33.405l7.519-16.356ZM39.768,101.5l-18.251-5.5a4.809,4.809,0,0,1,3.937-1.831l6.5.222L37.5,97.8A4.8,4.8,0,0,1,39.768,101.5Zm-.846-30.241a17.559,17.559,0,0,1-8.031-23.1l.905-1.969H59.952L58.361,56.433A17.547,17.547,0,0,1,38.922,71.262ZM69.66,56.434,68.069,46.192H96.224l.905,1.97a17.559,17.559,0,0,1-8.03,23.1A17.555,17.555,0,0,1,69.66,56.434ZM88.252,101.5a4.8,4.8,0,0,1,2.271-3.7l5.543-3.4,6.5-.222a4.779,4.779,0,0,1,3.937,1.831Z"/>
  </g>
</svg>
