<svg width="327" height="355" viewBox="0 0 327 355" fill="none" xmlns="http://www.w3.org/2000/svg">
<mask id="path-1-inside-1_149_26" fill="white">
<path d="M296.184 139.496C294.106 136.966 291.41 135.044 288.382 133.938C282.558 131.822 275.903 132.923 271.103 136.745L264.144 142.015C270.081 125.489 279.753 98.6669 284.362 85.8927C286.216 80.8022 285.854 75.136 283.373 70.3429C281.078 65.9073 277.244 62.7624 272.583 61.4909C270.009 60.7905 267.332 60.7497 264.734 61.2151L265.23 59.8525C267.08 54.762 266.72 49.0934 264.24 44.3003C261.941 39.8647 258.11 36.7246 253.449 35.4531C249.378 34.3496 245.017 34.7215 241.169 36.5087C238.583 37.7153 236.434 39.5265 234.721 41.6999C232.389 38.2623 229.086 35.7602 225.118 34.6783C221.05 33.57 216.683 33.9418 212.838 35.7362C208.495 37.7609 205.202 41.3497 203.563 45.8428L202.657 48.3329C200.376 45.4014 197.304 43.2976 193.717 42.3164C189.62 41.2177 185.255 41.5967 181.437 43.3839C177.133 45.3822 173.752 49.0742 172.168 53.4882L154.377 102.289L154.105 103.076V103.868C154.105 106.343 156.112 108.327 158.587 108.327C160.569 108.327 162.252 107.025 162.843 105.235L180.597 56.5372C181.384 54.3398 183.065 52.5118 185.222 51.5091C187.137 50.6071 189.332 50.4128 191.375 50.9693C193.572 51.5666 195.408 53.1019 196.539 55.2874C197.852 57.8206 198.055 60.9296 197.095 63.6164L192.961 74.9752L185.205 101.454C184.358 103.781 185.555 106.35 187.881 107.197C188.387 107.384 188.905 107.47 189.415 107.47C189.47 107.47 189.521 107.449 189.576 107.446C189.698 107.444 189.81 107.405 189.932 107.391C190.33 107.345 190.71 107.257 191.078 107.108C191.253 107.038 191.411 106.957 191.575 106.866C191.87 106.7 192.134 106.503 192.386 106.276C192.536 106.141 192.687 106.024 192.818 105.868C193.09 105.549 193.305 105.179 193.482 104.781C193.525 104.683 193.607 104.616 193.645 104.512L201.087 78.8519L205.506 66.7254C205.511 66.7086 205.512 66.6942 205.518 66.6774L211.985 48.9086C212.803 46.6656 214.451 44.8713 216.624 43.8589C218.554 42.9641 220.733 42.7746 222.759 43.3264C224.976 43.9285 226.818 45.4638 227.949 47.6492C229.262 50.1849 229.459 53.3106 228.474 56.0142L208.879 110.653C208.667 111.234 208.584 111.831 208.614 112.412C208.704 114.156 209.815 115.763 211.559 116.399C211.585 116.406 211.612 116.401 211.639 116.411C212.119 116.576 212.607 116.67 213.091 116.67C213.135 116.67 213.176 116.651 213.221 116.648C213.357 116.646 213.481 116.605 213.615 116.588C214.011 116.54 214.389 116.452 214.755 116.305C214.914 116.241 215.058 116.164 215.21 116.082C215.538 115.905 215.833 115.686 216.109 115.43C216.228 115.319 216.349 115.226 216.456 115.103C216.806 114.7 217.109 114.249 217.303 113.717L240.315 49.6835C241.136 47.4381 242.781 45.6437 244.955 44.6314C246.879 43.7342 249.057 43.5495 251.091 44.0988C253.308 44.7033 255.15 46.2386 256.28 48.4217C257.595 50.9573 257.791 54.0855 256.808 56.7891L251.041 72.6363C251.038 72.6435 251.031 72.6507 251.029 72.6579L232.133 124.094C231.499 125.836 232.015 127.719 233.294 128.909C233.721 129.307 234.232 129.626 234.812 129.837C235.318 130.022 235.834 130.108 236.345 130.108C236.388 130.108 236.429 130.089 236.475 130.089C236.614 130.084 236.738 130.043 236.875 130.026C237.266 129.978 237.643 129.892 238.005 129.746C238.168 129.681 238.315 129.604 238.468 129.52C238.792 129.343 239.082 129.127 239.356 128.875C239.478 128.762 239.603 128.666 239.711 128.542C240.061 128.139 240.363 127.688 240.555 127.157L259.459 75.7093C260.279 73.4711 261.922 71.6815 264.091 70.6716C266.017 69.772 268.198 69.5849 270.225 70.139C272.442 70.7412 274.284 72.2789 275.416 74.4643C276.728 76.9999 276.925 80.1257 275.939 82.8389L254.579 142.13C253.591 144.882 252.802 147.084 252.183 148.881C247.742 147.552 241.236 146.528 233.829 148.454C223.647 151.098 217.65 157.618 214.981 161.271C213.519 163.267 213.954 166.074 215.952 167.535C216.75 168.118 217.676 168.396 218.593 168.396C219.976 168.396 221.337 167.763 222.214 166.559C223.796 164.397 228.315 159.146 236.081 157.128C243.962 155.085 250.518 157.548 252.97 158.705C253.041 158.738 253.118 158.729 253.193 158.757C253.572 158.913 253.96 159.002 254.363 159.048C254.51 159.064 254.649 159.112 254.795 159.115C255.316 159.124 255.834 159.052 256.333 158.88C256.474 158.832 256.589 158.736 256.724 158.676C257.016 158.541 257.316 158.424 257.583 158.222L276.596 143.826C279.06 141.859 282.407 141.3 285.314 142.361C286.854 142.922 288.178 143.87 289.217 145.136C290.712 147.005 291.393 149.351 291.134 151.741C290.877 154.125 289.714 156.253 287.85 157.74L232.963 201.902C219.031 213.069 199.968 216.216 183.216 210.116C183.203 210.111 183.19 210.113 183.178 210.108C181.523 209.49 179.909 208.827 178.336 208.084L174.507 216.19C176.326 217.046 178.186 217.814 180.096 218.526L180.103 218.507C180.12 218.514 180.131 218.529 180.148 218.536C186.789 220.954 193.736 222.132 200.657 222.132C214.25 222.132 227.735 217.576 238.578 208.885L293.454 164.733C297.186 161.754 299.528 157.483 300.046 152.705C300.559 147.948 299.199 143.272 296.184 139.496Z"/>
</mask>
<path d="M296.184 139.496C294.106 136.966 291.41 135.044 288.382 133.938C282.558 131.822 275.903 132.923 271.103 136.745L264.144 142.015C270.081 125.489 279.753 98.6669 284.362 85.8927C286.216 80.8022 285.854 75.136 283.373 70.3429C281.078 65.9073 277.244 62.7624 272.583 61.4909C270.009 60.7905 267.332 60.7497 264.734 61.2151L265.23 59.8525C267.08 54.762 266.72 49.0934 264.24 44.3003C261.941 39.8647 258.11 36.7246 253.449 35.4531C249.378 34.3496 245.017 34.7215 241.169 36.5087C238.583 37.7153 236.434 39.5265 234.721 41.6999C232.389 38.2623 229.086 35.7602 225.118 34.6783C221.05 33.57 216.683 33.9418 212.838 35.7362C208.495 37.7609 205.202 41.3497 203.563 45.8428L202.657 48.3329C200.376 45.4014 197.304 43.2976 193.717 42.3164C189.62 41.2177 185.255 41.5967 181.437 43.3839C177.133 45.3822 173.752 49.0742 172.168 53.4882L154.377 102.289L154.105 103.076V103.868C154.105 106.343 156.112 108.327 158.587 108.327C160.569 108.327 162.252 107.025 162.843 105.235L180.597 56.5372C181.384 54.3398 183.065 52.5118 185.222 51.5091C187.137 50.6071 189.332 50.4128 191.375 50.9693C193.572 51.5666 195.408 53.1019 196.539 55.2874C197.852 57.8206 198.055 60.9296 197.095 63.6164L192.961 74.9752L185.205 101.454C184.358 103.781 185.555 106.35 187.881 107.197C188.387 107.384 188.905 107.47 189.415 107.47C189.47 107.47 189.521 107.449 189.576 107.446C189.698 107.444 189.81 107.405 189.932 107.391C190.33 107.345 190.71 107.257 191.078 107.108C191.253 107.038 191.411 106.957 191.575 106.866C191.87 106.7 192.134 106.503 192.386 106.276C192.536 106.141 192.687 106.024 192.818 105.868C193.09 105.549 193.305 105.179 193.482 104.781C193.525 104.683 193.607 104.616 193.645 104.512L201.087 78.8519L205.506 66.7254C205.511 66.7086 205.512 66.6942 205.518 66.6774L211.985 48.9086C212.803 46.6656 214.451 44.8713 216.624 43.8589C218.554 42.9641 220.733 42.7746 222.759 43.3264C224.976 43.9285 226.818 45.4638 227.949 47.6492C229.262 50.1849 229.459 53.3106 228.474 56.0142L208.879 110.653C208.667 111.234 208.584 111.831 208.614 112.412C208.704 114.156 209.815 115.763 211.559 116.399C211.585 116.406 211.612 116.401 211.639 116.411C212.119 116.576 212.607 116.67 213.091 116.67C213.135 116.67 213.176 116.651 213.221 116.648C213.357 116.646 213.481 116.605 213.615 116.588C214.011 116.54 214.389 116.452 214.755 116.305C214.914 116.241 215.058 116.164 215.21 116.082C215.538 115.905 215.833 115.686 216.109 115.43C216.228 115.319 216.349 115.226 216.456 115.103C216.806 114.7 217.109 114.249 217.303 113.717L240.315 49.6835C241.136 47.4381 242.781 45.6437 244.955 44.6314C246.879 43.7342 249.057 43.5495 251.091 44.0988C253.308 44.7033 255.15 46.2386 256.28 48.4217C257.595 50.9573 257.791 54.0855 256.808 56.7891L251.041 72.6363C251.038 72.6435 251.031 72.6507 251.029 72.6579L232.133 124.094C231.499 125.836 232.015 127.719 233.294 128.909C233.721 129.307 234.232 129.626 234.812 129.837C235.318 130.022 235.834 130.108 236.345 130.108C236.388 130.108 236.429 130.089 236.475 130.089C236.614 130.084 236.738 130.043 236.875 130.026C237.266 129.978 237.643 129.892 238.005 129.746C238.168 129.681 238.315 129.604 238.468 129.52C238.792 129.343 239.082 129.127 239.356 128.875C239.478 128.762 239.603 128.666 239.711 128.542C240.061 128.139 240.363 127.688 240.555 127.157L259.459 75.7093C260.279 73.4711 261.922 71.6815 264.091 70.6716C266.017 69.772 268.198 69.5849 270.225 70.139C272.442 70.7412 274.284 72.2789 275.416 74.4643C276.728 76.9999 276.925 80.1257 275.939 82.8389L254.579 142.13C253.591 144.882 252.802 147.084 252.183 148.881C247.742 147.552 241.236 146.528 233.829 148.454C223.647 151.098 217.65 157.618 214.981 161.271C213.519 163.267 213.954 166.074 215.952 167.535C216.75 168.118 217.676 168.396 218.593 168.396C219.976 168.396 221.337 167.763 222.214 166.559C223.796 164.397 228.315 159.146 236.081 157.128C243.962 155.085 250.518 157.548 252.97 158.705C253.041 158.738 253.118 158.729 253.193 158.757C253.572 158.913 253.96 159.002 254.363 159.048C254.51 159.064 254.649 159.112 254.795 159.115C255.316 159.124 255.834 159.052 256.333 158.88C256.474 158.832 256.589 158.736 256.724 158.676C257.016 158.541 257.316 158.424 257.583 158.222L276.596 143.826C279.06 141.859 282.407 141.3 285.314 142.361C286.854 142.922 288.178 143.87 289.217 145.136C290.712 147.005 291.393 149.351 291.134 151.741C290.877 154.125 289.714 156.253 287.85 157.74L232.963 201.902C219.031 213.069 199.968 216.216 183.216 210.116C183.203 210.111 183.19 210.113 183.178 210.108C181.523 209.49 179.909 208.827 178.336 208.084L174.507 216.19C176.326 217.046 178.186 217.814 180.096 218.526L180.103 218.507C180.12 218.514 180.131 218.529 180.148 218.536C186.789 220.954 193.736 222.132 200.657 222.132C214.25 222.132 227.735 217.576 238.578 208.885L293.454 164.733C297.186 161.754 299.528 157.483 300.046 152.705C300.559 147.948 299.199 143.272 296.184 139.496Z" fill="black" stroke="black" stroke-width="0.061942" mask="url(#path-1-inside-1_149_26)"/>
<path d="M125.667 247.171C132.586 247.171 139.533 245.994 146.172 243.575V243.573H146.178C179.3 231.515 196.438 194.755 184.383 161.632L178.665 145.927L154.144 78.5532C152.511 74.064 149.222 70.4789 144.878 68.4536C141.039 66.6608 136.675 66.2863 132.611 67.396C129.031 68.3738 125.959 70.4713 123.678 73.3931L123.66 73.4146L123.65 73.3882L122.746 70.9038C121.111 66.4169 117.821 62.8281 113.481 60.8052C109.645 59.0123 105.285 58.646 101.212 59.7485C97.2479 60.8294 93.9472 63.329 91.6191 66.7661L91.6074 66.7837L91.5947 66.7671C89.8825 64.5929 87.733 62.7837 85.1494 61.5806C81.4304 59.8485 77.2275 59.4427 73.2637 60.4214L72.8809 60.521C68.2244 61.7912 64.3963 64.9309 62.1006 69.3628C59.6215 74.1542 59.2607 79.816 61.1123 84.8999L61.6104 86.2671L61.6191 86.2925L61.5928 86.2876C59.1552 85.8494 56.6512 85.8586 54.2295 86.4399L53.7461 86.564L53.3115 86.688C48.8517 88.0311 45.1898 91.1095 42.9658 95.4028C40.4867 100.192 40.1256 105.856 41.9775 110.943L62.4824 167.281L62.5 167.331L62.459 167.298L55.2988 161.879C50.4083 157.989 43.7495 156.887 37.9541 159.008C34.937 160.106 32.2402 162.021 30.1172 164.605C23.9442 172.335 25.1843 183.628 32.8701 189.771L87.7676 233.938C98.6002 242.622 112.08 247.171 125.667 247.171ZM143.112 235.184C126.356 241.282 107.287 238.139 93.3652 226.976L38.4551 182.802C34.7265 179.822 34.036 174.414 36.7803 170.59L37.0566 170.225C38.139 168.911 39.4653 167.964 41.0039 167.404C43.915 166.346 47.2646 166.904 49.8242 168.932L49.8232 168.933L68.7988 183.298C70.3752 184.463 72.7173 184.458 74.2939 183.293C75.8834 182.117 76.5646 179.858 75.8887 178L50.3711 107.89C49.3851 105.183 49.5819 102.05 50.8965 99.5103C52.0296 97.3213 53.8758 95.785 56.0967 95.1792C58.1308 94.6266 60.3143 94.8137 62.2432 95.7124C64.4163 96.7265 66.0639 98.5198 66.8848 100.764L85.2783 151.304C85.4711 151.832 85.7732 152.282 86.123 152.684C86.2282 152.805 86.347 152.897 86.4658 153.006C86.7435 153.265 87.0399 153.485 87.3701 153.662C87.5174 153.741 87.6566 153.814 87.8105 153.876C88.1837 154.029 88.5711 154.12 88.9756 154.166C89.0383 154.173 89.0988 154.186 89.1582 154.198C89.218 154.209 89.2773 154.22 89.3389 154.221H89.3398C89.3645 154.223 89.3882 154.228 89.4102 154.233C89.4328 154.238 89.4541 154.243 89.4756 154.243C89.9836 154.243 90.4983 154.156 91.002 153.972C91.5815 153.762 92.0906 153.444 92.5156 153.049C93.7898 151.864 94.3042 149.987 93.6729 148.251L75.2803 97.7163L75.2773 97.7114L69.5039 81.8472C68.5199 79.1421 68.7166 76.012 70.0312 73.4702C71.1644 71.2813 73.0104 69.7449 75.2314 69.1392C77.2611 68.5841 79.4482 68.7791 81.377 69.6753C83.5534 70.6894 85.2047 72.4865 86.0244 74.731L89.4385 84.1128L89.4395 84.1138C89.4405 84.1173 89.4411 84.1215 89.4414 84.1235C89.4417 84.1255 89.4421 84.1265 89.4424 84.1274L110.544 142.107C110.737 142.637 111.04 143.087 111.39 143.489C111.494 143.608 111.612 143.7 111.729 143.809C112.009 144.07 112.308 144.289 112.641 144.468C112.785 144.547 112.922 144.62 113.073 144.679H113.074C113.45 144.834 113.84 144.925 114.247 144.973C114.309 144.979 114.368 144.992 114.427 145.003C114.486 145.015 114.544 145.025 114.604 145.028L114.604 145.029C114.629 145.029 114.653 145.034 114.676 145.039C114.699 145.043 114.72 145.047 114.741 145.047C115.249 145.047 115.764 144.961 116.268 144.777C118.586 143.933 119.78 141.371 118.938 139.054L97.835 81.0728C96.8509 78.3675 97.0483 75.2392 98.3633 72.6997C99.4964 70.5084 101.342 68.9695 103.561 68.3638C105.601 67.8135 107.782 68.0036 109.709 68.8999C111.885 69.914 113.536 71.7117 114.354 73.9585L138.878 141.334C139.51 143.075 141.109 144.182 142.849 144.268C143.027 144.278 143.206 144.254 143.387 144.219C143.477 144.202 143.568 144.182 143.659 144.162C143.75 144.141 143.841 144.12 143.933 144.102C144.046 144.079 144.16 144.074 144.271 144.065C144.382 144.055 144.493 144.041 144.602 144.002C146.049 143.474 146.98 142.253 147.327 140.861C147.362 140.721 147.41 140.585 147.451 140.449C147.492 140.312 147.526 140.175 147.533 140.032C147.563 139.453 147.479 138.858 147.269 138.277L129.228 88.7104C128.247 86.0101 128.444 82.8847 129.758 80.3452C130.891 78.1587 132.739 76.6199 134.96 76.0142C136.994 75.4567 139.179 75.6488 141.104 76.5474C143.282 77.5638 144.932 79.3593 145.75 81.606L165.677 136.349L165.685 136.371H165.683L175.99 164.685C186.362 193.185 171.615 224.81 143.119 235.183L143.113 235.168L143.119 235.184H143.112Z" fill="black" stroke="black" stroke-width="0.030971"/>
<path d="M177.337 104.495C195.392 105.032 227.006 117.879 241.04 133.749" stroke="black" stroke-width="7.49395" stroke-linecap="round"/>
<rect x="87.3157" y="24.0363" width="24.3828" height="4.98801" rx="2.49401" transform="rotate(39.7726 87.3157 24.0363)" fill="black" stroke="black" stroke-width="0.959871"/>
<rect x="122.651" y="0.570017" width="32.2357" height="4.98801" rx="2.49401" transform="rotate(77.8781 122.651 0.570017)" fill="black" stroke="black" stroke-width="0.959871"/>
<rect x="165.563" y="10.0892" width="26.2398" height="4.98801" rx="2.49401" transform="rotate(118.164 165.563 10.0892)" fill="black" stroke="black" stroke-width="0.959871"/>
<path d="M0.149653 352.415L0 247.657H24.2439V281.329C29.4817 276.54 36.6651 272.35 48.787 272.35C73.6295 272.35 86.0507 292.703 86.0507 313.056C86.0507 333.558 73.6295 353.911 48.787 353.911C38.6106 353.911 26.9376 348.224 27.6859 333.708H25.7404L22.897 352.415H0.149653ZM60.6096 313.056C60.6096 302.43 53.7256 293.75 42.5016 293.75C31.1279 293.75 24.3935 302.43 24.3935 313.056C24.3935 323.681 31.1279 332.361 42.5016 332.361C53.7256 332.361 60.6096 323.681 60.6096 313.056Z" fill="black"/>
<path d="M132.774 290.757H131.278C119.006 290.757 115.414 301.383 115.414 312.607C115.414 323.382 118.707 334.307 130.978 334.307H133.073C145.345 334.307 148.637 323.382 148.637 312.607C148.637 301.383 145.046 290.757 132.774 290.757ZM132.026 354.809C109.578 354.809 89.9733 341.191 89.9733 312.607C89.9733 284.023 109.578 272.5 132.026 272.5C154.474 272.5 174.078 284.023 174.078 312.607C174.078 341.191 154.474 354.809 132.026 354.809Z" fill="black"/>
<path d="M204.591 285.52C205.938 277.887 211.924 272.35 221.802 272.35C243.052 272.35 242.753 307.369 221.802 307.369C213.421 307.369 206.687 302.879 206.687 293.9H204.442L204.591 352.415H180.198V273.996H202.945L204.591 285.52Z" fill="black"/>
<path d="M300.96 333.708H299.015C300.661 347.326 288.09 353.911 277.913 353.911C253.071 353.911 240.65 333.558 240.65 313.056C240.65 292.703 253.071 272.35 277.913 272.35C290.035 272.35 297.219 276.54 302.457 281.329L303.953 273.996H326.551V352.415H303.803L300.96 333.708ZM266.091 313.056C266.091 323.681 272.975 332.361 284.199 332.361C295.573 332.361 302.307 323.681 302.307 313.056C302.307 302.43 295.573 293.75 284.199 293.75C272.975 293.75 266.091 302.43 266.091 313.056Z" fill="black"/>
</svg>
