<svg width="48" height="48" viewBox="0 0 48 48" fill="none" xmlns="http://www.w3.org/2000/svg">
<g clip-path="url(#clip0_575_143)">
<path d="M0 16.1C0 10.4051 0 7.55764 1.12587 5.39026C2.07462 3.56382 3.56382 2.07462 5.39026 1.12587C7.55764 0 10.4051 0 16.1 0H31.9C37.5949 0 40.4424 0 42.6097 1.12587C44.4362 2.07462 45.9254 3.56382 46.8741 5.39026C48 7.55764 48 10.4051 48 16.1V31.9C48 37.5949 48 40.4424 46.8741 42.6097C45.9254 44.4362 44.4362 45.9254 42.6097 46.8741C40.4424 48 37.5949 48 31.9 48H16.1C10.4051 48 7.55764 48 5.39026 46.8741C3.56382 45.9254 2.07462 44.4362 1.12587 42.6097C0 40.4424 0 37.5949 0 31.9V16.1Z" fill="#FC471E"/>
<path d="M40.008 24C39.9833 23.3244 39.7637 22.6704 39.3757 22.1169C38.9877 21.5633 38.4478 21.1338 37.8212 20.8801C37.1946 20.6264 36.508 20.5594 35.8442 20.6871C35.1804 20.8149 34.5677 21.1319 34.08 21.6C31.3498 19.7441 28.1404 18.7188 24.84 18.648L26.4 11.16L31.536 12.24C31.597 12.8075 31.8584 13.3348 32.2731 13.727C32.6878 14.1192 33.2288 14.3508 33.7989 14.3801C34.369 14.4094 34.9308 14.2346 35.3836 13.887C35.8364 13.5394 36.1505 13.0418 36.2695 12.4835C36.3885 11.9252 36.3046 11.3428 36.0328 10.8408C35.7611 10.3388 35.3193 9.95008 34.7868 9.74443C34.2543 9.53879 33.6659 9.52967 33.1273 9.71873C32.5887 9.90779 32.1351 10.2826 31.848 10.776L25.968 9.59998C25.8718 9.57889 25.7724 9.57709 25.6755 9.59469C25.5787 9.61229 25.4863 9.64894 25.4037 9.70252C25.3211 9.75609 25.2499 9.82553 25.1944 9.90681C25.1388 9.98808 25.0999 10.0796 25.08 10.176L23.304 18.504C19.9629 18.5544 16.7094 19.5804 13.944 21.456C13.574 21.1079 13.1327 20.8444 12.6508 20.6837C12.1688 20.5231 11.6577 20.4692 11.1529 20.5257C10.648 20.5822 10.1615 20.7479 9.72704 21.0111C9.29256 21.2744 8.92052 21.629 8.6367 22.0503C8.35288 22.4716 8.16406 22.9496 8.08334 23.4512C8.00262 23.9527 8.03191 24.4658 8.1692 24.9549C8.30649 25.444 8.54849 25.8974 8.87842 26.2837C9.20836 26.67 9.61834 26.9799 10.08 27.192C10.0529 27.5435 10.0529 27.8965 10.08 28.248C10.08 33.624 16.344 37.992 24.072 37.992C31.8 37.992 38.064 33.624 38.064 28.248C38.091 27.8965 38.091 27.5435 38.064 27.192C38.6562 26.8976 39.153 26.4417 39.4971 25.8768C39.8411 25.3119 40.0182 24.6613 40.008 24ZM16.008 26.4C16.008 25.7635 16.2608 25.153 16.7109 24.7029C17.161 24.2528 17.7714 24 18.408 24C19.0445 24 19.6549 24.2528 20.105 24.7029C20.5551 25.153 20.808 25.7635 20.808 26.4C20.808 27.0365 20.5551 27.647 20.105 28.097C19.6549 28.5471 19.0445 28.8 18.408 28.8C17.7714 28.8 17.161 28.5471 16.7109 28.097C16.2608 27.647 16.008 27.0365 16.008 26.4ZM29.952 33C28.2492 34.2832 26.1542 34.9362 24.024 34.848C21.8937 34.9362 19.7987 34.2832 18.096 33C17.9939 32.8756 17.9417 32.7178 17.9496 32.5571C17.9575 32.3964 18.0249 32.2444 18.1387 32.1307C18.2524 32.0169 18.4044 31.9496 18.5651 31.9417C18.7257 31.9338 18.8836 31.9859 19.008 32.088C20.4509 33.1464 22.2122 33.6799 24 33.6C25.7899 33.6973 27.5594 33.1809 29.016 32.136C29.0773 32.0672 29.1522 32.0118 29.2359 31.9733C29.3196 31.9347 29.4103 31.9137 29.5025 31.9117C29.5946 31.9097 29.6862 31.9266 29.7715 31.9615C29.8568 31.9964 29.934 32.0484 29.9984 32.1144C30.0627 32.1804 30.1128 32.2589 30.1455 32.3451C30.1782 32.4313 30.1928 32.5232 30.1885 32.6153C30.1841 32.7074 30.1609 32.7975 30.1202 32.8802C30.0795 32.9629 30.0222 33.0364 29.952 33.096V33ZM29.52 28.896C29.0453 28.896 28.5813 28.7552 28.1866 28.4915C27.7919 28.2278 27.4843 27.853 27.3026 27.4144C27.121 26.9759 27.0735 26.4933 27.1661 26.0278C27.2587 25.5622 27.4873 25.1346 27.8229 24.7989C28.1586 24.4633 28.5862 24.2347 29.0517 24.1421C29.5173 24.0495 29.9999 24.097 30.4384 24.2787C30.8769 24.4603 31.2518 24.7679 31.5155 25.1626C31.7792 25.5573 31.92 26.0213 31.92 26.496C31.933 26.8212 31.8798 27.1456 31.7635 27.4496C31.6472 27.7536 31.4703 28.0307 31.2436 28.2642C31.0169 28.4976 30.745 28.6826 30.4446 28.8077C30.1441 28.9328 29.8214 28.9955 29.496 28.992L29.52 28.896Z" fill="white"/>
</g>
<defs>
<clipPath id="clip0_575_143">
<rect width="48" height="48" fill="white"/>
</clipPath>
</defs>
</svg>
